<svg xmlns="http://www.w3.org/2000/svg" viewBox="0 0 33.293 33.293"><path fill="#477afb" d="M16.646 24.786c-.276 0-.5-.224-.5-.5v-11.28c0-.275.225-.5.5-.5.277 0 .5.225.5.5v11.28c0 .276-.224.5-.5.5z"/><path fill="#477afb" d="M20.96 17.82c-.13 0-.257-.05-.355-.147l-3.96-3.96-3.958 3.96c-.195.195-.512.195-.707 0s-.195-.512 0-.707l4.313-4.313c.195-.195.512-.195.707 0l4.313 4.313c.195.195.195.512 0 .707-.098.097-.226.146-.354.146z"/><path fill="#477afb" d="M27.578 33.293H5.715c-1.378 0-2.5-1.12-2.5-2.5V2.5c0-1.38 1.122-2.5 2.5-2.5h15.877c.276 0 .5.224.5.5s-.224.5-.5.5H5.715c-.827 0-1.5.673-1.5 1.5v28.293c0 .827.673 1.5 1.5 1.5h21.863c.827 0 1.5-.673 1.5-1.5V8.703c0-.275.224-.5.5-.5s.5.225.5.5v22.09c0 1.38-1.12 2.5-2.5 2.5z"/><path fill="#477afb" d="M29.578 9.204h-7.986c-.276 0-.5-.224-.5-.5V.717c0-.276.224-.5.5-.5s.5.224.5.5v7.486h7.486c.276 0 .5.224.5.5s-.223.5-.5.5z"/><path fill="#477afb" d="M29.578 9.204c-.13 0-.26-.05-.358-.15L21.234.85c-.192-.197-.188-.515.01-.707.197-.193.514-.188.707.01l7.988 8.203c.192.197.188.515-.01.707-.097.094-.223.14-.35.14z"/></svg>
