<svg xmlns="http://www.w3.org/2000/svg" width="64" height="64" viewBox="0 0 64 64"><path d="M46.355 17.98c-.78-.78-2.043-.78-2.82 0L31.94 29.57 20.35 17.98c-.78-.78-2.045-.78-2.823 0-.778.778-.778 2.042 0 2.822l11.5 11.5-11.493 11.49c-.778.778-.778 2.042 0 2.82.392.392.903.587 1.414.587.51 0 1.02-.2 1.41-.59L31.94 35.03l11.583 11.58c.39.39.9.587 1.41.587.512 0 1.024-.196 1.412-.587.78-.78.78-2.042 0-2.82L34.855 32.3l11.5-11.5c.78-.78.78-2.044 0-2.824z" fill="#d94168"/><path d="M31.94 0C14.33 0 0 14.328 0 31.94c0 17.612 14.33 31.94 31.94 31.94s31.94-14.328 31.94-31.94C63.883 14.33 49.553 0 31.94 0zm0 59.89c-15.41 0-27.948-12.538-27.948-27.948 0-15.412 12.537-27.95 27.948-27.95 15.412 0 27.95 12.538 27.95 27.95 0 15.41-12.537 27.948-27.95 27.948z" fill="#d94168"/></svg>
