<svg xmlns="http://www.w3.org/2000/svg" width="64" height="64" viewBox="0 0 64 64"><path fill="#38a53d" d="M44.567 21.17L26.653 39.393l-6.91-7.637c-.74-.82-2.006-.88-2.824-.142-.82.74-.888 2.006-.146 2.825l8.048 8.89c.368.536.98.85 1.627.85.073 0 .146-.03.22-.04.05.005.1.033.15.033.592 0 1.166-.266 1.555-.725L47.53 23.856c.743-.82.68-2.085-.14-2.826-.82-.74-2.083-.68-2.824.14z"/><path fill="#38a53d" d="M31.998 0C14.354 0 0 14.355 0 32s14.354 32 31.998 32C49.645 64 64 49.645 64 32S49.645 0 31.998 0zm0 60C16.56 60 4 47.44 4 32S16.56 4 31.998 4C47.438 4 60 16.56 60 32S47.438 60 31.998 60z"/></svg>
