<?xml version="1.0" encoding="UTF-8" standalone="no"?>
<svg
   xmlns:x="adobe:ns:meta/"
   xmlns:dc="http://purl.org/dc/elements/1.1/"
   xmlns:cc="http://creativecommons.org/ns#"
   xmlns:rdf="http://www.w3.org/1999/02/22-rdf-syntax-ns#"
   xmlns:svg="http://www.w3.org/2000/svg"
   xmlns="http://www.w3.org/2000/svg"
   xmlns:sodipodi="http://sodipodi.sourceforge.net/DTD/sodipodi-0.dtd"
   xmlns:inkscape="http://www.inkscape.org/namespaces/inkscape"
   width="13"
   height="16"
   viewBox="0 0 13 16"
   version="1.1"
   id="svg9"
   sodipodi:docname="password.svg"
   inkscape:version="0.92.1 r15371">
  <sodipodi:namedview
     pagecolor="#ffffff"
     bordercolor="#666666"
     borderopacity="1"
     objecttolerance="10"
     gridtolerance="10"
     guidetolerance="10"
     inkscape:pageopacity="0"
     inkscape:pageshadow="2"
     inkscape:window-width="1920"
     inkscape:window-height="1137"
     id="namedview11"
     showgrid="false"
     inkscape:zoom="14.75"
     inkscape:cx="6.5"
     inkscape:cy="8"
     inkscape:window-x="-8"
     inkscape:window-y="-8"
     inkscape:window-maximized="1"
     inkscape:current-layer="svg9" />
  <metadata
     id="metadata2">
<?xpacket begin="ÿ" id="W5M0MpCehiHzreSzNTczkc9d"?>    <x:xmpmeta
       x:xmptk="Adobe XMP Core 5.6-c138 79.159824, 2016/09/14-01:09:01        ">
      <metadata>
        <rdf:RDF>
          <rdf:Description
             rdf:about="" />
          <cc:Work
             rdf:about="">
            <dc:format>image/svg+xml</dc:format>
            <dc:type
               rdf:resource="http://purl.org/dc/dcmitype/StillImage" />
          </cc:Work>
        </rdf:RDF>
      </metadata>
    </x:xmpmeta>
<?xpacket end="w"?>  </metadata>
  <defs
     id="defs6">
    <style
       id="style4">
      .cls-1 {
        fill: #acb2c1;
        fill-rule: evenodd;
      }
    </style>
  </defs>

  <path
    fill="#acb2c1"
    d="M 6.6171875 0.091796875 A 4 4 0 0 0 2.5 4.0898438 L 2.5 6 L 2 6 A 2 2 0 0 0 0 8 L 0 14 A 2 2 0 0 0 2 16 L 11 16 A 2.006 2.006 0 0 0 13 14 L 13 8 A 2.006 2.006 0 0 0 11 6 L 10.5 6 L 10.5 4.0898438 A 4 4 0 0 0 6.6171875 0.091796875 z M 6.4121094 1.0917969 A 3 3 0 0 1 9.5 4.0898438 L 9.5 6 L 3.5 6 L 3.5 4.0898438 A 3 3 0 0 1 6.4121094 1.0917969 z M 2 7 L 11 7 A 1 1 0 0 1 12 8 L 12 14 A 1 1 0 0 1 11 15 L 2 15 A 1 1 0 0 1 1 14 L 1 8 A 1 1 0 0 1 2 7 z M 6.5 9 A 1 1 0 0 0 5.5 10 A 1 1 0 0 0 6 10.865234 L 6 12.5 A 0.5 0.5 0 0 0 6.5 13 A 0.508 0.508 0 0 0 7 12.5 L 7 10.865234 A 1 1 0 0 0 6.5 9 z "
     />
</svg>
