<svg xmlns="http://www.w3.org/2000/svg" viewBox="0 0 24 24"><path fill="none" d="M0 0h24v24H0z"/><path d="M3 2.8v15.7a2.9 2.9 0 0 0 2.8 2.8H7V24l2.6-1.2 2.6 1.2v-2.7H21V0H5.8A2.9 2.9 0 0 0 3 2.8zm7.8 19l-1.2-.5-1.1.5v-1.9h2.3zm8.8-1.9h-7.4v-1.4H7v1.4H5.8a1.5 1.5 0 0 1-1.4-1.4A1.5 1.5 0 0 1 5.8 17h13.8zm0-4.3H5.8a3.3 3.3 0 0 0-1.4.4V2.8a1.4 1.4 0 0 1 1.4-1.4h13.8z"/><path d="M16.7 9.2V7.8h-1.1a2.9 2.9 0 0 0-.5-1.3l.7-.8-1-1-.7.8a3.5 3.5 0 0 0-1.4-.6V3.8h-1.4v1.1a3.5 3.5 0 0 0-1.4.6l-.7-.8-1 1 .7.8a2.9 2.9 0 0 0-.5 1.3H7.3v1.4h1.1a3.4 3.4 0 0 0 .5 1.4l-.7.7 1 1 .7-.7a2.4 2.4 0 0 0 1.4.5v1.1h1.4v-1.1a2.4 2.4 0 0 0 1.4-.5l.7.7 1-1-.7-.7a3.4 3.4 0 0 0 .5-1.4zM12 10.8a2.3 2.3 0 0 1-2.3-2.3 2.3 2.3 0 0 1 4.6 0 2.3 2.3 0 0 1-2.3 2.3z"/></svg>
