<svg xmlns="http://www.w3.org/2000/svg" viewBox="0 0 64 72"><path d="M28 55.6c.036.606-3.176-1.441-4.534-1.644-2.577-.982-5.225-2.657-6.379-5.206.396-.717 4.048 3.506 4.688.4-.212-1.366-3.747-2.731-1.413-4.362 3.118-.363 3.509 2.974 1.638 4.612.104 3.484 4.288 2.59 5.525 5.125.175.35.33.711.475 1.075zm0 0c.036.606-3.176-1.441-4.534-1.644-2.577-.982-5.225-2.657-6.379-5.206.396-.717 4.048 3.506 4.688.4-.212-1.366-3.747-2.731-1.413-4.362 3.118-.363 3.509 2.974 1.638 4.612.104 3.484 4.288 2.59 5.525 5.125.175.35.33.711.475 1.075zm25.9-20c.103 1.948-1.156 4.184-.785 6.474-.817 3.008-5.401 3.053-6.2.04.918-2.343-.236-4.368-2.175-5.674-1.046-1.016-2.824-2.9-3.912-1.068-3.148.252-2.184-4.12-4.042-5.719-2.14-1.229-3.95-3.08-5.811-4.728-1.019-1.448 3.033-1.774.762-3.188-1.62-.59-3.036.302-4.392 1.097-2.483.473-3.505 3.673-6.279 3.166-1.97-.064-4.01.446-5.766 1.2-.676-1.887-2.327-3.384-2.325-5.375.09-1.154 4.096-2.43 1.289-4.161-1.31-1.012-1.453-2.709.111-2.364 2.972-.06 5.369-2.187 6.59-4.769.686-2.308 3.955-1.579 3.435.769 2.298 1.958 2.774-1.895 4.2-2.8 2.04.339 4 1.903 6.262 1.475 2.552-.429 2.01-3.675 2.438-5.625.137-1.379 2.702-.028 3.625.113 4.221 1.67 8.688 3.402 11.872 6.73 1.445 1.807-.082 5.432-2.247 5.32-1.351 1.288.843 3.8-.05 5.487 3.328 1.11-1.609 2.485-.125 4.763 1.97 2.195 1.34 5.112 2.525 7.637.212.5.735.742 1 1.2zm0 0c.103 1.948-1.156 4.184-.785 6.474-.817 3.008-5.401 3.053-6.2.04.918-2.343-.236-4.368-2.175-5.674-1.046-1.016-2.824-2.9-3.912-1.068-3.148.252-2.184-4.12-4.042-5.719-2.14-1.229-3.95-3.08-5.811-4.728-1.019-1.448 3.033-1.774.762-3.188-1.62-.59-3.036.302-4.392 1.097-2.483.473-3.505 3.673-6.279 3.166-1.97-.064-4.01.446-5.766 1.2-.676-1.887-2.327-3.384-2.325-5.375.09-1.154 4.096-2.43 1.289-4.161-1.31-1.012-1.453-2.709.111-2.364 2.972-.06 5.369-2.187 6.59-4.769.686-2.308 3.955-1.579 3.435.769 2.298 1.958 2.774-1.895 4.2-2.8 2.04.339 4 1.903 6.262 1.475 2.552-.429 2.01-3.675 2.438-5.625.137-1.379 2.702-.028 3.625.113 4.221 1.67 8.688 3.402 11.872 6.73 1.445 1.807-.082 5.432-2.247 5.32-1.351 1.288.843 3.8-.05 5.487 3.328 1.11-1.609 2.485-.125 4.763 1.97 2.195 1.34 5.112 2.525 7.637.212.5.735.742 1 1.2zM30.7 27c-.604-1.042-1.257-3.59-3.05-2.725-1.214.138-4.035 1.473-1.65 2.325 2.378-1.195.57 1.878-1 1.1-3.189.37-.68 4.547 1.245 2.181 2.629.158 2.473-2.662 4.455-2.881zm0 0c-.604-1.042-1.257-3.59-3.05-2.725-1.214.138-4.035 1.473-1.65 2.325 2.378-1.195.57 1.878-1 1.1-3.189.37-.68 4.547 1.245 2.181 2.629.158 2.473-2.662 4.455-2.881zM28 41.5c1.46-1.323.73-3.222 2.8-3.8-.611-2.604-4.018-.262-5.7-.4-1.698 1.94 2.78 2.733.588 3.95-.151 1.167 1.97 1.13 2.312.25zm0 0c1.46-1.323.73-3.222 2.8-3.8-.611-2.604-4.018-.262-5.7-.4-1.698 1.94 2.78 2.733.588 3.95-.151 1.167 1.97 1.13 2.312.25zm-7.5 1.2c.943-.824 2.215-3.974 0-2.325-.714.44-1.663 2.583 0 2.325zm0 0c.943-.824 2.215-3.974 0-2.325-.714.44-1.663 2.583 0 2.325zm7.1 9.8c2.4-.397-.981-4.106-1.625-2.1-1.698.754.666 2.347 1.625 2.1zm0 0c2.4-.397-.981-4.106-1.625-2.1-1.698.754.666 2.347 1.625 2.1zm2 9.6c3.01-.808-1.386-2.868-2.3-1.1-1.982.278-4.276 2.519-5.725 2.6 1.549.652 3.719-1.01 4.75.487.509-1.516.717-2.68 2.85-2.074l.425.087zm0 0c3.01-.808-1.386-2.868-2.3-1.1-1.982.278-4.276 2.519-5.725 2.6 1.549.652 3.719-1.01 4.75.487.509-1.516.717-2.68 2.85-2.074l.425.087zm-8.8.1c-.35 2.062-4.645.013-1.575-.512.492.033 1.264.085 1.575.512zm0 0c-.35 2.062-4.645.013-1.575-.512.492.033 1.264.085 1.575.512zM11.3 68c-2.077-.04-3.323-4.058-.338-2.575 1.466-.183 1.672 2.45.338 2.575zm0 0c-2.077-.04-3.323-4.058-.338-2.575 1.466-.183 1.672 2.45.338 2.575z"/></svg>