<svg xmlns="http://www.w3.org/2000/svg" viewBox="0 0 92 83"><defs><style>.cls-1{fill:#484848;}</style></defs><title>calendar</title><g id="Слой_2" data-name="Слой 2"><g id="Слой_1-2" data-name="Слой 1"><g id="Page-1"><g id="dripicons-v2-by-amit-jakhu"><path id="calendar" class="cls-1" d="M39.69,15H52.31a4,4,0,0,0,0-8H39.69a4,4,0,0,0,0,8ZM8,75H84V39H8ZM92,11.37V79a4,4,0,0,1-4,4H4a4,4,0,0,1-4-4V11.37A4.33,4.33,0,0,1,4,7h9.35a4,4,0,0,1,0,8H8V32H84V15H78.65a4,4,0,0,1,0-8H88a4.33,4.33,0,0,1,4,4.37ZM65,22.81a5,5,0,0,0,5-5V5A5,5,0,0,0,60,5V17.81a5,5,0,0,0,5,5Zm-43-5V5A5,5,0,0,1,32,5V17.81a5,5,0,0,1-10,0Z"/></g></g></g></g></svg>