<svg xmlns="http://www.w3.org/2000/svg" width="24" height="24" viewBox="0 0 24 24"><path fill-rule="nonzero" d="M21.188 1.875h-1.125V0h-1.875v1.875H5.813V0H3.938v1.875H2.812A2.816 2.816 0 0 0 0 4.688v16.5A2.816 2.816 0 0 0 2.813 24h18.375A2.816 2.816 0 0 0 24 21.187v-16.5a2.816 2.816 0 0 0-2.813-2.812zm.937 19.313c0 .516-.42.937-.938.937H2.813a.939.939 0 0 1-.937-.938V8.813h20.25v12.376zm0-14.25H1.875v-2.25c0-.517.42-.938.938-.938h1.124v1.875h1.876V3.75h12.375v1.875h1.875V3.75h1.125c.516 0 .937.42.937.938v2.25z"/><path d="M3.563 10.781h1.875v1.875H3.563zm3.75 0h1.875v1.875H7.313zm3.75 0h1.875v1.875h-1.875zm3.75 0h1.875v1.875h-1.875zm3.75 0h1.875v1.875h-1.875zm-15 3.75h1.875v1.875H3.563zm3.75 0h1.875v1.875H7.313zm3.75 0h1.875v1.875h-1.875zm3.75 0h1.875v1.875h-1.875zm-11.25 3.75h1.875v1.875H3.563zm3.75 0h1.875v1.875H7.313zm3.75 0h1.875v1.875h-1.875zm3.75 0h1.875v1.875h-1.875zm3.75-3.75h1.875v1.875h-1.875z"/></svg>
