<?xml version="1.0" encoding="iso-8859-1"?>
<!-- Generator: Adobe Illustrator 16.0.0, SVG Export Plug-In . SVG Version: 6.00 Build 0)  -->
<!DOCTYPE svg PUBLIC "-//W3C//DTD SVG 1.1//EN" "http://www.w3.org/Graphics/SVG/1.1/DTD/svg11.dtd">
<svg version="1.1" id="Capa_1" xmlns="http://www.w3.org/2000/svg" xmlns:xlink="http://www.w3.org/1999/xlink" x="0px" y="0px"
	 width="431.789px" height="431.789px" viewBox="0 0 431.789 431.789" style="enable-background:new 0 0 431.789 431.789;"
	 xml:space="preserve">
<g>
	<path d="M422.438,151.93H390.77c-2.412,0-4.73,0.932-6.471,2.6l-6.76,6.476c-11.395-26.366-27.742-52.439-49.822-79.432
		c-11.936-14.585-29.586-22.949-48.43-22.949H152.501c-18.846,0-36.497,8.365-48.426,22.95
		c-22.777,27.842-38.799,53.287-49.924,79.338l-6.66-6.383c-1.741-1.668-4.06-2.6-6.472-2.6H9.353c-5.166,0-9.353,4.187-9.353,9.353
		v21.651c0,4.937,3.838,9.022,8.765,9.334l32.549,2.05c-4.918,14.371-8.758,35.786-8.758,65.987
		c0,26.205,5.234,43.428,14.343,54.578v50.449c0,4.326,3.507,7.832,7.833,7.832h36.029c4.328,0,7.836-3.506,7.836-7.832v-31.328
		h234.596v31.328c0,4.326,3.508,7.832,7.834,7.832h36.029c4.326,0,7.834-3.506,7.834-7.832v-50.449
		c9.107-11.15,14.344-28.373,14.344-54.578c0-30.201-3.84-51.616-8.758-65.987l32.549-2.05c4.926-0.312,8.764-4.397,8.764-9.334
		v-21.651C431.789,156.117,427.604,151.93,422.438,151.93z M130.806,103.442c5.346-6.534,13.254-10.283,21.695-10.283h126.786
		c8.441,0,16.352,3.749,21.697,10.283c15.447,18.883,27.646,36.954,37.074,54.955l-244.543,0.046
		C102.737,140.842,115.005,122.756,130.806,103.442z M104.157,295.693c-17.933,0-32.469-5.857-32.469-20.066
		c0-14.208,5.274-25.729,23.206-25.729s41.73,11.521,41.73,25.729S122.087,295.693,104.157,295.693z M249.93,292.732h-68.069
		c-10.262,0-18.61-8.348-18.61-18.609c0-2.878,2.334-5.212,5.214-5.212h94.863c2.879,0,5.211,2.334,5.211,5.212
		C268.539,284.385,260.191,292.732,249.93,292.732z M327.633,295.693c-17.932,0-32.469-5.857-32.469-20.066
		c0-14.208,23.801-25.729,41.73-25.729c17.932,0,23.207,11.521,23.207,25.729S345.566,295.693,327.633,295.693z"/>
</g>
<g>
</g>
<g>
</g>
<g>
</g>
<g>
</g>
<g>
</g>
<g>
</g>
<g>
</g>
<g>
</g>
<g>
</g>
<g>
</g>
<g>
</g>
<g>
</g>
<g>
</g>
<g>
</g>
<g>
</g>
</svg>
