<svg xmlns="http://www.w3.org/2000/svg" viewBox="0 0 64 72"><path d="M24.1 39.3c.882 1.85-1.08 1.403-.813 3.05-.791.917-2.306-1.73-3.537.062-1.346 1.897-2.61 3.675-5.05 4.4-.891 1.242-1.661 2.867-3.1.988-.734-1.439-1.602-2.292-2.012-3.887-1.518-1.567-4.425-2.147-4.388-4.836-.014-1.383.336-3.834 2.085-3.277 2.112-.85 3.835.416 5.815.8 1.405-2.171 3.728 1.89 5.7-.113 1.918-.71 4.074-2.811 4.464.318.316.813.649 1.642.836 2.495zm-10.9 9.4c1.058-2.443 4.13-2.544 5.4-4.65-.18-2.374 4.594-2.665 3.6-1.65-1.815.25 1.406 1.828.792 3.19 1.03 2.735-3.631 4.291-1.742 7.21-.936 2.979 1.172 5.798 3.15 7.4-.713 2.345-4.129-.942-4.9-2.4-2.624-.564-1.438-3.595-3.05-4.575-1.08.12-2.311 2.932-2.587.475.627-2.726-5.027.343-2.425-2.628.468-.872 1.029-1.699 1.762-2.372zm-7-13.1c-1.61-.504-3.566-1.173-3-3.17.515-2.051-3.965-1.725-1.4-3.53 1.696-1.47-.288-3.967 2.186-5.058 1.39-1.782 2.172-4.46 5.175-3.812 2.175.208 4.242-1.66 6.452-.326 1.977.148 2.005 1.809 1.887 3.404.044 1.376-2.94 2.544-1.5 3.892 2.519.499 2.906 3.633 5.805 3.184 1.406-.267 5.149-.093 1.945 1.066-2.286 1.214-.435 4.467-3.597 4.653-2.16 1.692-4.367.63-6.453-.003-1.553 1.98-3.956-1.656-6.1-.1-.473-.025-.971.095-1.4-.2zm19-5.2c-1.846-.804-4.155.353-6.027-.752-.387-1.973-3.137-1.655-3.673-3.371.481-1.586 2.537-2.58 1.85-4.515-.632-2.749 3.53.86 4.862-1.182.98-1.183 2.037-1.999 3.288-.58 1.409-2.015-.43-6.085 3.063-6.338 1.874-.235 3.696.012 2.437 2.138-.635 2.947 2.758 3.95 4.6 2 1.918 1.798 4.182 3.933 4.7 6.7 1.49 2.38-2.805.631-2.8 3.25.058 2.28-1.309 3.14-3.428 2.878-1.008 1.746-2.653 1.53-4.38 1.172-1.967-.095-3.303.898-4.492-1.4zm15.4-4.6c-.384-2.912-2.317-5.133-4.177-7.286-1.327-1.685-4.702 2.298-5.41-1.264-.887-2.702.954-4.061 3.387-3.05 2.75 1.458 3.695-2.312 5.787-2.275 1.493 2.127 3.6-1.901 5.7.208 2.628.204 3.47 2.986 6.313 3.467.839 1.233-.902 3.654 1.469 4.48 1.585.827 3.16 2.036 4.977 2.12 1.672.723 3.638 2.155 4.354 3.9-2.166 2.019-4.341 3.776-6.49 5.806-1.568 1.972-3.818.557-5.585 1.556-2.96-.241-4.778-2.849-7.525-3.662.145-1.946-1.445-2.735-2.7-3.863l-.1-.137zm-18.3 8.9c-1.029-2.51 3.052-6.139 4.4-2.8 1.992-.555 4.17.114 6.123-.04.789-2.374 3.523-.605 4.365-2.322-.083-1.98 1.205-4.323 3.512-3.838.974 1.256 3.026 1.722 2.663 3.688C45.23 30.73 47.515 31.75 49.5 33.1c1.677.05 2.473.44.9 1.7-2.196 1.52 2.892 3.438-.4 4.2-1.545 1.417-3.577.345-5.346 1-1.61-.658-3.46.478-4.895 1.327-1.827.66-2.444 2.641-4.459 2.573-1.333 1.369-2.36 5.909-4.25 2.65-1.945-.775-3.043-3.156-3.427-4.666 2.35.123 5.128-1.095 2.977-3.284.83-1.582-2.653-1.228-2.4.5-1.553.54-3.414.4-3.3 2.3-1.47-.647-.553-3.858-2.006-5.272-.25-.456-.357-.973-.594-1.428zm36.7 12c-1.053 1.222-.975 3.186-2.388 1.413-1.842-2.702-4.963-.797-7.012-.013-1.643 2.02 1.782 3.006 2.25 4.563 1.497.775 5.544.917 4.75 3.337.773 1.756 1.014 2.908-.4 4.7-1.732.246-1.573-2.687-3.1-2.55-1.887-.078-.608-3.525-2.6-4.312-.63-3.12-3.61-2.567-5.8-3.638-1.817-.928-3.823-.951-4.3 1.4.306 2.14 2.132 3.907 3.543 5.543.96 1.452 2.36 1.665 3.757 1.857 1.026.8 2.14 1.885 2.9 2.4-2.76 1.609-5.06-1.95-7.91-1.598-2.578 1.075-.493-2.573-2.627-3.364.2-2.604.109-6.624-3.663-6.438-.977-1.192-4.879-1.08-3.387-2.945.964-1.946 2.275-3.233 4.075-3.855 1.222-1.36 3.117-2.467 4.912-2.963 1.477-.987 2.967.152 4.546-.537 1.757 1.45 4.26-2.584 4.817-.95 1.043 1.066 2.916 1.482 3.737 2.55-.16 1.543-2.768-.798-2.538 1.612-.16 2.072 3.93 4.808 4.925 2.538-.396-3.786.835.394 1.513 1.25z" clip-rule="evenodd" fill-rule="evenodd" stroke="#fff" stroke-width=".5" stroke-miterlimit="10"/></svg>
