<svg xmlns="http://www.w3.org/2000/svg" viewBox="0 0 64 72"><path d="M14 32.1c-.754.98-2.071.654-3.1 1.2-1.624-.535-4.926-1.083-4.4-3.5 1.39-1.327-.697-1.91-.4-3.4-.148 1.456-1.277.69-1.1-.5-1.586-.384-1.005-2.721-.5-3.8-.38-1.335 2.186-.415 2.2-2.1 1.917-.933 4.83-.96 5.623 1.433 2.529.803 3.05 3.738 1.377 5.567-1.077 1.898.647 3.33.3 5.1zm11 10.6c-1.262-.146-1.078 3.257-2.013 1.1-.277-.953-1.366-3.776-2.584-2.603-.459.824.334 2.1-1.4 1.63-1.252-.515-2.332-.102-3.397-.42-.926-1.347-3.795-1.694-4.106-2.207.232-1.587 1.761-2.282 2.7-3.1-1.947-1.351 1.928-2.057-.1-3.2.35-1.163 1.199-2.044 2.123-.469 1.929 1.366 2.708-1.81 4.177-1.131-.272 2.29 2.496 1.355 3.4 1.3 1.047.685.964 2.004 1.037 3.1.327 1.294-2.42 1.954-.85 3.25-.463 1.294-.268 1.996 1.013 2.75zm-9.8-10.4c-1.75.076-1.842-2.639-2-4 .439-1.142.704-4.62 2.3-2.8 2.157.97 3.351-1.246 3.538-2.988-.001-2.68 2.073-2.356 3.464-.92 1.104 1.536 2.591 2.905 2.51 4.695 1.813.64 3.732.709 5.418 1.807.341.471 3.727.764 1.97 1.106-1.358-.41-2.678 1.219-4.2 1.5-1.507.114-1.95-1.702-3.3-.5-1.249-.94-.982.76-.1 1 .756.524 1.598.026 2.31-.1.192 1.69 1.808 1.39 2.69 1.9.06.845 1.81.131 2.6 1 1.894-.536 1.432 3.217 3.138 3.137.602-1.434 2.62-.133 3.162.7-.292.62-1.708 1.3-.1 1.763 1.287.824.796 1.572-.6 1.3-1.759-1.118-3.887-1.039-5.73-2.01-1.552-.85-3.444-.849-5.07-.19-.882.282-1.834-.809-2.1-1.1-.026-1.17.092-2.31-.4-3.4-.915-1.474-3.83 1.142-3.962-1.55-1.115-1.536-2.224 2.341-4.025.938-.65-.265-1.005-.853-1.513-1.288zm9.8 5.3c.83-.101 1.034 1.24 1.937.9 1.55-.415 3.371-.846 4.875.006 1.717 1 3.757.882 5.4 1.982 1.095.702 2.047-.356 3.075.075.833 1.513 2.843-.446 2.95 1.5-.186 1.038.03 2.136 1.113 2.625 1.111.67-.699 3.743-2.25 2.212-1.292-1.881-2.143 2.077-3.038.325-.892-2.44-2.838 2.818-4.423 1.253-1.161.302-.933-2.183-1.939-.878-1.71.97-.02-1.22-1.7-.8-.525-1.111-1.106 1.393-1.413-.337-.479-.826-2.867.153-2.365-1.124.467-.549-1.695-1.642-1.76-2.614-1.511.086-1.746-1.712-1.462-2.825-1.13-.614.306-2.021 1-2.3zm36.4 14.8c.079 1.595-2.616 4.45-2.9 1.6-1.07-1.185-1.77 1.798-2.538-.4.843-2.063-3.003-2.062-2.062-3.8.32-.533-.034-.821-.112-1.537-1.321.367-.37-.106-.188-1.263-1.43.96-.176-1.237-1.437-1.3-1.04.02.551-2.178-1.475-1.513-1.32.347-2.14-.321-3.188-.587-1.263.694-2.671-.631-3.7-.5-.82-1.501 1.475-1.578.2-3.1-1.553-.551-2.174-1.355-2.9-2.7-1.805-1.142-2.525-3.29-4.2-4.3-.401-2.28-3.112-.145-3.5-2.137-1.16-.65-1.164.597-.8.837-.537.119-3.46.35-2.5-.45 1.52-1.335 4.533-.19 5-2.65 1.005-.484 2.393.08 3.3-1.1 1.663.706 3.003 2.735 2.7 4.548 1.052.997 2.447 2.639 4.048 2.852 1.677.127 2.273 3.05 4.552 2.6 1.062.962 2.894-1.01 3.5.5 1.775-.025-1.03 2.356 1.345 2.622 1.95.818-.675 1.702-.083 3.378.314 1.868.677 3.713 1.2 5.438 1.142.88 2.81 1.744 4.175 1.662 1.008.363 1.541-.605 1.063.9l.3.4c.002-.106.22-.19.2 0zm-1.8-15.3c1.058-1.652-2.418-2.108-1.8-3.9-.512-1.013-2.936-1.582-1.662-.05-.767.665-1.268 1.514.062 1.65.523.479 2.297.84.838 1.65-.176 1.145 1.832-.707 1.262.55-1.305.85 1.07-.135 1.3.1z" clip-rule="evenodd" fill-rule="evenodd" stroke="#fff" stroke-width=".5" stroke-miterlimit="8"/></svg>
