<svg xmlns="http://www.w3.org/2000/svg" width="18" height="18" viewBox="0 0 18 18">
  <metadata><?xpacket begin="﻿" id="W5M0MpCehiHzreSzNTczkc9d"?>
<x:xmpmeta xmlns:x="adobe:ns:meta/" x:xmptk="Adobe XMP Core 5.6-c138 79.159824, 2016/09/14-01:09:01        ">
   <rdf:RDF xmlns:rdf="http://www.w3.org/1999/02/22-rdf-syntax-ns#">
      <rdf:Description rdf:about=""/>
   </rdf:RDF>
</x:xmpmeta>





















<?xpacket end="w"?></metadata>

  <path d="M1018.66,1857a7.773,7.773,0,0,1-8.02-7.98,0.559,0.559,0,0,1,.56-0.56,0.568,0.568,0,0,1,.57.56,6.64,6.64,0,0,0,6.89,6.85,7.213,7.213,0,0,0,7.21-7.21,6.565,6.565,0,0,0-6.75-6.89,0.565,0.565,0,1,1,0-1.13,7.692,7.692,0,0,1,7.88,8.02A8.348,8.348,0,0,1,1018.66,1857Zm-1.78-9.56h-7.32a0.559,0.559,0,0,1-.56-0.56,7.844,7.844,0,0,1,7.88-7.88,0.559,0.559,0,0,1,.56.56v7.32A0.559,0.559,0,0,1,1016.88,1847.44Zm-6.73-1.12h6.17v-6.17A6.693,6.693,0,0,0,1010.15,1846.32Z" transform="translate(-1009 -1839)"/>
</svg>
