<svg width="100%" height="100%" viewBox="0 0 30 32" xmlns="http://www.w3.org/2000/svg"><path d="M23.217 18.133c-3.74 0-6.782 3.11-6.782 6.934 0 3.823 3.043 6.933 6.782 6.933C26.957 32 30 28.89 30 25.067s-3.043-6.934-6.783-6.934z" fill="#2FB74F" /><path d="M25.92 22.095L23 26.383l-2.06-1.729a.513.513 0 0 0-.735.075.54.54 0 0 0 .073.75l2.497 2.095a.516.516 0 0 0 .76-.107l3.241-4.762a.54.54 0 0 0-.13-.742.514.514 0 0 0-.727.132z" fill="#FFF"/><path d="M14.896 25.6v-1.067a8.602 8.602 0 0 1 .827-3.2l.598-1.066c1.505-2.252 4.034-3.734 6.896-3.734.536 0 1.058.057 1.566.156V7.78L17.173 0H.26v32h18.108a8.566 8.566 0 0 1-3.473-6.4z" fill="#DDEBE0"/><path fill="#2FB74F" d="M17.478 2.133l5.218 5.334h-5.218zM4.043 8.8h5.218c.288 0 .522.238.522.533a.527.527 0 0 1-.522.534H4.043a.527.527 0 0 1-.521-.534c0-.295.233-.533.521-.533zM3.947 13.067h10.628c.235 0 .425.238.425.533 0 .295-.19.533-.425.533H3.947c-.235 0-.425-.238-.425-.533 0-.295.19-.533.425-.533zM3.826 17.333h7.609c.168 0 .304.239.304.534 0 .295-.136.533-.304.533H3.826c-.168 0-.304-.238-.304-.533 0-.295.136-.534.304-.534z"/></svg>
