<svg xmlns="http://www.w3.org/2000/svg" width="20" height="20" viewBox="0 0 20 20"><path d="M3.38 20.03A3.2 3.2 0 0 1 1.07 19a3.928 3.928 0 0 1 0-5.41l11.2-12.31c1.75-1.81 4.42-1.65 6.38.38a5.088 5.088 0 0 1 1.34 3.59 5.26 5.26 0 0 1-1.4 3.57l-8.47 9.33a.6.6 0 0 1-.88.02.665.665 0 0 1-.03-.91l8.48-9.34a4 4 0 0 0 1.06-2.69 3.79 3.79 0 0 0-.99-2.66c-1.19-1.24-3.14-1.89-4.6-.38L1.97 14.49a2.6 2.6 0 0 0-.02 3.59 1.942 1.942 0 0 0 1.54.65 2.484 2.484 0 0 0 1.61-.83l8.92-9.81c.32-.34.97-1.16.31-1.84a.862.862 0 0 0-.73-.36 1.473 1.473 0 0 0-.83.51l-6.71 7.38a.61.61 0 0 1-.88.03.678.678 0 0 1-.03-.92l6.72-7.39a2.626 2.626 0 0 1 1.62-.9 2.058 2.058 0 0 1 1.72.73c.96 1 .84 2.47-.3 3.66L6 18.8a3.724 3.724 0 0 1-2.43 1.22 1.275 1.275 0 0 1-.19.01z"/></svg>
