<svg xmlns="http://www.w3.org/2000/svg" viewBox="0 0 20 18"><path d="M13 7.2c0-.1 0-.1 0 0l2.8-5.4s.2-.4.4 0l2.7 5.3c.1.1.2.5-.2.5h-5.5c-.3 0-.3-.3-.2-.4zm-6.1-.1c.1.2.2.5 0 .5H1c-.1 0-.1-.2 0-.3l.1-.2 2.8-5.5s.1-.2.3 0l2.7 5.5zm13 .2l-.1-.1L16.5.7c-.1-.2-.4-.7-1-.7H4.4c-.7 0-1 .7-1 .7L.1 7.1c0 .1-.2.4 0 .7.8 1.4 2.3 2.3 4 2.3S7.2 9.3 8 7.9c.1-.3-.1-.7-.1-.7l-3.1-6v-.1c0-.1-.1-.3.3-.3h4c.1 0 .4.1.4.6v14.4c0 .1-.1.4-.3.6l-2 1.3s-.5.3 0 .3h5.7c.4 0 0-.3 0-.3l-2.1-1.3c-.3-.2-.4-.5-.4-.6V1.4c0-.5.3-.5.5-.6h4c.1 0 .4 0 .2.4L12 7.3s-.1.2 0 .5c.8 1.4 2.3 2.3 4 2.3s3.2-.9 4-2.3c0-.2 0-.4-.1-.5z"/></svg>