<?xml version="1.0" encoding="UTF-8" standalone="no"?>
<!-- Generator: Adobe Illustrator 16.0.0, SVG Export Plug-In . SVG Version: 6.00 Build 0)  -->

<svg
   xmlns:dc="http://purl.org/dc/elements/1.1/"
   xmlns:cc="http://creativecommons.org/ns#"
   xmlns:rdf="http://www.w3.org/1999/02/22-rdf-syntax-ns#"
   xmlns:svg="http://www.w3.org/2000/svg"
   xmlns="http://www.w3.org/2000/svg"
   xmlns:sodipodi="http://sodipodi.sourceforge.net/DTD/sodipodi-0.dtd"
   xmlns:inkscape="http://www.inkscape.org/namespaces/inkscape"
   version="1.1"
   id="Capa_1"
   x="0px"
   y="0px"
   width="18"
   height="18"
   viewBox="0 0 18 18"
   xml:space="preserve"
   inkscape:version="0.91 r13725"
   sodipodi:docname="lawyer.svg"><metadata
     id="metadata43"><rdf:RDF><cc:Work
         rdf:about=""><dc:format>image/svg+xml</dc:format><dc:type
           rdf:resource="http://purl.org/dc/dcmitype/StillImage" /><dc:title></dc:title></cc:Work></rdf:RDF></metadata><defs
     id="defs41" /><sodipodi:namedview
     pagecolor="#ffffff"
     bordercolor="#666666"
     borderopacity="1"
     objecttolerance="10"
     gridtolerance="10"
     guidetolerance="10"
     inkscape:pageopacity="0"
     inkscape:pageshadow="2"
     inkscape:window-width="1584"
     inkscape:window-height="907"
     id="namedview39"
     showgrid="false"
     inkscape:zoom="18.00316"
     inkscape:cx="9.8675316"
     inkscape:cy="12.329369"
     inkscape:window-x="0"
     inkscape:window-y="0"
     inkscape:window-maximized="0"
     inkscape:current-layer="Capa_1" /><g
     id="g3"
     transform="matrix(0.03039348,0,0,0.03039348,-0.03094083,-0.01529292)"><g
       id="g5"><path
         d="m 402.411,283.512 c -13.79233,-13.34652 13.98635,-9.92866 21.99287,-10.22959 39.70671,0.008 79.41342,0.0191 119.12013,0.0256 15.43165,10.50567 -25.61919,26.46988 -35.53172,32.26397 -36.06804,15.43976 -77.32658,3.3213 -105.58128,-22.05998 z m -9.295,-27.435 c -17.95164,-0.97499 -2.9963,-20.11516 0.89395,-28.59545 25.01517,-47.4021 49.65088,-95.02531 74.90299,-142.289347 11.30368,-8.899007 14.58101,14.31673 20.50012,21.151507 24.00251,46.18884 48.83283,91.98659 72.31583,138.42087 4.50376,17.28096 -18.95512,9.67409 -28.88992,11.33673 -46.57432,-0.008 -93.14868,-0.0142 -139.72297,-0.0243 z M 205.766,241.98 c 11.77676,15.76695 -6.84188,15.09594 -17.34588,14.12031 C 136.10541,256.09221 83.790706,256.0841 31.476,256.076 21.323612,249.62283 36.308566,236.18328 38.810767,227.25798 64.063845,179.17365 89.316922,131.08933 114.57,83.005 c 10.42379,-6.736296 12.79057,14.30131 18.6961,20.95127 24.16663,46.00791 48.33327,92.01582 72.4999,138.02373 z m -13.175,41.451 C 159.29009,308.575 112.41193,323.21432 73.6695,301.25637 63.793221,297.3993 21.9686,271.88243 52.046583,273.263 c 47.258103,0.37029 94.765027,-0.70742 141.867277,0.57569 6.16233,1.84325 2.61951,7.79452 -1.32286,9.59231 z M 591.017,247.478 C 558.09693,183.68019 524.00552,119.74395 490.636,55.893 481.62148,35.726287 458.76847,35.754296 440.09668,36.635 335.81735,36.782605 231.52003,36.339462 127.25197,36.857151 101.03915,41.659576 95.188846,70.847718 82.954234,90.392282 55.967387,142.19223 28.286329,193.66057 1.7300625,245.6662 c -5.8823542,28.43786 26.0391905,48.03368 45.6924895,63.18091 58.896598,38.29658 144.574278,21.17212 184.675828,-36.36973 15.38769,-16.68403 -2.89002,-35.80775 -9.82658,-51.83243 -26.46608,-51.12851 -54.1931,-101.74804 -79.87663,-153.192419 5.76331,-10.437405 22.59095,-3.914228 33.4533,-5.753531 32.68975,0.373595 65.50399,-0.754167 98.11439,0.576422 14.89689,7.625566 7.73189,27.196479 9.44114,40.756328 0,129.63542 0,259.27083 0,388.90625 -2.46187,19.74928 -24.83945,24.365 -38.45678,35.04145 -12.77777,8.97291 -28.23271,14.96683 -38.76665,26.481 7.85235,6.18974 21.71173,1.82368 32.1609,3.14255 49.47076,-0.22836 98.98897,0.45838 148.42986,-0.34633 2.01078,-9.26179 -16.43523,-13.78341 -23.51595,-20.06879 -15.84393,-10.29652 -32.93394,-18.87805 -47.8831,-30.40918 -10.855,-14.02028 -4.42934,-32.94336 -6.16528,-49.42818 0,-126.25051 0,-252.50101 0,-378.75152 -0.9236,-19.681697 21.43833,-15.683908 34.41132,-15.909 33.28464,0.244733 66.62598,-0.489218 99.87523,0.366313 12.63083,7.155047 -4.15372,21.800764 -6.8895,31.525925 C 409.4267,145.31849 382.24935,197.05475 355.072,248.791 c -1.88572,28.40952 28.86068,47.7809 49.94762,62.413 60.9,36.79319 147.23774,15.76222 184.87288,-44.48523 4.86812,-5.21815 3.71123,-13.26896 1.1245,-19.24077 z"
         id="path7"
         inkscape:connector-curvature="0" /></g></g><g
     id="g9"
     transform="translate(0,-575.237)" /><g
     id="g11"
     transform="translate(0,-575.237)" /><g
     id="g13"
     transform="translate(0,-575.237)" /><g
     id="g15"
     transform="translate(0,-575.237)" /><g
     id="g17"
     transform="translate(0,-575.237)" /><g
     id="g19"
     transform="translate(0,-575.237)" /><g
     id="g21"
     transform="translate(0,-575.237)" /><g
     id="g23"
     transform="translate(0,-575.237)" /><g
     id="g25"
     transform="translate(0,-575.237)" /><g
     id="g27"
     transform="translate(0,-575.237)" /><g
     id="g29"
     transform="translate(0,-575.237)" /><g
     id="g31"
     transform="translate(0,-575.237)" /><g
     id="g33"
     transform="translate(0,-575.237)" /><g
     id="g35"
     transform="translate(0,-575.237)" /><g
     id="g37"
     transform="translate(0,-575.237)" /></svg>