<svg xmlns="http://www.w3.org/2000/svg" viewBox="0 0 64 72"><path d="M18.6 35.6c-.66.884-2.67-.682-3.5-.7-1.341-.717-2.964-.165-4.1-1.45-2.217-1.917-5.33-1.31-8-1.85-.377-1.305-2.41-1.834-.9-3.213-.737-2.305 2.633-3.373 1.9-5.887 1.312-2.685.407 2.278 1.9 2.4 2.128.53.755-3.105 1.7-4.138 1.093-2.705 2.326 1.128 1.3 2.275-.578 1.58 1.682 2.112 2.8 2.263 1.737.27 3.948.502 4.21-1.51 2.008-.446 2.176 3.608.09 3.098-.943-1.092-1.923-.485-.6.612 1.086 1.414 3.7-.157 2.9 2.2-1.348 1.724 1.644 1.354 1.125 2.9-.739.881-.62 2.282-.825 3zm0 0c-.66.884-2.67-.682-3.5-.7-1.341-.717-2.964-.165-4.1-1.45-2.217-1.917-5.33-1.31-8-1.85-.377-1.305-2.41-1.834-.9-3.213-.737-2.305 2.633-3.373 1.9-5.887 1.312-2.685.407 2.278 1.9 2.4 2.128.53.755-3.105 1.7-4.138 1.093-2.705 2.326 1.128 1.3 2.275-.578 1.58 1.682 2.112 2.8 2.263 1.737.27 3.948.502 4.21-1.51 2.008-.446 2.176 3.608.09 3.098-.943-1.092-1.923-.485-.6.612 1.086 1.414 3.7-.157 2.9 2.2-1.348 1.724 1.644 1.354 1.125 2.9-.739.881-.62 2.282-.825 3zm13.6-3.4c-.728.954-2.447 2.244-1.163 3.45.26 1.113-.648 4.89-2.087 3.263-1.303-2.227-2.23 2.336-3.25.887-1.642-.155-3.26-.685-3.536-2.35-1.683.21-2.448-1.65-3.464-1.75-.245-1.342.67-2.58.662-3.888 1.448-.366 4.221.502 6.188.113 1.288-1.151 3.018-.949 4.55.175.809.575 1.457-.283 2.1.1zm0 0c-.728.954-2.447 2.244-1.163 3.45.26 1.113-.648 4.89-2.087 3.263-1.303-2.227-2.23 2.336-3.25.887-1.642-.155-3.26-.685-3.536-2.35-1.683.21-2.448-1.65-3.464-1.75-.245-1.342.67-2.58.662-3.888 1.448-.366 4.221.502 6.188.113 1.288-1.151 3.018-.949 4.55.175.809.575 1.457-.283 2.1.1zM44 46c.192 1.626-2.867-.605-4-.5-1.79.446-3.637.836-5.4.2-2.357.38-4.56-.576-6.7-1.2-3.23.991.105-2.864-1.137-4.3.157-1.018 1.866-3.064 2.587-1.488 1.34 1.604 2.456-2.22 2.112-3.262-1.081-1.206.373-2.378 1.1-3.3.507.937 3.186-.308 3.038 2 .964 1.415 3.188.998 4.6 2.05 1.693.112 3.936.985 4.838 2.063 1.276 2.532-2.997 3.179-2.138 5.237-.017.94.99 1.46 1.1 2.5zm0 0c.192 1.626-2.867-.605-4-.5-1.79.446-3.637.836-5.4.2-2.357.38-4.56-.576-6.7-1.2-3.23.991.105-2.864-1.137-4.3.157-1.018 1.866-3.064 2.587-1.488 1.34 1.604 2.456-2.22 2.112-3.262-1.081-1.206.373-2.378 1.1-3.3.507.937 3.186-.308 3.038 2 .964 1.415 3.188.998 4.6 2.05 1.693.112 3.936.985 4.838 2.063 1.276 2.532-2.997 3.179-2.138 5.237-.017.94.99 1.46 1.1 2.5zm18.7-4.6c-1.275.802-1.972 3.02-.9 3.5-1.594.657-1 4.062-3.638 3.6-1.056.122-1.733.665-2.362-.6-1.65.403-3.038-1.374-4.863-.9-1.61.809-3.229-.93-5.05-.6-1.913.673-2.142-1.28-3-2.45-1.03-1.658.777-2.329 1.613-3.463 1.005-1.245-.981-3.283 1.531-2.878 1.362-.579 2.947-.352 4.111.424-.19.876-1.134 1.595-.142 2.067-2.286.465-1.087 5.042 1.2 4.013.97-1.858 4.552.229 4.4-2.313 1.624-.154 2.217 3.077 3.813 1.519.964-.964 2.422-1.679 3.287-1.919zm0 0c-1.275.802-1.972 3.02-.9 3.5-1.594.657-1 4.062-3.638 3.6-1.056.122-1.733.665-2.362-.6-1.65.403-3.038-1.374-4.863-.9-1.61.809-3.229-.93-5.05-.6-1.913.673-2.142-1.28-3-2.45-1.03-1.658.777-2.329 1.613-3.463 1.005-1.245-.981-3.283 1.531-2.878 1.362-.579 2.947-.352 4.111.424-.19.876-1.134 1.595-.142 2.067-2.286.465-1.087 5.042 1.2 4.013.97-1.858 4.552.229 4.4-2.313 1.624-.154 2.217 3.077 3.813 1.519.964-.964 2.422-1.679 3.287-1.919z" stroke="#fff" stroke-width=".5" stroke-miterlimit="8"/></svg>
