<svg xmlns="http://www.w3.org/2000/svg" viewBox="0 0 24 24"><defs><style>.cls-2{fill:#477afb}</style></defs><g id="Layer_2" data-name="Layer 2"><g id="Layer_1-2" data-name="Layer 1"><g id="Page-1"><g id="new.process-_help-center---1_" data-name="new.process-[help-center---1]"><g id="Group-5"><path id="Rectangle" fill="none" d="M0 0h24v24H0z"/><g id="writing"><path id="Path" class="cls-2" d="M16.6 10.3a.9.9 0 0 0-.9-.9H5.8a1 1 0 0 0-1 .9 1 1 0 0 0 1 .9h9.9a.9.9 0 0 0 .9-.9z"/><path id="Path-2" data-name="Path" class="cls-2" d="M5.8 13.1a1 1 0 0 0-1 1 1 1 0 0 0 1 .9h6a.9.9 0 0 0 .9-.9.9.9 0 0 0-.9-1z"/><path id="Path-3" data-name="Path" class="cls-2" d="M8.1 22.1H4.9a1.9 1.9 0 0 1-2-1.9V3.8a1.9 1.9 0 0 1 2-1.9h11.7a1.8 1.8 0 0 1 1.9 1.9v5.7a1.1 1.1 0 0 0 1 1 1 1 0 0 0 .9-1V3.8A3.8 3.8 0 0 0 16.6 0H4.9A3.8 3.8 0 0 0 1 3.8v16.4A3.8 3.8 0 0 0 4.9 24h3.2a.9.9 0 0 0 .9-.9.9.9 0 0 0-.9-1z"/><path id="Shape" class="cls-2" d="M22.1 13.6a2.8 2.8 0 0 0-4 0l-5.3 5.1a.8.8 0 0 0-.2.4l-1.2 3.7a.8.8 0 0 0 .3.9.9.9 0 0 0 .7.3h.2l3.9-1.1.4-.2 5.2-5.1a2.7 2.7 0 0 0 0-4zm-6.4 7.6l-1.9.5.5-1.8 3.6-3.5 1.3 1.3zm5.1-5l-.2.2-1.4-1.3.2-.2a1 1 0 0 1 1.4 0 .9.9 0 0 1 0 1.3z"/><path id="Path-4" data-name="Path" class="cls-2" d="M15.7 5.6H5.8a1 1 0 0 0-1 1 1 1 0 0 0 1 .9h9.9a.9.9 0 0 0 .9-.9.9.9 0 0 0-.9-1z"/></g></g></g></g></g></g></svg>