<svg xmlns="http://www.w3.org/2000/svg" width="18" height="18" viewBox="0 0 18 18">
  <metadata><?xpacket begin="﻿" id="W5M0MpCehiHzreSzNTczkc9d"?>
<x:xmpmeta xmlns:x="adobe:ns:meta/" x:xmptk="Adobe XMP Core 5.6-c138 79.159824, 2016/09/14-01:09:01        ">
   <rdf:RDF xmlns:rdf="http://www.w3.org/1999/02/22-rdf-syntax-ns#">
      <rdf:Description rdf:about=""/>
   </rdf:RDF>
</x:xmpmeta>
                                                                                                    
                                                                                                    
                                                                                                    
                                                                                                    
                                                                                                    
                                                                                                    
                                                                                                    
                                                                                                    
                                                                                                    
                                                                                                    
                                                                                                    
                                                                                                    
                                                                                                    
                                                                                                    
                                                                                                    
                                                                                                    
                                                                                                    
                                                                                                    
                                                                                                    
                                                                                                    
                           
<?xpacket end="w"?></metadata>
<defs>
    <style>
      .cls-1 {
        fill: #31353f;
        fill-rule: evenodd;
      }
    </style>
  </defs>
  <path id="Documents" class="cls-1" d="M1516.87,1014.75h-3.93v-1.13h3.93v-9h-4.5v-4.5h-6.18a1.121,1.121,0,0,1,1.12-1.121h6.19l4.5,4.5v10.12A1.123,1.123,0,0,1,1516.87,1014.75Zm-3.37-14.16v2.91h2.91Zm-6.65,1.78,3.84,3.85v9.65h-9.57v-13.5h5.73m0.46-1.12h-6.19a1.118,1.118,0,0,0-1.12,1.12v13.5a1.12,1.12,0,0,0,1.12,1.13h9.57a1.12,1.12,0,0,0,1.12-1.13v-10.12l-4.5-4.5h0Zm3.94,5.62h-5.06v-5.06h1.12v3.94h3.94v1.12Z" transform="translate(-1500 -999)"/>
</svg>
