<svg xmlns="http://www.w3.org/2000/svg" viewBox="0 0 64 72"><path d="M13.1 40.5c-.652-1.346-2.178-2.858-3.765-3-1.542-.551-3.213-1.232-4.434-2.4-.895-1.152.846-3.036-1.401-3.3-2.54.067-3.21-3.486-.4-3.2 2.288.468 3.486-2.267 5.7-.912 2.247.062.82-3.97 3.413-2.288 1.101 1.14 1.826-2.234 2.987.1 1.168-.084 2.15-.022 3.1.2.24-2.954 2.604.064 2.8 1.5.544 1.562 2.432.91 3.2 2.3 1.527.697-1.094 1.88-1.4 2.9-2.345.383-2.555 2.533-3.5 4-1.414 1.182-2.692 2.55-3.788 3.837-.857.124-1.68.13-2.512.263zM35 33.2c-.317 1.973-2.926-.192-3.5 2.038-.849 1.142-.246 2.095-.988 3.15 1.112 1.318.544 1.364-.712 1.512-.333 2.424-3.428 1.963-4.6 3.8-.835-1.536-1.408-3.24-.712-4.9-1.174-1.172-2.158-3.587-3.775-4.75.83-1.464 3.117-1.596 3.75-3.45 1.314-1.967 4.087-2.36 5.958-.68 1.522.824 2.72 2.1 4.092 3.08l.487.2h-.113H35zm-9.8 10.6c-1.68.43-3.987.544-4.563-1.45-.327-1.03-1.62-.681-2.537-.45-.927.92-3.529.646-3.1 2.4.596 1.264-1.65 1.14-2.3 2.3-1.182 1.28-2.91 1.783-4.537 1.1-.377-1.087-3.412-.985-1.08-1.805 1.987-1.55 3.73-3.237 5.517-4.995 1.18-.86 3.595.301 3.7-2 2.011-1.313 3.302-3.17 4-5.1 1.817 1.074 2.485 3.604 3.788 4.7-.719 1.849-.171 3.778 1.112 5.3zm-.8 7c.27-1.765.425-4.628-2-4.8-1.637-.338-4.238 2.535-3.4 4.5 1.81-.951 2.493 2.402 4.097.488.425.122 1.013.273 1.303-.188zm25.9-20c-.858 2.27-.79 4.536-.9 6.9-.176 2.118-1.985 3.36-3.744 4.15-2.002.297-2.651 2.615-4.88 1.75-1.77-.32-3.55-1.178-5.076-2.1-1.193.376-2.805.515-3.825-.55.231-.757 1.617-1.422.225-2.25-1.666-1.37-.967-4.402 1.4-4.5 1.504.708 1.457-1.235 3-.9 1.69-1.555 3.97-.679 5.7-1.9 1.532-.044 2.796.721 4.1-.5 1.451.385 2.574 1.505 4-.1zM63 28.5c.016 1.582-.937 2.866-2.35 1.788-.704.992-1.208 2.671-2.832 2.612-2.524-.137 0 3.238-1.418 4.45-.652 1.275 2.346 1.667.5 2.95 1.017 1.026-1.21 1.749-1.637 2.65-1.637.668-2.03 2.934-3.263 3.95-1.475 1.126-1.625-1.513-1.4-1.9-.625-.789-2.992-.81-4.313-.7-1.965.478-4.56-.904-1.673-2.117 1.677-.406 3.421-1.348 4.373-2.846 1.274-1.94.007-4.28.913-6.237-.64-3.173 3.98-2.46 3.45-5.563 1.235-2.291-.281-4.36-1.625-5.95-.157-1.811 2.463-1.485 3.587-2.262 2.55.187 4.215 1.984 6.263 3.288.604 1.943.679 4.018 1.425 5.887z" clip-rule="evenodd" fill-rule="evenodd" stroke="#fff" stroke-width=".5" stroke-miterlimit="8"/></svg>
