<svg xmlns="http://www.w3.org/2000/svg" viewBox="0 0 120 120" fill="none"><path fill-rule="evenodd" clip-rule="evenodd" d="M60 120c33.137 0 60-26.863 60-60S93.137 0 60 0 0 26.863 0 60s26.863 60 60 60z" fill="#F3F5F9"/><path fill-rule="evenodd" clip-rule="evenodd" d="M45.366 46.83a5.854 5.854 0 1 0 0-11.708 5.854 5.854 0 0 0 0 11.707zM74.634 46.83a5.854 5.854 0 1 0 0-11.708 5.854 5.854 0 0 0 0 11.707z" fill="#8891A6"/><path d="M77.592 63.111a2 2 0 0 0-.914.18s-8.036 3.476-16.682 3.49c-8.646.015-16.766-3.435-16.766-3.435a2 2 0 1 0-1.582 3.674s8.655 3.778 18.356 3.761c9.7-.016 18.281-3.828 18.281-3.828a2 2 0 0 0-.693-3.842z" fill="#8891a6"/></svg>
