<svg xmlns="http://www.w3.org/2000/svg" viewBox="0 0 120 120" fill="none"><path fill-rule="evenodd" clip-rule="evenodd" d="M60 120c33.137 0 60-26.863 60-60S93.137 0 60 0 0 26.863 0 60s26.863 60 60 60z" fill="#C4D9FC"/><path d="M77.563 62.373a2 2 0 0 0-1.409.52s-8.053 6.863-16.158 6.877c-8.106.013-16.24-6.825-16.24-6.825a2 2 0 1 0-2.633 3.012s8.64 7.83 18.88 7.813c10.243-.018 18.804-7.883 18.804-7.883a2 2 0 0 0-1.245-3.514zM76.098 34.586c-4.726 0-7.453 3.727-7.453 3.727a2 2 0 1 0 3.199 2.4s1.662-2.127 4.254-2.127c2.591 0 4.254 2.127 4.254 2.127a2 2 0 1 0 3.199-2.4s-2.728-3.727-7.453-3.727zM45.365 34.586c-4.725 0-7.453 3.727-7.453 3.727a2 2 0 1 0 3.2 2.4s1.661-2.127 4.253-2.127 4.254 2.127 4.254 2.127a2 2 0 1 0 3.201-2.4s-2.73-3.727-7.455-3.727z" fill="#2158b5"/></svg>
