<svg xmlns="http://www.w3.org/2000/svg" viewBox="0 0 120 120" fill="none"><path d="M42.438 71.769s8.308-7.363 17.481-7.379c9.174-.015 17.561 7.317 17.561 7.317" stroke="#31353F" stroke-width="1.463" stroke-linecap="round"/><path fill-rule="evenodd" clip-rule="evenodd" d="M60 120c33.137 0 60-26.863 60-60S93.137 0 60 0 0 26.863 0 60s26.863 60 60 60z" fill="#E1C1E6"/><path fill-rule="evenodd" clip-rule="evenodd" d="M45.366 46.83a5.854 5.854 0 1 0 0-11.708 5.854 5.854 0 0 0 0 11.707zM74.634 46.83a5.854 5.854 0 1 0 0-11.708 5.854 5.854 0 0 0 0 11.707z" fill="#701381"/><path d="M59.916 62.39c-10.242.018-18.805 7.881-18.805 7.881a2 2 0 0 0 2.655 2.995s8.05-6.862 16.156-6.875c8.106-.014 16.242 6.822 16.242 6.822a2 2 0 1 0 2.633-3.012s-8.64-7.828-18.881-7.81z" fill="#701381"/></svg>
