<svg xmlns="http://www.w3.org/2000/svg" viewBox="0 0 120 120" fill="none"><path fill-rule="evenodd" clip-rule="evenodd" d="M60 120c33.137 0 60-26.863 60-60S93.137 0 60 0 0 26.863 0 60s26.863 60 60 60z" fill="#C0ECCB"/><path fill-rule="evenodd" clip-rule="evenodd" d="M83.415 57.073S72.573 81.936 61.463 81.951c-11.11.016-21.95-24.878-21.95-24.878h43.902z" fill="#167C2E" stroke="#167C2E" stroke-width="4" stroke-linecap="round" stroke-linejoin="round"/><path d="M76.098 34.586c-4.726 0-7.453 3.727-7.453 3.727a2 2 0 1 0 3.199 2.4s1.662-2.127 4.254-2.127c2.591 0 4.254 2.127 4.254 2.127a2 2 0 1 0 3.199-2.4s-2.728-3.727-7.453-3.727zM45.365 34.586c-4.725 0-7.453 3.727-7.453 3.727a2 2 0 1 0 3.2 2.4s1.661-2.127 4.253-2.127 4.254 2.127 4.254 2.127a2 2 0 1 0 3.201-2.4s-2.73-3.727-7.455-3.727z" fill="#167c2e"/><path fill-rule="evenodd" clip-rule="evenodd" d="M49.756 70.244s5.854 8.78 11.708 8.78c5.853 0 11.707-8.78 11.707-8.78s-5.122-2.927-11.707-2.927c-6.586 0-11.708 2.927-11.708 2.927z" fill="#A4E4B3" stroke="#A4E4B3" stroke-width=".5" stroke-linejoin="round"/></svg>
