<svg xmlns="http://www.w3.org/2000/svg" viewBox="0 0 120 120" fill="none"><path fill-rule="evenodd" clip-rule="evenodd" d="M60 120c33.137 0 60-26.863 60-60S93.137 0 60 0 0 26.863 0 60s26.863 60 60 60z" fill="#F9C5D5"/><path  d="M59.916 60.928c-10.242.017-18.805 7.88-18.805 7.88a2 2 0 1 0 2.655 2.995s8.05-6.862 16.156-6.875c8.106-.014 16.242 6.822 16.242 6.822a2 2 0 1 0 2.633-3.012s-8.64-7.828-18.881-7.81z" fill="#b8214f"/><path d="M73.17 43.902l8.78-8.78" stroke="#B8214F" stroke-width="4" stroke-linecap="round"/><path  d="M73.148 33.102a2 2 0 0 0-1.392 3.433l8.78 8.781a2 2 0 1 0 2.83-2.828l-8.782-8.781a2 2 0 0 0-1.436-.605zM46.79 33.102a2 2 0 0 0-1.376.605l-8.78 8.781a2 2 0 1 0 2.829 2.828l8.78-8.78a2 2 0 0 0-1.454-3.434z" fill="#b8214f"/><path d="M38.048 35.122l8.78 8.78" stroke="#B8214F" stroke-width="4" stroke-linecap="round"/></svg>
