<svg xmlns="http://www.w3.org/2000/svg" viewBox="0 0 64 72"><path d="M52.3 27c.174 3.569-2.627 6.238-4.35 9.063-.671 1.183-.217 2.63-.35 3.937 1.264 2.915-4.65 1.544-3.963 4.763-.583 2.223-.966 3.11-3.237 3.137-1.746 1.52-4.104.983-6.127.531-.459 1.726-3.168 2.717-4.11 3.107-.067-2.07-.081-4.3-.772-6.349-1.413-2.592-4.447-4.039-4.666-7.214-.444-2.363-2.394-4.185-2.225-6.637.694-2.446-4.827-2.137-2.2-3.938.578-3.157-3.779-3.78-3.125-6.85 1.38-1.942 3.724-3.448 5.525-5.15 2.196.491 4.635.874 6.669-.705 1.385-2.23 1.12-5.316 2.014-7.825.4-1.955 2.95-2.693 2.617-4.97 1.966.7 1.001 5.086 3.7 4.7.668-1.984 3.634-2.88 3.4-.01-1.049 2.266 1.22 3.161 2.6 4.41-3.152 1.385-2.556 5.516.2 6.8 1.261 2.553.75 5.928 2.8 7.8 1.757.483 3.738.049 5.325.963L52.3 27zM30.7 51.7c-1.734.141-3.36-2.385-4.3.5.205 2.873-4.252.657-5.8.8-2.45-.355-5.434-.69-6.252-3.528.645-2.097-1.51-2.573-1.348-4.372 2.616-.59-1.007-2.384 1-3.5-1.25-.94-4.842-.35-3.4-2.9 3.18-2.87-2.04-3.12-3.3-5.1-1.508.365-2.688-.252-.7-.988 2.425-.576 4.99 3.577 7.06.915 2.798-.961 1.73-4.553 3.54-5.727 1.609 1.168 4.846.58 5.4 3.545-.268 2.308 1.57 3.997 2.04 6.168.333 3.26 2.88 5.045 4.76 7.487.587 2.035 1.017 4.176.7 6.3l.337.163.263.237zm0 .1c.701-1.473 3.562-1.029 3.6-3.3 2.142.141 4.559 1.11 6.4-.6 3.991-1.576.813 3.312-.866 4.266-1.567 1.14-1.946 3.106-2.723 4.73-.915 2.535-4.658 3.134-4.486 5.967-.707 1.164-2.628 1.188-2.013 2.987 1.381.64 3.046 2.003 1.188 3.45-1.554.4-1.447-.453-1.8-1.6-1.5-1.41.132-4.615-2.7-5.5-2.822-1.434-3.433-4.968-5.938-6.7.095-1.441-.7-3.12 1.538-2.3 1.89.32 4.077.938 3.9-1.7 1.4-2.568 2.348.711 3.9.3zm12.1-4c.876-2.316.847-5.789 4-5.7 2.109-3.207 2.113 1.914 3.538 3.25.143 3.175 3.084 3.952 5.662 4.05 1.056 1.49 1.657 3.836 1.75 5.5-2.504.635-2.564 2.767-1.35 4.6-1.544-.18-2.963.224-4.3 1-1.754.713-3.37 1.938-5.017.5-2.808-.595-2.133 4.416-4.428 3.1-.887 1.365-1.917 2.572-3.255.7-1.197.287-4.305-3.683-3.9-.355-1.76 1.429-.81-2.903-2.172-3.345 1.078-1.478 4.269-3.656 4.572-6.4.99-2.737 4.419-3.87 4.9-6.9z" clip-rule="evenodd" fill-rule="evenodd" stroke="#fff" stroke-width=".5" stroke-miterlimit="8"/></svg>
