<?xml version="1.0" encoding="utf-8"?>
<!-- Generator: Adobe Illustrator 20.1.0, SVG Export Plug-In . SVG Version: 6.00 Build 0)  -->
<svg version="1.1" id="Layer_1" xmlns="http://www.w3.org/2000/svg" xmlns:xlink="http://www.w3.org/1999/xlink" x="0px" y="0px"
	 viewBox="0 0 512 512" style="enable-background:new 0 0 512 512;" xml:space="preserve">
<style type="text/css">
	.st0{fill:#484848;}
</style>
<g>
	<g>
		<path class="st0" d="M319.3,341.3c-14.6,8.5-31.3,13-48.3,13c-53.2,0-96.5-43.3-96.5-96.5s43.3-96.5,96.5-96.5
			c17,0,33.7,4.5,48.3,13c7.7,4.4,17.4,1.8,21.9-5.8c4.4-7.6,1.8-17.4-5.8-21.9c-19.5-11.3-41.8-17.3-64.4-17.3
			c-70.8,0-128.5,57.6-128.5,128.5S200.2,386.3,271,386.3c22.6,0,44.9-6,64.4-17.4c7.6-4.4,10.2-14.2,5.8-21.9
			C336.8,339.4,327,336.8,319.3,341.3z"/>
	</g>
</g>
<g>
	<g>
		<path class="st0" d="M256,208H128c-8.8,0-16,7.2-16,16s7.2,16,16,16h128c8.8,0,16-7.2,16-16S264.8,208,256,208z"/>
	</g>
</g>
<g>
	<g>
		<path class="st0" d="M256,272H128c-8.8,0-16,7.2-16,16s7.2,16,16,16h128c8.8,0,16-7.2,16-16S264.8,272,256,272z"/>
	</g>
</g>
<g>
	<g>
		<path class="st0" d="M256,0C114.8,0,0,114.8,0,256s114.8,256,256,256s256-114.8,256-256S397.2,0,256,0z M256,480
			C132.5,480,32,379.5,32,256S132.5,32,256,32s224,100.5,224,224S379.5,480,256,480z"/>
	</g>
</g>
</svg>
