<svg width="100%" height="100%" viewBox="0 0 21 20"><path d="M11.114 8.971H8.6v2.915h2.514v7.428h-.057-9.143c-.171 0-.343-.057-.514-.114-.343-.171-.514-.514-.571-.914v-.057V1.257c0-.171.057-.4.114-.571.228-.343.514-.572.914-.572h17.086c.286 0 .514.057.686.229.228.228.4.457.4.8V18.17c0 .172 0 .286-.058.4-.171.4-.571.686-.971.686h-4.857v-7.429H16.714c.058-.057.4-2.8.4-2.914h-2.857v-.057-1.886c0-.171 0-.342.057-.514.115-.4.343-.628.743-.743.172-.057.343-.057.572-.057h1.657V3.086c-.114 0-.229 0-.343-.057-.4 0-.857-.058-1.257-.058h-.915c-.685 0-1.314.172-1.885.515-.686.4-1.086.971-1.372 1.657-.114.343-.171.686-.228 1.028 0 .229-.057.4-.057.629v2.057c-.115.057-.115.114-.115.114z"/></svg>
