<?xml version="1.0" encoding="UTF-8" standalone="no"?>
<!-- Generator: Adobe Illustrator 19.0.0, SVG Export Plug-In . SVG Version: 6.00 Build 0)  -->

<svg
   xmlns:dc="http://purl.org/dc/elements/1.1/"
   xmlns:cc="http://creativecommons.org/ns#"
   xmlns:rdf="http://www.w3.org/1999/02/22-rdf-syntax-ns#"
   xmlns:svg="http://www.w3.org/2000/svg"
   xmlns="http://www.w3.org/2000/svg"
   xmlns:sodipodi="http://sodipodi.sourceforge.net/DTD/sodipodi-0.dtd"
   xmlns:inkscape="http://www.inkscape.org/namespaces/inkscape"
   version="1.1"
   id="Layer_1"
   x="0px"
   y="0px"
   viewBox="0 0 16 16"
   xml:space="preserve"
   sodipodi:docname="facebook.svg"
   width="100%"
   height="100%"
   inkscape:version="0.92.1 r15371"><metadata
     id="metadata39"><rdf:RDF><cc:Work
         rdf:about=""><dc:format>image/svg+xml</dc:format><dc:type
           rdf:resource="http://purl.org/dc/dcmitype/StillImage" /><dc:title></dc:title></cc:Work></rdf:RDF></metadata><defs
     id="defs37" /><sodipodi:namedview
     pagecolor="#ffffff"
     bordercolor="#666666"
     borderopacity="1"
     objecttolerance="10"
     gridtolerance="10"
     guidetolerance="10"
     inkscape:pageopacity="0"
     inkscape:pageshadow="2"
     inkscape:window-width="1920"
     inkscape:window-height="1137"
     id="namedview35"
     showgrid="false"
     inkscape:zoom="24.36129"
     inkscape:cx="5.2348176"
     inkscape:cy="11.355876"
     inkscape:window-x="-8"
     inkscape:window-y="-8"
     inkscape:window-maximized="1"
     inkscape:current-layer="Layer_1" /><g
     id="XMLID_834_"
     transform="matrix(0.0516129,0,0,0.0516129,-2.530645e-5,5e-7)"><path
       id="XMLID_835_"
       d="m 81.703,165.106 h 33.981 V 305 c 0,2.762 2.238,5 5,5 H 178.3 c 2.762,0 5,-2.238 5,-5 V 165.765 h 39.064 c 2.54,0 4.677,-1.906 4.967,-4.429 l 5.933,-51.502 c 0.163,-1.417 -0.286,-2.836 -1.234,-3.899 -0.949,-1.064 -2.307,-1.673 -3.732,-1.673 H 183.302 V 71.978 c 0,-9.732 5.24,-14.667 15.576,-14.667 1.473,0 29.42,0 29.42,0 2.762,0 5,-2.239 5,-5 V 5.037 c 0,-2.762 -2.238,-5 -5,-5 H 187.753 C 187.467,0.023 186.832,0 185.896,0 178.861,0 154.408,1.381 135.092,19.151 113.69,38.843 116.665,62.421 117.376,66.509 v 37.752 H 81.703 c -2.762,0 -5,2.238 -5,5 v 50.844 c 0,2.762 2.238,5.001 5,5.001 z"
       inkscape:connector-curvature="0" /></g><g
     id="g4"
     transform="translate(0,-294)" /><g
     id="g6"
     transform="translate(0,-294)" /><g
     id="g8"
     transform="translate(0,-294)" /><g
     id="g10"
     transform="translate(0,-294)" /><g
     id="g12"
     transform="translate(0,-294)" /><g
     id="g14"
     transform="translate(0,-294)" /><g
     id="g16"
     transform="translate(0,-294)" /><g
     id="g18"
     transform="translate(0,-294)" /><g
     id="g20"
     transform="translate(0,-294)" /><g
     id="g22"
     transform="translate(0,-294)" /><g
     id="g24"
     transform="translate(0,-294)" /><g
     id="g26"
     transform="translate(0,-294)" /><g
     id="g28"
     transform="translate(0,-294)" /><g
     id="g30"
     transform="translate(0,-294)" /><g
     id="g32"
     transform="translate(0,-294)" /></svg>
