<?xml version="1.0" encoding="iso-8859-1"?>
<!-- Generator: Adobe Illustrator 19.0.0, SVG Export Plug-In . SVG Version: 6.00 Build 0)  -->
<svg version="1.1" id="Layer_1" xmlns="http://www.w3.org/2000/svg" xmlns:xlink="http://www.w3.org/1999/xlink" x="0px" y="0px"
	 viewBox="0 0 330.001 330.001" style="enable-background:new 0 0 330.001 330.001;" xml:space="preserve">
<path id="XMLID_466_" d="M45,210h90.789l-25.342,101.362c-1.674,6.7,1.441,13.678,7.549,16.903c2.216,1.17,4.617,1.736,6.998,1.736
	c4.18,0,8.293-1.746,11.217-5.035l160-180c3.925-4.415,4.893-10.722,2.473-16.11C296.264,123.467,290.908,120,285,120h-90.788
	l25.34-101.362c1.676-6.7-1.44-13.678-7.548-16.903c-6.105-3.224-13.627-1.863-18.215,3.299l-160,180
	c-3.924,4.414-4.893,10.722-2.473,16.11C33.737,206.534,39.094,210,45,210z"/>
<g>
</g>
<g>
</g>
<g>
</g>
<g>
</g>
<g>
</g>
<g>
</g>
<g>
</g>
<g>
</g>
<g>
</g>
<g>
</g>
<g>
</g>
<g>
</g>
<g>
</g>
<g>
</g>
<g>
</g>
</svg>
