<svg width="22" height="22" viewBox="0 0 22 22" fill="none">
<path fill-rule="evenodd" clip-rule="evenodd" d="M1.38986 0.72998L21.1099 20.46L19.8399 21.73L17.1099 19H1.99986V18L3.99986 16V9.99998C3.99986 8.85998 4.28986 7.72998 4.82986 6.71998L0.109863 1.99998L1.38986 0.72998ZM5.99986 9.99998V17H15.1099L6.33986 8.22998C6.10986 8.78998 5.99986 9.38998 5.99986 9.99998ZM12.9999 20C12.9999 21.1046 12.1044 22 10.9999 22C9.89529 22 8.99986 21.1046 8.99986 20H12.9999ZM8.99986 3.28998C8.39986 3.49998 7.81986 3.74998 7.28986 4.08998L8.75986 5.55998C9.44986 5.19998 10.2199 4.99998 10.9999 4.99998C13.7613 4.99998 15.9999 7.23856 15.9999 9.99998V12.8L17.9999 14.8V9.99998C17.9999 6.89998 15.9699 4.16998 12.9999 3.28998V2.99998C12.9999 1.89541 12.1044 0.99998 10.9999 0.99998C9.89529 0.99998 8.99986 1.89541 8.99986 2.99998V3.28998Z" fill="#31353F" />
</svg>
