<svg viewBox="0 0 24 24" fill="none" xmlns="http://www.w3.org/2000/svg"><path fill-rule="evenodd" clip-rule="evenodd" d="M12 4.5c5 0 9.27 3.11 11 7.5-1.73 4.39-6 7.5-11 7.5S2.73 16.39 1 12c1.73-4.39 6-7.5 11-7.5zM12 9c1.6569 0 3 1.3431 3 3s-1.3431 3-3 3-3-1.3431-3-3 1.3431-3 3-3zm0 8.5c-3.76 0-7.17-2.14-8.82-5.5C4.83 8.64 8.24 6.5 12 6.5c3.76 0 7.17 2.14 8.82 5.5-1.65 3.36-5.06 5.5-8.82 5.5z" fill="#A6ACBD"/><path fill-rule="evenodd" clip-rule="evenodd" d="M12 4.5c5 0 9.27 3.11 11 7.5-1.73 4.39-6 7.5-11 7.5S2.73 16.39 1 12c1.73-4.39 6-7.5 11-7.5zM12 9c1.6569 0 3 1.3431 3 3s-1.3431 3-3 3-3-1.3431-3-3 1.3431-3 3-3zm0 8.5c-3.76 0-7.17-2.14-8.82-5.5C4.83 8.64 8.24 6.5 12 6.5c3.76 0 7.17 2.14 8.82 5.5-1.65 3.36-5.06 5.5-8.82 5.5z" fill="#A6ACBD"/></svg>
