<svg viewBox="0 0 24 24" xmlns="http://www.w3.org/2000/svg"><path d="M4.9945 19.1429V3.9048h6.9806v4.7619h4.9861v2.9523l1.9945-1.9047v-2L12.9723 2H4.9945C3.8929 2 3 2.8528 3 3.9048v15.2381c0 1.0519.893 1.9047 1.9945 1.9047h3.9889v-1.9047h-3.989zm1.9944-7.6191h7.9779v1.9048H6.9889v-1.9048zm4.0887 5.7143H6.9889v-1.9048h4.9862v1.0477l-.8975.8571zm8.0775-4.7619c.0997 0 .2992.0952.3989.1905l1.2964 1.2381c.1995.1904.1995.5714 0 .7619l-.9972.9523-2.0942-2 .9972-.9523c.0998-.0953.1995-.1905.3989-.1905zM13.072 22l6.0831-5.8095-2.0942-2L10.9778 20v2h2.0942z" /></svg>
