<svg viewBox="0 0 24 24" fill="none" xmlns="http://www.w3.org/2000/svg"><path fill-rule="evenodd" clip-rule="evenodd" d="M14 7.23529C14 4.89621 12.2091 3 10 3C7.79086 3 6 4.89621 6 7.23529C6 9.57438 7.79086 11.4706 10 11.4706C12.2091 11.4706 14 9.57438 14 7.23529ZM21.5 13.4929L20.1 12L14.97 17.4741L12.9 15.2718L11.5 16.7647L14.97 20.4706L21.5 13.4929ZM10 5.11765C8.89543 5.11765 8 6.06575 8 7.23529C8 8.40484 8.89543 9.35294 10 9.35294C11.1046 9.35294 12 8.40484 12 7.23529C12 6.06575 11.1046 5.11765 10 5.11765ZM12.41 12.8047C11.5 12.6247 10.68 12.5294 10 12.5294C7.33 12.5294 2 13.9482 2 16.7647V19.9412H12L10.1 17.9294H3.9V16.7647C3.9 16.0871 7.03 14.5412 10 14.5412L10.74 14.5729L12.41 12.8047Z" fill="#31353f"/></svg>
