<svg width="24" height="24" viewBox="0 0 24 24" fill="none" xmlns="http://www.w3.org/2000/svg">
<path fill-rule="evenodd" clip-rule="evenodd" d="M2 18.1905V19.1429H11.34C11.12 18.5429 11 17.9048 11 17.2381H6V10.5714C6 7.94286 8.24 5.80952 11 5.80952C13.76 5.80952 16 7.94286 16 10.5714V11.6L17 11.5238L18 11.6V10.5714C18 7.61905 15.97 5.02857 13 4.18095V3.90476C13 2.85714 12.11 2 11 2C9.9 2 9 2.85714 9 3.90476V4.18095C6.03 5.02857 4 7.61905 4 10.5714V16.2857L2 18.1905ZM16.75 20.2476L14 17.3905L15.16 16.2857L16.75 17.8L20.34 14.381L21.5 15.7238L16.75 20.2476ZM9 20.0952H11.8C12.04 20.4857 12.33 20.8476 12.65 21.1714C12.29 21.6762 11.69 22 11 22C9.9 22 9 21.1524 9 20.0952Z" fill="#31353F"/>
</svg>
