<svg viewBox="0 0 16 16" fill="none" xmlns="http://www.w3.org/2000/svg">
<path fill-rule="evenodd" clip-rule="evenodd" d="M12.3223 6.68583C12.5083 6.87609 12.6985 7.07067 12.8599 7.2891C12.8599 7.2891 13.3399 8.00023 13.5198 8.40913L13.6312 8.64025C14.4368 10.667 13.8883 13.0315 12.32 14.5071C10.9146 15.8227 8.95209 16.1693 7.11814 15.9293C5.3956 15.7071 3.79303 14.6049 2.86749 13.067C2.61039 12.5959 2.37901 12.0626 2.25903 11.5292C2.11334 11.0848 2.06192 10.6403 2.0105 10.1958C1.8991 8.2669 2.67895 6.2224 4.11012 5.01348C3.45881 6.4713 3.61307 8.29357 4.58146 9.56472C4.61574 9.62694 4.65002 9.67139 4.70144 9.71583C4.86427 9.85806 5.06994 9.91139 5.26705 9.8225C5.43845 9.75139 5.567 9.57361 5.567 9.37805C5.567 9.26249 5.53272 9.17359 5.49844 9.0847C4.45291 6.28462 5.32704 3.02231 7.54663 1.17337C8.15509 0.666686 8.86639 0.20445 9.68053 0C8.86639 1.64449 9.1492 3.78677 10.4261 5.08459C10.7276 5.3924 11.0601 5.6465 11.3938 5.90151C11.6673 6.11045 11.9415 6.31999 12.2001 6.56019C12.2404 6.602 12.2812 6.64381 12.3223 6.68583ZM9.20919 13.4226C9.5177 13.3337 9.91191 13.1026 10.1519 12.8893C10.6661 12.4004 10.9746 11.6003 10.9489 10.8714C10.9489 10.7381 10.9317 10.6136 10.8974 10.4892C10.7527 9.70409 10.2647 9.2639 9.75953 8.80828C9.48683 8.56232 9.20914 8.31187 8.9778 8.00023C8.77212 7.73355 8.60073 7.39577 8.4379 7.05798C8.20651 7.67133 8.18937 8.23135 8.29221 8.88914C8.32485 9.0897 8.37148 9.28186 8.41742 9.47122C8.52827 9.9281 8.63517 10.3687 8.53217 10.8714C8.3522 11.6626 7.74374 12.4448 6.72393 12.6937C7.28954 13.2804 8.24936 13.7782 9.20919 13.4226Z" />
</svg>
