<svg xmlns="http://www.w3.org/2000/svg" width="100%" height="100%" viewBox="0 0 512 512"><path d="M428.871 298.681l-2.144 1.157c-9.329-11.2-25.394-15.522-37.646-9.315l-.133.07-5.279 2.845a41.281 41.281 0 00-47.16-4.183l-29.074 15.809h-38.7a55.78 55.78 0 01-24.141-5.531l-5.331-2.578a91.65 91.65 0 00-95.392 9.316q-.2.148-.381.312l-12.871 11.458a44.427 44.427 0 01-16.572 9.289l-7.254-23.791a6 6 0 00-5.739-4.25H38.806a6 6 0 00-5.956 6.726L53.6 476.146a6 6 0 005.956 5.274h93.365a6 6 0 005.739-7.749l-12.224-40.1L184.5 409.51a22.788 22.788 0 0116.616-2.148c.124.031.249.058.375.082l77.706 14.308a100.764 100.764 0 0062.264-8.791 6.045 6.045 0 00.734-.43l134.4-92.281a6 6 0 001.744-8.041 37.092 37.092 0 00-49.468-13.528zm-34.3 2.515c6.9-3.454 15.571-.691 21.2 4.554l-50.718 27.361-2.78 1.465a44.409 44.409 0 00-6.785-12.322zm-52.257-1.437c.047-.026.1-.052.142-.08a29.268 29.268 0 0129.458.094L346.429 313.5a44.255 44.255 0 00-15.993-7.287zM64.865 469.42L45.582 311.289h51.023l48.211 158.131zm270.89-67.027a88.691 88.691 0 01-54.406 7.554l-77.509-14.272a34.747 34.747 0 00-25.335 3.435c-.094.053-.187.108-.277.166L142.8 421.671l-25.258-82.847A56.456 56.456 0 00138.593 327l12.683-11.291a79.7 79.7 0 0182.757-7.956l5.331 2.578a67.828 67.828 0 0029.366 6.729h51.694a32.489 32.489 0 0131.817 26.128l-37.206-1.683a224.467 224.467 0 00-40.811 1.885 6 6 0 001.644 11.887 212.572 212.572 0 0138.624-1.784l44.093 2c.091 0 .182.006.271.006a6 6 0 006-6c0-.9-.034-1.787-.087-2.672l5.931-3.127 63.872-34.457a25.109 25.109 0 0130.051 4.67z"/><path d="M82.9 445.653a18.449 18.449 0 1018.445-18.453A18.47 18.47 0 0082.9 445.653zm18.449-6.449a6.449 6.449 0 11-6.449 6.449 6.456 6.456 0 016.445-6.453zM256 261.42a106 106 0 10-106-106 106.12 106.12 0 00106 106zm0-200a94 94 0 11-94 94 94.106 94.106 0 0194-94z"/><path d="M188.959 148.339h17.262a67.943 67.943 0 000 14.162h-17.262a6 6 0 000 12H208.6a67.947 67.947 0 0065.088 48.758h23.19a6 6 0 000-12h-23.19a55.932 55.932 0 01-52.477-36.759h59.316a6 6 0 000-12h-62.212a54.263 54.263 0 010-14.162h62.212a6 6 0 000-12h-59.316a55.933 55.933 0 0152.478-36.757h23.19a6 6 0 000-12h-23.19a67.947 67.947 0 00-65.089 48.758h-19.641a6 6 0 000 12zM403.35 98.249a6 6 0 00-6 6v10a6 6 0 1012 0v-10a6 6 0 00-6-6zM403.35 128.249a6 6 0 00-6 6v10a6 6 0 1012 0v-10a6 6 0 00-6-6zM383.35 118.249a6 6 0 000 12h10a6 6 0 000-12zM423.35 130.249a6 6 0 000-12h-10a6 6 0 000 12zM140.212 30.58a6 6 0 00-6 6v10a6 6 0 0012 0v-10a6 6 0 00-6-6zM140.212 60.58a6 6 0 00-6 6v10a6 6 0 0012 0v-10a6 6 0 00-6-6zM120.212 50.58a6 6 0 000 12h10a6 6 0 000-12zM160.212 50.58h-10a6 6 0 000 12h10a6 6 0 000-12z"/></svg>
