<svg xmlns="http://www.w3.org/2000/svg" width="12" height="12" viewBox="0 0 12 12"><path d="M6 .75A5.255 5.255 0 1 1 .75 6 5.253 5.253 0 0 1 6 .75M6 0a6 6 0 1 0 6 6 6 6 0 0 0-6-6zm-.542 7.5a2.74 2.74 0 0 1 .114-.92 2.493 2.493 0 0 1 .578-.68 9.79 9.79 0 0 0 .646-.82 1.232 1.232 0 0 0 .19-.7 1 1 0 0 0-.257-.74.97.97 0 0 0-.74-.26 1.125 1.125 0 0 0-.71.22 1.28 1.28 0 0 0-.295.87h-.86l-.015-.03a1.854 1.854 0 0 1 .52-1.38 2.082 2.082 0 0 1 1.36-.44 1.968 1.968 0 0 1 1.4.46 1.636 1.636 0 0 1 .5 1.28 1.893 1.893 0 0 1-.324 1.08 5.847 5.847 0 0 1-.853 1 1.105 1.105 0 0 0-.3.45 2.6 2.6 0 0 0-.052.61h-.9zm.935 1.88h-.945v-.95h.945v.95z"/></svg>