<?xml version="1.0" encoding="iso-8859-1"?>
<!-- Generator: Adobe Illustrator 19.0.0, SVG Export Plug-In . SVG Version: 6.00 Build 0)  -->
<svg version="1.1" id="Layer_1" xmlns="http://www.w3.org/2000/svg" xmlns:xlink="http://www.w3.org/1999/xlink" x="0px" y="0px"
	 viewBox="0 0 503.322 503.322" style="enable-background:new 0 0 503.322 503.322;" xml:space="preserve">
<g transform="translate(1 1)">
	<g>
		<g>
			<path d="M476.288,208.377v-46.232c0-23.43-18.224-41.654-40.786-41.654H327.027c-23.43,0-41.654,18.224-41.654,41.654v46.232
				c-14.928,3.879-26.034,17.508-26.034,33.606v43.39v78.102c0,9.546,7.81,17.356,17.356,17.356h17.356
				c9.546,0,17.356-7.81,17.356-17.356v-17.356h138.847v17.356c0,9.546,7.81,17.356,17.356,17.356h17.356
				c9.546,0,17.356-7.81,17.356-17.356v-78.102v-43.39C502.322,225.885,491.216,212.256,476.288,208.377z M302.729,162.146
				c0-13.885,10.414-24.298,24.298-24.298h107.607c13.885,0,24.298,10.414,24.298,24.298v45.125h-9.291
				c-4.144-29.649-29.24-52.068-60.133-52.068h-17.356c-30.893,0-55.989,22.419-60.133,52.068h-9.291V162.146z M432.031,207.271
				h-102.4c4.339-19.959,21.695-34.712,42.522-34.712h17.356C410.336,172.559,427.692,187.312,432.031,207.271z M276.695,241.983
				c0-9.546,7.81-17.356,17.356-17.356h26.034h121.492h26.034c9.546,0,17.356,7.81,17.356,17.356v34.712H276.695V241.983z
				 M484.966,363.475H467.61v-26.034c0-5.207-3.471-8.678-8.678-8.678H302.729c-4.339,0-8.678,3.471-8.678,8.678v26.034h-17.356
				v-69.424h208.271V363.475z"/>
			<path d="M215.949,208.377v-46.232c0-23.43-18.224-41.654-40.786-41.654H66.688c-23.43,0-41.654,18.224-41.654,41.654v46.232
				C10.106,212.256-1,225.885-1,241.983v43.39v78.102c0,9.546,7.81,17.356,17.356,17.356h17.356c9.546,0,17.356-7.81,17.356-17.356
				v-17.356h138.847v17.356c0,9.546,7.81,17.356,17.356,17.356h17.356c9.546,0,17.356-7.81,17.356-17.356v-78.102v-43.39
				C241.983,225.885,230.877,212.256,215.949,208.377z M42.39,162.146c0-13.885,10.414-24.298,24.298-24.298h107.607
				c13.885,0,24.298,10.414,24.298,24.298v45.125h-9.291c-4.144-29.649-29.24-52.068-60.133-52.068h-17.356
				c-30.893,0-55.989,22.419-60.133,52.068H42.39V162.146z M171.692,207.271h-102.4c4.339-19.959,21.695-34.712,42.522-34.712
				h17.356C149.997,172.559,167.353,187.312,171.692,207.271z M16.356,241.983c0-9.546,7.81-17.356,17.356-17.356h26.034h121.492
				h26.034c9.546,0,17.356,7.81,17.356,17.356v34.712H16.356V241.983z M224.627,363.475h-17.356v-26.034
				c0-5.207-3.471-8.678-8.678-8.678H42.39c-4.339,0-8.678,3.471-8.678,8.678v26.034H16.356v-69.424h208.271V363.475z"/>
		</g>
	</g>
</g>
<g>
</g>
<g>
</g>
<g>
</g>
<g>
</g>
<g>
</g>
<g>
</g>
<g>
</g>
<g>
</g>
<g>
</g>
<g>
</g>
<g>
</g>
<g>
</g>
<g>
</g>
<g>
</g>
<g>
</g>
</svg>
