<?xml version="1.0" encoding="iso-8859-1"?>
<!-- Generator: Adobe Illustrator 19.0.0, SVG Export Plug-In . SVG Version: 6.00 Build 0)  -->
<svg version="1.1" id="Layer_1" xmlns="http://www.w3.org/2000/svg" xmlns:xlink="http://www.w3.org/1999/xlink" x="0px" y="0px"
	 viewBox="0 0 511.999 511.999" style="enable-background:new 0 0 511.999 511.999;" xml:space="preserve">
<g>
	<polygon style="fill:#1D1D1B;" points="207.853,271.997 192.146,271.997 192.146,296.145 167.853,296.145 167.853,231.853 
		192.146,231.853 192.146,239.995 207.853,239.995 207.853,216.146 152.146,216.146 152.146,311.852 207.853,311.852 	"/>
	<rect x="176" y="248.146" style="fill:#1D1D1B;" width="56" height="15.707"/>
	<path style="fill:#1D1D1B;" d="M103.854,56.146H24.147v127.707h79.707V56.146z M88.147,168.146H39.853V71.853h48.293V168.146z"/>
	<rect x="47.999" y="144.146" style="fill:#1D1D1B;" width="32" height="15.707"/>
	<rect x="56.147" y="87.999" style="fill:#1D1D1B;" width="15.707" height="40"/>
	<rect x="32" y="192.146" style="fill:#1D1D1B;" width="16" height="15.707"/>
	<rect x="56" y="192.146" style="fill:#1D1D1B;" width="16" height="15.707"/>
	<rect x="80" y="192.146" style="fill:#1D1D1B;" width="16" height="15.707"/>
	<path style="fill:#1D1D1B;" d="M511.999,471.927V456.22H391.852V0.147H120.146v456.074H0v15.707h120.146v24.218H0v15.707h511.999
		v-15.707H391.852v-24.219H511.999z M376.145,496.144H135.853V15.853h240.293L376.145,496.144L376.145,496.144z"/>
</g>
<g>
</g>
<g>
</g>
<g>
</g>
<g>
</g>
<g>
</g>
<g>
</g>
<g>
</g>
<g>
</g>
<g>
</g>
<g>
</g>
<g>
</g>
<g>
</g>
<g>
</g>
<g>
</g>
<g>
</g>
</svg>
