<svg xmlns="http://www.w3.org/2000/svg" viewBox="0 0 18 24"><g data-name="Layer 2"><g data-name="Layer 1"><path d="M15 9c0 3-3 6-3 9H6c0-3-3-6-3-9a6 6 0 0 1 12 0zm-3.8 12H6.8a.7.7 0 0 0-.8.8.7.7 0 0 0 .8.7h.1a2.2 2.2 0 0 0 4.2 0h.1a.7.7 0 0 0 .8-.7.7.7 0 0 0-.8-.8zm0-2.2H6.8a.7.7 0 1 0 0 1.4h4.4a.7.7 0 1 0 0-1.4zM.8 5.2l1.4.7a8.3 8.3 0 0 1 .7-1.3l-1.3-.8zm9-3.6V0H8.2v1.6h1.6zm-3.9.6L5.2.8l-1.4.8.8 1.3zm11.3 3l-.8-1.4-1.3.8a8.3 8.3 0 0 1 .7 1.3zm-3.1-3.6L12.9.8l-.8 1.4 1.3.7zM1.5 9a2.2 2.2 0 0 1 .1-.8H0v1.6h1.6a2.2 2.2 0 0 1-.1-.8zm14.9-.8a2.2 2.2 0 0 1 .1.8 2.2 2.2 0 0 1-.1.8H18V8.2zm-1.2 5.2l1.2.7.8-1.3-1.4-.7zM.8 12.8l.8 1.3 1.2-.7-.6-1.3z" fill="#ea8600" data-name="new.process-[help-center---2]"/></g></g></svg>