<svg height="448pt" viewBox="-96 0 448 448.08155" width="448pt" xmlns="http://www.w3.org/2000/svg"><path d="m57.871094 392.070312c7.445312 32.761719 36.570312 56.011719 70.164062 56.011719 33.597656 0 62.722656-23.25 70.164063-56.011719zm0 0"/><path d="m256.039062 128.070312c.035157-59.308593-40.679687-110.875-98.382812-124.597656-57.699219-13.722656-117.269531 13.992188-143.941406 66.964844s-13.460938 117.332031 31.925781 155.511719c2.316406 1.957031 3.332031 5.054687 2.617187 8l7.023438 70.121093h145.558594l7.082031-70.832031c-.503906-2.710937.464844-5.484375 2.550781-7.289062 28.90625-24.289063 45.589844-60.121094 45.566406-97.878907zm0 0"/><path d="m56.039062 360.070312h144v16h-144zm0 0"/><path d="m56.039062 320.070312h144v24h-144zm0 0"/></svg>