<?xml version="1.0" encoding="iso-8859-1"?>
<!-- Generator: Adobe Illustrator 19.0.0, SVG Export Plug-In . SVG Version: 6.00 Build 0)  -->
<svg version="1.1" id="Capa_1" xmlns="http://www.w3.org/2000/svg" xmlns:xlink="http://www.w3.org/1999/xlink" x="0px" y="0px"
	 viewBox="0 0 512 512" style="enable-background:new 0 0 512 512;" xml:space="preserve">

		<g fill="#8891a6">
			<path d="M456.532,60.458V25.6c0-14.114-11.486-25.6-25.6-25.6h-358.4c-14.114,0-25.6,11.486-25.6,25.6H29.698
				c-9.318,0-16.896,7.586-16.896,16.896v51.541c0,9.31,7.578,16.896,16.896,16.896h17.234c0,14.114,11.486,25.6,25.6,25.6v51.2
				c0,18.825,15.309,34.133,34.133,34.133c6.212,0,12.041-1.664,17.067-4.582V230.4c0,18.825,15.309,34.133,34.133,34.133
				c18.825,0,34.133-15.309,34.133-34.133v-37.018c3.883,1.843,8.226,2.884,12.8,2.884c16.469,0,29.867-13.397,29.867-29.867
				v-29.867h196.267c14.114,0,25.6-11.486,25.6-25.6V77.88c14.707,3.798,25.6,17.175,25.6,33.054v34.133
				c0,16.384-11.708,31.13-27.17,34.296c-6.647,1.186-115.413,10.778-186.163,16.904c-18.825,0-34.133,15.266-34.133,34.031V281.6
				h-51.203c-2.56,0-4.975,1.143-6.596,3.123c-1.621,1.98-2.27,4.574-1.766,7.083l7.023,35.132
				c1.664,8.337,9.054,14.396,17.57,14.396c0.461,0,0.836,0.375,0.836,0.845v125.688c0,22.579,16.922,41.873,38.511,43.938
				c1.357,0.128,2.714,0.196,4.07,0.196c10.607,0,20.924-3.934,28.791-11.093c8.875-8.073,13.961-19.584,13.961-31.573v-42.616
				c0-0.017,0.003-0.034,0.003-0.051s-0.002-0.034-0.003-0.051v-51.098c0-0.017,0.003-0.034,0.003-0.051s-0.002-0.034-0.003-0.051
				v-33.238c0-0.469,0.375-0.845,0.845-0.845c8.516,0,15.898-6.059,17.57-14.396l7.023-35.132c0.495-2.509-0.154-5.103-1.766-7.083
				c-1.63-1.98-4.045-3.123-6.605-3.123h-51.197v-51.302c0-9.506,7.501-16.964,17.801-16.998
				c30.191-2.603,181.163-15.65,188.783-17.203c23.689-4.838,40.883-26.308,40.883-51.029v-34.133
				C499.198,85.605,480.717,64.532,456.532,60.458z M29.868,94.037l-0.171-51.371h17.234v51.251L29.868,94.037z M439.465,110.933
				c0,4.702-3.823,8.533-8.533,8.533h-204.8c-4.719,0-8.533,3.823-8.533,8.533v38.4c0,7.057-5.743,12.8-12.8,12.8
				s-12.8-5.743-12.8-12.8c0-4.71-3.814-8.533-8.533-8.533s-8.533,3.823-8.533,8.533v64c0,9.412-7.654,17.067-17.067,17.067
				c-9.412,0-17.067-7.654-17.067-17.067v-42.667c0-4.71-3.814-8.533-8.533-8.533c-4.719,0-8.533,3.823-8.533,8.533
				c0,9.412-7.654,17.067-17.067,17.067c-9.412,0-17.067-7.654-17.067-17.067V128c0-4.71-3.814-8.533-8.533-8.533h-8.533
				c-4.71,0-8.533-3.831-8.533-8.533v-8.466c0-0.023,0.003-0.045,0.003-0.068V34.133c0-0.023-0.003-0.045-0.003-0.068V25.6
				c0-4.702,3.823-8.533,8.533-8.533h358.4c4.71,0,8.533,3.831,8.533,8.533V110.933z M268.796,418.133h-51.2V384h51.2V418.133z
				 M260.416,488.277c-5.41,4.915-12.425,7.27-19.763,6.537c-12.919-1.237-23.057-13.073-23.057-26.948V435.2h51.2v34.133
				C268.796,476.527,265.741,483.439,260.416,488.277z M287.543,323.593c-0.085,0.393-0.435,0.674-0.836,0.674
				c-9.873,0-17.911,8.038-17.911,17.911v24.755h-51.2v-24.755c0-9.873-8.03-17.911-17.903-17.911c-0.401,0-0.751-0.282-0.836-0.683
				l-4.983-24.917h98.654L287.543,323.593z"/>
			<path d="M132.265,76.8c-4.719,0-8.533,3.823-8.533,8.533v59.733c0,4.71,3.814,8.533,8.533,8.533c4.719,0,8.533-3.823,8.533-8.533
				V85.333C140.798,80.623,136.984,76.8,132.265,76.8z"/>
			<path d="M183.465,42.667c-4.719,0-8.533,3.823-8.533,8.533v59.733c0,4.71,3.814,8.533,8.533,8.533s8.533-3.823,8.533-8.533V51.2
				C191.998,46.49,188.184,42.667,183.465,42.667z"/>
		</g>
</svg>
