<svg width="16" height="16" xmlns="http://www.w3.org/2000/svg"><path d="M7.875 0a7.875 7.875 0 1 0 0 15.75 7.875 7.875 0 0 0 0-15.75zm1.639 12.205c-.405.16-.728.281-.97.365a2.559 2.559 0 0 1-.841.126c-.491 0-.873-.12-1.145-.36a1.16 1.16 0 0 1-.407-.91c0-.144.01-.29.03-.44.02-.15.053-.317.098-.506l.507-1.792a9.19 9.19 0 0 0 .114-.487 2.16 2.16 0 0 0 .045-.422c0-.228-.047-.388-.141-.478-.095-.09-.275-.134-.542-.134-.13 0-.265.019-.403.06a5.73 5.73 0 0 0-.353.117l.134-.552c.332-.135.65-.251.953-.347.304-.098.59-.146.86-.146.488 0 .864.119 1.128.354.264.235.396.541.396.917 0 .078-.009.215-.027.411a2.752 2.752 0 0 1-.101.541l-.505 1.787a5.055 5.055 0 0 0-.111.49 2.595 2.595 0 0 0-.049.418c0 .237.053.399.16.485.105.086.29.13.55.13a1.6 1.6 0 0 0 .418-.065c.155-.043.267-.081.337-.114l-.135.552zm-.09-7.252a1.204 1.204 0 0 1-.85.328c-.33 0-.615-.11-.853-.328a1.047 1.047 0 0 1-.355-.796c0-.31.12-.576.355-.797.238-.221.523-.331.854-.331.331 0 .615.11.85.331.235.22.353.487.353.797 0 .312-.118.577-.353.796z" fill="#C7CBD4" fill-rule="nonzero"/></svg>