<svg xmlns="http://www.w3.org/2000/svg" viewBox="0 0 64 72"><path d="M24.8 26c-2.135.522-4.704-.687-6.825-.35-1.295-.505-3.432-1.028-3.288-3.1C13.4 20.424 9.761 21.065 9.2 18.5c-1.404.643-1.956-.193-1.9-1.2-2.465-.822-1.506-3.53.9-3.5 1.944-.717 4.307-3.505 6.2-.8.311 2.031-3.731 2.837-1.3 4.7-.463 2.16 2.83-.82 2.5 1.9-.104 2.125 1.737 5.951 4.1 4.7 1.239.295 2.054.802 3.1-.4.5.829 1.955 1.862 2.2 1.938l-.2.162zm0 0c-2.135.522-4.704-.687-6.825-.35-1.295-.505-3.432-1.028-3.288-3.1C13.4 20.424 9.761 21.065 9.2 18.5c-1.404.643-1.956-.193-1.9-1.2-2.465-.822-1.506-3.53.9-3.5 1.944-.717 4.307-3.505 6.2-.8.311 2.031-3.731 2.837-1.3 4.7-.463 2.16 2.83-.82 2.5 1.9-.104 2.125 1.737 5.951 4.1 4.7 1.239.295 2.054.802 3.1-.4.5.829 1.955 1.862 2.2 1.938l-.2.162zm5.1 6.7c-.81 2.405-4.394-2.158-1.65-1.337.315 1.01 2.496-.29 1.65 1.337zm0 0c-.81 2.405-4.394-2.158-1.65-1.337.315 1.01 2.496-.29 1.65 1.337zm8.2-7.2c-1.213 1.443-1.306-.83-.3-1.8-1.018-1.23-1.733-6.222-3.6-2.95-1.145 1.903-.294 4.006-.9 5.95.415 1.24.257 4.281 1.4 4.2.205-1.138.219-3.393 1.125-1.3 1.615.914 3.675-2.573 2.275-4.1zm0 0c-1.213 1.443-1.306-.83-.3-1.8-1.018-1.23-1.733-6.222-3.6-2.95-1.145 1.903-.294 4.006-.9 5.95.415 1.24.257 4.281 1.4 4.2.205-1.138.219-3.393 1.125-1.3 1.615.914 3.675-2.573 2.275-4.1zm2.2.9c-1.289 1.26-1.495-1.349-.013-.875 1.314-.872.762.836.013.875zm0 0c-1.289 1.26-1.495-1.349-.013-.875 1.314-.872.762.836.013.875zm1.8 1.7c-1.26.454-3.803-1.424-1.263-.8.299.526 1.282-.018 1.263.8zm0 0c-1.26.454-3.803-1.424-1.263-.8.299.526 1.282-.018 1.263.8zm3.3-2.7c-1.27.23-1.103 3.354-1.8 1.3-.14-1.069 2.552-3.592 2-1.762-.158.084-.385.27-.2.462zm0 0c-1.27.23-1.103 3.354-1.8 1.3-.14-1.069 2.552-3.592 2-1.762-.158.084-.385.27-.2.462zm.6.9c-.063.892-.367 3.758-.8 1.512.546-.355-.108-2.038.8-1.512zm0 0c-.063.892-.367 3.758-.8 1.512.546-.355-.108-2.038.8-1.512zm-5.9 3.9c-.993 1.476-.774-1.965-.038-.15l.038.15zm0 0c-.993 1.476-.774-1.965-.038-.15l.038.15zm3.7 2c-.315-1.883-1.626 1.91 0 0zm0 0c-.315-1.883-1.626 1.91 0 0zm-1.9 9.4c-1.428 2.485-2.67-1.097-2.883-2.522-.695-1.213-2.124-4.08-3.5-3.566-.03 2.197 3.12 5.465-.317 6.488-1.13-1.559-3.348-.777-2.3 1.2-.73 1.922-.515 6.279 2.438 5.025 1.8-1.196-2.62-5.457-.152-4.531 2.708 1.05 1.386 4.853 4.164 5.531 1.74-.339 2.774-3.374 4.838-1.503 2.082 2.04 6.22-1.154 3.512-3.222-2.159-.57-3.904-2.066-5.3-3.6-.045.261-.142.715-.5.7zm0 0c-1.428 2.485-2.67-1.097-2.883-2.522-.695-1.213-2.124-4.08-3.5-3.566-.03 2.197 3.12 5.465-.317 6.488-1.13-1.559-3.348-.777-2.3 1.2-.73 1.922-.515 6.279 2.438 5.025 1.8-1.196-2.62-5.457-.152-4.531 2.708 1.05 1.386 4.853 4.164 5.531 1.74-.339 2.774-3.374 4.838-1.503 2.082 2.04 6.22-1.154 3.512-3.222-2.159-.57-3.904-2.066-5.3-3.6-.045.261-.142.715-.5.7zm1.3-1.9c-2.348-.172-3.498-2.72-5-4.3-.935-.787.378-1.577.3-2.4.221 1.904 2.922 1.137 2.3 3.5-.745 2.208 1.348.202 1.587.05.025 1.139 1.595 1.95.813 3.15zm0 0c-2.348-.172-3.498-2.72-5-4.3-.935-.787.378-1.577.3-2.4.221 1.904 2.922 1.137 2.3 3.5-.745 2.208 1.348.202 1.587.05.025 1.139 1.595 1.95.813 3.15zm13.7 20.4c-2.654-.82-2.218 3.01-1.587 4.05-1.439 1.313-3.182-2.955-4.913-1.45-.967-2.376-4.87-2.478-4.222-5.456.402-1.201.777-4.073 2.222-1.744 1.495 2.267 4.45.789 6.486 1.325 1.027 1.558 2.715 1.717 4.137 2.669-.25 1.21-1.741.293-2.123.606zm0 0c-2.654-.82-2.218 3.01-1.587 4.05-1.439 1.313-3.182-2.955-4.913-1.45-.967-2.376-4.87-2.478-4.222-5.456.402-1.201.777-4.073 2.222-1.744 1.495 2.267 4.45.789 6.486 1.325 1.027 1.558 2.715 1.717 4.137 2.669-.25 1.21-1.741.293-2.123.606z" stroke="#fff" stroke-width=".5" stroke-miterlimit="8"/></svg>
