<?xml version="1.0" encoding="UTF-8"?>
<svg width="24px" height="24px" viewBox="0 0 24 24" version="1.1" xmlns="http://www.w3.org/2000/svg" xmlns:xlink="http://www.w3.org/1999/xlink">
    <!-- Generator: Sketch 53 (72520) - https://sketchapp.com -->
    <title>law@1,5x</title>
    <desc>Created with Sketch.</desc>
    <g id="Desktop" stroke="none" stroke-width="1" fill="none" fill-rule="evenodd">
        <g id="Info-block" transform="translate(-898.000000, -84.000000)" fill="#477AFB">
            <g id="law" transform="translate(910.000000, 96.000000) scale(-1, 1) translate(-910.000000, -96.000000) translate(898.000000, 84.000000)">
                <path d="M5.50818407,8.32709627 C5.24890647,8.32709627 5.03943361,8.53616001 5.03943361,8.7949312 C5.03943361,9.05315414 5.24890647,9.26276613 5.50818407,9.26276613 C5.76691238,9.26276613 5.97693452,9.05315414 5.97693452,8.7949312 C5.97693452,8.53616001 5.76691238,8.32709627 5.50818407,8.32709627 Z" id="Path"></path>
                <path d="M9.96772212,4.40422727 C9.78479962,4.22166198 9.48798533,4.22166198 9.30487968,4.40422727 L6.53174466,7.17194601 C6.34863901,7.35469403 6.34863901,7.65092855 6.53174466,7.83349384 C6.71485031,8.01624186 7.01166455,8.01624186 7.1947702,7.83349384 L9.96772212,5.06595783 C10.1508278,4.88320981 10.1508278,4.58697529 9.96772212,4.40422727 Z" id="Path"></path>
                <path d="M18.2039972,13.9473288 C18.1161065,13.8596098 17.9967217,13.8104506 17.872576,13.8104506 C17.7482473,13.8104506 17.6290456,13.8596098 17.5411548,13.9473288 L12.6196412,9.03561033 L14.3331439,7.32545434 C14.8451072,7.56997122 15.492752,7.49102407 15.9338535,7.05078411 C16.4820718,6.50363651 16.4820718,5.61310543 15.9338535,5.0657751 L11.293407,0.43439203 C10.7429915,-0.113486508 9.85474595,-0.114034764 9.30487968,0.43475755 C8.86414438,0.87481478 8.78467655,1.52101178 9.02985502,2.03234071 L2.95111371,8.09920948 C2.43896723,7.85450987 1.79150566,7.93345702 1.35040416,8.37369698 C0.800904126,8.92212382 0.800720985,9.81027915 1.35040416,10.3588887 L5.99048437,14.9899063 C6.53888579,15.5370539 7.43097651,15.5370539 7.97937789,14.9899063 C8.41150721,14.5586209 8.50269385,13.9144342 8.25385326,13.3928714 L9.96790527,11.6821671 L14.8892357,16.5938856 C14.7064963,16.7764509 14.7063132,17.0728682 14.8894188,17.2554335 L19.9984326,22.3541032 C20.9139608,23.2683916 22.3965673,23.2691225 23.3126449,22.354286 C24.2289055,21.4403631 24.2292717,19.9608351 23.3126449,19.0465468 L18.2039972,13.9473288 Z M9.96772212,1.09648812 C10.1515602,0.912826368 10.4478252,0.914105569 10.6309308,1.09648812 L15.2708279,5.72732293 C15.4537505,5.90988821 15.4537505,6.20685373 15.2708279,6.38923623 C15.0877223,6.57198425 14.7914573,6.57216703 14.6081686,6.38923623 L9.96772212,1.75785321 C9.78461648,1.57510519 9.78461648,1.27923614 9.96772212,1.09648812 Z M7.31653549,14.3281757 C7.13361294,14.510741 6.83624936,14.510741 6.65332681,14.3281757 L2.01324661,9.69715816 C1.83050715,9.51477562 1.83050715,9.2178101 2.01324661,9.03542755 C2.19653535,8.85249679 2.49261717,8.85249679 2.67608905,9.03542755 L7.31653549,13.6668106 C7.4992749,13.8491932 7.4992749,14.1457932 7.31653549,14.3281757 Z M7.64795669,12.6744889 L3.67035269,8.70465366 L9.63630093,2.75035767 L13.6139049,6.7201929 L7.64795669,12.6744889 Z M10.6307477,11.0204366 L11.9567988,9.69715816 L16.8781293,14.6088767 L15.5522613,15.9323378 L10.6307477,11.0204366 Z M22.6498024,21.6927382 C22.1003023,22.2413477 21.2113244,22.2417132 20.6614582,21.6927382 L15.8838656,16.9246596 L15.8838656,16.9244768 L17.8720267,14.9401988 C17.8722099,14.9400161 17.872393,14.9400161 17.872576,14.9398333 L22.6499855,19.7082774 C23.1996686,20.2567042 23.2000349,21.1439458 22.6498024,21.6927382 L22.6498024,21.6927382 Z" id="Shape" fill-rule="nonzero"></path>
                <path d="M0.468750458,23.9752609 L13.5933971,23.9752609 C13.8523084,23.9752609 14.0621475,23.7658317 14.0621475,23.507426 L14.0621475,22.5717561 C14.0621475,21.961926 13.6703014,21.4418251 13.1246466,21.2486604 L13.1246466,19.7647465 C13.1246466,18.9909914 12.4938476,18.3614245 11.7183953,18.3614245 L2.34375229,18.3614245 C1.56829986,18.3614245 0.937500916,18.9909914 0.937500916,19.7647465 L0.937500916,21.2486604 C0.391846086,21.4418251 0,21.961926 0,22.5717561 L0,23.507426 C0,23.7658317 0.209839049,23.9752609 0.468750458,23.9752609 Z M1.87500183,19.7647465 C1.87500183,19.5068891 2.08520711,19.2969116 2.34375229,19.2969116 L11.7183953,19.2969116 C11.9769404,19.2969116 12.1871457,19.5068891 12.1871457,19.7647465 L12.1871457,21.1682513 L1.87500183,21.1682513 L1.87500183,19.7647465 Z M0.937500916,22.5717561 C0.937500916,22.3137159 1.1477062,22.1039212 1.40625137,22.1039212 L12.6558962,22.1039212 C12.9144413,22.1039212 13.1246466,22.3137159 13.1246466,22.5717561 L13.1246466,23.039591 L0.937500916,23.039591 L0.937500916,22.5717561 Z" id="Shape" fill-rule="nonzero"></path>
            </g>
        </g>
    </g>
</svg>