<svg xmlns="http://www.w3.org/2000/svg" width="20" height="20" viewBox="0 0 20 20"><path d="M15.41 6.94a.39.39 0 1 1 .001.779.39.39 0 0 1-.001-.78zm-3.716-3.27a.391.391 0 0 1 .552 0l2.31 2.307a.391.391 0 0 1-.553.551l-2.31-2.306a.39.39 0 0 1 0-.552z"/><path fill-rule="nonzero" d="M4.83 11.623a.391.391 0 0 1 .552 0L9.484 7.53 8.056 6.105a1.17 1.17 0 0 1-1.334-1.883l3.867-3.86a1.173 1.173 0 0 1 1.886 1.332l5.066 5.055a1.173 1.173 0 0 1 1.334.23 1.168 1.168 0 0 1 0 1.653l-3.867 3.86a1.17 1.17 0 1 1-1.886-1.33l-1.429-1.427-4.1 4.093a.39.39 0 0 1 0 .552l-4.258 4.248a1.954 1.954 0 0 1-2.762 0 1.945 1.945 0 0 1 0-2.756l4.257-4.25zM11.694.913a.391.391 0 0 0-.553 0l-3.867 3.86a.39.39 0 1 0 .553.551l3.867-3.86a.389.389 0 0 0 0-.55zm2.209 11.027c.152.152.4.152.553 0l3.866-3.859a.39.39 0 1 0-.552-.551l-3.867 3.859a.39.39 0 0 0 0 .551zm-.276-1.378l3.314-3.308-4.971-4.962L8.655 5.6l4.972 4.962zM11.14 9.184L10.036 8.08l-4.101 4.093 1.105 1.103 4.101-4.093zM1.125 18.077a1.172 1.172 0 0 0 1.657 0l3.981-3.973-1.656-1.654-3.982 3.974a1.166 1.166 0 0 0 0 1.653z"/><path fill-rule="nonzero" d="M19.61 19.98H8.671a.39.39 0 0 1-.39-.39v-.78c0-.508.326-.942.78-1.103v-1.236c0-.645.526-1.17 1.173-1.17h7.812c.646 0 1.172.525 1.172 1.17v1.236c.454.161.781.595.781 1.103v.78a.39.39 0 0 1-.39.39zm-1.173-3.51a.39.39 0 0 0-.39-.39h-7.812a.39.39 0 0 0-.391.39v1.17h8.593v-1.17zm.782 2.34a.39.39 0 0 0-.39-.39H9.452a.39.39 0 0 0-.39.39v.39h10.156v-.39z"/></svg>
