<svg xmlns="http://www.w3.org/2000/svg" viewBox="0 0 32 32" width="32" height="32"><path d="M31.5 26.05h-2.4c-.2 0-.4-.2-.4-.4v-3.1H3.4v3.1c0 .2-.2.4-.4.4H.4c-.2 0-.4-.2-.4-.4V6.35c0-.2.2-.4.4-.4H3c.2 0 .4.2.4.4v5.7c.3-.2.7-.3 1.1-.3h5.2c1.1 0 1.9.9 1.9 1.9v.6c0 .4-.1.8-.3 1.1h17.5v-3.8c0-.2.2-.4.4-.4h2.4c.2 0 .4.2.4.4v14.1c-.1.2-.2.4-.5.4zm-1.9-.9h1.6v-13.2h-1.6zm-28.8 0h1.8V6.75H.8zm2.6-3.4h25.4v-1.5H3.4zm0-2.4h25.4v-3.3H3.4zm1-4h5.2c.6 0 1.1-.5 1.1-1.1v-.6c0-.6-.5-1.1-1.1-1.1H4.4c-.6 0-1.1.5-1.1 1.1v.6c.1.6.5 1.1 1.1 1.1z" fill="#8891a6"/></svg>
