<svg xmlns="http://www.w3.org/2000/svg" viewBox="0 0 32 32" width="32" height="32"><path d="M30.325 31.65c-.1 0-.3-.1-.4-.2-.2-.2-.2-.5 0-.7l.2-.2h-24l.2.2c.2.2.2.5 0 .7-.2.2-.5.2-.7 0l-1.1-1.1c-.1-.1-.2-.2-.2-.4s.1-.3.2-.4l1.1-1.1c.2-.2.5-.2.7 0 .2.2.2.5 0 .7l-.2.2h24.1l-.2-.2c-.2-.2-.2-.5 0-.7.2-.2.5-.2.7 0l1.1 1.1c.1.1.2.2.2.4s-.1.3-.2.4l-1.1 1.1c-.1.2-.3.2-.4.2zm-28.7-3.7c-.2 0-.3-.1-.4-.2l-1.1-1.1c-.2-.2-.2-.5 0-.7.2-.2.5-.2.7 0l.2.2v-24l-.2.2c-.2.2-.5.2-.7 0-.2-.2-.2-.5 0-.7l1.1-1.1c.1-.1.2-.2.4-.2s.3.1.4.2l1.1 1.1c.2.2.2.5 0 .7-.2.2-.5.2-.7 0l-.2-.2v24.1l.2-.2c.2-.2.5-.2.7 0 .2.2.2.5 0 .7l-1.1 1.1c-.1.1-.2.2-.4.1zm29.8-1.4h-25.4c-.3 0-.5-.2-.5-.5V.85c0-.3.2-.5.5-.5h15.2c.3 0 .5.2.5.5v10.2h9.7c.3 0 .5.2.5.5v14.4c.1.3-.2.6-.5.6zm-9.7-1.1h9.2v-13.3h-9.2v13.3zm-10.1 0h9v-7.1h-9zm-5.1 0h4v-7.1h-4zm4.6-8.1h9.6V5.95h-14.2v11.4zm3-12.4h6.6v-3.5h-6.6zm-7.6 0h6.5v-3.5h-6.5z" fill="#8891a6"/></svg>
