<svg xmlns="http://www.w3.org/2000/svg" width="100%" height="100%" viewBox="0 0 10 13"><path d="M5.045.81a3.924 3.924 0 0 1 4.12 4.15c0 1.82-1.33 4.23-3.952 7.17a.055.055 0 0 1-.11 0l-.22-.24C3.173 9.97.833 7.35.833 4.96A4.238 4.238 0 0 1 5.045.81m0-.81A5.073 5.073 0 0 0 0 4.96c0 2.81 2.683 5.69 4.488 7.72a1.014 1.014 0 0 0 .658.32h.03a1.017 1.017 0 0 0 .658-.32C7.527 10.78 10 7.65 10 4.96A4.738 4.738 0 0 0 5.048 0zm-.052 3.26a1.63 1.63 0 1 1 .02 3.26 1.675 1.675 0 0 1-1.687-1.64 1.648 1.648 0 0 1 1.667-1.62m.02-.8a2.44 2.44 0 1 0 2.5 2.44 2.47 2.47 0 0 0-2.5-2.44z"/></svg>
