<svg xmlns="http://www.w3.org/2000/svg" viewBox="0 0 32 32" width="32" height="32"><path d="M23.85 26.5c-.2 0-.4-.2-.4-.4v-1.3H8.25v1.3c0 .2-.2.4-.4.4s-.4-.2-.4-.4v-1.3c-3.5-.3-6.2-2.9-6.2-6.1v-5.3h-.9c-.2 0-.4-.2-.4-.4v-1.5c0-.2.2-.4.4-.4h.9V8.2c0-.1 0-1.2.7-2 .4-.5 1-.7 1.7-.7s1.3.2 1.8.7c.7.8.7 1.9.7 1.9 0 .2-.2.4-.4.4s-.4-.2-.4-.4c0 0 0-.8-.5-1.3-.3-.3-.7-.4-1.2-.4s-.9.1-1.1.4c-.5.5-.4 1.3-.4 1.3V9c.2-.1.4-.2.7-.2.8 0 1.5.7 1.5 1.5 0 .2 0 .4-.1.6h27.4c.2 0 .4.2.4.4v1.5c0 .2-.2.4-.4.4h-.9v5.3c0 3.2-2.7 5.8-6.2 6.1v1.3c-.2.4-.4.6-.7.6zm-15.6-2.6h15.2v-1.3c0-.2.2-.4.4-.4s.4.2.4.4v1.3c3-.3 5.4-2.5 5.4-5.2v-5.3H2.05v5.3c0 2.7 2.4 5 5.4 5.2v-1.3c0-.2.2-.4.4-.4s.4.2.4.4zM.75 12.5h30.3v-.6H.75zm1.9-2.7c-.3 0-.6.3-.6.6s.3.6.6.6.6-.3.6-.6c.1-.3-.2-.6-.6-.6z" fill="#8891a6"/></svg>
