<svg xmlns="http://www.w3.org/2000/svg" xmlns:xlink="http://www.w3.org/1999/xlink" width="18" height="18" viewBox="0 0 18 18">
  <metadata><?xpacket begin="﻿" id="W5M0MpCehiHzreSzNTczkc9d"?>
<x:xmpmeta xmlns:x="adobe:ns:meta/" x:xmptk="Adobe XMP Core 5.6-c138 79.159824, 2016/09/14-01:09:01        ">
   <rdf:RDF xmlns:rdf="http://www.w3.org/1999/02/22-rdf-syntax-ns#">
      <rdf:Description rdf:about=""/>
   </rdf:RDF>
</x:xmpmeta>
                                                                                                    
                                                                                                    
                                                                                                    
                                                                                                    
                                                                                                    
                                                                                                    
                                                                                                    
                                                                                                    
                                                                                                    
                                                                                                    
                                                                                                    
                                                                                                    
                                                                                                    
                                                                                                    
                                                                                                    
                                                                                                    
                                                                                                    
                                                                                                    
                                                                                                    
                                                                                                    
                           
<?xpacket end="w"?></metadata>
<defs>
    <style>
      .cls-1 {
        fill: #477afb;
        fill-rule: evenodd;
        filter: url(#filter);
      }
    </style>
    <filter id="filter" x="1500" y="957" width="18" height="18" filterUnits="userSpaceOnUse">
      <feFlood result="flood" flood-color="#31353f"/>
      <feComposite result="composite" operator="in" in2="SourceGraphic"/>
      <feBlend result="blend" in2="SourceGraphic"/>
    </filter>
  </defs>
  <path id="Open_envelope" data-name="Open envelope" class="cls-1" d="M1501.16,974.593l7.35-6.77a0.7,0.7,0,0,1,.44-0.156,0.739,0.739,0,0,1,.43.14l7.27,6.541a9.064,9.064,0,0,0,.77-0.819l-7.32-6.587a1.857,1.857,0,0,0-2.32.024l-7.4,6.812a3.6,3.6,0,0,0,.46.532C1500.94,974.411,1501.05,974.5,1501.16,974.593Zm16.62-9.813h0l-0.02-.016a1.057,1.057,0,0,0-.2-0.2l-7.33-7.092a1.732,1.732,0,0,0-2.39,0l-7.33,7.036a1.513,1.513,0,0,0-.51.937v8.43a1.129,1.129,0,0,0,1.12,1.124h15.75a1.131,1.131,0,0,0,1.13-1.124v-8.43A1.168,1.168,0,0,0,1517.78,964.78Zm-0.91,9.094h-15.75v-8.43l0.68-.664h0.02l6.82-6.514a0.531,0.531,0,0,1,.39-0.164,0.554,0.554,0,0,1,.4.164l6.35,6.054h-0.01l1.1,1.124v8.43Zm-11.28-3.551a0.549,0.549,0,0,1-.37-0.141l-4.92-4.335a0.565,0.565,0,1,1,.75-0.844l4.91,4.335A0.563,0.563,0,0,1,1505.59,970.323Zm6.92,0.035a0.562,0.562,0,0,1-.37-0.984l4.92-4.37a0.57,0.57,0,0,1,.8.048,0.561,0.561,0,0,1-.05.794l-4.92,4.37A0.57,0.57,0,0,1,1512.51,970.358Z" transform="translate(-1500 -957)"/>
</svg>
