<svg xmlns="http://www.w3.org/2000/svg" viewBox="0 0 26 24.14"><path d="M4.71,15.35c1.05,0,1.91-1.15,1.91-2.56s-.86-2.56-1.91-2.56S2.8,11.37,2.8,12.79,3.66,15.35,4.71,15.35Z"/><path d="M9.27,15.35c1.05,0,1.91-1.15,1.91-2.56s-.86-2.56-1.91-2.56-1.91,1.15-1.91,2.56S8.21,15.35,9.27,15.35Z"/><path d="M12.83,14.07c-.83-.16-1.65.57-1.86,1.66A1.78,1.78,0,0,0,12.06,18c.83.16,1.65-.57,1.86-1.66A1.78,1.78,0,0,0,12.83,14.07Z"/><path d="M3,15.73c-.22-1.1-1-1.83-1.86-1.66A1.78,1.78,0,0,0,.05,16.31c.22,1.09,1,1.82,1.86,1.66A1.78,1.78,0,0,0,3,15.73Z"/><path d="M9.87,18.55a2.92,2.92,0,0,0-5.77,0,2.92,2.92,0,1,0,2.88,5,2.92,2.92,0,1,0,2.88-5Z"/><path d="M16.73,5.12c1.05,0,1.91-1.15,1.91-2.56S17.79,0,16.73,0s-1.91,1.15-1.91,2.56S15.68,5.12,16.73,5.12Z"/><path d="M21.29,5.12c1.05,0,1.91-1.15,1.91-2.56S22.34,0,21.29,0s-1.91,1.15-1.91,2.56S20.23,5.12,21.29,5.12Z"/><path d="M24.86,3.84C24,3.68,23.21,4.41,23,5.51a1.78,1.78,0,0,0,1.09,2.24c.83.16,1.65-.57,1.86-1.66A1.78,1.78,0,0,0,24.86,3.84Z"/><path d="M13.94,7.75A1.78,1.78,0,0,0,15,5.51c-.22-1.1-1-1.83-1.86-1.66a1.78,1.78,0,0,0-1.09,2.24C12.29,7.18,13.11,7.91,13.94,7.75Z"/><path d="M21.9,8.32a2.92,2.92,0,0,0-5.77,0,2.92,2.92,0,1,0,2.88,5,2.92,2.92,0,1,0,2.88-5Z"/></svg>
