<svg xmlns="http://www.w3.org/2000/svg" viewBox="0 0 26 26"><path d="M0,10.56A3.24,3.24,0,0,0,2.44,13.7V24.38H.81A.81.81,0,0,0,.81,26H25.19a.81.81,0,0,0,0-1.62H23.56V13.7A3.24,3.24,0,0,0,26,10.56V9.75H0Zm16.25,3.25a3.25,3.25,0,0,0,3.25-3.25,3.24,3.24,0,0,0,2.44,3.14V24.38H9.75V13.81A3.25,3.25,0,0,0,13,10.56,3.25,3.25,0,0,0,16.25,13.81ZM8.94,13.7V24.38H4.06V13.7A3.24,3.24,0,0,0,6.5,10.56,3.24,3.24,0,0,0,8.94,13.7ZM22.75,2.44H3.25L0,8.94H26ZM6.87,4.24,5.24,7.49a.41.41,0,0,1-.37.23.39.39,0,0,1-.18,0,.4.4,0,0,1-.18-.54L6.14,3.88a.41.41,0,0,1,.73.36Zm3.25,0L8.49,7.49a.41.41,0,0,1-.37.23.39.39,0,0,1-.18,0,.4.4,0,0,1-.18-.54L9.39,3.88a.41.41,0,0,1,.73.36Zm3.29,3.07a.41.41,0,0,1-.81,0V4.06a.41.41,0,0,1,.81,0Zm4.67.36a.41.41,0,0,1-.55-.16L15.74,4.26a.41.41,0,0,1,.71-.39l1.78,3.25A.41.41,0,0,1,18.07,7.67Zm3.23,0a.38.38,0,0,1-.18,0,.4.4,0,0,1-.36-.23L19.14,4.24a.41.41,0,1,1,.73-.36l1.63,3.25A.41.41,0,0,1,21.31,7.68ZM6.91,19.62V17.75a.8.8,0,0,1-.41-.69.81.81,0,0,1,1.63,0,.8.8,0,0,1-.41.69v1.87a.8.8,0,0,1,.41.69.81.81,0,1,1-1.22-.69ZM3.25.81A.81.81,0,0,1,4.06,0H21.94a.81.81,0,0,1,0,1.63H4.06A.81.81,0,0,1,3.25.81Z"/></svg>
