<svg xmlns="http://www.w3.org/2000/svg" viewBox="0 0 26 26"><path d="M26,16.24a.86.86,0,0,0-.65-.7,33.18,33.18,0,0,1-8-3.23L13.69,8.64a33.27,33.27,0,0,1-3.23-8A.86.86,0,0,0,8.89.41L7.79,2.19a2.66,2.66,0,0,0-2.34-.63l-.06,0A7.5,7.5,0,0,0,.08,6.89l0,.06A2.69,2.69,0,0,0,.78,9.39l.15.14,0,0C3,11.2,5,13,7,14.78a9,9,0,0,1-4.41,1.39A.44.44,0,0,0,2.3,17l1.3,1L2.12,19.37a.44.44,0,0,0,.29.76,10.53,10.53,0,0,0,4.3-.84,10.52,10.52,0,0,0-.84,4.3.44.44,0,0,0,.76.29L8,22.4,9,23.7a.44.44,0,0,0,.79-.29A9,9,0,0,1,11.22,19c1.83,1.94,3.58,4,5.24,6l0,0,.14.15a2.69,2.69,0,0,0,2.44.72l.06,0a7.5,7.5,0,0,0,5.31-5.31,2.44,2.44,0,0,0-.61-2.41l1.79-1.11A.86.86,0,0,0,26,16.24ZM9.34,3c.17.54.38,1.16.63,1.83L9,3.59ZM8.5,13.83C6.43,11.87,4.26,10,2,8.2l0,0a.89.89,0,0,1-.26-.81A5.73,5.73,0,0,1,5.85,3.24a.78.78,0,0,1,.84.3L7.1,4l.26.32c1.58,1.94,3.24,3.82,5,5.64Zm14.26,6.32a5.73,5.73,0,0,1-4.11,4.11,1,1,0,0,1-.81-.26l0,0c-1.78-2.23-3.67-4.39-5.64-6.47L16,13.67c1.81,1.72,3.7,3.38,5.64,5l.32.26.51.41,0,0A.91.91,0,0,1,22.76,20.15ZM22.41,17,21.2,16c.67.25,1.29.46,1.83.63Z"/></svg>
