<?xml version="1.0" encoding="iso-8859-1"?>
<!-- Generator: Adobe Illustrator 17.1.0, SVG Export Plug-In . SVG Version: 6.00 Build 0)  -->
<!DOCTYPE svg PUBLIC "-//W3C//DTD SVG 1.1//EN" "http://www.w3.org/Graphics/SVG/1.1/DTD/svg11.dtd">
<svg version="1.1" id="Capa_1" xmlns="http://www.w3.org/2000/svg" xmlns:xlink="http://www.w3.org/1999/xlink" x="0px" y="0px"
	 viewBox="0 0 462.557 462.557" style="enable-background:new 0 0 462.557 462.557;" xml:space="preserve">
<path d="M458.599,209.828l-13.4-11.757c-2.161-1.896-5.678-3.22-8.552-3.22h-15.902v-24.402c0-8.271-6.729-15-15-15h-20.521v-13.729
	c0-8.271-6.729-15-15-15h-48.146c-8.271,0-15,6.729-15,15v53.13H155.479v-53.13c0-8.271-6.729-15-15-15H92.334
	c-8.271,0-15,6.729-15,15v13.729H56.813c-8.271,0-15,6.729-15,15v24.402H25.911c-2.874,0-6.391,1.324-8.552,3.22L3.959,209.827
	C1.628,211.871,0,215.464,0,218.565v25.427c0,3.101,1.628,6.694,3.958,8.737l13.4,11.757c2.162,1.896,5.678,3.22,8.552,3.22h15.902
	v24.402c0,8.271,6.729,15,15,15h20.521v13.729c0,8.271,6.729,15,15,15h48.146c8.271,0,15-6.729,15-15v-53.13h151.598v53.13
	c0,8.271,6.729,15,15,15h48.146c8.271,0,15-6.729,15-15v-13.729h20.521c8.271,0,15-6.729,15-15v-24.402h15.902
	c2.874,0,6.391-1.324,8.552-3.22l13.399-11.755c2.331-2.044,3.959-5.637,3.959-8.738v-25.427
	C462.557,215.464,460.929,211.871,458.599,209.828z"/>
<g>
</g>
<g>
</g>
<g>
</g>
<g>
</g>
<g>
</g>
<g>
</g>
<g>
</g>
<g>
</g>
<g>
</g>
<g>
</g>
<g>
</g>
<g>
</g>
<g>
</g>
<g>
</g>
<g>
</g>
</svg>
