<svg xmlns="http://www.w3.org/2000/svg" viewBox="0 0 26 24.82"><path class="cls-1" d="M17.44,16a10,10,0,0,1-3.2.52,9.86,9.86,0,0,1-4.75-1.2,6.22,6.22,0,0,1-5.66,1.36l1.51,8.17H20.72l1.41-7.59a5.79,5.79,0,0,1-1,.09A5.73,5.73,0,0,1,17.44,16ZM10,23.32H9.93a.47.47,0,0,1-.47-.41l-.59-4.09a.47.47,0,1,1,.94-.14l.59,4.09A.47.47,0,0,1,10,23.32Zm3.89-.45a.47.47,0,1,1-.95,0V18.73a.47.47,0,1,1,.95,0Zm3.48,0a.47.47,0,0,1-.47.41h-.07a.47.47,0,0,1-.4-.54L17,18.69a.47.47,0,0,1,.94.14Z"/><path d="M3.11,15.4l.26.11.26.09A5.32,5.32,0,0,0,9.34,14.1a8.9,8.9,0,0,0,4.89,1.44,9,9,0,0,0,3.42-.67,4.8,4.8,0,0,0,4.66,1.35l.25-.06.26-.09a4.84,4.84,0,0,0-.2-9.16A8.22,8.22,0,0,0,14.24,0a8.41,8.41,0,0,0-8,5.28A5.34,5.34,0,0,0,3.11,15.4Z"/></svg>
