<svg xmlns="http://www.w3.org/2000/svg" viewBox="0 0 26 23.18"><path d="M16.93,23.18H0V21.6A1.81,1.81,0,0,0,1.12,22H15.76ZM7.33,0A1.64,1.64,0,0,0,6.4,3,3.85,3.85,0,0,1,8.68.72,1.64,1.64,0,0,0,7.33,0ZM6.86,4.31a3.13,3.13,0,1,0,.18-1A3.14,3.14,0,0,0,6.86,4.31ZM5.15,8.64c-.73,1.63-2.33,5.79-2.77,6.84H7.84a8.48,8.48,0,0,1,.4-.86c.51-1,2.12-1.44,1.74-2.77v0l1.44,1.36a1.14,1.14,0,0,0,.37.24l3.93,1.5a1.15,1.15,0,0,0,.4.07,1.13,1.13,0,0,0,.4-2.19L13,11.46a1.37,1.37,0,0,1-.44-.28L9.55,8.28A1.23,1.23,0,0,0,9.07,8L8.94,8l-.15,0a7.21,7.21,0,0,0-2.4-.31,1.6,1.6,0,0,0-.76.24A1.74,1.74,0,0,0,5.15,8.64Zm-4,12.67H16l1.43,1.45a1.42,1.42,0,0,0,.47.32,1.44,1.44,0,0,0,.54.11h6.09a1.42,1.42,0,1,0,0-2.84H19.08l-3.72-3.78a1.11,1.11,0,0,0-1-.42H1.12A1.12,1.12,0,0,0,0,17.28v2.9A1.12,1.12,0,0,0,1.12,21.31ZM24,16.12a3.25,3.25,0,1,0-3.25,3.25A3.25,3.25,0,0,0,24,16.12Z"/></svg>
