<?xml version="1.0" encoding="iso-8859-1"?>
<!-- Generator: Adobe Illustrator 17.1.0, SVG Export Plug-In . SVG Version: 6.00 Build 0)  -->
<!DOCTYPE svg PUBLIC "-//W3C//DTD SVG 1.1//EN" "http://www.w3.org/Graphics/SVG/1.1/DTD/svg11.dtd">
<svg version="1.1" id="Capa_1" xmlns="http://www.w3.org/2000/svg" xmlns:xlink="http://www.w3.org/1999/xlink" x="0px" y="0px"
	 viewBox="0 0 202.5 202.5" style="enable-background:new 0 0 202.5 202.5;" xml:space="preserve">
<path d="M176,21.25H69c-14.612,0-26.5,11.888-26.5,26.5v7.833H10V13.917c0-2.762-2.239-5-5-5s-5,2.238-5,5v174.667
	c0,2.762,2.239,5,5,5s5-2.238,5-5v-41.667h32.5v7.834c0,14.612,11.888,26.5,26.5,26.5h107c14.612,0,26.5-11.888,26.5-26.5v-107
	C202.5,33.138,190.612,21.25,176,21.25z M10,65.583h32.5v71.333H10V65.583z M169.333,117.246c0,2.762-2.239,5-5,5h-20.838v20.838
	c0,2.762-2.239,5-5,5h-31.99c-2.761,0-5-2.238-5-5v-20.838H80.667c-2.761,0-5-2.238-5-5v-31.99c0-2.762,2.239-5,5-5h20.838V59.417
	c0-2.762,2.239-5,5-5h31.99c2.761,0,5,2.238,5,5v20.839h20.838c2.761,0,5,2.238,5,5V117.246z"/>
<g>
</g>
<g>
</g>
<g>
</g>
<g>
</g>
<g>
</g>
<g>
</g>
<g>
</g>
<g>
</g>
<g>
</g>
<g>
</g>
<g>
</g>
<g>
</g>
<g>
</g>
<g>
</g>
<g>
</g>
</svg>
