<svg xmlns="http://www.w3.org/2000/svg" viewBox="0 0 26 25.52"><path d="M14.06,13a1.12,1.12,0,0,0,.23-.4,1.24,1.24,0,0,0-.19-1Z"/><path d="M12.1,6.94a2,2,0,0,0-.38.61,1.13,1.13,0,0,0,.49,1.28l.22.16,0-1.11c0-.46-.1-1,.27-1.32A1.41,1.41,0,0,0,12.1,6.94Z"/><path d="M26,10.33A.43.43,0,0,0,26,10L22.68,3.73a.42.42,0,0,0-.57-.18L17,6.23V.42A.42.42,0,0,0,16.54,0H9.46A.42.42,0,0,0,9,.42v5.8L3.89,3.55a.42.42,0,0,0-.57.18L0,10a.42.42,0,0,0,.18.57l4.19,2.18L.23,14.94a.42.42,0,0,0-.18.57l3.27,6.28a.42.42,0,0,0,.57.18L9,19.29v5.8a.42.42,0,0,0,.42.42h7.08A.42.42,0,0,0,17,25.1v-5.8L22.11,22a.42.42,0,0,0,.57-.18L26,15.52a.42.42,0,0,0-.18-.57l-4.19-2.18,4.19-2.18A.42.42,0,0,0,26,10.33Zm-11,3.2a2.69,2.69,0,0,1-.58.6,3.65,3.65,0,0,1-.37.25s0,0,0,0l0,.87L13.85,20l0,.68c0,.27-.09.54-.39.61a.52.52,0,0,1-.64-.45c0-.1,0-.2,0-.3l0-1.19v-.17c0-.06-.1-.1-.15-.13a6.91,6.91,0,0,1-.74-.63,3,3,0,0,1-1-2,2.61,2.61,0,0,1,1-2,4.61,4.61,0,0,1,.46-.36s.3-.17.3-.2v-.18l-.07-2.26,0-1v-.25s0,0-.07-.07l-.46-.28a2.54,2.54,0,0,1-1.27-1.78,2.58,2.58,0,0,1,.78-1.91,6.28,6.28,0,0,1,.64-.84A1.29,1.29,0,0,1,12.91,5a.6.6,0,0,1,.57.55,1.07,1.07,0,0,1-.46.8.93.93,0,0,1,1.22.94l-.06,2.14,0,.74c0,.05.2.2.24.24a4.47,4.47,0,0,1,.37.42,3,3,0,0,1,.51,1c-.1-.35.1.34,0,0A2,2,0,0,1,15,13.52Z"/></svg>
