<svg xmlns="http://www.w3.org/2000/svg" viewBox="0 0 26 9.75"><polygon points="0.9 1.43 0.9 4.14 0 4.14 0 5.61 0.9 5.61 0.9 8.32 3.64 8.32 3.64 7.59 3.64 6.85 3.64 2.9 3.64 2.16 3.64 1.43 0.9 1.43"/><polygon points="17.55 0 17.55 3.37 8.45 3.37 8.45 0 5.23 0 5.23 0.74 5.23 1.43 5.23 8.32 5.23 9.01 5.23 9.75 8.45 9.75 8.45 6.35 17.55 6.35 17.55 9.75 20.68 9.75 20.68 9.01 20.68 8.32 20.68 1.43 20.68 0.74 20.68 0 17.55 0"/><polygon points="25.1 4.14 25.1 1.43 22.27 1.43 22.27 2.16 22.27 2.9 22.27 6.85 22.27 7.59 22.27 8.32 25.1 8.32 25.1 5.61 26 5.61 26 4.14 25.1 4.14"/></svg>
