<svg xmlns="http://www.w3.org/2000/svg" viewBox="0 0 24 26"><path d="M23.29,5.16h-1V3.42A3.42,3.42,0,0,0,18.9,0H5.11A3.42,3.42,0,0,0,1.69,3.42V5.16h-1A.71.71,0,0,0,0,5.87V9.81a.71.71,0,0,0,.71.71h1V19a1.86,1.86,0,0,0-.62,1.39v1.32a1.86,1.86,0,0,0,1.86,1.86h.23v1.87a.55.55,0,0,0,.55.55H6.23a.55.55,0,0,0,.55-.55V23.58H17.22v1.87a.55.55,0,0,0,.55.55h2.52a.55.55,0,0,0,.55-.55V23.58h.23a1.86,1.86,0,0,0,1.86-1.86V20.4A1.86,1.86,0,0,0,22.31,19V10.52h1A.71.71,0,0,0,24,9.81V5.87A.71.71,0,0,0,23.29,5.16Zm-3.09.28v8.41H12.93V5.43ZM8.38,1.78h7.25a.91.91,0,1,1,0,1.82H8.38a.91.91,0,1,1,0-1.82ZM3.8,5.43h7.27v8.41H3.8ZM7.05,17.59a.9.9,0,0,1-.9.9H4.67a.9.9,0,0,1-.9-.9v-1a.9.9,0,0,1,.9-.9H6.16a.9.9,0,0,1,.9.9Zm9.89,0v-1a.9.9,0,0,1,.9-.9h1.48a.9.9,0,0,1,.9.9v1a.9.9,0,0,1-.9.9H17.84A.9.9,0,0,1,16.95,17.59Z"/></svg>
