<svg xmlns="http://www.w3.org/2000/svg" width="12" height="20" viewBox="0 0 12 20"><path d="M6.12 13.75h-.14A2.948 2.948 0 0 1 3 10.7V3.25A3.13 3.13 0 0 1 5.98 0h.14A3.053 3.053 0 0 1 9 3.25v7.45a2.87 2.87 0 0 1-2.88 3.05zm-.14-12.5a1.9 1.9 0 0 0-1.78 2v7.45a1.712 1.712 0 0 0 1.78 1.8h.14a1.65 1.65 0 0 0 1.68-1.8V3.25a1.818 1.818 0 0 0-1.68-2h-.14zm.92 15.62H5.12C1.72 16.87 0 14.4 0 10.1V7.5a.6.6 0 1 1 1.2 0v2.6c0 2.52.49 5.52 3.92 5.52H6.9c2.62 0 3.9-1.8 3.9-5.52V7.5a.6.6 0 1 1 1.2 0v2.6c0 5.6-2.77 6.77-5.1 6.77zm-1.5-.62h1.2V20H5.4v-3.75zm-3 2.5h7.2a.626.626 0 0 1 0 1.25H2.4a.626.626 0 0 1 0-1.25z"/></svg>
