<svg xmlns="http://www.w3.org/2000/svg" viewBox="0 0 64 72"><path d="M19.6 16.3c.683-1.738-.818-2.259-2-1.163-2.382.768-.707-1.233-1.4-1.937-.37-1.249 1.694-1.978-.2-2.7-.967-3.463 2.288-2.837 4.396-2.5 1.54-1.126 3.795-.597 3.704 1.5 2.95 1.45 2.397-3.16 5.188-2.375 1.031-2.875 1.012 2-.638 2.262-.677 2.144-3.269 3.734-1.45 5.913-.915.86.334 2.087-.12 2.38-.915-1.494-3.422-1.946-3.38-3.863.916-1.262.738-3.352-1.212-2.242.136 1.002-2.888 3.537-.588 2.825 1.382 2.792-1.005 1.323-2.3 1.9zM4.3 17.8c3.055-1.492-.795-5.038-2.037-1.788-.49 1.579.69 4.62 2.037 1.788zm0 0c3.055-1.492-.795-5.038-2.037-1.788-.49 1.579.69 4.62 2.037 1.788zm44.4 7.1c3.628-2.151-2.506-4.343-3.5-1.5-1.311 2.962-4.153 5.817-7.3 3-3.048-.76-4.432-4.082-2.85-6.775 1.217-1.834 3.185-.633 4.85-.725 1.73-1.96 6.833-1.057 5.7-4.4 1.822-.487 6.173-1.447 6.7 1 .783.756 2.803-.17 1.538 1.662C51.086 20.138 57.56 19.957 57.6 23c1.589 2.238 4.119 5.256 3.3 8-3.005 1.057-2.564-2.524-3.475-4.162-2.196-1.54-2.608 1.749-.162 2.162 1.737 1.59 1.676 4.641-1.425 4.338-2.606.189-5.432-.45-6.809-2.638-2.296.294-4.957.35-5.829-2.4.55-1.377 3.198-.48 2.7-2.8.762-.81 1.889-.27 2.8-.6zM11.9 36.1c.312-1.307-3.324-2.447-1.1-2.6.283-2.124 4.193 1.01 2.058 2.042-.382.177-.584 1.065-.958.558zm0 0c.312-1.307-3.324-2.447-1.1-2.6.283-2.124 4.193 1.01 2.058 2.042-.382.177-.584 1.065-.958.558zm-1.6-.1c-1.153 1.721-1.234-1.682 0 0zm0 0c-1.153 1.721-1.234-1.682 0 0zm21.6 1.8c1.917-.898.404-3.846-1.3-2.475-1.362-1.325-3.156-4.328-4.9-1.525-2.61-.922-6.395 1.507-3.4 3.9 2.739.69 4.163 2.57 4.1 5.4 3.24 2.804-2.85 2.324-3.4 5-.141 2.293 2.348 3.24 3.5 4.7 1.736-.765 5.14-1.882 5.18-3.82-1.006-2.152 2.694-2.151 1.97-4.53.105-1.923-2.63-3.459-.625-5.238-.201-.668-1.15-.624-1.125-1.412zm0 0c1.917-.898.404-3.846-1.3-2.475-1.362-1.325-3.156-4.328-4.9-1.525-2.61-.922-6.395 1.507-3.4 3.9 2.739.69 4.163 2.57 4.1 5.4 3.24 2.804-2.85 2.324-3.4 5-.141 2.293 2.348 3.24 3.5 4.7 1.736-.765 5.14-1.882 5.18-3.82-1.006-2.152 2.694-2.151 1.97-4.53.105-1.923-2.63-3.459-.625-5.238-.201-.668-1.15-.624-1.125-1.412zm4.8-1.3c-1.3 1.849-4.495-1.797-1.43-.5.627-.148.905.308 1.43.5zm0 0c-1.3 1.849-4.495-1.797-1.43-.5.627-.148.905.308 1.43.5zm16.9 23.2c-2.482-1.053-3.72-5.254-7.1-3.1-2.515 2.792-3.48-2.847-.588-3.438 2.43-1.753 5.96-2.829 8.788-1.462 1.37.781 3.472 3.536 3.7.6 3.254-.9 4.747 3.82.95 4.188-2.337-.096-4.257 1.928-4.962 3.312-.266-.001-.538.014-.788-.1zm0 0c-2.482-1.053-3.72-5.254-7.1-3.1-2.515 2.792-3.48-2.847-.588-3.438 2.43-1.753 5.96-2.829 8.788-1.462 1.37.781 3.472 3.536 3.7.6 3.254-.9 4.747 3.82.95 4.188-2.337-.096-4.257 1.928-4.962 3.312-.266-.001-.538.014-.788-.1zm-28 5.5c-3.46 2.63-3.138-3.505-.263-4.063.475-2.308 3.695-2.05 5.263-1.237 1.935 1.647 3.767-4.373 6.088-2.362-1.803 1.866-2.417 5.4-5.443 5.73-2.11.202-4.405-.338-5.645 1.932zm0 0c-3.46 2.63-3.138-3.505-.263-4.063.475-2.308 3.695-2.05 5.263-1.237 1.935 1.647 3.767-4.373 6.088-2.362-1.803 1.866-2.417 5.4-5.443 5.73-2.11.202-4.405-.338-5.645 1.932zm16.2-1.9c-.12 1.856-2.04-1.965-.1-2.4-1.262-1.947 1.584-1.995 1.5 0 1.58.798-1.972 1.156-1.446 2.262l.046.138zm0 0c-.12 1.856-2.04-1.965-.1-2.4-1.262-1.947 1.584-1.995 1.5 0 1.58.798-1.972 1.156-1.446 2.262l.046.138zm-1.8-.9c-2.12 1.785-.996-2.641.1 0H40zm0 0c-2.12 1.785-.996-2.641.1 0H40zm16.3.7c-1.633 1.998-1.868-2.102 0 0zm0 0c-1.633 1.998-1.868-2.102 0 0z" stroke="#fff" stroke-width=".5" stroke-miterlimit="8"/></svg>
