<svg xmlns="http://www.w3.org/2000/svg" width="16" height="18" viewBox="0 0 16 18"><path d="M14.45 15H1.59a1.577 1.577 0 0 1-1.5-.59c-.3-.59.15-1.18.72-1.93.64-.84 1.64-1.91 1.64-3.05V5.75a5.534 5.534 0 1 1 11.06 0v3.68a5.39 5.39 0 0 0 1.6 3.09c.63.75 1.09 1.3.81 1.89a1.56 1.56 0 0 1-1.47.59zM1.36 13.79c.06 0 .14.01.23.01h12.86c.05 0 .09-.01.12-.01-.12-.16-.28-.35-.41-.51a6.326 6.326 0 0 1-1.88-3.85V5.75a4.307 4.307 0 1 0-8.6 0v3.68c0 1.54-1.18 2.84-1.88 3.76-.14.19-.32.42-.44.6zm4.86.61a1.67 1.67 0 0 0-.11.59 1.87 1.87 0 0 0 3.74 0 1.67 1.67 0 0 0-.11-.59H11a2.88 2.88 0 0 1 .06.59 3.08 3.08 0 0 1-6.16 0 2.88 2.88 0 0 1 .06-.59h1.26z"/></svg>