<svg xmlns="http://www.w3.org/2000/svg" viewBox="0 0 64 72"><path d="M18.6 30.7c-.12 1.838-2.997 3.64-.113 5.045 1.676 1.605 2.438 4.591 4.776 5.192 3.9-.637 1.782 4.747 4.537 6.063.901 2.072.741 4.432 1.3 6.616 1.191 2.171-2.774 4.726-3.408 2.196-2.508-1.393-1.136-5.659-4.68-4.962-1.328-.76 1.653-2.57-.843-3.342-1.026-2.661-5.736-1.236-6.016 1.572-1.235 2.539 2.531 5.791-.918 7.485-1.952 2.329-.961-2.835-3.035-2.552-3.49.515-2.597-2.776-2.212-4.813-.63-.992-1.508-.716-1.55-2.188a5.469 5.469 0 0 1-1.975-7.425c.61-1.38 2.146-1.893 3.137-2.887 1.136-1.584-1.61-5.079 1.6-4 2.342.363 4.212-4.969 5.167-.77 1.748 2.23 3.355-3.844 4.233-1.23zm0 0c-.12 1.838-2.997 3.64-.113 5.045 1.676 1.605 2.438 4.591 4.776 5.192 3.9-.637 1.782 4.747 4.537 6.063.901 2.072.741 4.432 1.3 6.616 1.191 2.171-2.774 4.726-3.408 2.196-2.508-1.393-1.136-5.659-4.68-4.962-1.328-.76 1.653-2.57-.843-3.342-1.026-2.661-5.736-1.236-6.016 1.572-1.235 2.539 2.531 5.791-.918 7.485-1.952 2.329-.961-2.835-3.035-2.552-3.49.515-2.597-2.776-2.212-4.813-.63-.992-1.508-.716-1.55-2.188a5.469 5.469 0 0 1-1.975-7.425c.61-1.38 2.146-1.893 3.137-2.887 1.136-1.584-1.61-5.079 1.6-4 2.342.363 4.212-4.969 5.167-.77 1.748 2.23 3.355-3.844 4.233-1.23zM9.7 56c-1.813.012.423 2.317 0 0zm0 0c-1.813.012.423 2.317 0 0zm-1.5-1.2c-.379 1.754-1.241 1.263-.5-.2.181.061.505-.173.5.2zm0 0c-.379 1.754-1.241 1.263-.5-.2.181.061.505-.173.5.2zm-1.4-5.6c-.504.937-.792-.832 0 0zm0 0c-.504.937-.792-.832 0 0zm.3.9c-1.17-.964-.478.84 0 0zm0 0c-1.17-.964-.478.84 0 0zm18.7-34.2c.964 1.803 4.376.88 3.6 3.7.077 1.628.984 2.874 2.138 3.475-.893 2.43 2.95 1.866 1.595 4.37-.064 2.707 3.077 4.535 4.844 2.709 1.477 2.07 1.773 4.657 2.995 6.86.737 2.14 2.459 3.065 2.028 5.386 1.045 1.613 5.374 4.775 1.05 4.75-1.663-.382-3.468-.669-4.85-1.25.405-2.29-1.215-3.415-2.775-4.9-.628-1.707.616-4.993-2.212-5.25-1.707-1.198-3.715-1.309-3.413 1.337.58 2.603-2.027 1.684-3.25.525-2.087-.498-3.463 1.113-2.85 3.188-3.031.8-4.046-2.308-5.681-4.086-1.399-1.588-3.341-3.542-.844-5.164.675-2.167-.772-5.254-2.875-5.85-3.353.342-3.78-2.858-2.8-5.444-.482-2.187 1.812-3.348 3.3-4.256 1.56 1.306 4.329 1.658 6.56 1.3 1.709.793 2.539-.18 2.64-1.8l.588.35.212.05zm0 0c.964 1.803 4.376.88 3.6 3.7.077 1.628.984 2.874 2.138 3.475-.893 2.43 2.95 1.866 1.595 4.37-.064 2.707 3.077 4.535 4.844 2.709 1.477 2.07 1.773 4.657 2.995 6.86.737 2.14 2.459 3.065 2.028 5.386 1.045 1.613 5.374 4.775 1.05 4.75-1.663-.382-3.468-.669-4.85-1.25.405-2.29-1.215-3.415-2.775-4.9-.628-1.707.616-4.993-2.212-5.25-1.707-1.198-3.715-1.309-3.413 1.337.58 2.603-2.027 1.684-3.25.525-2.087-.498-3.463 1.113-2.85 3.188-3.031.8-4.046-2.308-5.681-4.086-1.399-1.588-3.341-3.542-.844-5.164.675-2.167-.772-5.254-2.875-5.85-3.353.342-3.78-2.858-2.8-5.444-.482-2.187 1.812-3.348 3.3-4.256 1.56 1.306 4.329 1.658 6.56 1.3 1.709.793 2.539-.18 2.64-1.8l.588.35.212.05zm-1 25.1c-1.106-2.612 2.234-4.353 3.9-2.5 2.208 1.89 2.63-.385 2.6-2.1.522-2.33 3.406.288 4.688.75 1.23 1.83-.487 4.73 2.087 5.888 2.51.384-.03 5.012 3.225 3.762 1.286 1.567 4.242.243 4.96.98-.006 2.704 1.078 5.257 2.24 7.62 1.769.46-.567 1.503.1 2.4-1.147-.243-2.828-.062-1.1 1.2-1.071.728-.174 3.365 1.3 4.263 1.94.513.668 2.854 2.8 3.437.752 2.077-5.032 2.051-4-.6-.587-1.736-4.244.008-3.2-3.1-1.963-.71-2.662-1.96-2.813-3.6-.775-1.21-1.747.917-1.587-1.4.461-1.987-1.66-4.642-3.944-4.1-2.02-.548-1.892 1.427-2.431 2.5-2.484.052.13 2.794-1.925 2.9.339 1.957-2.444 2.949-1.012 5.4 1.761 3.195-1.691 2.51-3.375 1.3-1.426-2.051.66-4.673.3-7 .911-1.025-2.945-1.476-.6-2.55 3.103.01 1.923-3.715 1.487-5.55.394-2.698-1.482-4.49-2.56-6.606-.094-1.206-.15-2.462-1.14-3.294zm0 0c-1.106-2.612 2.234-4.353 3.9-2.5 2.208 1.89 2.63-.385 2.6-2.1.522-2.33 3.406.288 4.688.75 1.23 1.83-.487 4.73 2.087 5.888 2.51.384-.03 5.012 3.225 3.762 1.286 1.567 4.242.243 4.96.98-.006 2.704 1.078 5.257 2.24 7.62 1.769.46-.567 1.503.1 2.4-1.147-.243-2.828-.062-1.1 1.2-1.071.728-.174 3.365 1.3 4.263 1.94.513.668 2.854 2.8 3.437.752 2.077-5.032 2.051-4-.6-.587-1.736-4.244.008-3.2-3.1-1.963-.71-2.662-1.96-2.813-3.6-.775-1.21-1.747.917-1.587-1.4.461-1.987-1.66-4.642-3.944-4.1-2.02-.548-1.892 1.427-2.431 2.5-2.484.052.13 2.794-1.925 2.9.339 1.957-2.444 2.949-1.012 5.4 1.761 3.195-1.691 2.51-3.375 1.3-1.426-2.051.66-4.673.3-7 .911-1.025-2.945-1.476-.6-2.55 3.103.01 1.923-3.715 1.487-5.55.394-2.698-1.482-4.49-2.56-6.606-.094-1.206-.15-2.462-1.14-3.294zm4.5-23.3c-2.83.1-4.598-2.56-2.1-4.6 1.369-1.848 3.075-2.288 2.95-5.037.505-1.65.07-3.824 2.35-2.3 2.67 1.057 5.714 1.781 7.572 4.173.59 2.544 4.86 3.99 5.328.964-1.961-.583-3.473-2.856-.356-3.1 1.908.355 3.661 1.06 5.744 1.05.88.723 1.259 2.62 2.012 3.95-2.043 1.16-4.282 1.088-6.6 1.8-.627 3.297 4.598.431 4.987 3.65.097 1.286-2.163 1.76-.637 2.638-2.584.544-4.524-2.448-7.15-1.088-3.757.6-6.802-2.832-10.5-2.387-1.181.325-2.387.677-3.6.287zm0 0c-2.83.1-4.598-2.56-2.1-4.6 1.369-1.848 3.075-2.288 2.95-5.037.505-1.65.07-3.824 2.35-2.3 2.67 1.057 5.714 1.781 7.572 4.173.59 2.544 4.86 3.99 5.328.964-1.961-.583-3.473-2.856-.356-3.1 1.908.355 3.661 1.06 5.744 1.05.88.723 1.259 2.62 2.012 3.95-2.043 1.16-4.282 1.088-6.6 1.8-.627 3.297 4.598.431 4.987 3.65.097 1.286-2.163 1.76-.637 2.638-2.584.544-4.524-2.448-7.15-1.088-3.757.6-6.802-2.832-10.5-2.387-1.181.325-2.387.677-3.6.287zm31.6 13.7c-1.616 1.542-4.935.024-6.862 1.3-2.701.025-.143 1.386-.663 2.037-1.428-.107-3.472-.17-2.262 1.213-2.122 1.049-1.644-2.334-3.713-2.35 1.065-.523 3.305-2.095 1.3-3.4-2.19-.23-5.56-4.134-7.3-1.5-.946-.257-2.649-4.661-3.3-2.15-.087 1.9-.017 4.937-2.864 4.448-3.226-.592-1.043-5.217-3.273-5.81-1.34-.7.078-2.8-1.963-2.888-.775-2.138-2.02-5.323 1.364-4.61 2.884-1.152 5.584.913 8.271 1.69 2.962 1.096 6.217-.777 8.865 1.508 2.404-.73 2.55 1.39 1.962 3.262 1.118 2.195 3.577 2.97 5.15 4.938 1.534 1.22 3.594 1.458 5.288 2.312zm0 0c-1.616 1.542-4.935.024-6.862 1.3-2.701.025-.143 1.386-.663 2.037-1.428-.107-3.472-.17-2.262 1.213-2.122 1.049-1.644-2.334-3.713-2.35 1.065-.523 3.305-2.095 1.3-3.4-2.19-.23-5.56-4.134-7.3-1.5-.946-.257-2.649-4.661-3.3-2.15-.087 1.9-.017 4.937-2.864 4.448-3.226-.592-1.043-5.217-3.273-5.81-1.34-.7.078-2.8-1.963-2.888-.775-2.138-2.02-5.323 1.364-4.61 2.884-1.152 5.584.913 8.271 1.69 2.962 1.096 6.217-.777 8.865 1.508 2.404-.73 2.55 1.39 1.962 3.262 1.118 2.195 3.577 2.97 5.15 4.938 1.534 1.22 3.594 1.458 5.288 2.312z" stroke="#fff" stroke-width=".5" stroke-miterlimit="8"/></svg>
