<svg xmlns="http://www.w3.org/2000/svg" width="16" height="16" viewBox="0 0 16 16">
  <metadata><?xpacket begin="﻿" id="W5M0MpCehiHzreSzNTczkc9d"?>
<x:xmpmeta xmlns:x="adobe:ns:meta/" x:xmptk="Adobe XMP Core 5.6-c138 79.159824, 2016/09/14-01:09:01        ">
   <rdf:RDF xmlns:rdf="http://www.w3.org/1999/02/22-rdf-syntax-ns#">
      <rdf:Description rdf:about=""/>
   </rdf:RDF>
</x:xmpmeta>

<?xpacket end="w"?></metadata>

  <path d="M371.5,1121.99a0.492,0.492,0,0,1-.356-0.15,0.508,0.508,0,0,1-.128-0.51c0.011-.03,1.094-3.58,1.311-4.38a0.49,0.49,0,0,1,.132-0.23l9.873-9.87a2.882,2.882,0,0,1,1.932-.85,2.554,2.554,0,0,1,1.783.79,2.676,2.676,0,0,1,.949,1.88,2.75,2.75,0,0,1-.908,1.96c-0.594.61-9.541,9.46-9.921,9.84a0.448,0.448,0,0,1-.211.12c-0.6.18-4.264,1.37-4.3,1.38A0.812,0.812,0,0,1,371.5,1121.99Zm1.768-4.64c-0.189.67-.751,2.37-1.068,3.41,1.052-.34,2.765-0.93,3.346-1.11,0.957-.95,9.262-9.16,9.818-9.73a1.818,1.818,0,0,0,.619-1.23,1.7,1.7,0,0,0-.634-1.16,1.562,1.562,0,0,0-1.085-.51,1.973,1.973,0,0,0-1.222.55C382.775,1107.84,374.261,1116.35,373.265,1117.35Zm2.682,3.08a0.5,0.5,0,0,1-.5-0.44,3.022,3.022,0,0,0-.824-1.54,2.967,2.967,0,0,0-1.593-.9,0.517,0.517,0,0,1-.442-0.57,0.5,0.5,0,0,1,.555-0.45,4.064,4.064,0,0,1,2.2,1.2,3.986,3.986,0,0,1,1.112,2.13,0.506,0.506,0,0,1-.439.57h-0.064Zm9.015-9.12a0.51,0.51,0,0,1-.5-0.45,3.016,3.016,0,0,0-.823-1.54,2.974,2.974,0,0,0-1.593-.9,0.517,0.517,0,0,1-.442-0.57,0.5,0.5,0,0,1,.554-0.45,4.221,4.221,0,0,1,3.309,3.33,0.506,0.506,0,0,1-.438.57C385.005,1111.3,384.984,1111.31,384.962,1111.31Z" transform="translate(-371 -1106)"/>
</svg>
