<svg xmlns="http://www.w3.org/2000/svg" width="18" height="15" viewBox="0 0 18 15">
  <metadata><?xpacket begin="﻿" id="W5M0MpCehiHzreSzNTczkc9d"?>
<x:xmpmeta xmlns:x="adobe:ns:meta/" x:xmptk="Adobe XMP Core 5.6-c138 79.159824, 2016/09/14-01:09:01        ">
   <rdf:RDF xmlns:rdf="http://www.w3.org/1999/02/22-rdf-syntax-ns#">
      <rdf:Description rdf:about=""/>
   </rdf:RDF>
</x:xmpmeta>

<?xpacket end="w"?></metadata>

  <path d="M274.775,530.157l1,1.748,0.309,0.56h3.224a0.721,0.721,0,0,1,.562.577v9.249a0.783,0.783,0,0,1-.527.559H264.573a0.668,0.668,0,0,1-.449-0.577v-9.249a0.713,0.713,0,0,1,.563-0.559h3.224l0.328-.56,1.022-1.748h5.55M275.374,529h-6.75l-1.35,2.307h-2.587A1.812,1.812,0,0,0,263,533.024v9.249a1.757,1.757,0,0,0,1.569,1.73h14.778A1.847,1.847,0,0,0,281,542.291v-9.249a1.823,1.823,0,0,0-1.688-1.731h-2.587L275.374,529h0ZM272,534.2a2.885,2.885,0,1,1-2.813,2.884A2.852,2.852,0,0,1,272,534.2m0-1.154a4.04,4.04,0,1,0,3.937,4.038A3.989,3.989,0,0,0,272,533.042h0Z" transform="translate(-263 -529)"/>
</svg>
