<svg width="20" height="20" xmlns="http://www.w3.org/2000/svg" viewBox="0 0 20 20"><path d="M20 3.125v6.64a3.128 3.128 0 0 1-3.125 3.126h-.156a.781.781 0 1 1 0-1.563h.156c.862 0 1.563-.7 1.563-1.562V6.367h-2.07v.39a.781.781 0 1 1-1.563 0V4.415a.781.781 0 1 1 1.562 0v.39h2.07V3.126c0-.862-.7-1.563-1.562-1.563h-5.547v3.243h.39a.781.781 0 1 1 0 1.562H9.376a.781.781 0 1 1 0-1.562h.39V1.563H7.618a.781.781 0 1 1 0-1.563h9.258A3.128 3.128 0 0 1 20 3.125zm-7.227 8.203h-1.445V9.844a.781.781 0 1 0-1.562 0v7.812c0 .431-.35.782-.782.782H7.695a.781.781 0 1 0 0 1.562h1.29a2.346 2.346 0 0 0 2.343-2.344v-4.765h1.445a.781.781 0 1 0 0-1.563zM7.07 9.453a.781.781 0 1 0-1.562 0v.43H1.562V3.125c0-.862.701-1.563 1.563-1.563h.586A.781.781 0 1 0 3.71 0h-.586A3.128 3.128 0 0 0 0 3.125v13.75A3.128 3.128 0 0 0 3.125 20h.625a.781.781 0 1 0 0-1.563h-.625a1.564 1.564 0 0 1-1.563-1.562v-5.43h3.946v.352a.781.781 0 1 0 1.562 0V9.453z" fill-rule="nonzero"/></svg>
