<?xml version="1.0" encoding="UTF-8" standalone="no"?>
<svg
   xmlns:x="adobe:ns:meta/"
   xmlns:dc="http://purl.org/dc/elements/1.1/"
   xmlns:cc="http://creativecommons.org/ns#"
   xmlns:rdf="http://www.w3.org/1999/02/22-rdf-syntax-ns#"
   xmlns:svg="http://www.w3.org/2000/svg"
   xmlns="http://www.w3.org/2000/svg"
   xmlns:sodipodi="http://sodipodi.sourceforge.net/DTD/sodipodi-0.dtd"
   xmlns:inkscape="http://www.inkscape.org/namespaces/inkscape"
   width="21"
   height="21"
   viewBox="0 0 21 21"
   version="1.1"
   id="svg6"
   sodipodi:docname="plus-circle.svg"
   inkscape:version="0.92.1 r15371">
  <defs
     id="defs10" />
  <sodipodi:namedview
     pagecolor="#ffffff"
     bordercolor="#666666"
     borderopacity="1"
     objecttolerance="10"
     gridtolerance="10"
     guidetolerance="10"
     inkscape:pageopacity="0"
     inkscape:pageshadow="2"
     inkscape:window-width="1920"
     inkscape:window-height="1137"
     id="namedview8"
     showgrid="false"
     inkscape:zoom="11.238095"
     inkscape:cx="10.5"
     inkscape:cy="10.5"
     inkscape:window-x="-8"
     inkscape:window-y="-8"
     inkscape:window-maximized="1"
     inkscape:current-layer="svg6" />
  <metadata
     id="metadata2">
<?xpacket begin="ÿ" id="W5M0MpCehiHzreSzNTczkc9d"?>    <x:xmpmeta
       x:xmptk="Adobe XMP Core 5.6-c138 79.159824, 2016/09/14-01:09:01        ">
      <metadata>
        <rdf:RDF>
          <rdf:Description
             rdf:about="" />
          <cc:Work
             rdf:about="">
            <dc:format>image/svg+xml</dc:format>
            <dc:type
               rdf:resource="http://purl.org/dc/dcmitype/StillImage" />
          </cc:Work>
        </rdf:RDF>
      </metadata>
    </x:xmpmeta>
<?xpacket end="w"?>  </metadata>
  <path
     d="M 10.5 0 A 10.5 10.5 0 1 0 21 10.5 A 10.5 10.5 0 0 0 10.5 0 z M 10.5 1.3105469 A 9.2 9.2 0 1 1 1.3105469 10.5 A 9.2 9.2 0 0 1 10.5 1.3105469 z " />
  <path
     d="M 10.5 5.25 A 0.659 0.659 0 0 0 9.8398438 5.9101562 L 9.8398438 9.8398438 L 5.9003906 9.8398438 A 0.66 0.66 0 0 0 5.9003906 11.160156 L 9.8398438 11.160156 L 9.8398438 15.089844 A 0.659 0.659 0 0 0 10.5 15.75 A 0.651 0.651 0 0 0 11.150391 15.089844 L 11.150391 11.160156 L 15.089844 11.160156 A 0.66 0.66 0 0 0 15.089844 9.8398438 L 11.150391 9.8398438 L 11.150391 5.9101562 A 0.651 0.651 0 0 0 10.5 5.25 z "
      />
</svg>
