<?xml version="1.0" encoding="UTF-8" standalone="no"?>
<svg
   xmlns:x="adobe:ns:meta/"
   xmlns:dc="http://purl.org/dc/elements/1.1/"
   xmlns:cc="http://creativecommons.org/ns#"
   xmlns:rdf="http://www.w3.org/1999/02/22-rdf-syntax-ns#"
   xmlns:svg="http://www.w3.org/2000/svg"
   xmlns="http://www.w3.org/2000/svg"
   xmlns:sodipodi="http://sodipodi.sourceforge.net/DTD/sodipodi-0.dtd"
   xmlns:inkscape="http://www.inkscape.org/namespaces/inkscape"
   width="10"
   height="9"
   viewBox="0 0 10 9"
   version="1.1"
   id="svg6"
   sodipodi:docname="reply.svg"
   inkscape:version="0.92.1 r15371">
  <defs
     id="defs10" />
  <sodipodi:namedview
     pagecolor="#ffffff"
     bordercolor="#666666"
     borderopacity="1"
     objecttolerance="10"
     gridtolerance="10"
     guidetolerance="10"
     inkscape:pageopacity="0"
     inkscape:pageshadow="2"
     inkscape:window-width="1920"
     inkscape:window-height="1137"
     id="namedview8"
     showgrid="false"
     inkscape:zoom="26.222222"
     inkscape:cx="5"
     inkscape:cy="4.5"
     inkscape:window-x="-8"
     inkscape:window-y="-8"
     inkscape:window-maximized="1"
     inkscape:current-layer="svg6" />
  <metadata
     id="metadata2">
<?xpacket begin="ÿ" id="W5M0MpCehiHzreSzNTczkc9d"?>    <x:xmpmeta
       x:xmptk="Adobe XMP Core 5.6-c138 79.159824, 2016/09/14-01:09:01        ">
      <metadata>
        <rdf:RDF>
          <rdf:Description
             rdf:about="" />
          <cc:Work
             rdf:about="">
            <dc:format>image/svg+xml</dc:format>
            <dc:type
               rdf:resource="http://purl.org/dc/dcmitype/StillImage" />
          </cc:Work>
        </rdf:RDF>
      </metadata>
    </x:xmpmeta>
<?xpacket end="w"?>  </metadata>
  <path
     d="M 9.67,9 C 9.4192977,8.9933999 9.3738733,8.7168506 9.3639844,8.5210742 9.1083606,7.2077415 7.9977704,6.1957569 6.7365527,5.8439331 6.071721,5.6409462 5.3731392,5.5689013 4.68,5.57 4.6757371,6.2321982 4.6885119,6.8954314 4.6736407,7.5569865 4.636628,7.8251283 4.2663513,7.9172472 4.1095813,7.6964268 2.7689557,6.5053403 1.4234547,5.3193474 0.08587466,4.125079 -0.10118353,3.9195264 0.04486457,3.6297259 0.25184066,3.5059768 1.5736477,2.3528981 2.8904331,1.1934603 4.2153733,0.04434919 4.4673715,-0.1199659 4.7428714,0.18033579 4.68,0.43766621 4.68,1.0284441 4.68,1.6192221 4.68,2.21 7.2231091,2.0736805 9.5844843,4.0380887 9.8761074,6.5834035 9.9114134,7.3100203 10.225913,8.2163809 9.8739226,8.9051412 9.8208769,8.9607141 9.7466701,8.9952279 9.67,9 Z M 4.36,4.89 C 5.9033521,4.8955264 7.5818561,5.1641227 8.7404687,6.2709375 9.0368098,6.4423888 9.605053,7.5815754 9.2876386,6.5117446 8.9315449,4.1388303 6.5011743,2.6809828 4.234723,2.8486705 3.9491413,2.700182 4.0792625,2.3390407 4.05,2.0824186 4.05,1.7349458 4.05,1.3874729 4.05,1.04 2.97,1.9933333 1.89,2.9466667 0.81,3.9 1.89,4.86 2.97,5.82 4.05,6.78 4.0564258,6.2376817 4.0370703,5.6934759 4.0598132,5.1523482 4.086971,5.0084737 4.2114006,4.8926784 4.36,4.89 Z"
     id="path4"
     inkscape:connector-curvature="0" />
</svg>
