<svg xmlns="http://www.w3.org/2000/svg" width="16" height="16" viewBox="0 0 16 16">
  <metadata><?xpacket begin="﻿" id="W5M0MpCehiHzreSzNTczkc9d"?>
<x:xmpmeta xmlns:x="adobe:ns:meta/" x:xmptk="Adobe XMP Core 5.6-c138 79.159824, 2016/09/14-01:09:01        ">
   <rdf:RDF xmlns:rdf="http://www.w3.org/1999/02/22-rdf-syntax-ns#">
      <rdf:Description rdf:about=""/>
   </rdf:RDF>
</x:xmpmeta>





















<?xpacket end="w"?></metadata>

  <path d="M376.084,989.758h-4.073v10.22h13.154v-7.019l1.012-.976v8a1.019,1.019,0,0,1-1.012,1.022H372.011A1.018,1.018,0,0,1,371,999.978v-10.22a1.016,1.016,0,0,1,1.011-1.022h5.07l0.026,0.027Zm7.574,1.725a0.5,0.5,0,0,0,.358-0.15l2.988-3.1-2.988-3.1a0.5,0.5,0,0,0-.715,0,0.513,0.513,0,0,0,0,.722l2.352,2.376-2.352,2.375a0.513,0.513,0,0,0,0,.722A0.5,0.5,0,0,0,383.658,991.483Zm0.98-2.747a8.6,8.6,0,0,0-8.441,7.154h-1.019a9.636,9.636,0,0,1,9.481-8.176c0.522,0,1.026,0,1.518,0v1.033C385.689,988.743,385.181,988.736,384.638,988.736Z" transform="translate(-371 -985)"/>
</svg>
