<svg xmlns="http://www.w3.org/2000/svg" width="18" height="18" viewBox="0 0 18 18"><path d="M15.19 0a2.812 2.812 0 0 0-2.82 2.81 2.81 2.81 0 0 0 .075.635L4.89 7.113a2.81 2.81 0 0 0-2.08-.924A2.806 2.806 0 0 0 0 9a2.81 2.81 0 0 0 5.012 1.742l7.435 3.793a2.815 2.815 0 0 0-.078.654 2.815 2.815 0 1 0 2.82-2.82 2.815 2.815 0 0 0-2.268 1.14L5.52 9.74a2.81 2.81 0 0 0-.055-1.65l7.45-3.617A2.81 2.81 0 1 0 15.19 0zm0 1.12a1.69 1.69 0 1 1-1.69 1.69 1.686 1.686 0 0 1 1.69-1.69zM2.81 7.31A1.69 1.69 0 1 1 1.12 9a1.694 1.694 0 0 1 1.69-1.69zm12.38 6.19a1.685 1.685 0 1 1-1.69 1.69 1.686 1.686 0 0 1 1.69-1.69z" /></svg>