<svg xmlns="http://www.w3.org/2000/svg" viewBox="0 0 64 72"><path d="M11.9 10.1c1.595-.68 1.36-2.49.264-.464-.233.06-.411.751-.264.464zm0 0c1.595-.68 1.36-2.49.264-.464-.233.06-.411.751-.264.464zm6.2-4.8c-1.257 1.563-.82-1.58.042-.127l-.03.04-.012.087zm0 0c-1.257 1.563-.82-1.58.042-.127l-.03.04-.012.087zm.3-4.2c-.762.546-.465-.665 0 0zm0 0c-.762.546-.465-.665 0 0zm5.7 15.6c.76-2.062-.928-4.054-.988-6.15.226-1.988 3.069-.656 2.3 1.012.998 1.217 1.726 2.695.161 3.879.86.655-.832 2.29-1.473 1.259zm0 0c.76-2.062-.928-4.054-.988-6.15.226-1.988 3.069-.656 2.3 1.012.998 1.217 1.726 2.695.161 3.879.86.655-.832 2.29-1.473 1.259zm2 5.3c-.76-1.13-1.887-3.29-1.3-4.5 1.033.646 5.33 5.22 1.3 4.5zm0 0c-.76-1.13-1.887-3.29-1.3-4.5 1.033.646 5.33 5.22 1.3 4.5zm-10.4-9c-1.064 1.255-3.785 1.734-2.2-.1-.17-1.303 3.645-1.283 2.2.1zm0 0c-1.064 1.255-3.785 1.734-2.2-.1-.17-1.303 3.645-1.283 2.2.1zm4.4 3.7c-2.118-.362.331-1.465.3-.1l-.3.1zm0 0c-2.118-.362.331-1.465.3-.1l-.3.1zM14.3 18c-1.07 1-4.05 1.303-1.548-.167-.115-2.005 1.856-1.921 1.785-.07.269.365-.068.139-.237.237zm0 0c-1.07 1-4.05 1.303-1.548-.167-.115-2.005 1.856-1.921 1.785-.07.269.365-.068.139-.237.237zm7.7 3.1c.776-2.443-2.918.181-2.025 1.075.96.65 2.028.155 2.025-1.075zm0 0c.776-2.443-2.918.181-2.025 1.075.96.65 2.028.155 2.025-1.075zm-9.7 2.3c-2.462 1.106-2.014-3.344.3-1.3.301.37-.247.954-.3 1.3zm0 0c-2.462 1.106-2.014-3.344.3-1.3.301.37-.247.954-.3 1.3zm-.1 5.8c1.417-.122 1.68-2.044.813-2.9-.527-.825-.023 1.117-.65 1.1.544.667-.568 1.022-.163 1.8zm0 0c1.417-.122 1.68-2.044.813-2.9-.527-.825-.023 1.117-.65 1.1.544.667-.568 1.022-.163 1.8zm-7.7-2c-1.15 1.332-.168-1.03.05-.125l-.05.125zm0 0c-1.15 1.332-.168-1.03.05-.125l-.05.125zm3.6 3.1c-.932.253-1.849-1.664-1.9-.6 1.148 1.306-1.054.757-.65-.587-1.968.223-1.934 1.835.102 2.07.778 1.494 2.42.02 2.448-.883zm0 0c-.932.253-1.849-1.664-1.9-.6 1.148 1.306-1.054.757-.65-.587-1.968.223-1.934 1.835.102 2.07.778 1.494 2.42.02 2.448-.883zm.8-.1c-1.796-.628.986-2.441.7-.466.021.37-.605.187-.7.466zm0 0c-1.796-.628.986-2.441.7-.466.021.37-.605.187-.7.466zm.6 1.4c1.93-.432-1.325-2.453 0 0zm0 0c1.93-.432-1.325-2.453 0 0zm18-5.9c1.213.293 2.142-1.428.8-1.1-.166-.783-.977-1.722-1.3-.1-1.314.323.224.74.5 1.2zm0 0c1.213.293 2.142-1.428.8-1.1-.166-.783-.977-1.722-1.3-.1-1.314.323.224.74.5 1.2zm-1.4-.8c-1.425-.296.43 1.09 0 0zm0 0c-1.425-.296.43 1.09 0 0zm-.5-.3c-1.267-.318.203-1.412 0 0zm0 0c-1.267-.318.203-1.412 0 0zm-.1.2c-.881-.457-.757.724 0 0zm0 0c-.881-.457-.757.724 0 0zm-5.8 6.8c-1.2-1.158.43-3.037 1.734-2.3 1.069-.647.337 1.15 1.466.6-.518.891-2.242 3.345-3.2 1.7zm0 0c-1.2-1.158.43-3.037 1.734-2.3 1.069-.647.337 1.15 1.466.6-.518.891-2.242 3.345-3.2 1.7zm-2-.9c-.208-.858 1.773-1.455 1.2-.2-.917.355-.322 1.167-1.2.2zm0 0c-.208-.858 1.773-1.455 1.2-.2-.917.355-.322 1.167-1.2.2zm-.5 0c-1.166.36.009-1.184 0 0zm0 0c-1.166.36.009-1.184 0 0zm10.4 2.2c1.227-2.882-2.264-2.2-3.6-1.5-1.042.29-.34 2.735-.9 3.638 1.593.382 2.81-.08 3.75-1.488.224-.282.556-.468.75-.65zm0 0c1.227-2.882-2.264-2.2-3.6-1.5-1.042.29-.34 2.735-.9 3.638 1.593.382 2.81-.08 3.75-1.488.224-.282.556-.468.75-.65zm2.8 2.5c-1.085-1.298 1.638-.99 0 0zm0 0c-1.085-1.298 1.638-.99 0 0zm-2.8 5.7c-1.6.192-1.751-1.502-.113-.938.833 1.17.568-1.355 1.913.138 1.095.357 1.764-1.569 2.413-.15.722 1.462-1.013-.056-1.913.35-.717.46-1.517.983-2.3.6zm0 0c-1.6.192-1.751-1.502-.113-.938.833 1.17.568-1.355 1.913.138 1.095.357 1.764-1.569 2.413-.15.722 1.462-1.013-.056-1.913.35-.717.46-1.517.983-2.3.6zm-1.9-3.2c-1.223-1.51 1.43-.306 0 0zm0 0c-1.223-1.51 1.43-.306 0 0zm-2.2-1c-.446-1.684 1.613-.126 0 0zm0 0c-.446-1.684 1.613-.126 0 0zm-1.1.2c1.717-.838-1.822-.528 0 0zm0 0c1.717-.838-1.822-.528 0 0zm-2.9 2.3c-1.153.35-1.439-1.824-1.064-2.536 1.344-1.613 1.54 1.204 1.852 1.774-.5.069-.38.663-.788.762zm0 0c-1.153.35-1.439-1.824-1.064-2.536 1.344-1.613 1.54 1.204 1.852 1.774-.5.069-.38.663-.788.762zm-4.7-2.2c1.486.497 3.06-1.237.9-.9.12.748-1.674.172-.9.9zm0 0c1.486.497 3.06-1.237.9-.9.12.748-1.674.172-.9.9zm-2.9-.7c-.02-.43-.63-2.562.4-1 .407.4.426 2.236-.4 1zm0 0c-.02-.43-.63-2.562.4-1 .407.4.426 2.236-.4 1zm5.5 8c1.014-.768-1.116-2.556.6-1.2 1.655 1.507-1.107 4.214-2.1 2.1.426-.851 1.596.61 1.5-.9zm0 0c1.014-.768-1.116-2.556.6-1.2 1.655 1.507-1.107 4.214-2.1 2.1.426-.851 1.596.61 1.5-.9zm-.8-1.1c-.751 1.29-.095-1.453 0 0zm0 0c-.751 1.29-.095-1.453 0 0zm6.1 5.4c-1.712.03-1.338-2.099-.064-1.064-.114.368.829 1.054.064 1.064zm0 0c-1.712.03-1.338-2.099-.064-1.064-.114.368.829 1.054.064 1.064zm25.5 16.1c1.484-.623 4.46-2.202 4.313-3.838-1.326.048-2.501-.739-3.947-.362-1.039.077-2.2-.256-3.066.4-1.285.238-2.966.939-4.1 1.5 1.278 1.556-1.4 2.461-1.8 4.3 1.569 2.4 4.634-1.336 6-.4.881 1.443 1.389-1.923 2.6-1.6zm0 0c1.484-.623 4.46-2.202 4.313-3.838-1.326.048-2.501-.739-3.947-.362-1.039.077-2.2-.256-3.066.4-1.285.238-2.966.939-4.1 1.5 1.278 1.556-1.4 2.461-1.8 4.3 1.569 2.4 4.634-1.336 6-.4.881 1.443 1.389-1.923 2.6-1.6zm.1-8.5c-.84-.36-1.605-2.196.267-2.2 1.97.966-1.455-.11.433 1-.19.491-.269.855-.7 1.2zm0 0c-.84-.36-1.605-2.196.267-2.2 1.97.966-1.455-.11.433 1-.19.491-.269.855-.7 1.2zm-5 3.8c-2.133-.093 1.11-1.031 0 0zm0 0c-2.133-.093 1.11-1.031 0 0zm-2.2 0c-1.381.16-1.712-1.667-.013-.988.246.2.048.778.013.988zm0 0c-1.381.16-1.712-1.667-.013-.988.246.2.048.778.013.988zm-.5-5c-1.054-.588.074-2.745-1.7-2-.824 1.078.972.684.3 2.1.33.288 1.736.972 1.4-.1zm0 0c-1.054-.588.074-2.745-1.7-2-.824 1.078.972.684.3 2.1.33.288 1.736.972 1.4-.1zM39 50c.148-2.364-2.657.416-.233.3.274.113-.005-.251.233-.3zm0 0c.148-2.364-2.657.416-.233.3.274.113-.005-.251.233-.3zm-.3-2c-1.865.405.691-1.5 0 0zm0 0c-1.865.405.691-1.5 0 0zm3.3-3.6c-1.74-1.09-3.322.617-5 .05-1.204-1.062-1.166 2.729-.7 1.15.987-.865 2.047-.891 3.013.337 1.38-1.665 3.948 1.07 4.574-.387-.677-.83-.607-1.46-1.887-1.15zm0 0c-1.74-1.09-3.322.617-5 .05-1.204-1.062-1.166 2.729-.7 1.15.987-.865 2.047-.891 3.013.337 1.38-1.665 3.948 1.07 4.574-.387-.677-.83-.607-1.46-1.887-1.15zm-.2-1.1c1.145-.873-1.627-1.215 0 0zm0 0c1.145-.873-1.627-1.215 0 0zm-2.2-3.4c-.847-.92-.465-2.504.5-.8.256 1.045 1.141 3.117-.7 2.5-1.814.313-1.057-1.384.2-1.7zm0 0c-.847-.92-.465-2.504.5-.8.256 1.045 1.141 3.117-.7 2.5-1.814.313-1.057-1.384.2-1.7zm-.1-4.3c-1.452-.385.093.988-.6 1.5.795 2.306 1.293-1.345.6-1.5zm0 0c-1.452-.385.093.988-.6 1.5.795 2.306 1.293-1.345.6-1.5zm-.2-.7c-.245.965-.543-.282 0 0zm0 0c-.245.965-.543-.282 0 0zm5.5-2.4c-2.892-1.373 1.164-1.1 0 0zm0 0c-2.892-1.373 1.164-1.1 0 0zm-5.1.7c-1.168-1.589.21 2.323.3.1l-.3-.1zm0 0c-1.168-1.589.21 2.323.3.1l-.3-.1zm.5-1.2c-1.179-.835.547-1.134 0 0zm0 0c-1.179-.835.547-1.134 0 0zM38 30.2c-1.03-1.447-2.354 2.507-1.4 1.533.193-1.966 1.101.48 1.4-1.533zm0 0c-1.03-1.447-2.354 2.507-1.4 1.533.193-1.966 1.101.48 1.4-1.533zm-5.7 6.2c-2.355-.902.567-.736 0 0zm0 0c-2.355-.902.567-.736 0 0zM24.8 44c-.823-1.353.94-2.979 1.2-1 1.36.566.424-1.744 1.9-.5.67 2.167-.84 1.117-1.938.912-.488.62-.194 1.911-1.162.588zm0 0c-.823-1.353.94-2.979 1.2-1 1.36.566.424-1.744 1.9-.5.67 2.167-.84 1.117-1.938.912-.488.62-.194 1.911-1.162.588zm3.7 6.1c-1.062-.204 1.15-.575 0 0zm0 0c-1.062-.204 1.15-.575 0 0zm1 10.4c-.135-.632-.065-1.21.9-1.867-.137-1.506.134-2.526 1.475-2.783.782-.315 2.32-3.162 3.025-1.95-1.125.608-1.501 1.947-2.9 2.4-.422.903.431 2.184-.5 2.9 1.141 1.473-1.779.29-2.1 1.5l.1-.2zm0 0c-.135-.632-.065-1.21.9-1.867-.137-1.506.134-2.526 1.475-2.783.782-.315 2.32-3.162 3.025-1.95-1.125.608-1.501 1.947-2.9 2.4-.422.903.431 2.184-.5 2.9 1.141 1.473-1.779.29-2.1 1.5l.1-.2zm-3.8-.8c-1.06.016-1.13-1.07.2-1.2.41.414 1.268.214 1.9.7-.416.75-1.367.037-2.1.5zm0 0c-1.06.016-1.13-1.07.2-1.2.41.414 1.268.214 1.9.7-.416.75-1.367.037-2.1.5z" stroke="#fff" stroke-width=".5" stroke-miterlimit="8"/></svg>
