<?xml version="1.0" encoding="iso-8859-1"?>
<!-- Generator: Adobe Illustrator 19.0.0, SVG Export Plug-In . SVG Version: 6.00 Build 0)  -->
<svg version="1.1" id="Layer_1" xmlns="http://www.w3.org/2000/svg" xmlns:xlink="http://www.w3.org/1999/xlink" x="0px" y="0px"
	 viewBox="0 0 512 512" style="enable-background:new 0 0 512 512;" xml:space="preserve">
	<g fill="#8891a6">
		<path d="M425.567,28.444c-5.236,0-8.382,4.161-8.382,9.397v85.418h-67.002c-5.236,0-8.85,4.633-8.85,9.869v75.464h-76.951
			c-5.236,0-8.382,4.105-8.382,9.341v75.992h-76.428c-5.236,0-8.905,4.165-8.905,9.402v75.932H93.715
			c-5.236,0-8.382,4.633-8.382,9.869v75.464H0v18.963h93.715c5.236,0,10.581-3.858,10.581-9.094v-76.24h75.275
			c5.236,0,10.058-3.858,10.058-9.094v-76.24h74.752c5.236,0,10.581-4.325,10.581-9.561v-75.772h75.22
			c5.236,0,10.113-4.385,10.113-9.622v-75.712h65.271c5.236,0,10.581-3.858,10.581-9.094V47.407H512V28.444H425.567z"/>
		<path d="M425.567,293.926h-56.889c-5.236,0-9.481,4.245-9.481,9.482s4.245,9.482,9.481,9.482h29.417l-55.083,55.042
			c-3.704,3.704-3.704,9.682,0,13.385c1.852,1.852,4.278,2.767,6.704,2.767c2.426,0,5.402-0.931,7.254-2.783l60.216-59.672v38.583
			c0,5.236,4.245,9.482,9.482,9.482s9.481-4.246,9.481-9.482v-56.889C436.148,298.087,430.803,293.926,425.567,293.926z"/>
	</g>
</svg>
