<svg xmlns="http://www.w3.org/2000/svg" width="18" height="18" viewBox="0 0 18 18"><defs><style>.cls-1 { fill: #31353f; fill-rule: evenodd; }</style></defs><path id="Star" class="cls-1" d="M9 1.12l2.05 4.4.36.77.83.13 4.66.71-3.4 3.51-.57.59.13.82.8 4.9-4.12-2.29-.74-.41-.75.41-4.11 2.29.8-4.9.13-.82-.57-.59-3.4-3.51 4.66-.71.83-.13.35-.77L9 1.12M9 0a1.31 1.31 0 0 0-1.18.75L5.79 5.11l-4.69.72a1.316 1.316 0 0 0-.73 2.21l3.43 3.53-.79 4.91a1.29 1.29 0 0 0 .53 1.28 1.265 1.265 0 0 0 .75.24 1.435 1.435 0 0 0 .63-.16L9 15.57l4.08 2.27a1.435 1.435 0 0 0 .63.16 1.287 1.287 0 0 0 .75-.24 1.308 1.308 0 0 0 .53-1.28l-.79-4.91 3.43-3.53a1.314 1.314 0 0 0-.74-2.21l-4.68-.72L10.18.75A1.31 1.31 0 0 0 9 0z"/></svg>