<svg xmlns="http://www.w3.org/2000/svg" viewBox="0 0 64 72"><path d="M1.6 29.2c-.507-3.119 3.268-4.028 4.338-6.5.334-1.626 2.584.652 3.762-.5 2.188.406 4.176 1.392 6.066 2.533 1.088.795 1.847.313 2.434.067 1.68 1.72 2.7 4.249 3.6 6.5.996 1.084 3.112 3.743.013 2.712-2.837-.625-5.177 1.262-8.063.213-2.714 1.45-5.514-.384-8.347.658-1.906 1.227-3.8-1.585-3.453-3.67-.357-.621-.037-1.415-.35-2.013zm12.7 18.1c.952-2.708-2.02-3.852-2.5-6.1-1.346-1.634-3.67-1.796-5.5-1.1-.174 1.862-3.892 1.937-2.8-.1-.122-1.47 2.825-.974 1.625-3.163.336-1.363-.617-2.56 1.675-2.437 2.429-.645 4.811.926 7.147-.4 2.293.377 4.351.154 6.458-.469 1.505.383 3.812-.284 3.295 1.869 1.496 1.33.012 3.103-1.1 4.1-1.205 1.551.054 3.528-1.9 4.2-1.08 1.838-1.888 5.268-4.77 4.323-.927-.294-1.285-.634-1.63-.723zm28.8 4.3c-.629 1.94-3.083.165-4.1 1.9-.996.121-3.084-.188-2.538-1.538 1.2-1.12 1.685-.216 1.288.725 1.718-.316 2.83-1.18 2.188-2.775.578-.844-.957-3.502-2.626-2.925-.463-1.53-1.901-1.315-2.512-.087-1.855-.498-3.23.463-2.8 2.447.286.788 1.905-.105 1.3 1.603-.122.808 1.54.775 1.2 2.15-1.737.755-.405 1.742.9 1.1.758.717-1.65.641-1.4 1.8-2.25-.78-3.929-2.76-6.1-3.6-2.843-.03-3.267-2.98-1.3-4.6 1.93-.85 3.341-1.989 4.312-3.95.92-1.633 5.034.49 3.188-2.15.173-1.844 3.001-2.35 4.01-1.59 2.005.95 1.912 3.403 3.227 4.79.259 1.195.774 2.249 1.063 3.5-.645 1.162.584 2.257.7 3.2zm5.9 4.6c.538-1.092-1.343-3.35.2-3.2.439 1.48 2.03 2.442 2.4 3.2-1.113.817-1.62.506-2.6 0zm0 0c.538-1.092-1.343-3.35.2-3.2.439 1.48 2.03 2.442 2.4 3.2-1.113.817-1.62.506-2.6 0zm-2.4-2.9c-.86-.066-3.148.49-2.587-.925 1.212.117 3.018-1.514 2.75.662l-.163.263zm0 0c-.86-.066-3.148.49-2.587-.925 1.212.117 3.018-1.514 2.75.662l-.163.263zm15-1.6c2.2-1.963-1.449-1.682-.3-.2l.3.2zm0 0c2.2-1.963-1.449-1.682-.3-.2l.3.2zm-1.5.4c-1.554 2.232-1.582-2.602 0-.5-.107.167.091.34 0 .5zm0 0c-1.554 2.232-1.582-2.602 0-.5-.107.167.091.34 0 .5zm-3.7 1.4c-1.046.837-2.127 2.198-3.3 2.4-.154-.905 1.442-1.15 1.65-2.038.48-.255 2.34-2.446 1.887-.575l-.237.213zm0 0c-1.046.837-2.127 2.198-3.3 2.4-.154-.905 1.442-1.15 1.65-2.038.48-.255 2.34-2.446 1.887-.575l-.237.213zm.4 1.2c.446-1.767-2.45 1.721-.412 1.05.3-.283.304-.679.412-1.05zm0 0c.446-1.767-2.45 1.721-.412 1.05.3-.283.304-.679.412-1.05zm1.8 4.2c-.443-1.6-1.01 2.25.027.077L58.6 58.9zm0 0c-.443-1.6-1.01 2.25.027.077L58.6 58.9zM23.5 34.4c.217-1.756-2.19-3.004-2.262-4.95-1.212-1.472-2.012-4.13-3.138-4.95-1.49-2.932 2.703-2.087 4.237-3.163 2.356-.7 3.465-4.332 6.15-2.537-.102 1.32.13 2.785 1.563 1.175 2.235.174-.166 3.548 2.05 4.425.226 2.752 3.516 3.017 3.4 5.7 2.497 1.677 1.72 4.452 1.913 6.95.974 2.17-.156 2.513-1.925 2.85-2.465.626 1.01 3.986-2.188 2.913-2.255-.494-2.777 2.276-4 3.487-1.738-.062-3.248 2.316-3.6 2.7-1.002-1.83-1.615-3.92-3.321-5.321-1.56-.599-.646-3.186.258-4.067 1.686-1.268 1.653-2.963.563-4.512.11-.25.366-.738.3-.7z" stroke="#fff" stroke-width=".5" stroke-miterlimit="8"/></svg>
