<?xml version="1.0" encoding="iso-8859-1"?>
<!-- Generator: Adobe Illustrator 16.0.0, SVG Export Plug-In . SVG Version: 6.00 Build 0)  -->
<!DOCTYPE svg PUBLIC "-//W3C//DTD SVG 1.1//EN" "http://www.w3.org/Graphics/SVG/1.1/DTD/svg11.dtd">
<svg version="1.1" id="Capa_1" xmlns="http://www.w3.org/2000/svg" xmlns:xlink="http://www.w3.org/1999/xlink" x="0px" y="0px"
	 width="472.259px" height="472.26px" viewBox="0 0 472.259 472.26" style="enable-background:new 0 0 472.259 472.26;"
	 xml:space="preserve">

	<g fill="#8891a6">
		<path d="M462.127,17.649c-13.359-18.848-39.475-23.304-58.322-9.945L284.829,92.026c-17.126,12.135-22.204,34.741-13.005,52.919
			l-32.475,23.074c-2.524,1.808-4.025,4.715-4.025,7.803v94.611l-22.032,20.234l-78.374-41.529L1.042,472.26l347.435-109.969
			l-117.256-62.127l20.129-18.494c1.979-1.807,3.099-4.352,3.099-7.039v-93.875l29.146-20.722
			c14.22,11.943,35.133,13.445,50.997,2.209l118.977-84.322c18.848-13.359,23.304-39.474,9.944-58.322L462.127,17.649z"/>
	</g>

</svg>
