<?xml version="1.0" encoding="iso-8859-1"?>
<!-- Generator: Adobe Illustrator 16.0.0, SVG Export Plug-In . SVG Version: 6.00 Build 0)  -->
<!DOCTYPE svg PUBLIC "-//W3C//DTD SVG 1.1//EN" "http://www.w3.org/Graphics/SVG/1.1/DTD/svg11.dtd">
<svg version="1.1" id="Capa_1" xmlns="http://www.w3.org/2000/svg" xmlns:xlink="http://www.w3.org/1999/xlink" x="0px" y="0px"
	 width="70.074px" height="70.075px" viewBox="0 0 70.074 70.075" style="enable-background:new 0 0 70.074 70.075;"
	 xml:space="preserve">
	<path d="M54.641,41.571c-0.835-6.824-4.601-11.832-9.257-11.832H24.699c-4.658,0-8.424,5.006-9.265,11.828
		c-2.94,1.688-4.494,4.891-4.494,8.615c0,2.336,0.633,4.457,1.803,6.152v7.479h9.825v-3.748H47.51v3.748h9.825v-7.479
		c1.17-1.695,1.804-3.816,1.804-6.152C59.134,46.461,57.583,43.254,54.641,41.571z M19.266,53.394c-1.773,0-3.211-1.435-3.211-3.212
		c0-1.774,1.438-3.212,3.211-3.212c1.772,0,3.212,1.438,3.212,3.212C22.478,51.959,21.038,53.394,19.266,53.394z M20.412,40.303
		c-0.638,0-1.226,0.072-1.803,0.164c0.925-4.481,3.333-7.78,6.084-7.78H45.38c2.751,0,5.159,3.298,6.083,7.78
		c-0.308-0.048-0.632-0.064-0.956-0.087c0-0.029,0.007-0.05,0.007-0.077c0-2.834-2.301-5.137-5.134-5.137
		c-2.831,0-5.133,2.303-5.133,5.137H20.412z M44.366,53.041H25.71c-0.542,0-0.983-0.438-0.983-0.981c0-0.54,0.439-0.98,0.983-0.98
		h18.656c0.543,0,0.983,0.44,0.983,0.98C45.35,52.602,44.909,53.041,44.366,53.041z M44.366,50.23H25.71
		c-0.542,0-0.983-0.44-0.983-0.98c0-0.543,0.439-0.981,0.983-0.981h18.656c0.543,0,0.983,0.438,0.983,0.981
		C45.35,49.79,44.909,50.23,44.366,50.23z M42.213,40.303c0-1.752,1.419-3.171,3.171-3.171c1.743,0,3.166,1.419,3.166,3.171H42.213z
		 M50.809,53.394c-1.774,0-3.214-1.435-3.214-3.212c0-1.774,1.439-3.212,3.214-3.212s3.209,1.438,3.209,3.212
		C54.018,51.959,52.583,53.394,50.809,53.394z M70.074,6.26v57.554H68.11V8.222H1.966v55.592H0V6.26H70.074z M3.272,9.582h63.532
		v3.931H3.274L3.272,9.582L3.272,9.582z M3.272,15.064h63.532v3.928H3.274L3.272,15.064L3.272,15.064z M3.272,20.543h63.532v3.929
		H3.274L3.272,20.543L3.272,20.543z" fill="#8891a6"/>
</svg>
