<svg xmlns="http://www.w3.org/2000/svg" width="16" height="16" viewBox="0 0 16 16">
  <metadata><?xpacket begin="﻿" id="W5M0MpCehiHzreSzNTczkc9d"?>
<x:xmpmeta xmlns:x="adobe:ns:meta/" x:xmptk="Adobe XMP Core 5.6-c138 79.159824, 2016/09/14-01:09:01        ">
   <rdf:RDF xmlns:rdf="http://www.w3.org/1999/02/22-rdf-syntax-ns#">
      <rdf:Description rdf:about=""/>
   </rdf:RDF>
</x:xmpmeta>





















<?xpacket end="w"?></metadata>

  <path d="M379,792c1.7,0,3.5,1.432,3.5,2.5V797a5.154,5.154,0,0,1-1.474,3.65,1,1,0,0,0,.2,1.7l4.353,2.065a0.559,0.559,0,0,1,.417.615V806H372v-1.016a0.6,0.6,0,0,1,.419-0.577l4.393-2.075a1,1,0,0,0,.208-1.689A5.316,5.316,0,0,1,375.5,797v-2.5c0-1.045,1.82-2.5,3.5-2.5m0-1c-2.209,0-4.5,1.845-4.5,3.5V797a6.268,6.268,0,0,0,1.9,4.427L372,803.5a1.705,1.705,0,0,0-1,1V806a1,1,0,0,0,1,1h14a1,1,0,0,0,1-1v-1.5a1.611,1.611,0,0,0-1-1l-4.354-2.066A6.056,6.056,0,0,0,383.5,797v-2.5c0-1.656-2.292-3.5-4.5-3.5h0Z" transform="translate(-371 -791)"/>
</svg>
