<svg xmlns="http://www.w3.org/2000/svg" width="16" height="16" viewBox="0 0 16 16">
  <metadata><?xpacket begin="﻿" id="W5M0MpCehiHzreSzNTczkc9d"?>
<x:xmpmeta xmlns:x="adobe:ns:meta/" x:xmptk="Adobe XMP Core 5.6-c138 79.159824, 2016/09/14-01:09:01        ">
   <rdf:RDF xmlns:rdf="http://www.w3.org/1999/02/22-rdf-syntax-ns#">
      <rdf:Description rdf:about=""/>
   </rdf:RDF>
</x:xmpmeta>





















<?xpacket end="w"?></metadata>
  <path d="M386.988,941.18a1.626,1.626,0,0,0-1.215-1.69L374.6,937.008l-0.1-.012a1.585,1.585,0,0,0-1.5,1.655v2.219h-0.5A1.586,1.586,0,0,0,371,942.524v8.824A1.585,1.585,0,0,0,372.5,953h13a1.585,1.585,0,0,0,1.5-1.655M374.447,938.1l11.026,2.463a0.45,0.45,0,0,1-.482.3h-11v-2.217A0.532,0.532,0,0,1,374.447,938.1ZM386,951.348a0.528,0.528,0,0,1-.5.552h-13a0.528,0.528,0,0,1-.5-0.552v-8.824a0.528,0.528,0,0,1,.5-0.552h12.5a0.876,0.876,0,0,0,1-.55v9.926Zm-12-5.512a1.109,1.109,0,1,1-1,1.1A1.055,1.055,0,0,1,374,945.836Z" transform="translate(-371 -937)"/>
</svg>
