<svg xmlns="http://www.w3.org/2000/svg" preserveAspectRatio="xMidYMid meet" viewBox="0 0 64 72"><path d="M13.4 47.3c1.667-1.86 4.336-3.676 6.938-3.325 2.328 1.434 4.398 3.146 7.301 1.725 2.87-1.865 5.818-.134 8.357 1.364 1.676 1.641 4.709 1.614 5.779 3.436.39 2.68 1.261 5.303 1.625 8 1.722 1.695 1.838 4.271 2.5 6.2.5 1.787-1.7 1.209-2.82 1.3-3.545-.703-7.031-2.112-10.717-1.8-3.138-.835-5.415 2.516-8.613 1.475-1.304-.957-2.808-2.166-4.799-1.775-3.394.57-3.756-2.612-4.076-4.938-.824-2.52-1.514-5.038-4.075-6.362-.338-2.111.305-4.61 2.6-5.3zM57.9 49c-1.767 2.84-3.319 6.042-6.276 7.861-2.032 1.35-5.13 3.337-7.049 3.202-1.928-1.988-1.484-5.108-2.513-7.613.316-2.646-1.591-3.329-3.662-3.963-2.56-1.332-5.05-3.445-8.005-3.652-2.536.393-5.866 2.523-7.995.265-1.18-1.4-3.641-1.142-4.528-1.158-.335-2.63.887-5.397 3.628-6.167 2.804-.578 5.928.12 8.597-1.14 2.01-.923 3.057-3.2 2.803-5.335.534-1.94 1.41-2.684 3.25-2.837.946-1.845 2.73-1.492 4.45-1.463 2.079-.824 5.122-1.998 5-4.688-.356-2.42 1.044-3.124 2.75-1.187 1.628.705 3.273.706 1.75 2.775-1.427 3.122-.42 7.44 2.927 8.856 2.231.98 4.338 2.765 4.273 5.344 1.07.913 2.14 1.778 2.703 3.225 1.755.789 2.472 1.522.697 2.875-1.04 1.529-2 3.14-2.8 4.8zm-25-17.5c.487 3.2-2.42 6.24-5.64 6.04-2.842.44-6.271-.488-8.315 2.147-1.945 1.859.186 5.366-3.158 5.738-1.59 1.045-2.315 2.864-3.837.9-3.397-.677-.323-4.39-2.55-5.925-1.814-.35-3.48 4.686-5.064 1.163-.52-2.994-3.389-4.27-1.436-7.263 1.206-3.358 5.67-.516 6.9-3.8 1.063-2.586 5.067-3.025 3.6-6.1-.097-2.374 3.82-1.74 4.2.2 2.738.21 3.833-3.188 4.9-5.2 2.382-1.83 3.712 1.385 5.4 2.4-.448 3.267 3.13 3.98 3.6 6.95.448.725.734 2.71 1.4 2.75zM46 19.8c-.414 1.667.045 3.61-1.236 4.972-1.743 1.269-3.71 2.613-5.967 2.2-1.858-.142-2.664 2.661-4.702 2.24-.55 1.42-1.135 3.51-1.714.852-.43-2.883-2.701-4.274-3.956-6.464.206-2.364-2.265-4.05-3.97-5-2.727-.161-2.562 3.628-4.455 4.9-2.473 3.024-3.18-2.7-5.863-.525-.667-.97-.905-3.859-3.137-4.275-1.68-2.433-1.602-7.745 2.262-7.781 2.527.698 4.85-.783 7.238-.819 2.204 2.688 5.463.856 7.325-1.238 2.135-1.168 4.614.726 6.425 1.838 2.912 1.83 4.129-2.36 6.05-3.325 1.747.458 3.713-.627 4.49-1.16.338 1.659.575 3.911-1.09 4.985-2.01 1.093-1.463 3.075.6 3.1 2.387 1.05 1.302 3.544 1.7 5.5z" clip-rule="evenodd" fill-rule="evenodd" stroke="#fff" stroke-width=".5" stroke-miterlimit="10"/></svg>
