<svg xmlns="http://www.w3.org/2000/svg" viewBox="0 0 64 72"><path d="M45.4 66.9c.515 1.802-2.274-.252-2.397 1.91-1.782 2.52-2.349-.912-3.603-1.41-1.156 1.952-3.35 2.951-5.6 2.5-.606-3.286-3.064-5.86-5.513-7.956-1.133-1.835-4.075-3.069-5.175-2.206.527-2.604-.041-6.029-3.075-6.788-3.434.707-3.485-4.216-.337-4.35 1.877-.592 2.622-2.63 4.1-3.8.73-1.362 3.025-1.066 3.937-.237.849 1.567 4.002.516 3.063 3.337.481 2.476 3.13 4.296 5.626 4 2.11.205 2.251-3.838 4.474-2.3-.426 1.667 2.98 3.355 1 4.2-1.641.499-2.842 2.123-2.5 3.861-1.163 2.552-.315 5.585 2.8 5.239 1.966.056 2.217 2.71 3.2 4zm.9-47.5c-.28 1.267-1.756 2.112-.063 3.075.259 1.617-2.958 1.728-.875 3.525.673 1.818-3.727 2.465-3.112 5.088-.194 2.275-2.313 1.797-3.65 1.312-.963 2.528-3.221 1.842-5 1.2-1.855.154-4.521 3.415-5.487.863 1.378-1.244-2.44-1.232-2.313-3.163-.325-.819-1.074-4.212-1.825-1.9 1.344 1.657.89 3.71-1.452 3.994-.358 1.352-2.494 1.81-3.66 1.294 0-.95-2.72-.247-.763-1.588.916-1.686-.4-4.047-1.065-5.6-1.653 1.094-1.757-1.038-1.035-2.096-1.526-1.4-.276-4.272-2.988-4.129-1.747-1.448-.347-6.024-3.375-3.337-2.369-.15-1.933-3.245-.237-3.438-.53-.805-2.2-2.809-.2-2.4.851 1.488 2.152-.286 2.5-.5.147 2.74 2.895-1.404 4.237.975-.037 1.807 2.064 2.902 2.063.825 1.036-.657 2.502 2.64 1.85-.013-1.102-1.865.877-3.703-1.25-5.287.236-2.139 2.342-3.472 3.996-2.1 1.675-.237 3.243-1.579 5.03-1.5 2.03-.085-.068 2.854.476 4.064-.7 2.469 3.172 1.689 2.198 4.136 1.334 1.67.98-2.813 1.5-.1-.936 1.751 3.043 1.909 1 4-1.342 3.145 2.165 4.684 4.65 4.95 2.28.738 5.236-.105 6.75-1.65.48-.218 1.417-.192 2.1-.5zm-3.6 33.7c-1.682-.857-1.01-4.081-3.2-3.8-1.031 1.572-2.472 3.272-4.613 2.638-2.773-.358-4.59-3.214-4.387-5.838-1.675-.202-2.687-1.732-4.2-2.1-1.563-.129-2.414.105-1-1.7-.933-3.155 2.55-3.943 4.4-1.9 2.56 1.896 5.316-.889 6.574-3.048 1.208-2.477 4.905-4.016 7.126-1.94 1.914 2.005 4.804 2.483 6.888 4.313C52.154 41.44 55.83 41 57.2 42.4c-.782 2.367-.305 5.615-2.7 6.6-1.55 1.567-2.141 3.69-2.7 5.4-.9 1.478-3.692-.036-5.313.563-1.306-.151-3.202-.547-3.787-1.863z" clip-rule="evenodd" fill-rule="evenodd" stroke="#fff" stroke-width=".5" stroke-miterlimit="8"/></svg>
