<svg xmlns="http://www.w3.org/2000/svg" width="32" height="32" viewBox="0 0 32 32"><path d="M18.474 20.473a.98.98 0 0 0-.08-.356c-.059-.146-.185-.22-.344-.235-.186-.018-.334.057-.469.177-.054.047-.079.117-.079.117l.003 3.787v.093l.037.05c.11.118.238.212.401.246.27.055.46-.057.512-.307a.92.92 0 0 0 .021-.19c.002-1.128.004-2.255-.002-3.382zm0 0a.98.98 0 0 0-.08-.356c-.059-.146-.185-.22-.344-.235-.186-.018-.334.057-.469.177-.054.047-.079.117-.079.117l.003 3.787v.093l.037.05c.11.118.238.212.401.246.27.055.46-.057.512-.307a.92.92 0 0 0 .021-.19c.002-1.128.004-2.255-.002-3.382zm4.241-5.712a313.604 313.604 0 0 0-13.45 0 2.86 2.86 0 0 0-2.798 2.86v7.001a2.86 2.86 0 0 0 2.799 2.861c4.483.096 8.967.096 13.449 0a2.86 2.86 0 0 0 2.8-2.861v-7a2.86 2.86 0 0 0-2.8-2.861zM10.582 25.26H9.29v-7.307H7.952V16.73h3.971v1.22h-1.34v7.31zm4.626-3.033v3.034h-1.144v-.694c-.042.045-.065.068-.087.093-.246.278-.525.51-.882.632a1.07 1.07 0 0 1-.536.049.66.66 0 0 1-.518-.413 1.602 1.602 0 0 1-.119-.66c-.003-.835-.001-5.255-.001-5.298h1.141c.002.039.007 3.211.007 4.759 0 .084.001.17.018.252.042.208.201.297.401.224.23-.084.406-.243.553-.433.022-.027.022-.076.022-.116v-4.693l1.145-.003v3.267zm4.355 2.427c-.153.46-.49.695-.974.69a1.293 1.293 0 0 1-.976-.445l-.111-.118v.478h-1.147v-8.53h1.147v2.808s.064-.129.123-.196a1.33 1.33 0 0 1 .66-.42c.44-.11.948.027 1.19.541.142.304.182.628.182.958.002 1.192.002 2.384 0 3.577 0 .223-.023.443-.094.657zm4.235-.24c-.199.582-.61.905-1.211.993-.374.055-.744.047-1.094-.111-.479-.216-.75-.607-.867-1.105a3.331 3.331 0 0 1-.084-.712c-.009-.934-.005-1.869-.002-2.803 0-.488.117-.939.452-1.313.381-.427.87-.587 1.428-.55a2 2 0 0 1 .498.09c.542.178.832.584.946 1.123.043.208.06.423.063.636.01.498-.004 1.597-.004 1.597h-2.195v1.574a.511.511 0 1 0 1.022 0v-.81h1.18s.017.956-.132 1.391zM22.75 20.4a.512.512 0 1 0-1.022 0v.883h1.022V20.4zm-4.356-.281c-.059-.147-.185-.22-.344-.236-.186-.018-.334.057-.469.177-.054.047-.079.117-.079.117l.003 3.787v.093l.037.05c.11.118.238.212.401.246.27.055.46-.057.512-.307a.92.92 0 0 0 .021-.19c.002-1.128.004-2.255-.002-3.382a.97.97 0 0 0-.08-.355zm2.931-13.453v6.333h-1.173l.001-.68c-.13.127-.24.247-.362.354-.216.19-.46.332-.746.388-.439.085-.813-.053-.953-.508a1.673 1.673 0 0 1-.076-.472V6.666h1.165v4.83c0 .064.005.128.016.19.036.2.183.294.375.227.233-.08.411-.242.563-.433.021-.027.017-.078.017-.118V6.666h1.173zm-9.705 1.1c-.255-1.073-.789-3.34-.789-3.34H9.496l1.484 4.92a.605.605 0 0 1 .025.172v3.48h1.23v-3.48c0-.058.008-.117.024-.172.459-1.517 1.485-4.92 1.485-4.92h-1.336s-.533 2.267-.788 3.34zm3.731-1.259a1.68 1.68 0 0 0-1.68 1.68v3.29a1.68 1.68 0 0 0 3.36 0v-3.29a1.68 1.68 0 0 0-1.68-1.68zm.485 5.035a.485.485 0 0 1-.97 0v-3.42a.485.485 0 0 1 .97 0v3.42z"/></svg>
