<svg xmlns="http://www.w3.org/2000/svg" xmlns:xlink="http://www.w3.org/1999/xlink" width="446" height="454"><defs><filter id="a" width="134.8%" height="134.8%" x="-17.4%" y="-17.4%" filterUnits="objectBoundingBox"><feGaussianBlur in="SourceGraphic" stdDeviation="20"/></filter><path id="b" d="M194.725.84l-44.661.041-66.188.087L.44 266.018h279.07L194.724.84"/><linearGradient id="c" x1="50%" x2="50%" y1="0%" y2="100%"><stop offset="0%" stop-color="#FFF"/><stop offset="100%" stop-color="#F3F5F9" stop-opacity="0"/></linearGradient></defs><g fill="none" fill-rule="evenodd"><path fill="#D1DEFF" d="M395.812 230.977c0 95.235-77.204 172.44-172.44 172.44-95.235 0-172.44-77.205-172.44-172.44s77.205-172.44 172.44-172.44c95.236 0 172.44 77.205 172.44 172.44" filter="url(#a)"/><g transform="translate(83.43 150.29)"><mask id="d" fill="#fff"><use xlink:href="#b"/></mask><path fill="url(#c)" d="M194.725.84l-44.661.041-66.188.087L.44 266.018h279.07L194.724.84" mask="url(#d)"/></g><path fill="#BBC4DA" d="M311.342 121.586c0 48.568-39.372 87.94-87.94 87.94-48.567 0-87.939-39.372-87.939-87.94s39.372-87.94 87.94-87.94c48.567 0 87.94 39.372 87.94 87.94"/><path fill="#477AFB" d="M311.163 121.586s-29.234 18.022-88.432 18.022c-59.2 0-87.681-18.022-87.681-18.022S33.4 150.862 33.4 171.116c0 20.256 113.986 38.41 189.33 38.41 75.344 0 189.708-18.154 189.708-38.41 0-20.254-101.275-49.53-101.275-49.53"/><path fill="#325BC2" d="M130.927 122.7s9.984 52.461 74.199 52.461c64.216 0 108.682-49.282 108.682-49.282s-27.836 8.686-91.077 8.686c-63.242 0-91.804-11.864-91.804-11.864"/><path stroke="#445C9A" stroke-width="3" d="M220.22 34.3V9.087"/><path fill="#C15631" d="M230.028 9.416a9.315 9.315 0 0 1-9.316 9.316 9.315 9.315 0 1 1 0-18.63c5.145 0 9.316 4.17 9.316 9.314"/><path fill="#477AFB" d="M281.49 307.54l-54.666 41.07a3.546 3.546 0 0 1-4.964-.705l-46.315-61.642a3.546 3.546 0 0 1 .706-4.965l44.924-33.753 22.58 3.87 38.439 51.16a3.546 3.546 0 0 1-.705 4.965"/><path fill="#325BC2" d="M221.175 247.545l22.58 3.87-9.811 8.05a2.923 2.923 0 0 1-4.19-.503l-8.579-11.417"/><path fill="#F3F5F9" d="M212.452 290.414a4.54 4.54 0 1 1-7.26 5.455 4.542 4.542 0 0 1 7.26-5.455m24.741-18.589a4.54 4.54 0 1 1-7.26 5.455 4.54 4.54 0 0 1 7.26-5.455"/><path fill="#202B4D" d="M236.628 296.153c3.647 4.856 4.776 10.166 2.52 11.86-2.257 1.696-7.042-.865-10.69-5.722-3.65-4.855-4.778-10.165-2.521-11.861 2.255-1.694 7.042.867 10.691 5.723"/><path fill="#BBC4DA" d="M324.419 273.315l-20.834 2.285c-1.044.113-1.552-1.242-.683-1.83 3.864-2.612 9.419-7.734 13.3-17.105 3.957-9.56 3.146-15.235 2.657-17.138a.996.996 0 0 1 .5-1.115l18.903-10.298a1.006 1.006 0 0 1 1.479.73c.492 3.322 1.2 12.225-2.93 22.962-4.395 11.431-10.39 19.44-11.71 21.131a.995.995 0 0 1-.682.378"/><path fill="#325BC2" d="M89.142 350.859c-2.436 6.049-9.607 28.058 8.136 42.18a3.343 3.343 0 0 0 3.456.43l26.442-12.03c1.942-.883 2.55-3.334 1.26-5.031-4.183-5.496-11.472-17.243-8.519-29.338.594-2.43-1.543-4.638-3.975-4.054l-24.503 5.872a3.292 3.292 0 0 0-2.297 1.97"/><path fill="#2F437D" d="M140.66 188.936c-12.789 0-23.193-10.405-23.193-23.192 0-12.79 10.404-23.193 23.193-23.193 12.788 0 23.193 10.404 23.193 23.193 0 12.787-10.405 23.192-23.193 23.192m165.487 0c-12.79 0-23.193-10.405-23.193-23.192 0-12.79 10.404-23.193 23.193-23.193 12.787 0 23.192 10.404 23.192 23.193 0 12.787-10.405 23.192-23.192 23.192"/><path fill="#BBC4DA" d="M323.957 165.744c0 9.836-7.974 17.81-17.81 17.81-9.838 0-17.812-7.974-17.812-17.81 0-9.838 7.974-17.81 17.812-17.81 9.836 0 17.81 7.972 17.81 17.81"/><path fill="#2F437D" d="M223.225 198.354c-12.788 0-23.193-10.404-23.193-23.193 0-12.789 10.405-23.192 23.193-23.192 12.789 0 23.191 10.403 23.191 23.192 0 12.79-10.402 23.193-23.191 23.193"/><path stroke="#325BC2" stroke-linecap="round" stroke-linejoin="round" stroke-width="3" d="M224.003 364.616v20.172m18.911-27.736v11.346m0 11.347v5.043m-37.822-28.997v11.347m0 7.564v6.304"/><path fill="#D7DEE9" d="M273.743 70.22c0 7.546-6.117 13.663-13.664 13.663-7.545 0-13.663-6.117-13.663-13.662 0-7.546 6.118-13.663 13.663-13.663 7.547 0 13.664 6.117 13.664 13.663m19.527 26.475a6.715 6.715 0 1 1-13.43 0 6.715 6.715 0 0 1 13.43 0"/><path fill="#8FA0C5" d="M220.22 98.144c-12.564 0-17.178 6.406-17.178 19.219 0 12.811 12.578 21.81 17.179 21.81 4.6 0 17.179-8.999 17.179-21.81 0-12.813-4.615-19.22-17.18-19.22"/><path fill="#BBC4DA" d="M223.367 121.38s-.221-5.247 3.179-7.612 8.425-.664 8.425-.664.126 6.651-3.63 8.242c-4.79 2.029-7.974.035-7.974.035m-6.094-.001s.22-5.247-3.178-7.612c-3.4-2.365-8.426-.664-8.426-.664s-.127 6.651 3.63 8.242c4.79 2.029 7.974.035 7.974.035"/><path fill="#6479AD" d="M222.73 144.651c-59.97 0-89.163-18.036-90.377-18.802a5.044 5.044 0 0 1 5.392-8.524c.265.165 28.243 17.24 84.986 17.24 56.79 0 85.512-17.105 85.796-17.278a5.048 5.048 0 0 1 6.93 1.667 5.038 5.038 0 0 1-1.649 6.925c-1.242.766-31.14 18.772-91.077 18.772"/><path fill="#D7DEE9" d="M306.147 147.933c-.874 0-1.726.083-2.566.206l-14.48 22.764a17.828 17.828 0 0 0 6.729 9.342l19.079-29.997a17.708 17.708 0 0 0-8.762-2.315m12.503 5.135l-18.677 29.364c1.926.714 4 1.122 6.174 1.122.258 0 .509-.028.765-.039l15.67-24.636a17.828 17.828 0 0 0-3.931-5.81"/><path fill="#BBC4DA" d="M240.748 175.161c0 9.837-7.974 17.81-17.81 17.81-9.838 0-17.812-7.973-17.812-17.81 0-9.836 7.974-17.81 17.812-17.81 9.836 0 17.81 7.974 17.81 17.81"/><path fill="#D7DEE9" d="M222.938 157.35c-.874 0-1.726.084-2.566.206l-14.48 22.764a17.824 17.824 0 0 0 6.729 9.342l19.079-29.996a17.705 17.705 0 0 0-8.762-2.315m12.504 5.135l-18.677 29.364a17.725 17.725 0 0 0 6.173 1.122c.258 0 .509-.028.765-.04l15.67-24.635a17.828 17.828 0 0 0-3.931-5.811"/><path fill="#BBC4DA" d="M158.47 165.744c0 9.836-7.974 17.81-17.81 17.81-9.838 0-17.81-7.974-17.81-17.81 0-9.838 7.972-17.81 17.81-17.81 9.836 0 17.81 7.972 17.81 17.81"/><path fill="#D7DEE9" d="M140.66 147.933c-.874 0-1.726.083-2.566.206l-14.48 22.764a17.828 17.828 0 0 0 6.73 9.342l19.078-29.997a17.705 17.705 0 0 0-8.762-2.315m12.504 5.135l-18.677 29.364c1.926.714 4 1.122 6.173 1.122.259 0 .51-.028.765-.039l15.67-24.636a17.828 17.828 0 0 0-3.93-5.81m70.238-119.422c-15.403 0-29.875 3.97-42.465 10.928 1.139-.455 41.43-16.307 81.716 6.177 40.166 22.419 48.265 64.296 48.53 65.723-2.65-46.187-40.93-82.828-87.781-82.828"/><path fill="#325BC2" d="M412.438 171.117c0-17.92-79.243-42.892-97.53-48.416 0 0 79.583 30.133 81.493 45.454 1.907 15.313-40.704 27.521-40.745 27.521h.003l28.99-7.157c17.048-5.348 27.789-11.198 27.789-17.402m-379.038 0c0-17.92 79.241-42.892 97.527-48.416 0 0-79.582 30.133-81.49 45.454-1.91 15.313 40.704 27.521 40.743 27.521h-.001l-28.991-7.157c-17.05-5.348-27.788-11.198-27.788-17.402"/></g></svg>