<svg xmlns="http://www.w3.org/2000/svg" viewBox="0 0 32 32" width="32" height="32"><path d="M31.55 30.1H.45c-.3 0-.5-.2-.5-.5V2.4c0-.3.2-.5.5-.5h27.9c.3 0 .5.2.5.5V16h2.7c.3 0 .5.2.5.5v13.2c0 .2-.2.4-.5.4zm-23.2-.9h22.7V16.9h-9.5c-.3 0-.5-.2-.5-.5v-.9h-1.1c-.3 0-.5-.2-.5-.5s.2-.5.5-.5h1.1v-3c0-.3.2-.5.5-.5s.5.2.5.5v4.3h2.7v-13h-2.7v3.4c0 .3-.2.5-.5.5s-.5-.2-.5-.5V4.8h-7.1c-.3 0-.5-.2-.5-.5V2.8h-1.7v2.1c0 .3-.2.5-.5.5s-.5-.2-.5-.5V2.8h-.5V4c0 .3-.2.5-.5.5h-.1c.1.2.1.4.1.6v1.2c0 .8-.7 1.5-1.5 1.5s-1.5-.7-1.5-1.5V5.1c0-.2 0-.4.1-.6h-.1c-.3 0-.5-.2-.5-.5V2.8h-1.7v6.1c0 .3-.2.5-.5.5h-.6V12h7.2V9.9c0-.3.2-.5.5-.5s.5.2.5.5v4.8h1.3c.3 0 .5.2.5.5s-.2.5-.5.5h-1.1V18c0 .3-.2.5-.5.5s-.5-.2-.5-.5v-4.9h-6.6v13h3.7c.3 0 .5.2.5.5v2.6zm-7.4 0h6.5V27h-3.6c-.3 0-.5-.2-.5-.5v-8H.95zm0-11.6h2.4v-4.7H.95zm26.3-1.6h.7V2.8h-.7zm-1.6 0h.7V2.8h-.7zM.95 11.8h1.7V9.4H.95zm2.2-3.3h.6V2.9H.95v5.6zm5.2-4c-.3 0-.6.3-.6.6v1.2c0 .3.3.6.6.6s.6-.3.6-.6V5.1c0-.4-.3-.6-.6-.6zm6-.6h6.8v-1h-6.8zm-6-.3h1.1v-.7h-2.2v.7zm10.1 24.2h-3.7c-.3 0-.5-.2-.5-.5v-8.4c0-.3.2-.5.5-.5h3.7c.3 0 .5.2.5.5v8.4c-.1.3-.3.5-.5.5zm-3.3-.9h2.8v-.5h-1.6c-.3 0-.5-.2-.5-.5v-5.7c0-.3.2-.5.5-.5h1.6v-.5h-2.8zm1.6-1.4h1.2v-4.7h-1.2zm11.6 2c-.3 0-.5-.2-.5-.5v-7.9c0-.3.2-.5.5-.5s.5.2.5.5v1.4c.2 0 .4.2.4.5v4.1c0 .2-.2.4-.4.5v1.5c0 .2-.2.4-.5.4zm-4.4-.5c-1.5 0-2.6-1.6-2.6-3.6s1.1-3.6 2.6-3.6 2.6 1.6 2.6 3.6-1.1 3.6-2.6 3.6zm0-6.3c-.9 0-1.7 1.2-1.7 2.7 0 1.5.8 2.7 1.7 2.7.9 0 1.7-1.2 1.7-2.7 0-1.5-.8-2.7-1.7-2.7z" fill="#8891a6"/></svg>
