<svg xmlns="http://www.w3.org/2000/svg" viewBox="0 0 188 188" width="188" height="188"><path d="M112.352.317c-17.65 102.594-62.78 143.21-62.78 143.21l71.906-.1c1.404-5.617 6.22-10.03 12.236-11.332C132.71 73.928 112.352.317 112.352.317zM131.61 64.2c5.915 26.976 7.62 57.464 8.02 67.994 6.32.903 12.537 5.415 14.142 11.232h3.71c0-52.05-25.873-79.227-25.873-79.227zm5.213 71.906c-.602 0-1.205 0-1.806.1-5.917.702-10.23 5.616-10.23 11.13 0 .503 0 .904.1 1.406.503 4.412 4.415 7.62 8.827 7.62.4 0 .702.002 1.103-.1 3.51-.4 6.017-3.308 6.017-6.617 0-.3 0-.502-.1-.803-.3-2.507-2.507-4.413-5.114-4.413h-.603c-2.006.2-3.408 1.8-3.408 3.71v.4c.2 1.3 1.3 2.3 2.7 2.3h.3c1.002-.1 1.703-.904 1.703-1.807v-.2l.1.1c.4.3.802.903 1.003 1.605 0 .2 0 .602-.1.903-.2.9-.8 1.905-2.607 2.206-.6.1-1.103.1-1.504 0-.3 0-.603-.1-.904-.2-2.007-.7-3.51-2.408-3.813-4.61v-.806c0-3.41 2.607-6.32 6.016-6.72.3 0 .704-.1 1.005-.1 4.113 0 7.624 3.008 8.226 7.12 0 .4.1.802.1 1.203 0 4.913-3.71 9.026-8.725 9.63-.503.1-.904.1-1.406.1-6.016 0-11.13-4.315-11.933-10.33v-.504l-13.54.1v.402c1.606 11.732 11.836 20.36 23.87 20.36 1.003 0 1.904-.104 2.907-.204 9.63-1.104 16.65-9.126 16.65-18.253 0-.5-.1-1.203-.1-2.005-.903-7.32-7.32-12.738-14.74-12.738zm-81.248 23.362C37.422 159.29 24 162.782 24 162.782c43.625 0 49.843 13.64 85.745 23.567 31.09 8.62 54.255-19.36 54.255-19.36-3.81 3.91-27.98 19.852-61.576 2.91-15.752-7.948-32.73-10.3-46.85-10.44z" fill="#477afb"/></svg>
