<svg id="Layer_1" xmlns="http://www.w3.org/2000/svg" viewBox="0 0 250 250">
  <style>
    .st0{fill:#477AFB;}
  </style>
  <path class="st0" d="M171.2 175c-.9-7.3-7.3-12.7-14.7-12.7-.6 0-1.2 0-1.8.1-5.9.7-10.2 5.6-10.2 11.1 0 .5 0 .9.1 1.4.5 4.4 4.4 7.6 8.8 7.6.4 0 .7 0 1.1-.1 3.5-.4 6-3.3 6-6.6 0-.3 0-.5-.1-.8-.3-2.5-2.5-4.4-5.1-4.4h-.6c-2 .2-3.4 1.8-3.4 3.7v.4c.2 1.3 1.3 2.3 2.7 2.3h.3c1-.1 1.7-.9 1.7-1.8v-.2l.1.1c.4.3.8.9 1 1.6 0 .2 0 .6-.1.9-.2.9-.8 1.9-2.6 2.2-.6.1-1.1.1-1.5 0-.3 0-.6-.1-.9-.2-2-.7-3.5-2.4-3.8-4.6v-.8c0-3.4 2.6-6.3 6-6.7.3 0 .7-.1 1-.1 4.1 0 7.6 3 8.2 7.1 0 .4.1.8.1 1.2 0 4.9-3.7 9-8.7 9.6-.5.1-.9.1-1.4.1-6 0-11.1-4.3-11.9-10.3v-.5l-13.5.1v.4c1.6 11.7 11.8 20.3 23.8 20.3 1 0 1.9-.1 2.9-.2 9.6-1.1 16.6-9.1 16.6-18.2 0-.5-.1-1.2-.1-2z"/>
  <path class="st0" d="M44 188.9s42.3-11 78.2 7.1c33.5 16.9 57.6 1 61.4-2.9 0 0-23.1 27.9-54.1 19.3-35.8-9.9-42-23.5-85.5-23.5zm129.4-19.3h3.7c0-51.9-25.8-79-25.8-79 5.9 26.9 7.6 57.3 8 67.8 6.3.9 12.5 5.4 14.1 11.2zm-20-11.3c-1-58-21.3-131.4-21.3-131.4-17.6 102.3-62.6 142.8-62.6 142.8l71.7-.1c1.4-5.6 6.2-10 12.2-11.3z"/>
</svg>
