<svg xmlns="http://www.w3.org/2000/svg"><symbol id="arrow-left" viewBox="0 0 15 12"><path d="M13.93 7.01H3.76l3.58 3.38a.887.887 0 0 1 0 1.33 1.028 1.028 0 0 1-1.41 0L.01 6 5.93.27a1.055 1.055 0 0 1 1.41 0 .9.9 0 0 1 0 1.34l-3.61 3.4L14 5.03a.975.975 0 0 1 1.01.94 1.125 1.125 0 0 1-1.08 1.04z"/></symbol><symbol id="arrow-right" viewBox="0 0 15 12"><path d="M1.07 4.99h10.17L7.66 1.61a.887.887 0 0 1 0-1.33 1.028 1.028 0 0 1 1.41 0L14.99 6l-5.92 5.73a1.055 1.055 0 0 1-1.41 0 .9.9 0 0 1 0-1.34l3.61-3.4L1 6.97a.975.975 0 0 1-1.01-.94 1.125 1.125 0 0 1 1.08-1.04z"/></symbol><symbol id="attica" viewBox="0 0 64 72"><path d="M28 55.6c.036.606-3.176-1.441-4.534-1.644-2.577-.982-5.225-2.657-6.379-5.206.396-.717 4.048 3.506 4.688.4-.212-1.366-3.747-2.731-1.413-4.362 3.118-.363 3.509 2.974 1.638 4.612.104 3.484 4.288 2.59 5.525 5.125.175.35.33.711.475 1.075zm0 0c.036.606-3.176-1.441-4.534-1.644-2.577-.982-5.225-2.657-6.379-5.206.396-.717 4.048 3.506 4.688.4-.212-1.366-3.747-2.731-1.413-4.362 3.118-.363 3.509 2.974 1.638 4.612.104 3.484 4.288 2.59 5.525 5.125.175.35.33.711.475 1.075zm25.9-20c.103 1.948-1.156 4.184-.785 6.474-.817 3.008-5.401 3.053-6.2.04.918-2.343-.236-4.368-2.175-5.674-1.046-1.016-2.824-2.9-3.912-1.068-3.148.252-2.184-4.12-4.042-5.719-2.14-1.229-3.95-3.08-5.811-4.728-1.019-1.448 3.033-1.774.762-3.188-1.62-.59-3.036.302-4.392 1.097-2.483.473-3.505 3.673-6.279 3.166-1.97-.064-4.01.446-5.766 1.2-.676-1.887-2.327-3.384-2.325-5.375.09-1.154 4.096-2.43 1.289-4.161-1.31-1.012-1.453-2.709.111-2.364 2.972-.06 5.369-2.187 6.59-4.769.686-2.308 3.955-1.579 3.435.769 2.298 1.958 2.774-1.895 4.2-2.8 2.04.339 4 1.903 6.262 1.475 2.552-.429 2.01-3.675 2.438-5.625.137-1.379 2.702-.028 3.625.113 4.221 1.67 8.688 3.402 11.872 6.73 1.445 1.807-.082 5.432-2.247 5.32-1.351 1.288.843 3.8-.05 5.487 3.328 1.11-1.609 2.485-.125 4.763 1.97 2.195 1.34 5.112 2.525 7.637.212.5.735.742 1 1.2zm0 0c.103 1.948-1.156 4.184-.785 6.474-.817 3.008-5.401 3.053-6.2.04.918-2.343-.236-4.368-2.175-5.674-1.046-1.016-2.824-2.9-3.912-1.068-3.148.252-2.184-4.12-4.042-5.719-2.14-1.229-3.95-3.08-5.811-4.728-1.019-1.448 3.033-1.774.762-3.188-1.62-.59-3.036.302-4.392 1.097-2.483.473-3.505 3.673-6.279 3.166-1.97-.064-4.01.446-5.766 1.2-.676-1.887-2.327-3.384-2.325-5.375.09-1.154 4.096-2.43 1.289-4.161-1.31-1.012-1.453-2.709.111-2.364 2.972-.06 5.369-2.187 6.59-4.769.686-2.308 3.955-1.579 3.435.769 2.298 1.958 2.774-1.895 4.2-2.8 2.04.339 4 1.903 6.262 1.475 2.552-.429 2.01-3.675 2.438-5.625.137-1.379 2.702-.028 3.625.113 4.221 1.67 8.688 3.402 11.872 6.73 1.445 1.807-.082 5.432-2.247 5.32-1.351 1.288.843 3.8-.05 5.487 3.328 1.11-1.609 2.485-.125 4.763 1.97 2.195 1.34 5.112 2.525 7.637.212.5.735.742 1 1.2zM30.7 27c-.604-1.042-1.257-3.59-3.05-2.725-1.214.138-4.035 1.473-1.65 2.325 2.378-1.195.57 1.878-1 1.1-3.189.37-.68 4.547 1.245 2.181 2.629.158 2.473-2.662 4.455-2.881zm0 0c-.604-1.042-1.257-3.59-3.05-2.725-1.214.138-4.035 1.473-1.65 2.325 2.378-1.195.57 1.878-1 1.1-3.189.37-.68 4.547 1.245 2.181 2.629.158 2.473-2.662 4.455-2.881zM28 41.5c1.46-1.323.73-3.222 2.8-3.8-.611-2.604-4.018-.262-5.7-.4-1.698 1.94 2.78 2.733.588 3.95-.151 1.167 1.97 1.13 2.312.25zm0 0c1.46-1.323.73-3.222 2.8-3.8-.611-2.604-4.018-.262-5.7-.4-1.698 1.94 2.78 2.733.588 3.95-.151 1.167 1.97 1.13 2.312.25zm-7.5 1.2c.943-.824 2.215-3.974 0-2.325-.714.44-1.663 2.583 0 2.325zm0 0c.943-.824 2.215-3.974 0-2.325-.714.44-1.663 2.583 0 2.325zm7.1 9.8c2.4-.397-.981-4.106-1.625-2.1-1.698.754.666 2.347 1.625 2.1zm0 0c2.4-.397-.981-4.106-1.625-2.1-1.698.754.666 2.347 1.625 2.1zm2 9.6c3.01-.808-1.386-2.868-2.3-1.1-1.982.278-4.276 2.519-5.725 2.6 1.549.652 3.719-1.01 4.75.487.509-1.516.717-2.68 2.85-2.074l.425.087zm0 0c3.01-.808-1.386-2.868-2.3-1.1-1.982.278-4.276 2.519-5.725 2.6 1.549.652 3.719-1.01 4.75.487.509-1.516.717-2.68 2.85-2.074l.425.087zm-8.8.1c-.35 2.062-4.645.013-1.575-.512.492.033 1.264.085 1.575.512zm0 0c-.35 2.062-4.645.013-1.575-.512.492.033 1.264.085 1.575.512zM11.3 68c-2.077-.04-3.323-4.058-.338-2.575 1.466-.183 1.672 2.45.338 2.575zm0 0c-2.077-.04-3.323-4.058-.338-2.575 1.466-.183 1.672 2.45.338 2.575z"/></symbol><symbol id="central-greece" viewBox="0 0 64 72"><path d="M14 32.1c-.754.98-2.071.654-3.1 1.2-1.624-.535-4.926-1.083-4.4-3.5 1.39-1.327-.697-1.91-.4-3.4-.148 1.456-1.277.69-1.1-.5-1.586-.384-1.005-2.721-.5-3.8-.38-1.335 2.186-.415 2.2-2.1 1.917-.933 4.83-.96 5.623 1.433 2.529.803 3.05 3.738 1.377 5.567-1.077 1.898.647 3.33.3 5.1zm11 10.6c-1.262-.146-1.078 3.257-2.013 1.1-.277-.953-1.366-3.776-2.584-2.603-.459.824.334 2.1-1.4 1.63-1.252-.515-2.332-.102-3.397-.42-.926-1.347-3.795-1.694-4.106-2.207.232-1.587 1.761-2.282 2.7-3.1-1.947-1.351 1.928-2.057-.1-3.2.35-1.163 1.199-2.044 2.123-.469 1.929 1.366 2.708-1.81 4.177-1.131-.272 2.29 2.496 1.355 3.4 1.3 1.047.685.964 2.004 1.037 3.1.327 1.294-2.42 1.954-.85 3.25-.463 1.294-.268 1.996 1.013 2.75zm-9.8-10.4c-1.75.076-1.842-2.639-2-4 .439-1.142.704-4.62 2.3-2.8 2.157.97 3.351-1.246 3.538-2.988-.001-2.68 2.073-2.356 3.464-.92 1.104 1.536 2.591 2.905 2.51 4.695 1.813.64 3.732.709 5.418 1.807.341.471 3.727.764 1.97 1.106-1.358-.41-2.678 1.219-4.2 1.5-1.507.114-1.95-1.702-3.3-.5-1.249-.94-.982.76-.1 1 .756.524 1.598.026 2.31-.1.192 1.69 1.808 1.39 2.69 1.9.06.845 1.81.131 2.6 1 1.894-.536 1.432 3.217 3.138 3.137.602-1.434 2.62-.133 3.162.7-.292.62-1.708 1.3-.1 1.763 1.287.824.796 1.572-.6 1.3-1.759-1.118-3.887-1.039-5.73-2.01-1.552-.85-3.444-.849-5.07-.19-.882.282-1.834-.809-2.1-1.1-.026-1.17.092-2.31-.4-3.4-.915-1.474-3.83 1.142-3.962-1.55-1.115-1.536-2.224 2.341-4.025.938-.65-.265-1.005-.853-1.513-1.288zm9.8 5.3c.83-.101 1.034 1.24 1.937.9 1.55-.415 3.371-.846 4.875.006 1.717 1 3.757.882 5.4 1.982 1.095.702 2.047-.356 3.075.075.833 1.513 2.843-.446 2.95 1.5-.186 1.038.03 2.136 1.113 2.625 1.111.67-.699 3.743-2.25 2.212-1.292-1.881-2.143 2.077-3.038.325-.892-2.44-2.838 2.818-4.423 1.253-1.161.302-.933-2.183-1.939-.878-1.71.97-.02-1.22-1.7-.8-.525-1.111-1.106 1.393-1.413-.337-.479-.826-2.867.153-2.365-1.124.467-.549-1.695-1.642-1.76-2.614-1.511.086-1.746-1.712-1.462-2.825-1.13-.614.306-2.021 1-2.3zm36.4 14.8c.079 1.595-2.616 4.45-2.9 1.6-1.07-1.185-1.77 1.798-2.538-.4.843-2.063-3.003-2.062-2.062-3.8.32-.533-.034-.821-.112-1.537-1.321.367-.37-.106-.188-1.263-1.43.96-.176-1.237-1.437-1.3-1.04.02.551-2.178-1.475-1.513-1.32.347-2.14-.321-3.188-.587-1.263.694-2.671-.631-3.7-.5-.82-1.501 1.475-1.578.2-3.1-1.553-.551-2.174-1.355-2.9-2.7-1.805-1.142-2.525-3.29-4.2-4.3-.401-2.28-3.112-.145-3.5-2.137-1.16-.65-1.164.597-.8.837-.537.119-3.46.35-2.5-.45 1.52-1.335 4.533-.19 5-2.65 1.005-.484 2.393.08 3.3-1.1 1.663.706 3.003 2.735 2.7 4.548 1.052.997 2.447 2.639 4.048 2.852 1.677.127 2.273 3.05 4.552 2.6 1.062.962 2.894-1.01 3.5.5 1.775-.025-1.03 2.356 1.345 2.622 1.95.818-.675 1.702-.083 3.378.314 1.868.677 3.713 1.2 5.438 1.142.88 2.81 1.744 4.175 1.662 1.008.363 1.541-.605 1.063.9l.3.4c.002-.106.22-.19.2 0zm-1.8-15.3c1.058-1.652-2.418-2.108-1.8-3.9-.512-1.013-2.936-1.582-1.662-.05-.767.665-1.268 1.514.062 1.65.523.479 2.297.84.838 1.65-.176 1.145 1.832-.707 1.262.55-1.305.85 1.07-.135 1.3.1z" clip-rule="evenodd" fill-rule="evenodd" stroke="#fff" stroke-width=".5" stroke-miterlimit="8"/></symbol><symbol id="central-macedonia" viewBox="0 0 64 72"><path d="M24.1 39.3c.882 1.85-1.08 1.403-.813 3.05-.791.917-2.306-1.73-3.537.062-1.346 1.897-2.61 3.675-5.05 4.4-.891 1.242-1.661 2.867-3.1.988-.734-1.439-1.602-2.292-2.012-3.887-1.518-1.567-4.425-2.147-4.388-4.836-.014-1.383.336-3.834 2.085-3.277 2.112-.85 3.835.416 5.815.8 1.405-2.171 3.728 1.89 5.7-.113 1.918-.71 4.074-2.811 4.464.318.316.813.649 1.642.836 2.495zm-10.9 9.4c1.058-2.443 4.13-2.544 5.4-4.65-.18-2.374 4.594-2.665 3.6-1.65-1.815.25 1.406 1.828.792 3.19 1.03 2.735-3.631 4.291-1.742 7.21-.936 2.979 1.172 5.798 3.15 7.4-.713 2.345-4.129-.942-4.9-2.4-2.624-.564-1.438-3.595-3.05-4.575-1.08.12-2.311 2.932-2.587.475.627-2.726-5.027.343-2.425-2.628.468-.872 1.029-1.699 1.762-2.372zm-7-13.1c-1.61-.504-3.566-1.173-3-3.17.515-2.051-3.965-1.725-1.4-3.53 1.696-1.47-.288-3.967 2.186-5.058 1.39-1.782 2.172-4.46 5.175-3.812 2.175.208 4.242-1.66 6.452-.326 1.977.148 2.005 1.809 1.887 3.404.044 1.376-2.94 2.544-1.5 3.892 2.519.499 2.906 3.633 5.805 3.184 1.406-.267 5.149-.093 1.945 1.066-2.286 1.214-.435 4.467-3.597 4.653-2.16 1.692-4.367.63-6.453-.003-1.553 1.98-3.956-1.656-6.1-.1-.473-.025-.971.095-1.4-.2zm19-5.2c-1.846-.804-4.155.353-6.027-.752-.387-1.973-3.137-1.655-3.673-3.371.481-1.586 2.537-2.58 1.85-4.515-.632-2.749 3.53.86 4.862-1.182.98-1.183 2.037-1.999 3.288-.58 1.409-2.015-.43-6.085 3.063-6.338 1.874-.235 3.696.012 2.437 2.138-.635 2.947 2.758 3.95 4.6 2 1.918 1.798 4.182 3.933 4.7 6.7 1.49 2.38-2.805.631-2.8 3.25.058 2.28-1.309 3.14-3.428 2.878-1.008 1.746-2.653 1.53-4.38 1.172-1.967-.095-3.303.898-4.492-1.4zm15.4-4.6c-.384-2.912-2.317-5.133-4.177-7.286-1.327-1.685-4.702 2.298-5.41-1.264-.887-2.702.954-4.061 3.387-3.05 2.75 1.458 3.695-2.312 5.787-2.275 1.493 2.127 3.6-1.901 5.7.208 2.628.204 3.47 2.986 6.313 3.467.839 1.233-.902 3.654 1.469 4.48 1.585.827 3.16 2.036 4.977 2.12 1.672.723 3.638 2.155 4.354 3.9-2.166 2.019-4.341 3.776-6.49 5.806-1.568 1.972-3.818.557-5.585 1.556-2.96-.241-4.778-2.849-7.525-3.662.145-1.946-1.445-2.735-2.7-3.863l-.1-.137zm-18.3 8.9c-1.029-2.51 3.052-6.139 4.4-2.8 1.992-.555 4.17.114 6.123-.04.789-2.374 3.523-.605 4.365-2.322-.083-1.98 1.205-4.323 3.512-3.838.974 1.256 3.026 1.722 2.663 3.688C45.23 30.73 47.515 31.75 49.5 33.1c1.677.05 2.473.44.9 1.7-2.196 1.52 2.892 3.438-.4 4.2-1.545 1.417-3.577.345-5.346 1-1.61-.658-3.46.478-4.895 1.327-1.827.66-2.444 2.641-4.459 2.573-1.333 1.369-2.36 5.909-4.25 2.65-1.945-.775-3.043-3.156-3.427-4.666 2.35.123 5.128-1.095 2.977-3.284.83-1.582-2.653-1.228-2.4.5-1.553.54-3.414.4-3.3 2.3-1.47-.647-.553-3.858-2.006-5.272-.25-.456-.357-.973-.594-1.428zm36.7 12c-1.053 1.222-.975 3.186-2.388 1.413-1.842-2.702-4.963-.797-7.012-.013-1.643 2.02 1.782 3.006 2.25 4.563 1.497.775 5.544.917 4.75 3.337.773 1.756 1.014 2.908-.4 4.7-1.732.246-1.573-2.687-3.1-2.55-1.887-.078-.608-3.525-2.6-4.312-.63-3.12-3.61-2.567-5.8-3.638-1.817-.928-3.823-.951-4.3 1.4.306 2.14 2.132 3.907 3.543 5.543.96 1.452 2.36 1.665 3.757 1.857 1.026.8 2.14 1.885 2.9 2.4-2.76 1.609-5.06-1.95-7.91-1.598-2.578 1.075-.493-2.573-2.627-3.364.2-2.604.109-6.624-3.663-6.438-.977-1.192-4.879-1.08-3.387-2.945.964-1.946 2.275-3.233 4.075-3.855 1.222-1.36 3.117-2.467 4.912-2.963 1.477-.987 2.967.152 4.546-.537 1.757 1.45 4.26-2.584 4.817-.95 1.043 1.066 2.916 1.482 3.737 2.55-.16 1.543-2.768-.798-2.538 1.612-.16 2.072 3.93 4.808 4.925 2.538-.396-3.786.835.394 1.513 1.25z" clip-rule="evenodd" fill-rule="evenodd" stroke="#fff" stroke-width=".5" stroke-miterlimit="10"/></symbol><symbol id="clip" viewBox="0 0 20 20"><path d="M3.38 20.03A3.2 3.2 0 0 1 1.07 19a3.928 3.928 0 0 1 0-5.41l11.2-12.31c1.75-1.81 4.42-1.65 6.38.38a5.088 5.088 0 0 1 1.34 3.59 5.26 5.26 0 0 1-1.4 3.57l-8.47 9.33a.6.6 0 0 1-.88.02.665.665 0 0 1-.03-.91l8.48-9.34a4 4 0 0 0 1.06-2.69 3.79 3.79 0 0 0-.99-2.66c-1.19-1.24-3.14-1.89-4.6-.38L1.97 14.49a2.6 2.6 0 0 0-.02 3.59 1.942 1.942 0 0 0 1.54.65 2.484 2.484 0 0 0 1.61-.83l8.92-9.81c.32-.34.97-1.16.31-1.84a.862.862 0 0 0-.73-.36 1.473 1.473 0 0 0-.83.51l-6.71 7.38a.61.61 0 0 1-.88.03.678.678 0 0 1-.03-.92l6.72-7.39a2.626 2.626 0 0 1 1.62-.9 2.058 2.058 0 0 1 1.72.73c.96 1 .84 2.47-.3 3.66L6 18.8a3.724 3.724 0 0 1-2.43 1.22 1.275 1.275 0 0 1-.19.01z"/></symbol><symbol id="compare" viewBox="0 0 20 18"><path d="M13 7.2c0-.1 0-.1 0 0l2.8-5.4s.2-.4.4 0l2.7 5.3c.1.1.2.5-.2.5h-5.5c-.3 0-.3-.3-.2-.4zm-6.1-.1c.1.2.2.5 0 .5H1c-.1 0-.1-.2 0-.3l.1-.2 2.8-5.5s.1-.2.3 0l2.7 5.5zm13 .2l-.1-.1L16.5.7c-.1-.2-.4-.7-1-.7H4.4c-.7 0-1 .7-1 .7L.1 7.1c0 .1-.2.4 0 .7.8 1.4 2.3 2.3 4 2.3S7.2 9.3 8 7.9c.1-.3-.1-.7-.1-.7l-3.1-6v-.1c0-.1-.1-.3.3-.3h4c.1 0 .4.1.4.6v14.4c0 .1-.1.4-.3.6l-2 1.3s-.5.3 0 .3h5.7c.4 0 0-.3 0-.3l-2.1-1.3c-.3-.2-.4-.5-.4-.6V1.4c0-.5.3-.5.5-.6h4c.1 0 .4 0 .2.4L12 7.3s-.1.2 0 .5c.8 1.4 2.3 2.3 4 2.3s3.2-.9 4-2.3c0-.2 0-.4-.1-.5z"/></symbol><symbol id="crete" viewBox="0 0 64 72"><path d="M18.6 35.6c-.66.884-2.67-.682-3.5-.7-1.341-.717-2.964-.165-4.1-1.45-2.217-1.917-5.33-1.31-8-1.85-.377-1.305-2.41-1.834-.9-3.213-.737-2.305 2.633-3.373 1.9-5.887 1.312-2.685.407 2.278 1.9 2.4 2.128.53.755-3.105 1.7-4.138 1.093-2.705 2.326 1.128 1.3 2.275-.578 1.58 1.682 2.112 2.8 2.263 1.737.27 3.948.502 4.21-1.51 2.008-.446 2.176 3.608.09 3.098-.943-1.092-1.923-.485-.6.612 1.086 1.414 3.7-.157 2.9 2.2-1.348 1.724 1.644 1.354 1.125 2.9-.739.881-.62 2.282-.825 3zm0 0c-.66.884-2.67-.682-3.5-.7-1.341-.717-2.964-.165-4.1-1.45-2.217-1.917-5.33-1.31-8-1.85-.377-1.305-2.41-1.834-.9-3.213-.737-2.305 2.633-3.373 1.9-5.887 1.312-2.685.407 2.278 1.9 2.4 2.128.53.755-3.105 1.7-4.138 1.093-2.705 2.326 1.128 1.3 2.275-.578 1.58 1.682 2.112 2.8 2.263 1.737.27 3.948.502 4.21-1.51 2.008-.446 2.176 3.608.09 3.098-.943-1.092-1.923-.485-.6.612 1.086 1.414 3.7-.157 2.9 2.2-1.348 1.724 1.644 1.354 1.125 2.9-.739.881-.62 2.282-.825 3zm13.6-3.4c-.728.954-2.447 2.244-1.163 3.45.26 1.113-.648 4.89-2.087 3.263-1.303-2.227-2.23 2.336-3.25.887-1.642-.155-3.26-.685-3.536-2.35-1.683.21-2.448-1.65-3.464-1.75-.245-1.342.67-2.58.662-3.888 1.448-.366 4.221.502 6.188.113 1.288-1.151 3.018-.949 4.55.175.809.575 1.457-.283 2.1.1zm0 0c-.728.954-2.447 2.244-1.163 3.45.26 1.113-.648 4.89-2.087 3.263-1.303-2.227-2.23 2.336-3.25.887-1.642-.155-3.26-.685-3.536-2.35-1.683.21-2.448-1.65-3.464-1.75-.245-1.342.67-2.58.662-3.888 1.448-.366 4.221.502 6.188.113 1.288-1.151 3.018-.949 4.55.175.809.575 1.457-.283 2.1.1zM44 46c.192 1.626-2.867-.605-4-.5-1.79.446-3.637.836-5.4.2-2.357.38-4.56-.576-6.7-1.2-3.23.991.105-2.864-1.137-4.3.157-1.018 1.866-3.064 2.587-1.488 1.34 1.604 2.456-2.22 2.112-3.262-1.081-1.206.373-2.378 1.1-3.3.507.937 3.186-.308 3.038 2 .964 1.415 3.188.998 4.6 2.05 1.693.112 3.936.985 4.838 2.063 1.276 2.532-2.997 3.179-2.138 5.237-.017.94.99 1.46 1.1 2.5zm0 0c.192 1.626-2.867-.605-4-.5-1.79.446-3.637.836-5.4.2-2.357.38-4.56-.576-6.7-1.2-3.23.991.105-2.864-1.137-4.3.157-1.018 1.866-3.064 2.587-1.488 1.34 1.604 2.456-2.22 2.112-3.262-1.081-1.206.373-2.378 1.1-3.3.507.937 3.186-.308 3.038 2 .964 1.415 3.188.998 4.6 2.05 1.693.112 3.936.985 4.838 2.063 1.276 2.532-2.997 3.179-2.138 5.237-.017.94.99 1.46 1.1 2.5zm18.7-4.6c-1.275.802-1.972 3.02-.9 3.5-1.594.657-1 4.062-3.638 3.6-1.056.122-1.733.665-2.362-.6-1.65.403-3.038-1.374-4.863-.9-1.61.809-3.229-.93-5.05-.6-1.913.673-2.142-1.28-3-2.45-1.03-1.658.777-2.329 1.613-3.463 1.005-1.245-.981-3.283 1.531-2.878 1.362-.579 2.947-.352 4.111.424-.19.876-1.134 1.595-.142 2.067-2.286.465-1.087 5.042 1.2 4.013.97-1.858 4.552.229 4.4-2.313 1.624-.154 2.217 3.077 3.813 1.519.964-.964 2.422-1.679 3.287-1.919zm0 0c-1.275.802-1.972 3.02-.9 3.5-1.594.657-1 4.062-3.638 3.6-1.056.122-1.733.665-2.362-.6-1.65.403-3.038-1.374-4.863-.9-1.61.809-3.229-.93-5.05-.6-1.913.673-2.142-1.28-3-2.45-1.03-1.658.777-2.329 1.613-3.463 1.005-1.245-.981-3.283 1.531-2.878 1.362-.579 2.947-.352 4.111.424-.19.876-1.134 1.595-.142 2.067-2.286.465-1.087 5.042 1.2 4.013.97-1.858 4.552.229 4.4-2.313 1.624-.154 2.217 3.077 3.813 1.519.964-.964 2.422-1.679 3.287-1.919z" stroke="#fff" stroke-width=".5" stroke-miterlimit="8"/></symbol><symbol id="eastern-macedonia" viewBox="0 0 64 72"><path d="M13.1 40.5c-.652-1.346-2.178-2.858-3.765-3-1.542-.551-3.213-1.232-4.434-2.4-.895-1.152.846-3.036-1.401-3.3-2.54.067-3.21-3.486-.4-3.2 2.288.468 3.486-2.267 5.7-.912 2.247.062.82-3.97 3.413-2.288 1.101 1.14 1.826-2.234 2.987.1 1.168-.084 2.15-.022 3.1.2.24-2.954 2.604.064 2.8 1.5.544 1.562 2.432.91 3.2 2.3 1.527.697-1.094 1.88-1.4 2.9-2.345.383-2.555 2.533-3.5 4-1.414 1.182-2.692 2.55-3.788 3.837-.857.124-1.68.13-2.512.263zM35 33.2c-.317 1.973-2.926-.192-3.5 2.038-.849 1.142-.246 2.095-.988 3.15 1.112 1.318.544 1.364-.712 1.512-.333 2.424-3.428 1.963-4.6 3.8-.835-1.536-1.408-3.24-.712-4.9-1.174-1.172-2.158-3.587-3.775-4.75.83-1.464 3.117-1.596 3.75-3.45 1.314-1.967 4.087-2.36 5.958-.68 1.522.824 2.72 2.1 4.092 3.08l.487.2h-.113H35zm-9.8 10.6c-1.68.43-3.987.544-4.563-1.45-.327-1.03-1.62-.681-2.537-.45-.927.92-3.529.646-3.1 2.4.596 1.264-1.65 1.14-2.3 2.3-1.182 1.28-2.91 1.783-4.537 1.1-.377-1.087-3.412-.985-1.08-1.805 1.987-1.55 3.73-3.237 5.517-4.995 1.18-.86 3.595.301 3.7-2 2.011-1.313 3.302-3.17 4-5.1 1.817 1.074 2.485 3.604 3.788 4.7-.719 1.849-.171 3.778 1.112 5.3zm-.8 7c.27-1.765.425-4.628-2-4.8-1.637-.338-4.238 2.535-3.4 4.5 1.81-.951 2.493 2.402 4.097.488.425.122 1.013.273 1.303-.188zm25.9-20c-.858 2.27-.79 4.536-.9 6.9-.176 2.118-1.985 3.36-3.744 4.15-2.002.297-2.651 2.615-4.88 1.75-1.77-.32-3.55-1.178-5.076-2.1-1.193.376-2.805.515-3.825-.55.231-.757 1.617-1.422.225-2.25-1.666-1.37-.967-4.402 1.4-4.5 1.504.708 1.457-1.235 3-.9 1.69-1.555 3.97-.679 5.7-1.9 1.532-.044 2.796.721 4.1-.5 1.451.385 2.574 1.505 4-.1zM63 28.5c.016 1.582-.937 2.866-2.35 1.788-.704.992-1.208 2.671-2.832 2.612-2.524-.137 0 3.238-1.418 4.45-.652 1.275 2.346 1.667.5 2.95 1.017 1.026-1.21 1.749-1.637 2.65-1.637.668-2.03 2.934-3.263 3.95-1.475 1.126-1.625-1.513-1.4-1.9-.625-.789-2.992-.81-4.313-.7-1.965.478-4.56-.904-1.673-2.117 1.677-.406 3.421-1.348 4.373-2.846 1.274-1.94.007-4.28.913-6.237-.64-3.173 3.98-2.46 3.45-5.563 1.235-2.291-.281-4.36-1.625-5.95-.157-1.811 2.463-1.485 3.587-2.262 2.55.187 4.215 1.984 6.263 3.288.604 1.943.679 4.018 1.425 5.887z" clip-rule="evenodd" fill-rule="evenodd" stroke="#fff" stroke-width=".5" stroke-miterlimit="8"/></symbol><symbol id="epirus" viewBox="0 0 64 72"><path d="M52.3 27c.174 3.569-2.627 6.238-4.35 9.063-.671 1.183-.217 2.63-.35 3.937 1.264 2.915-4.65 1.544-3.963 4.763-.583 2.223-.966 3.11-3.237 3.137-1.746 1.52-4.104.983-6.127.531-.459 1.726-3.168 2.717-4.11 3.107-.067-2.07-.081-4.3-.772-6.349-1.413-2.592-4.447-4.039-4.666-7.214-.444-2.363-2.394-4.185-2.225-6.637.694-2.446-4.827-2.137-2.2-3.938.578-3.157-3.779-3.78-3.125-6.85 1.38-1.942 3.724-3.448 5.525-5.15 2.196.491 4.635.874 6.669-.705 1.385-2.23 1.12-5.316 2.014-7.825.4-1.955 2.95-2.693 2.617-4.97 1.966.7 1.001 5.086 3.7 4.7.668-1.984 3.634-2.88 3.4-.01-1.049 2.266 1.22 3.161 2.6 4.41-3.152 1.385-2.556 5.516.2 6.8 1.261 2.553.75 5.928 2.8 7.8 1.757.483 3.738.049 5.325.963L52.3 27zM30.7 51.7c-1.734.141-3.36-2.385-4.3.5.205 2.873-4.252.657-5.8.8-2.45-.355-5.434-.69-6.252-3.528.645-2.097-1.51-2.573-1.348-4.372 2.616-.59-1.007-2.384 1-3.5-1.25-.94-4.842-.35-3.4-2.9 3.18-2.87-2.04-3.12-3.3-5.1-1.508.365-2.688-.252-.7-.988 2.425-.576 4.99 3.577 7.06.915 2.798-.961 1.73-4.553 3.54-5.727 1.609 1.168 4.846.58 5.4 3.545-.268 2.308 1.57 3.997 2.04 6.168.333 3.26 2.88 5.045 4.76 7.487.587 2.035 1.017 4.176.7 6.3l.337.163.263.237zm0 .1c.701-1.473 3.562-1.029 3.6-3.3 2.142.141 4.559 1.11 6.4-.6 3.991-1.576.813 3.312-.866 4.266-1.567 1.14-1.946 3.106-2.723 4.73-.915 2.535-4.658 3.134-4.486 5.967-.707 1.164-2.628 1.188-2.013 2.987 1.381.64 3.046 2.003 1.188 3.45-1.554.4-1.447-.453-1.8-1.6-1.5-1.41.132-4.615-2.7-5.5-2.822-1.434-3.433-4.968-5.938-6.7.095-1.441-.7-3.12 1.538-2.3 1.89.32 4.077.938 3.9-1.7 1.4-2.568 2.348.711 3.9.3zm12.1-4c.876-2.316.847-5.789 4-5.7 2.109-3.207 2.113 1.914 3.538 3.25.143 3.175 3.084 3.952 5.662 4.05 1.056 1.49 1.657 3.836 1.75 5.5-2.504.635-2.564 2.767-1.35 4.6-1.544-.18-2.963.224-4.3 1-1.754.713-3.37 1.938-5.017.5-2.808-.595-2.133 4.416-4.428 3.1-.887 1.365-1.917 2.572-3.255.7-1.197.287-4.305-3.683-3.9-.355-1.76 1.429-.81-2.903-2.172-3.345 1.078-1.478 4.269-3.656 4.572-6.4.99-2.737 4.419-3.87 4.9-6.9z" clip-rule="evenodd" fill-rule="evenodd" stroke="#fff" stroke-width=".5" stroke-miterlimit="8"/></symbol><symbol id="facebook" viewBox="0 0 16 16"><path d="M4.217 8.522H5.97v7.22c0 .142.115.258.258.258h2.974a.258.258 0 0 0 .258-.258V8.556h2.016a.258.258 0 0 0 .256-.229l.306-2.658a.258.258 0 0 0-.256-.288H9.461V3.715c0-.502.27-.757.804-.757h1.518a.258.258 0 0 0 .258-.258V.26a.258.258 0 0 0-.258-.258H9.69C9.676.002 9.643 0 9.595 0c-.363 0-1.626.071-2.623.988-1.104 1.017-.95 2.234-.914 2.445V5.38H4.217a.258.258 0 0 0-.258.258v2.624c0 .143.115.259.258.259z"/></symbol><symbol id="google-plus" viewBox="0 0 604.35 604.35"><path d="M516.375 255v-76.5h-51V255h-76.5v51h76.5v76.5h51V306h76.5v-51h-76.5zm-196.35 86.7l-28.051-20.4c-10.2-7.649-20.399-17.85-20.399-35.7s12.75-33.15 25.5-40.8c33.15-25.5 66.3-53.55 66.3-109.65 0-53.55-33.15-84.15-51-99.45h43.35l30.6-35.7h-158.1c-112.2 0-168.3 71.4-168.3 147.9 0 58.65 45.9 122.4 127.5 122.4h20.4c-2.55 7.65-10.2 20.4-10.2 33.15 0 25.5 10.2 35.7 22.95 51-35.7 2.55-102 10.2-150.45 40.8-45.9 28.05-58.65 66.3-58.65 94.35 0 58.65 53.55 114.75 168.3 114.75 137.7 0 204.001-76.5 204.001-150.449-.001-53.551-28.051-81.601-63.751-112.201zm-193.8-232.05c0-56.1 33.15-81.6 68.85-81.6 66.3 0 102 89.25 102 140.25 0 66.3-53.55 79.05-73.95 79.05-63.75 0-96.9-79.05-96.9-137.7zm91.799 459c-84.15 0-137.7-38.25-137.7-94.351 0-56.1 51-73.95 66.3-81.6 33.15-10.2 76.5-12.75 84.15-12.75h17.85c61.2 43.35 86.7 61.2 86.7 102 0 48.451-48.449 86.701-117.3 86.701z"/></symbol><symbol id="help" viewBox="0 0 12 12"><path d="M6 .75A5.255 5.255 0 1 1 .75 6 5.253 5.253 0 0 1 6 .75M6 0a6 6 0 1 0 6 6 6 6 0 0 0-6-6zm-.542 7.5a2.74 2.74 0 0 1 .114-.92 2.493 2.493 0 0 1 .578-.68 9.79 9.79 0 0 0 .646-.82 1.232 1.232 0 0 0 .19-.7 1 1 0 0 0-.257-.74.97.97 0 0 0-.74-.26 1.125 1.125 0 0 0-.71.22 1.28 1.28 0 0 0-.295.87h-.86l-.015-.03a1.854 1.854 0 0 1 .52-1.38 2.082 2.082 0 0 1 1.36-.44 1.968 1.968 0 0 1 1.4.46 1.636 1.636 0 0 1 .5 1.28 1.893 1.893 0 0 1-.324 1.08 5.847 5.847 0 0 1-.853 1 1.105 1.105 0 0 0-.3.45 2.6 2.6 0 0 0-.052.61h-.9zm.935 1.88h-.945v-.95h.945v.95z"/></symbol><symbol id="instagram" viewBox="0 0 97.395 97.395"><path d="M12.501 0h72.393c6.875 0 12.5 5.09 12.5 12.5v72.395c0 7.41-5.625 12.5-12.5 12.5H12.501C5.624 97.395 0 92.305 0 84.895V12.5C0 5.09 5.624 0 12.501 0zm58.447 10.821a4.395 4.395 0 0 0-4.383 4.385v10.495a4.396 4.396 0 0 0 4.383 4.385h11.008a4.398 4.398 0 0 0 4.385-4.385V15.206a4.397 4.397 0 0 0-4.385-4.385H70.948zm15.439 30.367h-8.572a28.486 28.486 0 0 1 1.25 8.355c0 16.2-13.556 29.332-30.275 29.332-16.718 0-30.272-13.132-30.272-29.332 0-2.904.438-5.708 1.25-8.355h-8.945v41.141a3.884 3.884 0 0 0 3.872 3.872h67.822a3.883 3.883 0 0 0 3.872-3.872V41.188h-.002zM48.789 29.533c-10.802 0-19.56 8.485-19.56 18.953s8.758 18.953 19.56 18.953c10.803 0 19.562-8.485 19.562-18.953s-8.758-18.953-19.562-18.953z"/></symbol><symbol id="ionian-islands" viewBox="0 0 64 72"><path d="M24.8 26c-2.135.522-4.704-.687-6.825-.35-1.295-.505-3.432-1.028-3.288-3.1C13.4 20.424 9.761 21.065 9.2 18.5c-1.404.643-1.956-.193-1.9-1.2-2.465-.822-1.506-3.53.9-3.5 1.944-.717 4.307-3.505 6.2-.8.311 2.031-3.731 2.837-1.3 4.7-.463 2.16 2.83-.82 2.5 1.9-.104 2.125 1.737 5.951 4.1 4.7 1.239.295 2.054.802 3.1-.4.5.829 1.955 1.862 2.2 1.938l-.2.162zm0 0c-2.135.522-4.704-.687-6.825-.35-1.295-.505-3.432-1.028-3.288-3.1C13.4 20.424 9.761 21.065 9.2 18.5c-1.404.643-1.956-.193-1.9-1.2-2.465-.822-1.506-3.53.9-3.5 1.944-.717 4.307-3.505 6.2-.8.311 2.031-3.731 2.837-1.3 4.7-.463 2.16 2.83-.82 2.5 1.9-.104 2.125 1.737 5.951 4.1 4.7 1.239.295 2.054.802 3.1-.4.5.829 1.955 1.862 2.2 1.938l-.2.162zm5.1 6.7c-.81 2.405-4.394-2.158-1.65-1.337.315 1.01 2.496-.29 1.65 1.337zm0 0c-.81 2.405-4.394-2.158-1.65-1.337.315 1.01 2.496-.29 1.65 1.337zm8.2-7.2c-1.213 1.443-1.306-.83-.3-1.8-1.018-1.23-1.733-6.222-3.6-2.95-1.145 1.903-.294 4.006-.9 5.95.415 1.24.257 4.281 1.4 4.2.205-1.138.219-3.393 1.125-1.3 1.615.914 3.675-2.573 2.275-4.1zm0 0c-1.213 1.443-1.306-.83-.3-1.8-1.018-1.23-1.733-6.222-3.6-2.95-1.145 1.903-.294 4.006-.9 5.95.415 1.24.257 4.281 1.4 4.2.205-1.138.219-3.393 1.125-1.3 1.615.914 3.675-2.573 2.275-4.1zm2.2.9c-1.289 1.26-1.495-1.349-.013-.875 1.314-.872.762.836.013.875zm0 0c-1.289 1.26-1.495-1.349-.013-.875 1.314-.872.762.836.013.875zm1.8 1.7c-1.26.454-3.803-1.424-1.263-.8.299.526 1.282-.018 1.263.8zm0 0c-1.26.454-3.803-1.424-1.263-.8.299.526 1.282-.018 1.263.8zm3.3-2.7c-1.27.23-1.103 3.354-1.8 1.3-.14-1.069 2.552-3.592 2-1.762-.158.084-.385.27-.2.462zm0 0c-1.27.23-1.103 3.354-1.8 1.3-.14-1.069 2.552-3.592 2-1.762-.158.084-.385.27-.2.462zm.6.9c-.063.892-.367 3.758-.8 1.512.546-.355-.108-2.038.8-1.512zm0 0c-.063.892-.367 3.758-.8 1.512.546-.355-.108-2.038.8-1.512zm-5.9 3.9c-.993 1.476-.774-1.965-.038-.15l.038.15zm0 0c-.993 1.476-.774-1.965-.038-.15l.038.15zm3.7 2c-.315-1.883-1.626 1.91 0 0zm0 0c-.315-1.883-1.626 1.91 0 0zm-1.9 9.4c-1.428 2.485-2.67-1.097-2.883-2.522-.695-1.213-2.124-4.08-3.5-3.566-.03 2.197 3.12 5.465-.317 6.488-1.13-1.559-3.348-.777-2.3 1.2-.73 1.922-.515 6.279 2.438 5.025 1.8-1.196-2.62-5.457-.152-4.531 2.708 1.05 1.386 4.853 4.164 5.531 1.74-.339 2.774-3.374 4.838-1.503 2.082 2.04 6.22-1.154 3.512-3.222-2.159-.57-3.904-2.066-5.3-3.6-.045.261-.142.715-.5.7zm0 0c-1.428 2.485-2.67-1.097-2.883-2.522-.695-1.213-2.124-4.08-3.5-3.566-.03 2.197 3.12 5.465-.317 6.488-1.13-1.559-3.348-.777-2.3 1.2-.73 1.922-.515 6.279 2.438 5.025 1.8-1.196-2.62-5.457-.152-4.531 2.708 1.05 1.386 4.853 4.164 5.531 1.74-.339 2.774-3.374 4.838-1.503 2.082 2.04 6.22-1.154 3.512-3.222-2.159-.57-3.904-2.066-5.3-3.6-.045.261-.142.715-.5.7zm1.3-1.9c-2.348-.172-3.498-2.72-5-4.3-.935-.787.378-1.577.3-2.4.221 1.904 2.922 1.137 2.3 3.5-.745 2.208 1.348.202 1.587.05.025 1.139 1.595 1.95.813 3.15zm0 0c-2.348-.172-3.498-2.72-5-4.3-.935-.787.378-1.577.3-2.4.221 1.904 2.922 1.137 2.3 3.5-.745 2.208 1.348.202 1.587.05.025 1.139 1.595 1.95.813 3.15zm13.7 20.4c-2.654-.82-2.218 3.01-1.587 4.05-1.439 1.313-3.182-2.955-4.913-1.45-.967-2.376-4.87-2.478-4.222-5.456.402-1.201.777-4.073 2.222-1.744 1.495 2.267 4.45.789 6.486 1.325 1.027 1.558 2.715 1.717 4.137 2.669-.25 1.21-1.741.293-2.123.606zm0 0c-2.654-.82-2.218 3.01-1.587 4.05-1.439 1.313-3.182-2.955-4.913-1.45-.967-2.376-4.87-2.478-4.222-5.456.402-1.201.777-4.073 2.222-1.744 1.495 2.267 4.45.789 6.486 1.325 1.027 1.558 2.715 1.717 4.137 2.669-.25 1.21-1.741.293-2.123.606z" stroke="#fff" stroke-width=".5" stroke-miterlimit="8"/></symbol><symbol id="location" viewBox="0 0 10 13"><path d="M5.045.81a3.924 3.924 0 0 1 4.12 4.15c0 1.82-1.33 4.23-3.952 7.17a.055.055 0 0 1-.11 0l-.22-.24C3.173 9.97.833 7.35.833 4.96A4.238 4.238 0 0 1 5.045.81m0-.81A5.073 5.073 0 0 0 0 4.96c0 2.81 2.683 5.69 4.488 7.72a1.014 1.014 0 0 0 .658.32h.03a1.017 1.017 0 0 0 .658-.32C7.527 10.78 10 7.65 10 4.96A4.738 4.738 0 0 0 5.048 0zm-.052 3.26a1.63 1.63 0 1 1 .02 3.26 1.675 1.675 0 0 1-1.687-1.64 1.648 1.648 0 0 1 1.667-1.62m.02-.8a2.44 2.44 0 1 0 2.5 2.44 2.47 2.47 0 0 0-2.5-2.44z"/></symbol><symbol id="microphone" viewBox="0 0 12 20"><path d="M6.12 13.75h-.14A2.948 2.948 0 0 1 3 10.7V3.25A3.13 3.13 0 0 1 5.98 0h.14A3.053 3.053 0 0 1 9 3.25v7.45a2.87 2.87 0 0 1-2.88 3.05zm-.14-12.5a1.9 1.9 0 0 0-1.78 2v7.45a1.712 1.712 0 0 0 1.78 1.8h.14a1.65 1.65 0 0 0 1.68-1.8V3.25a1.818 1.818 0 0 0-1.68-2h-.14zm.92 15.62H5.12C1.72 16.87 0 14.4 0 10.1V7.5a.6.6 0 1 1 1.2 0v2.6c0 2.52.49 5.52 3.92 5.52H6.9c2.62 0 3.9-1.8 3.9-5.52V7.5a.6.6 0 1 1 1.2 0v2.6c0 5.6-2.77 6.77-5.1 6.77zm-1.5-.62h1.2V20H5.4v-3.75zm-3 2.5h7.2a.626.626 0 0 1 0 1.25H2.4a.626.626 0 0 1 0-1.25z"/></symbol><symbol id="north-aegean" viewBox="0 0 64 72"><path d="M19.6 16.3c.683-1.738-.818-2.259-2-1.163-2.382.768-.707-1.233-1.4-1.937-.37-1.249 1.694-1.978-.2-2.7-.967-3.463 2.288-2.837 4.396-2.5 1.54-1.126 3.795-.597 3.704 1.5 2.95 1.45 2.397-3.16 5.188-2.375 1.031-2.875 1.012 2-.638 2.262-.677 2.144-3.269 3.734-1.45 5.913-.915.86.334 2.087-.12 2.38-.915-1.494-3.422-1.946-3.38-3.863.916-1.262.738-3.352-1.212-2.242.136 1.002-2.888 3.537-.588 2.825 1.382 2.792-1.005 1.323-2.3 1.9zM4.3 17.8c3.055-1.492-.795-5.038-2.037-1.788-.49 1.579.69 4.62 2.037 1.788zm0 0c3.055-1.492-.795-5.038-2.037-1.788-.49 1.579.69 4.62 2.037 1.788zm44.4 7.1c3.628-2.151-2.506-4.343-3.5-1.5-1.311 2.962-4.153 5.817-7.3 3-3.048-.76-4.432-4.082-2.85-6.775 1.217-1.834 3.185-.633 4.85-.725 1.73-1.96 6.833-1.057 5.7-4.4 1.822-.487 6.173-1.447 6.7 1 .783.756 2.803-.17 1.538 1.662C51.086 20.138 57.56 19.957 57.6 23c1.589 2.238 4.119 5.256 3.3 8-3.005 1.057-2.564-2.524-3.475-4.162-2.196-1.54-2.608 1.749-.162 2.162 1.737 1.59 1.676 4.641-1.425 4.338-2.606.189-5.432-.45-6.809-2.638-2.296.294-4.957.35-5.829-2.4.55-1.377 3.198-.48 2.7-2.8.762-.81 1.889-.27 2.8-.6zM11.9 36.1c.312-1.307-3.324-2.447-1.1-2.6.283-2.124 4.193 1.01 2.058 2.042-.382.177-.584 1.065-.958.558zm0 0c.312-1.307-3.324-2.447-1.1-2.6.283-2.124 4.193 1.01 2.058 2.042-.382.177-.584 1.065-.958.558zm-1.6-.1c-1.153 1.721-1.234-1.682 0 0zm0 0c-1.153 1.721-1.234-1.682 0 0zm21.6 1.8c1.917-.898.404-3.846-1.3-2.475-1.362-1.325-3.156-4.328-4.9-1.525-2.61-.922-6.395 1.507-3.4 3.9 2.739.69 4.163 2.57 4.1 5.4 3.24 2.804-2.85 2.324-3.4 5-.141 2.293 2.348 3.24 3.5 4.7 1.736-.765 5.14-1.882 5.18-3.82-1.006-2.152 2.694-2.151 1.97-4.53.105-1.923-2.63-3.459-.625-5.238-.201-.668-1.15-.624-1.125-1.412zm0 0c1.917-.898.404-3.846-1.3-2.475-1.362-1.325-3.156-4.328-4.9-1.525-2.61-.922-6.395 1.507-3.4 3.9 2.739.69 4.163 2.57 4.1 5.4 3.24 2.804-2.85 2.324-3.4 5-.141 2.293 2.348 3.24 3.5 4.7 1.736-.765 5.14-1.882 5.18-3.82-1.006-2.152 2.694-2.151 1.97-4.53.105-1.923-2.63-3.459-.625-5.238-.201-.668-1.15-.624-1.125-1.412zm4.8-1.3c-1.3 1.849-4.495-1.797-1.43-.5.627-.148.905.308 1.43.5zm0 0c-1.3 1.849-4.495-1.797-1.43-.5.627-.148.905.308 1.43.5zm16.9 23.2c-2.482-1.053-3.72-5.254-7.1-3.1-2.515 2.792-3.48-2.847-.588-3.438 2.43-1.753 5.96-2.829 8.788-1.462 1.37.781 3.472 3.536 3.7.6 3.254-.9 4.747 3.82.95 4.188-2.337-.096-4.257 1.928-4.962 3.312-.266-.001-.538.014-.788-.1zm0 0c-2.482-1.053-3.72-5.254-7.1-3.1-2.515 2.792-3.48-2.847-.588-3.438 2.43-1.753 5.96-2.829 8.788-1.462 1.37.781 3.472 3.536 3.7.6 3.254-.9 4.747 3.82.95 4.188-2.337-.096-4.257 1.928-4.962 3.312-.266-.001-.538.014-.788-.1zm-28 5.5c-3.46 2.63-3.138-3.505-.263-4.063.475-2.308 3.695-2.05 5.263-1.237 1.935 1.647 3.767-4.373 6.088-2.362-1.803 1.866-2.417 5.4-5.443 5.73-2.11.202-4.405-.338-5.645 1.932zm0 0c-3.46 2.63-3.138-3.505-.263-4.063.475-2.308 3.695-2.05 5.263-1.237 1.935 1.647 3.767-4.373 6.088-2.362-1.803 1.866-2.417 5.4-5.443 5.73-2.11.202-4.405-.338-5.645 1.932zm16.2-1.9c-.12 1.856-2.04-1.965-.1-2.4-1.262-1.947 1.584-1.995 1.5 0 1.58.798-1.972 1.156-1.446 2.262l.046.138zm0 0c-.12 1.856-2.04-1.965-.1-2.4-1.262-1.947 1.584-1.995 1.5 0 1.58.798-1.972 1.156-1.446 2.262l.046.138zm-1.8-.9c-2.12 1.785-.996-2.641.1 0H40zm0 0c-2.12 1.785-.996-2.641.1 0H40zm16.3.7c-1.633 1.998-1.868-2.102 0 0zm0 0c-1.633 1.998-1.868-2.102 0 0z" stroke="#fff" stroke-width=".5" stroke-miterlimit="8"/></symbol><symbol id="notice" viewBox="0 0 16 18"><path d="M14.45 15H1.59a1.577 1.577 0 0 1-1.5-.59c-.3-.59.15-1.18.72-1.93.64-.84 1.64-1.91 1.64-3.05V5.75a5.534 5.534 0 1 1 11.06 0v3.68a5.39 5.39 0 0 0 1.6 3.09c.63.75 1.09 1.3.81 1.89a1.56 1.56 0 0 1-1.47.59zM1.36 13.79c.06 0 .14.01.23.01h12.86c.05 0 .09-.01.12-.01-.12-.16-.28-.35-.41-.51a6.326 6.326 0 0 1-1.88-3.85V5.75a4.307 4.307 0 1 0-8.6 0v3.68c0 1.54-1.18 2.84-1.88 3.76-.14.19-.32.42-.44.6zm4.86.61a1.67 1.67 0 0 0-.11.59 1.87 1.87 0 0 0 3.74 0 1.67 1.67 0 0 0-.11-.59H11a2.88 2.88 0 0 1 .06.59 3.08 3.08 0 0 1-6.16 0 2.88 2.88 0 0 1 .06-.59h1.26z"/></symbol><symbol id="peloponnese" viewBox="0 0 64 72"><path d="M18.6 30.7c-.12 1.838-2.997 3.64-.113 5.045 1.676 1.605 2.438 4.591 4.776 5.192 3.9-.637 1.782 4.747 4.537 6.063.901 2.072.741 4.432 1.3 6.616 1.191 2.171-2.774 4.726-3.408 2.196-2.508-1.393-1.136-5.659-4.68-4.962-1.328-.76 1.653-2.57-.843-3.342-1.026-2.661-5.736-1.236-6.016 1.572-1.235 2.539 2.531 5.791-.918 7.485-1.952 2.329-.961-2.835-3.035-2.552-3.49.515-2.597-2.776-2.212-4.813-.63-.992-1.508-.716-1.55-2.188a5.469 5.469 0 0 1-1.975-7.425c.61-1.38 2.146-1.893 3.137-2.887 1.136-1.584-1.61-5.079 1.6-4 2.342.363 4.212-4.969 5.167-.77 1.748 2.23 3.355-3.844 4.233-1.23zm0 0c-.12 1.838-2.997 3.64-.113 5.045 1.676 1.605 2.438 4.591 4.776 5.192 3.9-.637 1.782 4.747 4.537 6.063.901 2.072.741 4.432 1.3 6.616 1.191 2.171-2.774 4.726-3.408 2.196-2.508-1.393-1.136-5.659-4.68-4.962-1.328-.76 1.653-2.57-.843-3.342-1.026-2.661-5.736-1.236-6.016 1.572-1.235 2.539 2.531 5.791-.918 7.485-1.952 2.329-.961-2.835-3.035-2.552-3.49.515-2.597-2.776-2.212-4.813-.63-.992-1.508-.716-1.55-2.188a5.469 5.469 0 0 1-1.975-7.425c.61-1.38 2.146-1.893 3.137-2.887 1.136-1.584-1.61-5.079 1.6-4 2.342.363 4.212-4.969 5.167-.77 1.748 2.23 3.355-3.844 4.233-1.23zM9.7 56c-1.813.012.423 2.317 0 0zm0 0c-1.813.012.423 2.317 0 0zm-1.5-1.2c-.379 1.754-1.241 1.263-.5-.2.181.061.505-.173.5.2zm0 0c-.379 1.754-1.241 1.263-.5-.2.181.061.505-.173.5.2zm-1.4-5.6c-.504.937-.792-.832 0 0zm0 0c-.504.937-.792-.832 0 0zm.3.9c-1.17-.964-.478.84 0 0zm0 0c-1.17-.964-.478.84 0 0zm18.7-34.2c.964 1.803 4.376.88 3.6 3.7.077 1.628.984 2.874 2.138 3.475-.893 2.43 2.95 1.866 1.595 4.37-.064 2.707 3.077 4.535 4.844 2.709 1.477 2.07 1.773 4.657 2.995 6.86.737 2.14 2.459 3.065 2.028 5.386 1.045 1.613 5.374 4.775 1.05 4.75-1.663-.382-3.468-.669-4.85-1.25.405-2.29-1.215-3.415-2.775-4.9-.628-1.707.616-4.993-2.212-5.25-1.707-1.198-3.715-1.309-3.413 1.337.58 2.603-2.027 1.684-3.25.525-2.087-.498-3.463 1.113-2.85 3.188-3.031.8-4.046-2.308-5.681-4.086-1.399-1.588-3.341-3.542-.844-5.164.675-2.167-.772-5.254-2.875-5.85-3.353.342-3.78-2.858-2.8-5.444-.482-2.187 1.812-3.348 3.3-4.256 1.56 1.306 4.329 1.658 6.56 1.3 1.709.793 2.539-.18 2.64-1.8l.588.35.212.05zm0 0c.964 1.803 4.376.88 3.6 3.7.077 1.628.984 2.874 2.138 3.475-.893 2.43 2.95 1.866 1.595 4.37-.064 2.707 3.077 4.535 4.844 2.709 1.477 2.07 1.773 4.657 2.995 6.86.737 2.14 2.459 3.065 2.028 5.386 1.045 1.613 5.374 4.775 1.05 4.75-1.663-.382-3.468-.669-4.85-1.25.405-2.29-1.215-3.415-2.775-4.9-.628-1.707.616-4.993-2.212-5.25-1.707-1.198-3.715-1.309-3.413 1.337.58 2.603-2.027 1.684-3.25.525-2.087-.498-3.463 1.113-2.85 3.188-3.031.8-4.046-2.308-5.681-4.086-1.399-1.588-3.341-3.542-.844-5.164.675-2.167-.772-5.254-2.875-5.85-3.353.342-3.78-2.858-2.8-5.444-.482-2.187 1.812-3.348 3.3-4.256 1.56 1.306 4.329 1.658 6.56 1.3 1.709.793 2.539-.18 2.64-1.8l.588.35.212.05zm-1 25.1c-1.106-2.612 2.234-4.353 3.9-2.5 2.208 1.89 2.63-.385 2.6-2.1.522-2.33 3.406.288 4.688.75 1.23 1.83-.487 4.73 2.087 5.888 2.51.384-.03 5.012 3.225 3.762 1.286 1.567 4.242.243 4.96.98-.006 2.704 1.078 5.257 2.24 7.62 1.769.46-.567 1.503.1 2.4-1.147-.243-2.828-.062-1.1 1.2-1.071.728-.174 3.365 1.3 4.263 1.94.513.668 2.854 2.8 3.437.752 2.077-5.032 2.051-4-.6-.587-1.736-4.244.008-3.2-3.1-1.963-.71-2.662-1.96-2.813-3.6-.775-1.21-1.747.917-1.587-1.4.461-1.987-1.66-4.642-3.944-4.1-2.02-.548-1.892 1.427-2.431 2.5-2.484.052.13 2.794-1.925 2.9.339 1.957-2.444 2.949-1.012 5.4 1.761 3.195-1.691 2.51-3.375 1.3-1.426-2.051.66-4.673.3-7 .911-1.025-2.945-1.476-.6-2.55 3.103.01 1.923-3.715 1.487-5.55.394-2.698-1.482-4.49-2.56-6.606-.094-1.206-.15-2.462-1.14-3.294zm0 0c-1.106-2.612 2.234-4.353 3.9-2.5 2.208 1.89 2.63-.385 2.6-2.1.522-2.33 3.406.288 4.688.75 1.23 1.83-.487 4.73 2.087 5.888 2.51.384-.03 5.012 3.225 3.762 1.286 1.567 4.242.243 4.96.98-.006 2.704 1.078 5.257 2.24 7.62 1.769.46-.567 1.503.1 2.4-1.147-.243-2.828-.062-1.1 1.2-1.071.728-.174 3.365 1.3 4.263 1.94.513.668 2.854 2.8 3.437.752 2.077-5.032 2.051-4-.6-.587-1.736-4.244.008-3.2-3.1-1.963-.71-2.662-1.96-2.813-3.6-.775-1.21-1.747.917-1.587-1.4.461-1.987-1.66-4.642-3.944-4.1-2.02-.548-1.892 1.427-2.431 2.5-2.484.052.13 2.794-1.925 2.9.339 1.957-2.444 2.949-1.012 5.4 1.761 3.195-1.691 2.51-3.375 1.3-1.426-2.051.66-4.673.3-7 .911-1.025-2.945-1.476-.6-2.55 3.103.01 1.923-3.715 1.487-5.55.394-2.698-1.482-4.49-2.56-6.606-.094-1.206-.15-2.462-1.14-3.294zm4.5-23.3c-2.83.1-4.598-2.56-2.1-4.6 1.369-1.848 3.075-2.288 2.95-5.037.505-1.65.07-3.824 2.35-2.3 2.67 1.057 5.714 1.781 7.572 4.173.59 2.544 4.86 3.99 5.328.964-1.961-.583-3.473-2.856-.356-3.1 1.908.355 3.661 1.06 5.744 1.05.88.723 1.259 2.62 2.012 3.95-2.043 1.16-4.282 1.088-6.6 1.8-.627 3.297 4.598.431 4.987 3.65.097 1.286-2.163 1.76-.637 2.638-2.584.544-4.524-2.448-7.15-1.088-3.757.6-6.802-2.832-10.5-2.387-1.181.325-2.387.677-3.6.287zm0 0c-2.83.1-4.598-2.56-2.1-4.6 1.369-1.848 3.075-2.288 2.95-5.037.505-1.65.07-3.824 2.35-2.3 2.67 1.057 5.714 1.781 7.572 4.173.59 2.544 4.86 3.99 5.328.964-1.961-.583-3.473-2.856-.356-3.1 1.908.355 3.661 1.06 5.744 1.05.88.723 1.259 2.62 2.012 3.95-2.043 1.16-4.282 1.088-6.6 1.8-.627 3.297 4.598.431 4.987 3.65.097 1.286-2.163 1.76-.637 2.638-2.584.544-4.524-2.448-7.15-1.088-3.757.6-6.802-2.832-10.5-2.387-1.181.325-2.387.677-3.6.287zm31.6 13.7c-1.616 1.542-4.935.024-6.862 1.3-2.701.025-.143 1.386-.663 2.037-1.428-.107-3.472-.17-2.262 1.213-2.122 1.049-1.644-2.334-3.713-2.35 1.065-.523 3.305-2.095 1.3-3.4-2.19-.23-5.56-4.134-7.3-1.5-.946-.257-2.649-4.661-3.3-2.15-.087 1.9-.017 4.937-2.864 4.448-3.226-.592-1.043-5.217-3.273-5.81-1.34-.7.078-2.8-1.963-2.888-.775-2.138-2.02-5.323 1.364-4.61 2.884-1.152 5.584.913 8.271 1.69 2.962 1.096 6.217-.777 8.865 1.508 2.404-.73 2.55 1.39 1.962 3.262 1.118 2.195 3.577 2.97 5.15 4.938 1.534 1.22 3.594 1.458 5.288 2.312zm0 0c-1.616 1.542-4.935.024-6.862 1.3-2.701.025-.143 1.386-.663 2.037-1.428-.107-3.472-.17-2.262 1.213-2.122 1.049-1.644-2.334-3.713-2.35 1.065-.523 3.305-2.095 1.3-3.4-2.19-.23-5.56-4.134-7.3-1.5-.946-.257-2.649-4.661-3.3-2.15-.087 1.9-.017 4.937-2.864 4.448-3.226-.592-1.043-5.217-3.273-5.81-1.34-.7.078-2.8-1.963-2.888-.775-2.138-2.02-5.323 1.364-4.61 2.884-1.152 5.584.913 8.271 1.69 2.962 1.096 6.217-.777 8.865 1.508 2.404-.73 2.55 1.39 1.962 3.262 1.118 2.195 3.577 2.97 5.15 4.938 1.534 1.22 3.594 1.458 5.288 2.312z" stroke="#fff" stroke-width=".5" stroke-miterlimit="8"/></symbol><symbol id="schedule" viewBox="0 0 18 18"><path d="M4.13 12.07h2.117v2.118H4.13zm3.813 0h2.115v2.118H7.943zm3.81 0h2.117v2.118h-2.12zm-3.81-3.813h2.115v2.12H7.943zm3.81 0h2.117v2.12h-2.12zm-7.624 0h2.114v2.12H4.13zm8.29-6.352V.848h-1.27v1.057H6.847V.848h-1.27v1.057H0v15.247h18V1.905h-5.577zm-6.846 1.27v1.06h1.27v-1.06h4.306v.847h1.27l.003-.846h4.305v2.118H1.27V3.176h4.307zM1.27 15.883v-9.32h15.46v9.32H1.27z"/></symbol><symbol id="security" viewBox="0 0 214.27 214.27"><path d="M196.926 55.171c-.11-5.785-.215-11.25-.215-16.537a7.5 7.5 0 0 0-7.5-7.5c-32.075 0-56.496-9.218-76.852-29.01a7.498 7.498 0 0 0-10.457 0c-20.354 19.792-44.771 29.01-76.844 29.01a7.5 7.5 0 0 0-7.5 7.5c0 5.288-.104 10.755-.215 16.541-1.028 53.836-2.436 127.567 87.331 158.682a7.495 7.495 0 0 0 4.912 0c89.774-31.116 88.368-104.849 87.34-158.686zm-89.795 143.641c-76.987-27.967-75.823-89.232-74.79-143.351.062-3.248.122-6.396.164-9.482 30.04-1.268 54.062-10.371 74.626-28.285 20.566 17.914 44.592 27.018 74.634 28.285.042 3.085.102 6.231.164 9.477 1.032 54.121 2.195 115.388-74.798 143.356z"/><path d="M132.958 81.082l-36.199 36.197-15.447-15.447a7.501 7.501 0 0 0-10.606 10.607l20.75 20.75a7.477 7.477 0 0 0 5.303 2.196 7.477 7.477 0 0 0 5.303-2.196l41.501-41.5a7.498 7.498 0 0 0 .001-10.606 7.5 7.5 0 0 0-10.606-.001z"/></symbol><symbol id="south-aegean" viewBox="0 0 64 72"><path d="M11.9 10.1c1.595-.68 1.36-2.49.264-.464-.233.06-.411.751-.264.464zm0 0c1.595-.68 1.36-2.49.264-.464-.233.06-.411.751-.264.464zm6.2-4.8c-1.257 1.563-.82-1.58.042-.127l-.03.04-.012.087zm0 0c-1.257 1.563-.82-1.58.042-.127l-.03.04-.012.087zm.3-4.2c-.762.546-.465-.665 0 0zm0 0c-.762.546-.465-.665 0 0zm5.7 15.6c.76-2.062-.928-4.054-.988-6.15.226-1.988 3.069-.656 2.3 1.012.998 1.217 1.726 2.695.161 3.879.86.655-.832 2.29-1.473 1.259zm0 0c.76-2.062-.928-4.054-.988-6.15.226-1.988 3.069-.656 2.3 1.012.998 1.217 1.726 2.695.161 3.879.86.655-.832 2.29-1.473 1.259zm2 5.3c-.76-1.13-1.887-3.29-1.3-4.5 1.033.646 5.33 5.22 1.3 4.5zm0 0c-.76-1.13-1.887-3.29-1.3-4.5 1.033.646 5.33 5.22 1.3 4.5zm-10.4-9c-1.064 1.255-3.785 1.734-2.2-.1-.17-1.303 3.645-1.283 2.2.1zm0 0c-1.064 1.255-3.785 1.734-2.2-.1-.17-1.303 3.645-1.283 2.2.1zm4.4 3.7c-2.118-.362.331-1.465.3-.1l-.3.1zm0 0c-2.118-.362.331-1.465.3-.1l-.3.1zM14.3 18c-1.07 1-4.05 1.303-1.548-.167-.115-2.005 1.856-1.921 1.785-.07.269.365-.068.139-.237.237zm0 0c-1.07 1-4.05 1.303-1.548-.167-.115-2.005 1.856-1.921 1.785-.07.269.365-.068.139-.237.237zm7.7 3.1c.776-2.443-2.918.181-2.025 1.075.96.65 2.028.155 2.025-1.075zm0 0c.776-2.443-2.918.181-2.025 1.075.96.65 2.028.155 2.025-1.075zm-9.7 2.3c-2.462 1.106-2.014-3.344.3-1.3.301.37-.247.954-.3 1.3zm0 0c-2.462 1.106-2.014-3.344.3-1.3.301.37-.247.954-.3 1.3zm-.1 5.8c1.417-.122 1.68-2.044.813-2.9-.527-.825-.023 1.117-.65 1.1.544.667-.568 1.022-.163 1.8zm0 0c1.417-.122 1.68-2.044.813-2.9-.527-.825-.023 1.117-.65 1.1.544.667-.568 1.022-.163 1.8zm-7.7-2c-1.15 1.332-.168-1.03.05-.125l-.05.125zm0 0c-1.15 1.332-.168-1.03.05-.125l-.05.125zm3.6 3.1c-.932.253-1.849-1.664-1.9-.6 1.148 1.306-1.054.757-.65-.587-1.968.223-1.934 1.835.102 2.07.778 1.494 2.42.02 2.448-.883zm0 0c-.932.253-1.849-1.664-1.9-.6 1.148 1.306-1.054.757-.65-.587-1.968.223-1.934 1.835.102 2.07.778 1.494 2.42.02 2.448-.883zm.8-.1c-1.796-.628.986-2.441.7-.466.021.37-.605.187-.7.466zm0 0c-1.796-.628.986-2.441.7-.466.021.37-.605.187-.7.466zm.6 1.4c1.93-.432-1.325-2.453 0 0zm0 0c1.93-.432-1.325-2.453 0 0zm18-5.9c1.213.293 2.142-1.428.8-1.1-.166-.783-.977-1.722-1.3-.1-1.314.323.224.74.5 1.2zm0 0c1.213.293 2.142-1.428.8-1.1-.166-.783-.977-1.722-1.3-.1-1.314.323.224.74.5 1.2zm-1.4-.8c-1.425-.296.43 1.09 0 0zm0 0c-1.425-.296.43 1.09 0 0zm-.5-.3c-1.267-.318.203-1.412 0 0zm0 0c-1.267-.318.203-1.412 0 0zm-.1.2c-.881-.457-.757.724 0 0zm0 0c-.881-.457-.757.724 0 0zm-5.8 6.8c-1.2-1.158.43-3.037 1.734-2.3 1.069-.647.337 1.15 1.466.6-.518.891-2.242 3.345-3.2 1.7zm0 0c-1.2-1.158.43-3.037 1.734-2.3 1.069-.647.337 1.15 1.466.6-.518.891-2.242 3.345-3.2 1.7zm-2-.9c-.208-.858 1.773-1.455 1.2-.2-.917.355-.322 1.167-1.2.2zm0 0c-.208-.858 1.773-1.455 1.2-.2-.917.355-.322 1.167-1.2.2zm-.5 0c-1.166.36.009-1.184 0 0zm0 0c-1.166.36.009-1.184 0 0zm10.4 2.2c1.227-2.882-2.264-2.2-3.6-1.5-1.042.29-.34 2.735-.9 3.638 1.593.382 2.81-.08 3.75-1.488.224-.282.556-.468.75-.65zm0 0c1.227-2.882-2.264-2.2-3.6-1.5-1.042.29-.34 2.735-.9 3.638 1.593.382 2.81-.08 3.75-1.488.224-.282.556-.468.75-.65zm2.8 2.5c-1.085-1.298 1.638-.99 0 0zm0 0c-1.085-1.298 1.638-.99 0 0zm-2.8 5.7c-1.6.192-1.751-1.502-.113-.938.833 1.17.568-1.355 1.913.138 1.095.357 1.764-1.569 2.413-.15.722 1.462-1.013-.056-1.913.35-.717.46-1.517.983-2.3.6zm0 0c-1.6.192-1.751-1.502-.113-.938.833 1.17.568-1.355 1.913.138 1.095.357 1.764-1.569 2.413-.15.722 1.462-1.013-.056-1.913.35-.717.46-1.517.983-2.3.6zm-1.9-3.2c-1.223-1.51 1.43-.306 0 0zm0 0c-1.223-1.51 1.43-.306 0 0zm-2.2-1c-.446-1.684 1.613-.126 0 0zm0 0c-.446-1.684 1.613-.126 0 0zm-1.1.2c1.717-.838-1.822-.528 0 0zm0 0c1.717-.838-1.822-.528 0 0zm-2.9 2.3c-1.153.35-1.439-1.824-1.064-2.536 1.344-1.613 1.54 1.204 1.852 1.774-.5.069-.38.663-.788.762zm0 0c-1.153.35-1.439-1.824-1.064-2.536 1.344-1.613 1.54 1.204 1.852 1.774-.5.069-.38.663-.788.762zm-4.7-2.2c1.486.497 3.06-1.237.9-.9.12.748-1.674.172-.9.9zm0 0c1.486.497 3.06-1.237.9-.9.12.748-1.674.172-.9.9zm-2.9-.7c-.02-.43-.63-2.562.4-1 .407.4.426 2.236-.4 1zm0 0c-.02-.43-.63-2.562.4-1 .407.4.426 2.236-.4 1zm5.5 8c1.014-.768-1.116-2.556.6-1.2 1.655 1.507-1.107 4.214-2.1 2.1.426-.851 1.596.61 1.5-.9zm0 0c1.014-.768-1.116-2.556.6-1.2 1.655 1.507-1.107 4.214-2.1 2.1.426-.851 1.596.61 1.5-.9zm-.8-1.1c-.751 1.29-.095-1.453 0 0zm0 0c-.751 1.29-.095-1.453 0 0zm6.1 5.4c-1.712.03-1.338-2.099-.064-1.064-.114.368.829 1.054.064 1.064zm0 0c-1.712.03-1.338-2.099-.064-1.064-.114.368.829 1.054.064 1.064zm25.5 16.1c1.484-.623 4.46-2.202 4.313-3.838-1.326.048-2.501-.739-3.947-.362-1.039.077-2.2-.256-3.066.4-1.285.238-2.966.939-4.1 1.5 1.278 1.556-1.4 2.461-1.8 4.3 1.569 2.4 4.634-1.336 6-.4.881 1.443 1.389-1.923 2.6-1.6zm0 0c1.484-.623 4.46-2.202 4.313-3.838-1.326.048-2.501-.739-3.947-.362-1.039.077-2.2-.256-3.066.4-1.285.238-2.966.939-4.1 1.5 1.278 1.556-1.4 2.461-1.8 4.3 1.569 2.4 4.634-1.336 6-.4.881 1.443 1.389-1.923 2.6-1.6zm.1-8.5c-.84-.36-1.605-2.196.267-2.2 1.97.966-1.455-.11.433 1-.19.491-.269.855-.7 1.2zm0 0c-.84-.36-1.605-2.196.267-2.2 1.97.966-1.455-.11.433 1-.19.491-.269.855-.7 1.2zm-5 3.8c-2.133-.093 1.11-1.031 0 0zm0 0c-2.133-.093 1.11-1.031 0 0zm-2.2 0c-1.381.16-1.712-1.667-.013-.988.246.2.048.778.013.988zm0 0c-1.381.16-1.712-1.667-.013-.988.246.2.048.778.013.988zm-.5-5c-1.054-.588.074-2.745-1.7-2-.824 1.078.972.684.3 2.1.33.288 1.736.972 1.4-.1zm0 0c-1.054-.588.074-2.745-1.7-2-.824 1.078.972.684.3 2.1.33.288 1.736.972 1.4-.1zM39 50c.148-2.364-2.657.416-.233.3.274.113-.005-.251.233-.3zm0 0c.148-2.364-2.657.416-.233.3.274.113-.005-.251.233-.3zm-.3-2c-1.865.405.691-1.5 0 0zm0 0c-1.865.405.691-1.5 0 0zm3.3-3.6c-1.74-1.09-3.322.617-5 .05-1.204-1.062-1.166 2.729-.7 1.15.987-.865 2.047-.891 3.013.337 1.38-1.665 3.948 1.07 4.574-.387-.677-.83-.607-1.46-1.887-1.15zm0 0c-1.74-1.09-3.322.617-5 .05-1.204-1.062-1.166 2.729-.7 1.15.987-.865 2.047-.891 3.013.337 1.38-1.665 3.948 1.07 4.574-.387-.677-.83-.607-1.46-1.887-1.15zm-.2-1.1c1.145-.873-1.627-1.215 0 0zm0 0c1.145-.873-1.627-1.215 0 0zm-2.2-3.4c-.847-.92-.465-2.504.5-.8.256 1.045 1.141 3.117-.7 2.5-1.814.313-1.057-1.384.2-1.7zm0 0c-.847-.92-.465-2.504.5-.8.256 1.045 1.141 3.117-.7 2.5-1.814.313-1.057-1.384.2-1.7zm-.1-4.3c-1.452-.385.093.988-.6 1.5.795 2.306 1.293-1.345.6-1.5zm0 0c-1.452-.385.093.988-.6 1.5.795 2.306 1.293-1.345.6-1.5zm-.2-.7c-.245.965-.543-.282 0 0zm0 0c-.245.965-.543-.282 0 0zm5.5-2.4c-2.892-1.373 1.164-1.1 0 0zm0 0c-2.892-1.373 1.164-1.1 0 0zm-5.1.7c-1.168-1.589.21 2.323.3.1l-.3-.1zm0 0c-1.168-1.589.21 2.323.3.1l-.3-.1zm.5-1.2c-1.179-.835.547-1.134 0 0zm0 0c-1.179-.835.547-1.134 0 0zM38 30.2c-1.03-1.447-2.354 2.507-1.4 1.533.193-1.966 1.101.48 1.4-1.533zm0 0c-1.03-1.447-2.354 2.507-1.4 1.533.193-1.966 1.101.48 1.4-1.533zm-5.7 6.2c-2.355-.902.567-.736 0 0zm0 0c-2.355-.902.567-.736 0 0zM24.8 44c-.823-1.353.94-2.979 1.2-1 1.36.566.424-1.744 1.9-.5.67 2.167-.84 1.117-1.938.912-.488.62-.194 1.911-1.162.588zm0 0c-.823-1.353.94-2.979 1.2-1 1.36.566.424-1.744 1.9-.5.67 2.167-.84 1.117-1.938.912-.488.62-.194 1.911-1.162.588zm3.7 6.1c-1.062-.204 1.15-.575 0 0zm0 0c-1.062-.204 1.15-.575 0 0zm1 10.4c-.135-.632-.065-1.21.9-1.867-.137-1.506.134-2.526 1.475-2.783.782-.315 2.32-3.162 3.025-1.95-1.125.608-1.501 1.947-2.9 2.4-.422.903.431 2.184-.5 2.9 1.141 1.473-1.779.29-2.1 1.5l.1-.2zm0 0c-.135-.632-.065-1.21.9-1.867-.137-1.506.134-2.526 1.475-2.783.782-.315 2.32-3.162 3.025-1.95-1.125.608-1.501 1.947-2.9 2.4-.422.903.431 2.184-.5 2.9 1.141 1.473-1.779.29-2.1 1.5l.1-.2zm-3.8-.8c-1.06.016-1.13-1.07.2-1.2.41.414 1.268.214 1.9.7-.416.75-1.367.037-2.1.5zm0 0c-1.06.016-1.13-1.07.2-1.2.41.414 1.268.214 1.9.7-.416.75-1.367.037-2.1.5z" stroke="#fff" stroke-width=".5" stroke-miterlimit="8"/></symbol><symbol id="thessaly" viewBox="0 0 64 72"><path d="M1.6 29.2c-.507-3.119 3.268-4.028 4.338-6.5.334-1.626 2.584.652 3.762-.5 2.188.406 4.176 1.392 6.066 2.533 1.088.795 1.847.313 2.434.067 1.68 1.72 2.7 4.249 3.6 6.5.996 1.084 3.112 3.743.013 2.712-2.837-.625-5.177 1.262-8.063.213-2.714 1.45-5.514-.384-8.347.658-1.906 1.227-3.8-1.585-3.453-3.67-.357-.621-.037-1.415-.35-2.013zm12.7 18.1c.952-2.708-2.02-3.852-2.5-6.1-1.346-1.634-3.67-1.796-5.5-1.1-.174 1.862-3.892 1.937-2.8-.1-.122-1.47 2.825-.974 1.625-3.163.336-1.363-.617-2.56 1.675-2.437 2.429-.645 4.811.926 7.147-.4 2.293.377 4.351.154 6.458-.469 1.505.383 3.812-.284 3.295 1.869 1.496 1.33.012 3.103-1.1 4.1-1.205 1.551.054 3.528-1.9 4.2-1.08 1.838-1.888 5.268-4.77 4.323-.927-.294-1.285-.634-1.63-.723zm28.8 4.3c-.629 1.94-3.083.165-4.1 1.9-.996.121-3.084-.188-2.538-1.538 1.2-1.12 1.685-.216 1.288.725 1.718-.316 2.83-1.18 2.188-2.775.578-.844-.957-3.502-2.626-2.925-.463-1.53-1.901-1.315-2.512-.087-1.855-.498-3.23.463-2.8 2.447.286.788 1.905-.105 1.3 1.603-.122.808 1.54.775 1.2 2.15-1.737.755-.405 1.742.9 1.1.758.717-1.65.641-1.4 1.8-2.25-.78-3.929-2.76-6.1-3.6-2.843-.03-3.267-2.98-1.3-4.6 1.93-.85 3.341-1.989 4.312-3.95.92-1.633 5.034.49 3.188-2.15.173-1.844 3.001-2.35 4.01-1.59 2.005.95 1.912 3.403 3.227 4.79.259 1.195.774 2.249 1.063 3.5-.645 1.162.584 2.257.7 3.2zm5.9 4.6c.538-1.092-1.343-3.35.2-3.2.439 1.48 2.03 2.442 2.4 3.2-1.113.817-1.62.506-2.6 0zm0 0c.538-1.092-1.343-3.35.2-3.2.439 1.48 2.03 2.442 2.4 3.2-1.113.817-1.62.506-2.6 0zm-2.4-2.9c-.86-.066-3.148.49-2.587-.925 1.212.117 3.018-1.514 2.75.662l-.163.263zm0 0c-.86-.066-3.148.49-2.587-.925 1.212.117 3.018-1.514 2.75.662l-.163.263zm15-1.6c2.2-1.963-1.449-1.682-.3-.2l.3.2zm0 0c2.2-1.963-1.449-1.682-.3-.2l.3.2zm-1.5.4c-1.554 2.232-1.582-2.602 0-.5-.107.167.091.34 0 .5zm0 0c-1.554 2.232-1.582-2.602 0-.5-.107.167.091.34 0 .5zm-3.7 1.4c-1.046.837-2.127 2.198-3.3 2.4-.154-.905 1.442-1.15 1.65-2.038.48-.255 2.34-2.446 1.887-.575l-.237.213zm0 0c-1.046.837-2.127 2.198-3.3 2.4-.154-.905 1.442-1.15 1.65-2.038.48-.255 2.34-2.446 1.887-.575l-.237.213zm.4 1.2c.446-1.767-2.45 1.721-.412 1.05.3-.283.304-.679.412-1.05zm0 0c.446-1.767-2.45 1.721-.412 1.05.3-.283.304-.679.412-1.05zm1.8 4.2c-.443-1.6-1.01 2.25.027.077L58.6 58.9zm0 0c-.443-1.6-1.01 2.25.027.077L58.6 58.9zM23.5 34.4c.217-1.756-2.19-3.004-2.262-4.95-1.212-1.472-2.012-4.13-3.138-4.95-1.49-2.932 2.703-2.087 4.237-3.163 2.356-.7 3.465-4.332 6.15-2.537-.102 1.32.13 2.785 1.563 1.175 2.235.174-.166 3.548 2.05 4.425.226 2.752 3.516 3.017 3.4 5.7 2.497 1.677 1.72 4.452 1.913 6.95.974 2.17-.156 2.513-1.925 2.85-2.465.626 1.01 3.986-2.188 2.913-2.255-.494-2.777 2.276-4 3.487-1.738-.062-3.248 2.316-3.6 2.7-1.002-1.83-1.615-3.92-3.321-5.321-1.56-.599-.646-3.186.258-4.067 1.686-1.268 1.653-2.963.563-4.512.11-.25.366-.738.3-.7z" stroke="#fff" stroke-width=".5" stroke-miterlimit="8"/></symbol><symbol id="twitter" viewBox="0 0 449.956 449.956"><path d="M449.956 85.657c-17.702 7.614-35.408 12.369-53.102 14.279 19.985-11.991 33.503-28.931 40.546-50.819-18.281 10.847-37.787 18.268-58.532 22.267-18.274-19.414-40.73-29.125-67.383-29.125-25.502 0-47.246 8.992-65.24 26.98-17.984 17.987-26.977 39.731-26.977 65.235 0 6.851.76 13.896 2.284 21.128-37.688-1.903-73.042-11.372-106.068-28.407C82.46 110.158 54.433 87.46 31.403 59.101c-8.375 14.272-12.564 29.787-12.564 46.536 0 15.798 3.711 30.456 11.138 43.97 7.422 13.512 17.417 24.455 29.98 32.831-14.849-.572-28.743-4.475-41.684-11.708v1.142c0 22.271 6.995 41.824 20.983 58.674 13.99 16.848 31.645 27.453 52.961 31.833a95.543 95.543 0 0 1-24.269 3.138c-5.33 0-11.136-.475-17.416-1.42 5.9 18.459 16.75 33.633 32.546 45.535 15.799 11.896 33.691 18.028 53.677 18.418-33.498 26.262-71.66 39.393-114.486 39.393-8.186 0-15.607-.373-22.27-1.139 42.827 27.596 90.03 41.394 141.612 41.394 32.738 0 63.478-5.181 92.21-15.557 28.746-10.369 53.297-24.267 73.665-41.686 20.362-17.415 37.925-37.448 52.674-60.097 14.75-22.651 25.738-46.298 32.977-70.946 7.23-24.653 10.848-49.344 10.848-74.092 0-5.33-.096-9.325-.287-11.991 18.087-13.127 33.504-29.023 46.258-47.672z"/></symbol><symbol id="western-greece" viewBox="0 0 64 72"><path d="M45.4 66.9c.515 1.802-2.274-.252-2.397 1.91-1.782 2.52-2.349-.912-3.603-1.41-1.156 1.952-3.35 2.951-5.6 2.5-.606-3.286-3.064-5.86-5.513-7.956-1.133-1.835-4.075-3.069-5.175-2.206.527-2.604-.041-6.029-3.075-6.788-3.434.707-3.485-4.216-.337-4.35 1.877-.592 2.622-2.63 4.1-3.8.73-1.362 3.025-1.066 3.937-.237.849 1.567 4.002.516 3.063 3.337.481 2.476 3.13 4.296 5.626 4 2.11.205 2.251-3.838 4.474-2.3-.426 1.667 2.98 3.355 1 4.2-1.641.499-2.842 2.123-2.5 3.861-1.163 2.552-.315 5.585 2.8 5.239 1.966.056 2.217 2.71 3.2 4zm.9-47.5c-.28 1.267-1.756 2.112-.063 3.075.259 1.617-2.958 1.728-.875 3.525.673 1.818-3.727 2.465-3.112 5.088-.194 2.275-2.313 1.797-3.65 1.312-.963 2.528-3.221 1.842-5 1.2-1.855.154-4.521 3.415-5.487.863 1.378-1.244-2.44-1.232-2.313-3.163-.325-.819-1.074-4.212-1.825-1.9 1.344 1.657.89 3.71-1.452 3.994-.358 1.352-2.494 1.81-3.66 1.294 0-.95-2.72-.247-.763-1.588.916-1.686-.4-4.047-1.065-5.6-1.653 1.094-1.757-1.038-1.035-2.096-1.526-1.4-.276-4.272-2.988-4.129-1.747-1.448-.347-6.024-3.375-3.337-2.369-.15-1.933-3.245-.237-3.438-.53-.805-2.2-2.809-.2-2.4.851 1.488 2.152-.286 2.5-.5.147 2.74 2.895-1.404 4.237.975-.037 1.807 2.064 2.902 2.063.825 1.036-.657 2.502 2.64 1.85-.013-1.102-1.865.877-3.703-1.25-5.287.236-2.139 2.342-3.472 3.996-2.1 1.675-.237 3.243-1.579 5.03-1.5 2.03-.085-.068 2.854.476 4.064-.7 2.469 3.172 1.689 2.198 4.136 1.334 1.67.98-2.813 1.5-.1-.936 1.751 3.043 1.909 1 4-1.342 3.145 2.165 4.684 4.65 4.95 2.28.738 5.236-.105 6.75-1.65.48-.218 1.417-.192 2.1-.5zm-3.6 33.7c-1.682-.857-1.01-4.081-3.2-3.8-1.031 1.572-2.472 3.272-4.613 2.638-2.773-.358-4.59-3.214-4.387-5.838-1.675-.202-2.687-1.732-4.2-2.1-1.563-.129-2.414.105-1-1.7-.933-3.155 2.55-3.943 4.4-1.9 2.56 1.896 5.316-.889 6.574-3.048 1.208-2.477 4.905-4.016 7.126-1.94 1.914 2.005 4.804 2.483 6.888 4.313C52.154 41.44 55.83 41 57.2 42.4c-.782 2.367-.305 5.615-2.7 6.6-1.55 1.567-2.141 3.69-2.7 5.4-.9 1.478-3.692-.036-5.313.563-1.306-.151-3.202-.547-3.787-1.863z" clip-rule="evenodd" fill-rule="evenodd" stroke="#fff" stroke-width=".5" stroke-miterlimit="8"/></symbol><symbol id="western-macedonia" viewBox="0 0 64 72"><path d="M13.4 47.3c1.667-1.86 4.336-3.676 6.938-3.325 2.328 1.434 4.398 3.146 7.301 1.725 2.87-1.865 5.818-.134 8.357 1.364 1.676 1.641 4.709 1.614 5.779 3.436.39 2.68 1.261 5.303 1.625 8 1.722 1.695 1.838 4.271 2.5 6.2.5 1.787-1.7 1.209-2.82 1.3-3.545-.703-7.031-2.112-10.717-1.8-3.138-.835-5.415 2.516-8.613 1.475-1.304-.957-2.808-2.166-4.799-1.775-3.394.57-3.756-2.612-4.076-4.938-.824-2.52-1.514-5.038-4.075-6.362-.338-2.111.305-4.61 2.6-5.3zM57.9 49c-1.767 2.84-3.319 6.042-6.276 7.861-2.032 1.35-5.13 3.337-7.049 3.202-1.928-1.988-1.484-5.108-2.513-7.613.316-2.646-1.591-3.329-3.662-3.963-2.56-1.332-5.05-3.445-8.005-3.652-2.536.393-5.866 2.523-7.995.265-1.18-1.4-3.641-1.142-4.528-1.158-.335-2.63.887-5.397 3.628-6.167 2.804-.578 5.928.12 8.597-1.14 2.01-.923 3.057-3.2 2.803-5.335.534-1.94 1.41-2.684 3.25-2.837.946-1.845 2.73-1.492 4.45-1.463 2.079-.824 5.122-1.998 5-4.688-.356-2.42 1.044-3.124 2.75-1.187 1.628.705 3.273.706 1.75 2.775-1.427 3.122-.42 7.44 2.927 8.856 2.231.98 4.338 2.765 4.273 5.344 1.07.913 2.14 1.778 2.703 3.225 1.755.789 2.472 1.522.697 2.875-1.04 1.529-2 3.14-2.8 4.8zm-25-17.5c.487 3.2-2.42 6.24-5.64 6.04-2.842.44-6.271-.488-8.315 2.147-1.945 1.859.186 5.366-3.158 5.738-1.59 1.045-2.315 2.864-3.837.9-3.397-.677-.323-4.39-2.55-5.925-1.814-.35-3.48 4.686-5.064 1.163-.52-2.994-3.389-4.27-1.436-7.263 1.206-3.358 5.67-.516 6.9-3.8 1.063-2.586 5.067-3.025 3.6-6.1-.097-2.374 3.82-1.74 4.2.2 2.738.21 3.833-3.188 4.9-5.2 2.382-1.83 3.712 1.385 5.4 2.4-.448 3.267 3.13 3.98 3.6 6.95.448.725.734 2.71 1.4 2.75zM46 19.8c-.414 1.667.045 3.61-1.236 4.972-1.743 1.269-3.71 2.613-5.967 2.2-1.858-.142-2.664 2.661-4.702 2.24-.55 1.42-1.135 3.51-1.714.852-.43-2.883-2.701-4.274-3.956-6.464.206-2.364-2.265-4.05-3.97-5-2.727-.161-2.562 3.628-4.455 4.9-2.473 3.024-3.18-2.7-5.863-.525-.667-.97-.905-3.859-3.137-4.275-1.68-2.433-1.602-7.745 2.262-7.781 2.527.698 4.85-.783 7.238-.819 2.204 2.688 5.463.856 7.325-1.238 2.135-1.168 4.614.726 6.425 1.838 2.912 1.83 4.129-2.36 6.05-3.325 1.747.458 3.713-.627 4.49-1.16.338 1.659.575 3.911-1.09 4.985-2.01 1.093-1.463 3.075.6 3.1 2.387 1.05 1.302 3.544 1.7 5.5z" clip-rule="evenodd" fill-rule="evenodd" stroke="#fff" stroke-width=".5" stroke-miterlimit="10"/></symbol><symbol id="wish" viewBox="0 0 18 18"><path d="M5.03 1.26c.55 0 1.546.29 3.163 2.05l.8.88.788-.89c1.127-1.27 2.32-2.05 3.12-2.05a3.527 3.527 0 0 1 2.76 1.32 4.923 4.923 0 0 1-.007 6.48c-.064.08-3.46 4.14-6.307 7.54a.5.5 0 0 1-.368.16.523.523 0 0 1-.366-.15c-.693-.86-5.72-7.05-6.305-7.7a4.923 4.923 0 0 1 0-6.47A3.445 3.445 0 0 1 5.03 1.26m0-1.25a4.483 4.483 0 0 0-3.52 1.54 6.26 6.26 0 0 0 0 8.23c.586.65 6.288 7.68 6.288 7.68a1.55 1.55 0 0 0 2.352 0s6.235-7.46 6.3-7.53a6.27 6.27 0 0 0 0-8.24A4.6 4.6 0 0 0 12.9 0c-1.328 0-2.81 1.18-3.917 2.42C7.84 1.18 6.403.01 5.03.01z"/></symbol></svg>