<svg xmlns="http://www.w3.org/2000/svg"><defs><style>.cls-1{fill:#484848}</style><style>.cls-1{fill:#31353f;fill-rule:evenodd}</style><style>.cls-1{fill:#477afb;fill-rule:evenodd;filter:url(#filter)}</style><filter id="filter" x="1500" y="957" width="18" height="18" filterUnits="userSpaceOnUse"><feFlood result="flood" flood-color="#31353f"/><feComposite result="composite" operator="in" in2="SourceGraphic"/><feBlend result="blend" in2="SourceGraphic"/></filter><style>.cls-1{fill:#31353f;fill-rule:evenodd}</style></defs><symbol id="arrow-bottom" viewBox="0 0 7 11"><path d="M4.085.68v7.91l1.973-2.3a.5.5 0 0 1 .78 0A.684.684 0 0 1 7 6.74a.71.71 0 0 1-.162.46l-3.342 3.79L.152 7.2a.723.723 0 0 1 0-.91.5.5 0 0 1 .78 0L2.92 8.6 2.927.64a.606.606 0 0 1 .55-.65.7.7 0 0 1 .608.69z"/></symbol><symbol id="arrow-left" viewBox="0 0 15 12"><path d="M13.93 7.01H3.76l3.58 3.38a.887.887 0 0 1 0 1.33 1.028 1.028 0 0 1-1.41 0L.01 6 5.93.27a1.055 1.055 0 0 1 1.41 0 .9.9 0 0 1 0 1.34l-3.61 3.4L14 5.03a.975.975 0 0 1 1.01.94 1.125 1.125 0 0 1-1.08 1.04z"/></symbol><symbol id="arrow-right" viewBox="0 0 15 12"><path d="M1.07 4.99h10.17L7.66 1.61a.887.887 0 0 1 0-1.33 1.028 1.028 0 0 1 1.41 0L14.99 6l-5.92 5.73a1.055 1.055 0 0 1-1.41 0 .9.9 0 0 1 0-1.34l3.61-3.4L1 6.97a.975.975 0 0 1-1.01-.94 1.125 1.125 0 0 1 1.08-1.04z"/></symbol><symbol id="arrow-top" viewBox="0 0 7 11"><path d="M4.085 10.3V2.39l1.973 2.3a.5.5 0 0 0 .78 0A.684.684 0 0 0 7 4.24a.71.71 0 0 0-.162-.46L3.496-.01.152 3.78a.723.723 0 0 0 0 .91.5.5 0 0 0 .78 0L2.92 2.38l.007 7.96a.606.606 0 0 0 .55.65.7.7 0 0 0 .608-.69z"/></symbol><symbol id="attica" viewBox="0 0 64 72"><path d="M28 55.6c.036.606-3.176-1.441-4.534-1.644-2.577-.982-5.225-2.657-6.379-5.206.396-.717 4.048 3.506 4.688.4-.212-1.366-3.747-2.731-1.413-4.362 3.118-.363 3.509 2.974 1.638 4.612.104 3.484 4.288 2.59 5.525 5.125.175.35.33.711.475 1.075zm0 0c.036.606-3.176-1.441-4.534-1.644-2.577-.982-5.225-2.657-6.379-5.206.396-.717 4.048 3.506 4.688.4-.212-1.366-3.747-2.731-1.413-4.362 3.118-.363 3.509 2.974 1.638 4.612.104 3.484 4.288 2.59 5.525 5.125.175.35.33.711.475 1.075zm25.9-20c.103 1.948-1.156 4.184-.785 6.474-.817 3.008-5.401 3.053-6.2.04.918-2.343-.236-4.368-2.175-5.674-1.046-1.016-2.824-2.9-3.912-1.068-3.148.252-2.184-4.12-4.042-5.719-2.14-1.229-3.95-3.08-5.811-4.728-1.019-1.448 3.033-1.774.762-3.188-1.62-.59-3.036.302-4.392 1.097-2.483.473-3.505 3.673-6.279 3.166-1.97-.064-4.01.446-5.766 1.2-.676-1.887-2.327-3.384-2.325-5.375.09-1.154 4.096-2.43 1.289-4.161-1.31-1.012-1.453-2.709.111-2.364 2.972-.06 5.369-2.187 6.59-4.769.686-2.308 3.955-1.579 3.435.769 2.298 1.958 2.774-1.895 4.2-2.8 2.04.339 4 1.903 6.262 1.475 2.552-.429 2.01-3.675 2.438-5.625.137-1.379 2.702-.028 3.625.113 4.221 1.67 8.688 3.402 11.872 6.73 1.445 1.807-.082 5.432-2.247 5.32-1.351 1.288.843 3.8-.05 5.487 3.328 1.11-1.609 2.485-.125 4.763 1.97 2.195 1.34 5.112 2.525 7.637.212.5.735.742 1 1.2zm0 0c.103 1.948-1.156 4.184-.785 6.474-.817 3.008-5.401 3.053-6.2.04.918-2.343-.236-4.368-2.175-5.674-1.046-1.016-2.824-2.9-3.912-1.068-3.148.252-2.184-4.12-4.042-5.719-2.14-1.229-3.95-3.08-5.811-4.728-1.019-1.448 3.033-1.774.762-3.188-1.62-.59-3.036.302-4.392 1.097-2.483.473-3.505 3.673-6.279 3.166-1.97-.064-4.01.446-5.766 1.2-.676-1.887-2.327-3.384-2.325-5.375.09-1.154 4.096-2.43 1.289-4.161-1.31-1.012-1.453-2.709.111-2.364 2.972-.06 5.369-2.187 6.59-4.769.686-2.308 3.955-1.579 3.435.769 2.298 1.958 2.774-1.895 4.2-2.8 2.04.339 4 1.903 6.262 1.475 2.552-.429 2.01-3.675 2.438-5.625.137-1.379 2.702-.028 3.625.113 4.221 1.67 8.688 3.402 11.872 6.73 1.445 1.807-.082 5.432-2.247 5.32-1.351 1.288.843 3.8-.05 5.487 3.328 1.11-1.609 2.485-.125 4.763 1.97 2.195 1.34 5.112 2.525 7.637.212.5.735.742 1 1.2zM30.7 27c-.604-1.042-1.257-3.59-3.05-2.725-1.214.138-4.035 1.473-1.65 2.325 2.378-1.195.57 1.878-1 1.1-3.189.37-.68 4.547 1.245 2.181 2.629.158 2.473-2.662 4.455-2.881zm0 0c-.604-1.042-1.257-3.59-3.05-2.725-1.214.138-4.035 1.473-1.65 2.325 2.378-1.195.57 1.878-1 1.1-3.189.37-.68 4.547 1.245 2.181 2.629.158 2.473-2.662 4.455-2.881zM28 41.5c1.46-1.323.73-3.222 2.8-3.8-.611-2.604-4.018-.262-5.7-.4-1.698 1.94 2.78 2.733.588 3.95-.151 1.167 1.97 1.13 2.312.25zm0 0c1.46-1.323.73-3.222 2.8-3.8-.611-2.604-4.018-.262-5.7-.4-1.698 1.94 2.78 2.733.588 3.95-.151 1.167 1.97 1.13 2.312.25zm-7.5 1.2c.943-.824 2.215-3.974 0-2.325-.714.44-1.663 2.583 0 2.325zm0 0c.943-.824 2.215-3.974 0-2.325-.714.44-1.663 2.583 0 2.325zm7.1 9.8c2.4-.397-.981-4.106-1.625-2.1-1.698.754.666 2.347 1.625 2.1zm0 0c2.4-.397-.981-4.106-1.625-2.1-1.698.754.666 2.347 1.625 2.1zm2 9.6c3.01-.808-1.386-2.868-2.3-1.1-1.982.278-4.276 2.519-5.725 2.6 1.549.652 3.719-1.01 4.75.487.509-1.516.717-2.68 2.85-2.074l.425.087zm0 0c3.01-.808-1.386-2.868-2.3-1.1-1.982.278-4.276 2.519-5.725 2.6 1.549.652 3.719-1.01 4.75.487.509-1.516.717-2.68 2.85-2.074l.425.087zm-8.8.1c-.35 2.062-4.645.013-1.575-.512.492.033 1.264.085 1.575.512zm0 0c-.35 2.062-4.645.013-1.575-.512.492.033 1.264.085 1.575.512zM11.3 68c-2.077-.04-3.323-4.058-.338-2.575 1.466-.183 1.672 2.45.338 2.575zm0 0c-2.077-.04-3.323-4.058-.338-2.575 1.466-.183 1.672 2.45.338 2.575z"/></symbol><symbol id="calendar" viewBox="0 0 92 83"><title>calendar</title><g id="&#x421;&#x43B;&#x43E;&#x439;_2" data-name="&#x421;&#x43B;&#x43E;&#x439; 2"><g id="&#x421;&#x43B;&#x43E;&#x439;_1-2" data-name="&#x421;&#x43B;&#x43E;&#x439; 1"><g id="Page-1"><g id="dripicons-v2-by-amit-jakhu"><path id="calendar" class="cls-1" d="M39.69 15h12.62a4 4 0 0 0 0-8H39.69a4 4 0 0 0 0 8zM8 75h76V39H8zm84-63.63V79a4 4 0 0 1-4 4H4a4 4 0 0 1-4-4V11.37A4.33 4.33 0 0 1 4 7h9.35a4 4 0 0 1 0 8H8v17h76V15h-5.35a4 4 0 0 1 0-8H88a4.33 4.33 0 0 1 4 4.37zM65 22.81a5 5 0 0 0 5-5V5a5 5 0 0 0-10 0v12.81a5 5 0 0 0 5 5zm-43-5V5a5 5 0 0 1 10 0v12.81a5 5 0 0 1-10 0z"/></g></g></g></g></symbol><symbol id="car" viewBox="0 0 431.789 431.789"><path d="M422.438 151.93H390.77c-2.412 0-4.73.932-6.471 2.6l-6.76 6.476c-11.395-26.366-27.742-52.439-49.822-79.432-11.936-14.585-29.586-22.949-48.43-22.949H152.501c-18.846 0-36.497 8.365-48.426 22.95-22.777 27.842-38.799 53.287-49.924 79.338l-6.66-6.383a9.356 9.356 0 0 0-6.472-2.6H9.353A9.352 9.352 0 0 0 0 161.283v21.651a9.354 9.354 0 0 0 8.765 9.334l32.549 2.05c-4.918 14.371-8.758 35.786-8.758 65.987 0 26.205 5.234 43.428 14.343 54.578v50.449a7.832 7.832 0 0 0 7.833 7.832h36.029a7.833 7.833 0 0 0 7.836-7.832v-31.328h234.596v31.328a7.833 7.833 0 0 0 7.834 7.832h36.029a7.833 7.833 0 0 0 7.834-7.832v-50.449c9.107-11.15 14.344-28.373 14.344-54.578 0-30.201-3.84-51.616-8.758-65.987l32.549-2.05a9.354 9.354 0 0 0 8.764-9.334v-21.651a9.35 9.35 0 0 0-9.351-9.353zm-291.632-48.488a27.93 27.93 0 0 1 21.695-10.283h126.786a27.933 27.933 0 0 1 21.697 10.283c15.447 18.883 27.646 36.954 37.074 54.955l-244.543.046c9.222-17.601 21.49-35.687 37.291-55.001zm-26.649 192.251c-17.933 0-32.469-5.857-32.469-20.066 0-14.208 5.274-25.729 23.206-25.729s41.73 11.521 41.73 25.729-14.537 20.066-32.467 20.066zm145.773-2.961h-68.069c-10.262 0-18.61-8.348-18.61-18.609a5.213 5.213 0 0 1 5.214-5.212h94.863a5.211 5.211 0 0 1 5.211 5.212c0 10.262-8.348 18.609-18.609 18.609zm77.703 2.961c-17.932 0-32.469-5.857-32.469-20.066 0-14.208 23.801-25.729 41.73-25.729 17.932 0 23.207 11.521 23.207 25.729s-14.535 20.066-32.468 20.066z"/></symbol><symbol id="central-greece" viewBox="0 0 64 72"><path d="M14 32.1c-.754.98-2.071.654-3.1 1.2-1.624-.535-4.926-1.083-4.4-3.5 1.39-1.327-.697-1.91-.4-3.4-.148 1.456-1.277.69-1.1-.5-1.586-.384-1.005-2.721-.5-3.8-.38-1.335 2.186-.415 2.2-2.1 1.917-.933 4.83-.96 5.623 1.433 2.529.803 3.05 3.738 1.377 5.567-1.077 1.898.647 3.33.3 5.1zm11 10.6c-1.262-.146-1.078 3.257-2.013 1.1-.277-.953-1.366-3.776-2.584-2.603-.459.824.334 2.1-1.4 1.63-1.252-.515-2.332-.102-3.397-.42-.926-1.347-3.795-1.694-4.106-2.207.232-1.587 1.761-2.282 2.7-3.1-1.947-1.351 1.928-2.057-.1-3.2.35-1.163 1.199-2.044 2.123-.469 1.929 1.366 2.708-1.81 4.177-1.131-.272 2.29 2.496 1.355 3.4 1.3 1.047.685.964 2.004 1.037 3.1.327 1.294-2.42 1.954-.85 3.25-.463 1.294-.268 1.996 1.013 2.75zm-9.8-10.4c-1.75.076-1.842-2.639-2-4 .439-1.142.704-4.62 2.3-2.8 2.157.97 3.351-1.246 3.538-2.988-.001-2.68 2.073-2.356 3.464-.92 1.104 1.536 2.591 2.905 2.51 4.695 1.813.64 3.732.709 5.418 1.807.341.471 3.727.764 1.97 1.106-1.358-.41-2.678 1.219-4.2 1.5-1.507.114-1.95-1.702-3.3-.5-1.249-.94-.982.76-.1 1 .756.524 1.598.026 2.31-.1.192 1.69 1.808 1.39 2.69 1.9.06.845 1.81.131 2.6 1 1.894-.536 1.432 3.217 3.138 3.137.602-1.434 2.62-.133 3.162.7-.292.62-1.708 1.3-.1 1.763 1.287.824.796 1.572-.6 1.3-1.759-1.118-3.887-1.039-5.73-2.01-1.552-.85-3.444-.849-5.07-.19-.882.282-1.834-.809-2.1-1.1-.026-1.17.092-2.31-.4-3.4-.915-1.474-3.83 1.142-3.962-1.55-1.115-1.536-2.224 2.341-4.025.938-.65-.265-1.005-.853-1.513-1.288zm9.8 5.3c.83-.101 1.034 1.24 1.937.9 1.55-.415 3.371-.846 4.875.006 1.717 1 3.757.882 5.4 1.982 1.095.702 2.047-.356 3.075.075.833 1.513 2.843-.446 2.95 1.5-.186 1.038.03 2.136 1.113 2.625 1.111.67-.699 3.743-2.25 2.212-1.292-1.881-2.143 2.077-3.038.325-.892-2.44-2.838 2.818-4.423 1.253-1.161.302-.933-2.183-1.939-.878-1.71.97-.02-1.22-1.7-.8-.525-1.111-1.106 1.393-1.413-.337-.479-.826-2.867.153-2.365-1.124.467-.549-1.695-1.642-1.76-2.614-1.511.086-1.746-1.712-1.462-2.825-1.13-.614.306-2.021 1-2.3zm36.4 14.8c.079 1.595-2.616 4.45-2.9 1.6-1.07-1.185-1.77 1.798-2.538-.4.843-2.063-3.003-2.062-2.062-3.8.32-.533-.034-.821-.112-1.537-1.321.367-.37-.106-.188-1.263-1.43.96-.176-1.237-1.437-1.3-1.04.02.551-2.178-1.475-1.513-1.32.347-2.14-.321-3.188-.587-1.263.694-2.671-.631-3.7-.5-.82-1.501 1.475-1.578.2-3.1-1.553-.551-2.174-1.355-2.9-2.7-1.805-1.142-2.525-3.29-4.2-4.3-.401-2.28-3.112-.145-3.5-2.137-1.16-.65-1.164.597-.8.837-.537.119-3.46.35-2.5-.45 1.52-1.335 4.533-.19 5-2.65 1.005-.484 2.393.08 3.3-1.1 1.663.706 3.003 2.735 2.7 4.548 1.052.997 2.447 2.639 4.048 2.852 1.677.127 2.273 3.05 4.552 2.6 1.062.962 2.894-1.01 3.5.5 1.775-.025-1.03 2.356 1.345 2.622 1.95.818-.675 1.702-.083 3.378.314 1.868.677 3.713 1.2 5.438 1.142.88 2.81 1.744 4.175 1.662 1.008.363 1.541-.605 1.063.9l.3.4c.002-.106.22-.19.2 0zm-1.8-15.3c1.058-1.652-2.418-2.108-1.8-3.9-.512-1.013-2.936-1.582-1.662-.05-.767.665-1.268 1.514.062 1.65.523.479 2.297.84.838 1.65-.176 1.145 1.832-.707 1.262.55-1.305.85 1.07-.135 1.3.1z" clip-rule="evenodd" fill-rule="evenodd" stroke="#fff" stroke-width=".5" stroke-miterlimit="8"/></symbol><symbol id="central-macedonia" viewBox="0 0 64 72"><path d="M24.1 39.3c.882 1.85-1.08 1.403-.813 3.05-.791.917-2.306-1.73-3.537.062-1.346 1.897-2.61 3.675-5.05 4.4-.891 1.242-1.661 2.867-3.1.988-.734-1.439-1.602-2.292-2.012-3.887-1.518-1.567-4.425-2.147-4.388-4.836-.014-1.383.336-3.834 2.085-3.277 2.112-.85 3.835.416 5.815.8 1.405-2.171 3.728 1.89 5.7-.113 1.918-.71 4.074-2.811 4.464.318.316.813.649 1.642.836 2.495zm-10.9 9.4c1.058-2.443 4.13-2.544 5.4-4.65-.18-2.374 4.594-2.665 3.6-1.65-1.815.25 1.406 1.828.792 3.19 1.03 2.735-3.631 4.291-1.742 7.21-.936 2.979 1.172 5.798 3.15 7.4-.713 2.345-4.129-.942-4.9-2.4-2.624-.564-1.438-3.595-3.05-4.575-1.08.12-2.311 2.932-2.587.475.627-2.726-5.027.343-2.425-2.628.468-.872 1.029-1.699 1.762-2.372zm-7-13.1c-1.61-.504-3.566-1.173-3-3.17.515-2.051-3.965-1.725-1.4-3.53 1.696-1.47-.288-3.967 2.186-5.058 1.39-1.782 2.172-4.46 5.175-3.812 2.175.208 4.242-1.66 6.452-.326 1.977.148 2.005 1.809 1.887 3.404.044 1.376-2.94 2.544-1.5 3.892 2.519.499 2.906 3.633 5.805 3.184 1.406-.267 5.149-.093 1.945 1.066-2.286 1.214-.435 4.467-3.597 4.653-2.16 1.692-4.367.63-6.453-.003-1.553 1.98-3.956-1.656-6.1-.1-.473-.025-.971.095-1.4-.2zm19-5.2c-1.846-.804-4.155.353-6.027-.752-.387-1.973-3.137-1.655-3.673-3.371.481-1.586 2.537-2.58 1.85-4.515-.632-2.749 3.53.86 4.862-1.182.98-1.183 2.037-1.999 3.288-.58 1.409-2.015-.43-6.085 3.063-6.338 1.874-.235 3.696.012 2.437 2.138-.635 2.947 2.758 3.95 4.6 2 1.918 1.798 4.182 3.933 4.7 6.7 1.49 2.38-2.805.631-2.8 3.25.058 2.28-1.309 3.14-3.428 2.878-1.008 1.746-2.653 1.53-4.38 1.172-1.967-.095-3.303.898-4.492-1.4zm15.4-4.6c-.384-2.912-2.317-5.133-4.177-7.286-1.327-1.685-4.702 2.298-5.41-1.264-.887-2.702.954-4.061 3.387-3.05 2.75 1.458 3.695-2.312 5.787-2.275 1.493 2.127 3.6-1.901 5.7.208 2.628.204 3.47 2.986 6.313 3.467.839 1.233-.902 3.654 1.469 4.48 1.585.827 3.16 2.036 4.977 2.12 1.672.723 3.638 2.155 4.354 3.9-2.166 2.019-4.341 3.776-6.49 5.806-1.568 1.972-3.818.557-5.585 1.556-2.96-.241-4.778-2.849-7.525-3.662.145-1.946-1.445-2.735-2.7-3.863l-.1-.137zm-18.3 8.9c-1.029-2.51 3.052-6.139 4.4-2.8 1.992-.555 4.17.114 6.123-.04.789-2.374 3.523-.605 4.365-2.322-.083-1.98 1.205-4.323 3.512-3.838.974 1.256 3.026 1.722 2.663 3.688C45.23 30.73 47.515 31.75 49.5 33.1c1.677.05 2.473.44.9 1.7-2.196 1.52 2.892 3.438-.4 4.2-1.545 1.417-3.577.345-5.346 1-1.61-.658-3.46.478-4.895 1.327-1.827.66-2.444 2.641-4.459 2.573-1.333 1.369-2.36 5.909-4.25 2.65-1.945-.775-3.043-3.156-3.427-4.666 2.35.123 5.128-1.095 2.977-3.284.83-1.582-2.653-1.228-2.4.5-1.553.54-3.414.4-3.3 2.3-1.47-.647-.553-3.858-2.006-5.272-.25-.456-.357-.973-.594-1.428zm36.7 12c-1.053 1.222-.975 3.186-2.388 1.413-1.842-2.702-4.963-.797-7.012-.013-1.643 2.02 1.782 3.006 2.25 4.563 1.497.775 5.544.917 4.75 3.337.773 1.756 1.014 2.908-.4 4.7-1.732.246-1.573-2.687-3.1-2.55-1.887-.078-.608-3.525-2.6-4.312-.63-3.12-3.61-2.567-5.8-3.638-1.817-.928-3.823-.951-4.3 1.4.306 2.14 2.132 3.907 3.543 5.543.96 1.452 2.36 1.665 3.757 1.857 1.026.8 2.14 1.885 2.9 2.4-2.76 1.609-5.06-1.95-7.91-1.598-2.578 1.075-.493-2.573-2.627-3.364.2-2.604.109-6.624-3.663-6.438-.977-1.192-4.879-1.08-3.387-2.945.964-1.946 2.275-3.233 4.075-3.855 1.222-1.36 3.117-2.467 4.912-2.963 1.477-.987 2.967.152 4.546-.537 1.757 1.45 4.26-2.584 4.817-.95 1.043 1.066 2.916 1.482 3.737 2.55-.16 1.543-2.768-.798-2.538 1.612-.16 2.072 3.93 4.808 4.925 2.538-.396-3.786.835.394 1.513 1.25z" clip-rule="evenodd" fill-rule="evenodd" stroke="#fff" stroke-width=".5" stroke-miterlimit="10"/></symbol><symbol id="chart" viewBox="0 0 18 18"><path d="M9.66 18a7.773 7.773 0 0 1-8.02-7.98.559.559 0 0 1 .56-.56.568.568 0 0 1 .57.56 6.64 6.64 0 0 0 6.89 6.85 7.213 7.213 0 0 0 7.21-7.21 6.565 6.565 0 0 0-6.75-6.89.565.565 0 1 1 0-1.13A7.692 7.692 0 0 1 18 9.66 8.348 8.348 0 0 1 9.66 18zM7.88 8.44H.56A.559.559 0 0 1 0 7.88 7.844 7.844 0 0 1 7.88 0a.559.559 0 0 1 .56.56v7.32a.559.559 0 0 1-.56.56zM1.15 7.32h6.17V1.15a6.693 6.693 0 0 0-6.17 6.17z"/></symbol><symbol id="clip" viewBox="0 0 20 20"><path d="M3.38 20.03A3.2 3.2 0 0 1 1.07 19a3.928 3.928 0 0 1 0-5.41l11.2-12.31c1.75-1.81 4.42-1.65 6.38.38a5.088 5.088 0 0 1 1.34 3.59 5.26 5.26 0 0 1-1.4 3.57l-8.47 9.33a.6.6 0 0 1-.88.02.665.665 0 0 1-.03-.91l8.48-9.34a4 4 0 0 0 1.06-2.69 3.79 3.79 0 0 0-.99-2.66c-1.19-1.24-3.14-1.89-4.6-.38L1.97 14.49a2.6 2.6 0 0 0-.02 3.59 1.942 1.942 0 0 0 1.54.65 2.484 2.484 0 0 0 1.61-.83l8.92-9.81c.32-.34.97-1.16.31-1.84a.862.862 0 0 0-.73-.36 1.473 1.473 0 0 0-.83.51l-6.71 7.38a.61.61 0 0 1-.88.03.678.678 0 0 1-.03-.92l6.72-7.39a2.626 2.626 0 0 1 1.62-.9 2.058 2.058 0 0 1 1.72.73c.96 1 .84 2.47-.3 3.66L6 18.8a3.724 3.724 0 0 1-2.43 1.22 1.275 1.275 0 0 1-.19.01z"/></symbol><symbol id="compare" viewBox="0 0 20 18"><path d="M13 7.2c0-.1 0-.1 0 0l2.8-5.4s.2-.4.4 0l2.7 5.3c.1.1.2.5-.2.5h-5.5c-.3 0-.3-.3-.2-.4zm-6.1-.1c.1.2.2.5 0 .5H1c-.1 0-.1-.2 0-.3l.1-.2 2.8-5.5s.1-.2.3 0l2.7 5.5zm13 .2l-.1-.1L16.5.7c-.1-.2-.4-.7-1-.7H4.4c-.7 0-1 .7-1 .7L.1 7.1c0 .1-.2.4 0 .7.8 1.4 2.3 2.3 4 2.3S7.2 9.3 8 7.9c.1-.3-.1-.7-.1-.7l-3.1-6v-.1c0-.1-.1-.3.3-.3h4c.1 0 .4.1.4.6v14.4c0 .1-.1.4-.3.6l-2 1.3s-.5.3 0 .3h5.7c.4 0 0-.3 0-.3l-2.1-1.3c-.3-.2-.4-.5-.4-.6V1.4c0-.5.3-.5.5-.6h4c.1 0 .4 0 .2.4L12 7.3s-.1.2 0 .5c.8 1.4 2.3 2.3 4 2.3s3.2-.9 4-2.3c0-.2 0-.4-.1-.5z"/></symbol><symbol id="crete" viewBox="0 0 64 72"><path d="M18.6 35.6c-.66.884-2.67-.682-3.5-.7-1.341-.717-2.964-.165-4.1-1.45-2.217-1.917-5.33-1.31-8-1.85-.377-1.305-2.41-1.834-.9-3.213-.737-2.305 2.633-3.373 1.9-5.887 1.312-2.685.407 2.278 1.9 2.4 2.128.53.755-3.105 1.7-4.138 1.093-2.705 2.326 1.128 1.3 2.275-.578 1.58 1.682 2.112 2.8 2.263 1.737.27 3.948.502 4.21-1.51 2.008-.446 2.176 3.608.09 3.098-.943-1.092-1.923-.485-.6.612 1.086 1.414 3.7-.157 2.9 2.2-1.348 1.724 1.644 1.354 1.125 2.9-.739.881-.62 2.282-.825 3zm0 0c-.66.884-2.67-.682-3.5-.7-1.341-.717-2.964-.165-4.1-1.45-2.217-1.917-5.33-1.31-8-1.85-.377-1.305-2.41-1.834-.9-3.213-.737-2.305 2.633-3.373 1.9-5.887 1.312-2.685.407 2.278 1.9 2.4 2.128.53.755-3.105 1.7-4.138 1.093-2.705 2.326 1.128 1.3 2.275-.578 1.58 1.682 2.112 2.8 2.263 1.737.27 3.948.502 4.21-1.51 2.008-.446 2.176 3.608.09 3.098-.943-1.092-1.923-.485-.6.612 1.086 1.414 3.7-.157 2.9 2.2-1.348 1.724 1.644 1.354 1.125 2.9-.739.881-.62 2.282-.825 3zm13.6-3.4c-.728.954-2.447 2.244-1.163 3.45.26 1.113-.648 4.89-2.087 3.263-1.303-2.227-2.23 2.336-3.25.887-1.642-.155-3.26-.685-3.536-2.35-1.683.21-2.448-1.65-3.464-1.75-.245-1.342.67-2.58.662-3.888 1.448-.366 4.221.502 6.188.113 1.288-1.151 3.018-.949 4.55.175.809.575 1.457-.283 2.1.1zm0 0c-.728.954-2.447 2.244-1.163 3.45.26 1.113-.648 4.89-2.087 3.263-1.303-2.227-2.23 2.336-3.25.887-1.642-.155-3.26-.685-3.536-2.35-1.683.21-2.448-1.65-3.464-1.75-.245-1.342.67-2.58.662-3.888 1.448-.366 4.221.502 6.188.113 1.288-1.151 3.018-.949 4.55.175.809.575 1.457-.283 2.1.1zM44 46c.192 1.626-2.867-.605-4-.5-1.79.446-3.637.836-5.4.2-2.357.38-4.56-.576-6.7-1.2-3.23.991.105-2.864-1.137-4.3.157-1.018 1.866-3.064 2.587-1.488 1.34 1.604 2.456-2.22 2.112-3.262-1.081-1.206.373-2.378 1.1-3.3.507.937 3.186-.308 3.038 2 .964 1.415 3.188.998 4.6 2.05 1.693.112 3.936.985 4.838 2.063 1.276 2.532-2.997 3.179-2.138 5.237-.017.94.99 1.46 1.1 2.5zm0 0c.192 1.626-2.867-.605-4-.5-1.79.446-3.637.836-5.4.2-2.357.38-4.56-.576-6.7-1.2-3.23.991.105-2.864-1.137-4.3.157-1.018 1.866-3.064 2.587-1.488 1.34 1.604 2.456-2.22 2.112-3.262-1.081-1.206.373-2.378 1.1-3.3.507.937 3.186-.308 3.038 2 .964 1.415 3.188.998 4.6 2.05 1.693.112 3.936.985 4.838 2.063 1.276 2.532-2.997 3.179-2.138 5.237-.017.94.99 1.46 1.1 2.5zm18.7-4.6c-1.275.802-1.972 3.02-.9 3.5-1.594.657-1 4.062-3.638 3.6-1.056.122-1.733.665-2.362-.6-1.65.403-3.038-1.374-4.863-.9-1.61.809-3.229-.93-5.05-.6-1.913.673-2.142-1.28-3-2.45-1.03-1.658.777-2.329 1.613-3.463 1.005-1.245-.981-3.283 1.531-2.878 1.362-.579 2.947-.352 4.111.424-.19.876-1.134 1.595-.142 2.067-2.286.465-1.087 5.042 1.2 4.013.97-1.858 4.552.229 4.4-2.313 1.624-.154 2.217 3.077 3.813 1.519.964-.964 2.422-1.679 3.287-1.919zm0 0c-1.275.802-1.972 3.02-.9 3.5-1.594.657-1 4.062-3.638 3.6-1.056.122-1.733.665-2.362-.6-1.65.403-3.038-1.374-4.863-.9-1.61.809-3.229-.93-5.05-.6-1.913.673-2.142-1.28-3-2.45-1.03-1.658.777-2.329 1.613-3.463 1.005-1.245-.981-3.283 1.531-2.878 1.362-.579 2.947-.352 4.111.424-.19.876-1.134 1.595-.142 2.067-2.286.465-1.087 5.042 1.2 4.013.97-1.858 4.552.229 4.4-2.313 1.624-.154 2.217 3.077 3.813 1.519.964-.964 2.422-1.679 3.287-1.919z" stroke="#fff" stroke-width=".5" stroke-miterlimit="8"/></symbol><symbol id="doc" viewBox="0 0 14 18"><path d="M1.207-.002A1.173 1.173 0 0 0 0 1.12v15.75A1.173 1.173 0 0 0 1.215 18H12.78A1.174 1.174 0 0 0 14 16.873V5.623L7.91 0l-.004-.002h-6.7zm6.2 1.123l5.372 4.97v.097H7.3V1.123h.106V1.12zm-6.192.004H6.08V7.31h6.7v9.563H1.214V1.123z"/></symbol><symbol id="docs" viewBox="0 0 18 18"><path id="Documents" class="cls-1" d="M1516.87 1014.75h-3.93v-1.13h3.93v-9h-4.5v-4.5h-6.18a1.121 1.121 0 0 1 1.12-1.121h6.19l4.5 4.5v10.12a1.123 1.123 0 0 1-1.13 1.131zm-3.37-14.16v2.91h2.91zm-6.65 1.78l3.84 3.85v9.65h-9.57v-13.5h5.73m.46-1.12h-6.19a1.118 1.118 0 0 0-1.12 1.12v13.5a1.12 1.12 0 0 0 1.12 1.13h9.57a1.12 1.12 0 0 0 1.12-1.13v-10.12l-4.5-4.5zm3.94 5.62h-5.06v-5.06h1.12v3.94h3.94v1.12z" transform="translate(-1500 -999)"/></symbol><symbol id="dots" viewBox="0 0 16 4"><path d="M1.78 0A2.014 2.014 0 1 1 0 2a1.9 1.9 0 0 1 1.78-2zM8 0a2.014 2.014 0 1 1-1.78 2A1.9 1.9 0 0 1 8 0zm6.22 0a2.014 2.014 0 1 1-1.78 2 1.9 1.9 0 0 1 1.78-2z"/></symbol><symbol id="eastern-macedonia" viewBox="0 0 64 72"><path d="M13.1 40.5c-.652-1.346-2.178-2.858-3.765-3-1.542-.551-3.213-1.232-4.434-2.4-.895-1.152.846-3.036-1.401-3.3-2.54.067-3.21-3.486-.4-3.2 2.288.468 3.486-2.267 5.7-.912 2.247.062.82-3.97 3.413-2.288 1.101 1.14 1.826-2.234 2.987.1 1.168-.084 2.15-.022 3.1.2.24-2.954 2.604.064 2.8 1.5.544 1.562 2.432.91 3.2 2.3 1.527.697-1.094 1.88-1.4 2.9-2.345.383-2.555 2.533-3.5 4-1.414 1.182-2.692 2.55-3.788 3.837-.857.124-1.68.13-2.512.263zM35 33.2c-.317 1.973-2.926-.192-3.5 2.038-.849 1.142-.246 2.095-.988 3.15 1.112 1.318.544 1.364-.712 1.512-.333 2.424-3.428 1.963-4.6 3.8-.835-1.536-1.408-3.24-.712-4.9-1.174-1.172-2.158-3.587-3.775-4.75.83-1.464 3.117-1.596 3.75-3.45 1.314-1.967 4.087-2.36 5.958-.68 1.522.824 2.72 2.1 4.092 3.08l.487.2h-.113H35zm-9.8 10.6c-1.68.43-3.987.544-4.563-1.45-.327-1.03-1.62-.681-2.537-.45-.927.92-3.529.646-3.1 2.4.596 1.264-1.65 1.14-2.3 2.3-1.182 1.28-2.91 1.783-4.537 1.1-.377-1.087-3.412-.985-1.08-1.805 1.987-1.55 3.73-3.237 5.517-4.995 1.18-.86 3.595.301 3.7-2 2.011-1.313 3.302-3.17 4-5.1 1.817 1.074 2.485 3.604 3.788 4.7-.719 1.849-.171 3.778 1.112 5.3zm-.8 7c.27-1.765.425-4.628-2-4.8-1.637-.338-4.238 2.535-3.4 4.5 1.81-.951 2.493 2.402 4.097.488.425.122 1.013.273 1.303-.188zm25.9-20c-.858 2.27-.79 4.536-.9 6.9-.176 2.118-1.985 3.36-3.744 4.15-2.002.297-2.651 2.615-4.88 1.75-1.77-.32-3.55-1.178-5.076-2.1-1.193.376-2.805.515-3.825-.55.231-.757 1.617-1.422.225-2.25-1.666-1.37-.967-4.402 1.4-4.5 1.504.708 1.457-1.235 3-.9 1.69-1.555 3.97-.679 5.7-1.9 1.532-.044 2.796.721 4.1-.5 1.451.385 2.574 1.505 4-.1zM63 28.5c.016 1.582-.937 2.866-2.35 1.788-.704.992-1.208 2.671-2.832 2.612-2.524-.137 0 3.238-1.418 4.45-.652 1.275 2.346 1.667.5 2.95 1.017 1.026-1.21 1.749-1.637 2.65-1.637.668-2.03 2.934-3.263 3.95-1.475 1.126-1.625-1.513-1.4-1.9-.625-.789-2.992-.81-4.313-.7-1.965.478-4.56-.904-1.673-2.117 1.677-.406 3.421-1.348 4.373-2.846 1.274-1.94.007-4.28.913-6.237-.64-3.173 3.98-2.46 3.45-5.563 1.235-2.291-.281-4.36-1.625-5.95-.157-1.811 2.463-1.485 3.587-2.262 2.55.187 4.215 1.984 6.263 3.288.604 1.943.679 4.018 1.425 5.887z" clip-rule="evenodd" fill-rule="evenodd" stroke="#fff" stroke-width=".5" stroke-miterlimit="8"/></symbol><symbol id="epirus" viewBox="0 0 64 72"><path d="M52.3 27c.174 3.569-2.627 6.238-4.35 9.063-.671 1.183-.217 2.63-.35 3.937 1.264 2.915-4.65 1.544-3.963 4.763-.583 2.223-.966 3.11-3.237 3.137-1.746 1.52-4.104.983-6.127.531-.459 1.726-3.168 2.717-4.11 3.107-.067-2.07-.081-4.3-.772-6.349-1.413-2.592-4.447-4.039-4.666-7.214-.444-2.363-2.394-4.185-2.225-6.637.694-2.446-4.827-2.137-2.2-3.938.578-3.157-3.779-3.78-3.125-6.85 1.38-1.942 3.724-3.448 5.525-5.15 2.196.491 4.635.874 6.669-.705 1.385-2.23 1.12-5.316 2.014-7.825.4-1.955 2.95-2.693 2.617-4.97 1.966.7 1.001 5.086 3.7 4.7.668-1.984 3.634-2.88 3.4-.01-1.049 2.266 1.22 3.161 2.6 4.41-3.152 1.385-2.556 5.516.2 6.8 1.261 2.553.75 5.928 2.8 7.8 1.757.483 3.738.049 5.325.963L52.3 27zM30.7 51.7c-1.734.141-3.36-2.385-4.3.5.205 2.873-4.252.657-5.8.8-2.45-.355-5.434-.69-6.252-3.528.645-2.097-1.51-2.573-1.348-4.372 2.616-.59-1.007-2.384 1-3.5-1.25-.94-4.842-.35-3.4-2.9 3.18-2.87-2.04-3.12-3.3-5.1-1.508.365-2.688-.252-.7-.988 2.425-.576 4.99 3.577 7.06.915 2.798-.961 1.73-4.553 3.54-5.727 1.609 1.168 4.846.58 5.4 3.545-.268 2.308 1.57 3.997 2.04 6.168.333 3.26 2.88 5.045 4.76 7.487.587 2.035 1.017 4.176.7 6.3l.337.163.263.237zm0 .1c.701-1.473 3.562-1.029 3.6-3.3 2.142.141 4.559 1.11 6.4-.6 3.991-1.576.813 3.312-.866 4.266-1.567 1.14-1.946 3.106-2.723 4.73-.915 2.535-4.658 3.134-4.486 5.967-.707 1.164-2.628 1.188-2.013 2.987 1.381.64 3.046 2.003 1.188 3.45-1.554.4-1.447-.453-1.8-1.6-1.5-1.41.132-4.615-2.7-5.5-2.822-1.434-3.433-4.968-5.938-6.7.095-1.441-.7-3.12 1.538-2.3 1.89.32 4.077.938 3.9-1.7 1.4-2.568 2.348.711 3.9.3zm12.1-4c.876-2.316.847-5.789 4-5.7 2.109-3.207 2.113 1.914 3.538 3.25.143 3.175 3.084 3.952 5.662 4.05 1.056 1.49 1.657 3.836 1.75 5.5-2.504.635-2.564 2.767-1.35 4.6-1.544-.18-2.963.224-4.3 1-1.754.713-3.37 1.938-5.017.5-2.808-.595-2.133 4.416-4.428 3.1-.887 1.365-1.917 2.572-3.255.7-1.197.287-4.305-3.683-3.9-.355-1.76 1.429-.81-2.903-2.172-3.345 1.078-1.478 4.269-3.656 4.572-6.4.99-2.737 4.419-3.87 4.9-6.9z" clip-rule="evenodd" fill-rule="evenodd" stroke="#fff" stroke-width=".5" stroke-miterlimit="8"/></symbol><symbol id="euro" viewBox="0 0 512 512"><style>.st0{fill:#484848}</style><path class="st0" d="M319.3 341.3c-14.6 8.5-31.3 13-48.3 13-53.2 0-96.5-43.3-96.5-96.5s43.3-96.5 96.5-96.5c17 0 33.7 4.5 48.3 13 7.7 4.4 17.4 1.8 21.9-5.8 4.4-7.6 1.8-17.4-5.8-21.9-19.5-11.3-41.8-17.3-64.4-17.3-70.8 0-128.5 57.6-128.5 128.5S200.2 386.3 271 386.3c22.6 0 44.9-6 64.4-17.4 7.6-4.4 10.2-14.2 5.8-21.9-4.4-7.6-14.2-10.2-21.9-5.7z"/><path class="st0" d="M256 208H128c-8.8 0-16 7.2-16 16s7.2 16 16 16h128c8.8 0 16-7.2 16-16s-7.2-16-16-16zM256 272H128c-8.8 0-16 7.2-16 16s7.2 16 16 16h128c8.8 0 16-7.2 16-16s-7.2-16-16-16z"/><path class="st0" d="M256 0C114.8 0 0 114.8 0 256s114.8 256 256 256 256-114.8 256-256S397.2 0 256 0zm0 480C132.5 480 32 379.5 32 256S132.5 32 256 32s224 100.5 224 224-100.5 224-224 224z"/></symbol><symbol id="facebook" viewBox="0 0 16 16"><path d="M4.217 8.522H5.97v7.22c0 .142.115.258.258.258h2.974a.258.258 0 0 0 .258-.258V8.556h2.016a.258.258 0 0 0 .256-.229l.306-2.658a.258.258 0 0 0-.256-.288H9.461V3.715c0-.502.27-.757.804-.757h1.518a.258.258 0 0 0 .258-.258V.26a.258.258 0 0 0-.258-.258H9.69C9.676.002 9.643 0 9.595 0c-.363 0-1.626.071-2.623.988-1.104 1.017-.95 2.234-.914 2.445V5.38H4.217a.258.258 0 0 0-.258.258v2.624c0 .143.115.259.258.259z"/></symbol><symbol id="flash" viewBox="0 0 330.001 330.001"><path d="M45 210h90.789l-25.342 101.362a15.001 15.001 0 0 0 25.764 13.604l160-180A14.998 14.998 0 0 0 285 120h-90.788l25.34-101.362a15.001 15.001 0 0 0-25.763-13.604l-160 180A15 15 0 0 0 45 210z"/></symbol><symbol id="google-plus" viewBox="0 0 604.35 604.35"><path d="M516.375 255v-76.5h-51V255h-76.5v51h76.5v76.5h51V306h76.5v-51h-76.5zm-196.35 86.7l-28.051-20.4c-10.2-7.649-20.399-17.85-20.399-35.7s12.75-33.15 25.5-40.8c33.15-25.5 66.3-53.55 66.3-109.65 0-53.55-33.15-84.15-51-99.45h43.35l30.6-35.7h-158.1c-112.2 0-168.3 71.4-168.3 147.9 0 58.65 45.9 122.4 127.5 122.4h20.4c-2.55 7.65-10.2 20.4-10.2 33.15 0 25.5 10.2 35.7 22.95 51-35.7 2.55-102 10.2-150.45 40.8-45.9 28.05-58.65 66.3-58.65 94.35 0 58.65 53.55 114.75 168.3 114.75 137.7 0 204.001-76.5 204.001-150.449-.001-53.551-28.051-81.601-63.751-112.201zm-193.8-232.05c0-56.1 33.15-81.6 68.85-81.6 66.3 0 102 89.25 102 140.25 0 66.3-53.55 79.05-73.95 79.05-63.75 0-96.9-79.05-96.9-137.7zm91.799 459c-84.15 0-137.7-38.25-137.7-94.351 0-56.1 51-73.95 66.3-81.6 33.15-10.2 76.5-12.75 84.15-12.75h17.85c61.2 43.35 86.7 61.2 86.7 102 0 48.451-48.449 86.701-117.3 86.701z"/></symbol><symbol id="help" viewBox="0 0 12 12"><path d="M6 .75A5.255 5.255 0 1 1 .75 6 5.253 5.253 0 0 1 6 .75M6 0a6 6 0 1 0 6 6 6 6 0 0 0-6-6zm-.542 7.5a2.74 2.74 0 0 1 .114-.92 2.493 2.493 0 0 1 .578-.68 9.79 9.79 0 0 0 .646-.82 1.232 1.232 0 0 0 .19-.7 1 1 0 0 0-.257-.74.97.97 0 0 0-.74-.26 1.125 1.125 0 0 0-.71.22 1.28 1.28 0 0 0-.295.87h-.86l-.015-.03a1.854 1.854 0 0 1 .52-1.38 2.082 2.082 0 0 1 1.36-.44 1.968 1.968 0 0 1 1.4.46 1.636 1.636 0 0 1 .5 1.28 1.893 1.893 0 0 1-.324 1.08 5.847 5.847 0 0 1-.853 1 1.105 1.105 0 0 0-.3.45 2.6 2.6 0 0 0-.052.61h-.9zm.935 1.88h-.945v-.95h.945v.95z"/></symbol><symbol id="home" viewBox="0 0 279.131 279.131"><path d="M276.346 109.821l-93.71-70.666a7 7 0 0 0-8.43 0l-15.405 11.617-15.405-11.617a7 7 0 0 0-8.43 0l-15.021 11.327-15.021-11.327a7 7 0 0 0-8.43 0l-93.71 70.666A7.003 7.003 0 0 0 0 115.41v118.977a7 7 0 0 0 7 7h265.131a7 7 0 0 0 7-7V115.41a7.001 7.001 0 0 0-2.785-5.589zm-11.215 117.566h-25.238V115.41a7 7 0 0 0-2.785-5.589l-66.68-50.282 7.993-6.028 86.71 65.388v108.488zm-63.71 0V115.41a7 7 0 0 0-2.785-5.589L131.572 59.25l7.61-5.738 86.711 65.388v108.488h-24.472zm-89.247-.001H89.246v-50.76h22.928v50.76zm14 0v-57.76a7 7 0 0 0-7-7H82.246a7 7 0 0 0-7 7v57.76H14V118.898l86.71-65.388 86.711 65.388v108.488h-61.247z" fill="#8891a6"/></symbol><symbol id="hotel_beds" viewBox="0 0 503.322 503.322"><path d="M477.288 209.377v-46.232c0-23.43-18.224-41.654-40.786-41.654H328.027c-23.43 0-41.654 18.224-41.654 41.654v46.232c-14.928 3.879-26.034 17.508-26.034 33.606v121.492c0 9.546 7.81 17.356 17.356 17.356h17.356c9.546 0 17.356-7.81 17.356-17.356v-17.356h138.847v17.356c0 9.546 7.81 17.356 17.356 17.356h17.356c9.546 0 17.356-7.81 17.356-17.356V242.983c0-16.098-11.106-29.727-26.034-33.606zm-173.559-46.231c0-13.885 10.414-24.298 24.298-24.298h107.607c13.885 0 24.298 10.414 24.298 24.298v45.125h-9.291c-4.144-29.649-29.24-52.068-60.133-52.068h-17.356c-30.893 0-55.989 22.419-60.133 52.068h-9.291v-45.125zm129.302 45.125h-102.4c4.339-19.959 21.695-34.712 42.522-34.712h17.356c20.827 0 38.183 14.753 42.522 34.712zm-155.336 34.712c0-9.546 7.81-17.356 17.356-17.356h173.56c9.546 0 17.356 7.81 17.356 17.356v34.712H277.695v-34.712zm208.271 121.492H468.61v-26.034c0-5.207-3.471-8.678-8.678-8.678H303.729c-4.339 0-8.678 3.471-8.678 8.678v26.034h-17.356v-69.424h208.271v69.424zM216.949 209.377v-46.232c0-23.43-18.224-41.654-40.786-41.654H67.688c-23.43 0-41.654 18.224-41.654 41.654v46.232C11.106 213.256 0 226.885 0 242.983v121.492c0 9.546 7.81 17.356 17.356 17.356h17.356c9.546 0 17.356-7.81 17.356-17.356v-17.356h138.847v17.356c0 9.546 7.81 17.356 17.356 17.356h17.356c9.546 0 17.356-7.81 17.356-17.356V242.983c0-16.098-11.106-29.727-26.034-33.606zM43.39 163.146c0-13.885 10.414-24.298 24.298-24.298h107.607c13.885 0 24.298 10.414 24.298 24.298v45.125h-9.291c-4.144-29.649-29.24-52.068-60.133-52.068h-17.356c-30.893 0-55.989 22.419-60.133 52.068h-9.29v-45.125zm129.302 45.125h-102.4c4.339-19.959 21.695-34.712 42.522-34.712h17.356c20.827 0 38.183 14.753 42.522 34.712zM17.356 242.983c0-9.546 7.81-17.356 17.356-17.356h173.56c9.546 0 17.356 7.81 17.356 17.356v34.712H17.356v-34.712zm208.271 121.492h-17.356v-26.034c0-5.207-3.471-8.678-8.678-8.678H43.39c-4.339 0-8.678 3.471-8.678 8.678v26.034H17.356v-69.424h208.271v69.424z"/></symbol><symbol id="hotel_rooms" viewBox="0 0 511.999 511.999"><g fill="#1d1d1b"><path d="M207.853 271.997h-15.707v24.148h-24.293v-64.292h24.293v8.142h15.707v-23.849h-55.707v95.706h55.707z"/><path d="M176 248.146h56v15.707h-56zM103.854 56.146H24.147v127.707h79.707V56.146zm-15.707 112H39.853V71.853h48.293v96.293z"/><path d="M47.999 144.146h32v15.707h-32zM56.147 87.999h15.707v40H56.147zM32 192.146h16v15.707H32zM56 192.146h16v15.707H56zM80 192.146h16v15.707H80z"/><path d="M511.999 471.927V456.22H391.852V.147H120.146v456.074H0v15.707h120.146v24.218H0v15.707h511.999v-15.707H391.852v-24.219h120.147zm-135.854 24.217H135.853V15.853h240.293l-.001 480.291z"/></g></symbol><symbol id="improvement" viewBox="0 0 512 512"><g fill="#8891a6"><path d="M456.532 60.458V25.6c0-14.114-11.486-25.6-25.6-25.6h-358.4c-14.114 0-25.6 11.486-25.6 25.6H29.698c-9.318 0-16.896 7.586-16.896 16.896v51.541c0 9.31 7.578 16.896 16.896 16.896h17.234c0 14.114 11.486 25.6 25.6 25.6v51.2c0 18.825 15.309 34.133 34.133 34.133a33.88 33.88 0 0 0 17.067-4.582V230.4c0 18.825 15.309 34.133 34.133 34.133 18.825 0 34.133-15.309 34.133-34.133v-37.018a29.79 29.79 0 0 0 12.8 2.884c16.469 0 29.867-13.397 29.867-29.867v-29.867h196.267c14.114 0 25.6-11.486 25.6-25.6V77.88c14.707 3.798 25.6 17.175 25.6 33.054v34.133c0 16.384-11.708 31.13-27.17 34.296-6.647 1.186-115.413 10.778-186.163 16.904-18.825 0-34.133 15.266-34.133 34.031V281.6h-51.203a8.512 8.512 0 0 0-6.596 3.123 8.522 8.522 0 0 0-1.766 7.083l7.023 35.132c1.664 8.337 9.054 14.396 17.57 14.396.461 0 .836.375.836.845v125.688c0 22.579 16.922 41.873 38.511 43.938 1.357.128 2.714.196 4.07.196 10.607 0 20.924-3.934 28.791-11.093a42.77 42.77 0 0 0 13.961-31.573v-42.616l.003-.051-.003-.051v-51.098l.003-.051-.003-.051v-33.238c0-.469.375-.845.845-.845 8.516 0 15.898-6.059 17.57-14.396l7.023-35.132a8.584 8.584 0 0 0-1.766-7.083 8.544 8.544 0 0 0-6.605-3.123h-51.197v-51.302c0-9.506 7.501-16.964 17.801-16.998 30.191-2.603 181.163-15.65 188.783-17.203 23.689-4.838 40.883-26.308 40.883-51.029v-34.133c-.002-25.33-18.483-46.403-42.668-50.477zM29.868 94.037l-.171-51.371h17.234v51.251l-17.063.12zm409.597 16.896c0 4.702-3.823 8.533-8.533 8.533h-204.8a8.53 8.53 0 0 0-8.533 8.533v38.4c0 7.057-5.743 12.8-12.8 12.8s-12.8-5.743-12.8-12.8c0-4.71-3.814-8.533-8.533-8.533s-8.533 3.823-8.533 8.533v64c0 9.412-7.654 17.067-17.067 17.067-9.412 0-17.067-7.654-17.067-17.067v-42.667a8.53 8.53 0 0 0-8.533-8.533 8.53 8.53 0 0 0-8.533 8.533c0 9.412-7.654 17.067-17.067 17.067-9.412 0-17.067-7.654-17.067-17.067V128a8.53 8.53 0 0 0-8.533-8.533h-8.533c-4.71 0-8.533-3.831-8.533-8.533v-8.466c0-.023.003-.045.003-.068V34.133c0-.023-.003-.045-.003-.068V25.6c0-4.702 3.823-8.533 8.533-8.533h358.4c4.71 0 8.533 3.831 8.533 8.533v85.333zm-170.669 307.2h-51.2V384h51.2v34.133zm-8.38 70.144c-5.41 4.915-12.425 7.27-19.763 6.537-12.919-1.237-23.057-13.073-23.057-26.948V435.2h51.2v34.133a25.656 25.656 0 0 1-8.38 18.944zm27.127-164.684a.857.857 0 0 1-.836.674c-9.873 0-17.911 8.038-17.911 17.911v24.755h-51.2v-24.755c0-9.873-8.03-17.911-17.903-17.911a.857.857 0 0 1-.836-.683l-4.983-24.917h98.654l-4.985 24.926z"/><path d="M132.265 76.8a8.53 8.53 0 0 0-8.533 8.533v59.733a8.53 8.53 0 0 0 8.533 8.533 8.53 8.53 0 0 0 8.533-8.533V85.333a8.53 8.53 0 0 0-8.533-8.533zM183.465 42.667a8.53 8.53 0 0 0-8.533 8.533v59.733c0 4.71 3.814 8.533 8.533 8.533s8.533-3.823 8.533-8.533V51.2a8.53 8.53 0 0 0-8.533-8.533z"/></g></symbol><symbol id="instagram" viewBox="0 0 97.395 97.395"><path d="M12.501 0h72.393c6.875 0 12.5 5.09 12.5 12.5v72.395c0 7.41-5.625 12.5-12.5 12.5H12.501C5.624 97.395 0 92.305 0 84.895V12.5C0 5.09 5.624 0 12.501 0zm58.447 10.821a4.395 4.395 0 0 0-4.383 4.385v10.495a4.396 4.396 0 0 0 4.383 4.385h11.008a4.398 4.398 0 0 0 4.385-4.385V15.206a4.397 4.397 0 0 0-4.385-4.385H70.948zm15.439 30.367h-8.572a28.486 28.486 0 0 1 1.25 8.355c0 16.2-13.556 29.332-30.275 29.332-16.718 0-30.272-13.132-30.272-29.332 0-2.904.438-5.708 1.25-8.355h-8.945v41.141a3.884 3.884 0 0 0 3.872 3.872h67.822a3.883 3.883 0 0 0 3.872-3.872V41.188h-.002zM48.789 29.533c-10.802 0-19.56 8.485-19.56 18.953s8.758 18.953 19.56 18.953c10.803 0 19.562-8.485 19.562-18.953s-8.758-18.953-19.562-18.953z"/></symbol><symbol id="ionian-islands" viewBox="0 0 64 72"><path d="M24.8 26c-2.135.522-4.704-.687-6.825-.35-1.295-.505-3.432-1.028-3.288-3.1C13.4 20.424 9.761 21.065 9.2 18.5c-1.404.643-1.956-.193-1.9-1.2-2.465-.822-1.506-3.53.9-3.5 1.944-.717 4.307-3.505 6.2-.8.311 2.031-3.731 2.837-1.3 4.7-.463 2.16 2.83-.82 2.5 1.9-.104 2.125 1.737 5.951 4.1 4.7 1.239.295 2.054.802 3.1-.4.5.829 1.955 1.862 2.2 1.938l-.2.162zm0 0c-2.135.522-4.704-.687-6.825-.35-1.295-.505-3.432-1.028-3.288-3.1C13.4 20.424 9.761 21.065 9.2 18.5c-1.404.643-1.956-.193-1.9-1.2-2.465-.822-1.506-3.53.9-3.5 1.944-.717 4.307-3.505 6.2-.8.311 2.031-3.731 2.837-1.3 4.7-.463 2.16 2.83-.82 2.5 1.9-.104 2.125 1.737 5.951 4.1 4.7 1.239.295 2.054.802 3.1-.4.5.829 1.955 1.862 2.2 1.938l-.2.162zm5.1 6.7c-.81 2.405-4.394-2.158-1.65-1.337.315 1.01 2.496-.29 1.65 1.337zm0 0c-.81 2.405-4.394-2.158-1.65-1.337.315 1.01 2.496-.29 1.65 1.337zm8.2-7.2c-1.213 1.443-1.306-.83-.3-1.8-1.018-1.23-1.733-6.222-3.6-2.95-1.145 1.903-.294 4.006-.9 5.95.415 1.24.257 4.281 1.4 4.2.205-1.138.219-3.393 1.125-1.3 1.615.914 3.675-2.573 2.275-4.1zm0 0c-1.213 1.443-1.306-.83-.3-1.8-1.018-1.23-1.733-6.222-3.6-2.95-1.145 1.903-.294 4.006-.9 5.95.415 1.24.257 4.281 1.4 4.2.205-1.138.219-3.393 1.125-1.3 1.615.914 3.675-2.573 2.275-4.1zm2.2.9c-1.289 1.26-1.495-1.349-.013-.875 1.314-.872.762.836.013.875zm0 0c-1.289 1.26-1.495-1.349-.013-.875 1.314-.872.762.836.013.875zm1.8 1.7c-1.26.454-3.803-1.424-1.263-.8.299.526 1.282-.018 1.263.8zm0 0c-1.26.454-3.803-1.424-1.263-.8.299.526 1.282-.018 1.263.8zm3.3-2.7c-1.27.23-1.103 3.354-1.8 1.3-.14-1.069 2.552-3.592 2-1.762-.158.084-.385.27-.2.462zm0 0c-1.27.23-1.103 3.354-1.8 1.3-.14-1.069 2.552-3.592 2-1.762-.158.084-.385.27-.2.462zm.6.9c-.063.892-.367 3.758-.8 1.512.546-.355-.108-2.038.8-1.512zm0 0c-.063.892-.367 3.758-.8 1.512.546-.355-.108-2.038.8-1.512zm-5.9 3.9c-.993 1.476-.774-1.965-.038-.15l.038.15zm0 0c-.993 1.476-.774-1.965-.038-.15l.038.15zm3.7 2c-.315-1.883-1.626 1.91 0 0zm0 0c-.315-1.883-1.626 1.91 0 0zm-1.9 9.4c-1.428 2.485-2.67-1.097-2.883-2.522-.695-1.213-2.124-4.08-3.5-3.566-.03 2.197 3.12 5.465-.317 6.488-1.13-1.559-3.348-.777-2.3 1.2-.73 1.922-.515 6.279 2.438 5.025 1.8-1.196-2.62-5.457-.152-4.531 2.708 1.05 1.386 4.853 4.164 5.531 1.74-.339 2.774-3.374 4.838-1.503 2.082 2.04 6.22-1.154 3.512-3.222-2.159-.57-3.904-2.066-5.3-3.6-.045.261-.142.715-.5.7zm0 0c-1.428 2.485-2.67-1.097-2.883-2.522-.695-1.213-2.124-4.08-3.5-3.566-.03 2.197 3.12 5.465-.317 6.488-1.13-1.559-3.348-.777-2.3 1.2-.73 1.922-.515 6.279 2.438 5.025 1.8-1.196-2.62-5.457-.152-4.531 2.708 1.05 1.386 4.853 4.164 5.531 1.74-.339 2.774-3.374 4.838-1.503 2.082 2.04 6.22-1.154 3.512-3.222-2.159-.57-3.904-2.066-5.3-3.6-.045.261-.142.715-.5.7zm1.3-1.9c-2.348-.172-3.498-2.72-5-4.3-.935-.787.378-1.577.3-2.4.221 1.904 2.922 1.137 2.3 3.5-.745 2.208 1.348.202 1.587.05.025 1.139 1.595 1.95.813 3.15zm0 0c-2.348-.172-3.498-2.72-5-4.3-.935-.787.378-1.577.3-2.4.221 1.904 2.922 1.137 2.3 3.5-.745 2.208 1.348.202 1.587.05.025 1.139 1.595 1.95.813 3.15zm13.7 20.4c-2.654-.82-2.218 3.01-1.587 4.05-1.439 1.313-3.182-2.955-4.913-1.45-.967-2.376-4.87-2.478-4.222-5.456.402-1.201.777-4.073 2.222-1.744 1.495 2.267 4.45.789 6.486 1.325 1.027 1.558 2.715 1.717 4.137 2.669-.25 1.21-1.741.293-2.123.606zm0 0c-2.654-.82-2.218 3.01-1.587 4.05-1.439 1.313-3.182-2.955-4.913-1.45-.967-2.376-4.87-2.478-4.222-5.456.402-1.201.777-4.073 2.222-1.744 1.495 2.267 4.45.789 6.486 1.325 1.027 1.558 2.715 1.717 4.137 2.669-.25 1.21-1.741.293-2.123.606z" stroke="#fff" stroke-width=".5" stroke-miterlimit="8"/></symbol><symbol id="location-props-bath" viewBox="0 0 32 32"><path d="M23.85 26.5c-.2 0-.4-.2-.4-.4v-1.3H8.25v1.3c0 .2-.2.4-.4.4s-.4-.2-.4-.4v-1.3c-3.5-.3-6.2-2.9-6.2-6.1v-5.3h-.9c-.2 0-.4-.2-.4-.4v-1.5c0-.2.2-.4.4-.4h.9V8.2c0-.1 0-1.2.7-2 .4-.5 1-.7 1.7-.7s1.3.2 1.8.7c.7.8.7 1.9.7 1.9 0 .2-.2.4-.4.4s-.4-.2-.4-.4c0 0 0-.8-.5-1.3-.3-.3-.7-.4-1.2-.4s-.9.1-1.1.4c-.5.5-.4 1.3-.4 1.3V9c.2-.1.4-.2.7-.2.8 0 1.5.7 1.5 1.5 0 .2 0 .4-.1.6h27.4c.2 0 .4.2.4.4v1.5c0 .2-.2.4-.4.4h-.9v5.3c0 3.2-2.7 5.8-6.2 6.1v1.3c-.2.4-.4.6-.7.6zm-15.6-2.6h15.2v-1.3c0-.2.2-.4.4-.4s.4.2.4.4v1.3c3-.3 5.4-2.5 5.4-5.2v-5.3H2.05v5.3c0 2.7 2.4 5 5.4 5.2v-1.3c0-.2.2-.4.4-.4s.4.2.4.4zM.75 12.5h30.3v-.6H.75zm1.9-2.7c-.3 0-.6.3-.6.6s.3.6.6.6.6-.3.6-.6c.1-.3-.2-.6-.6-.6z" fill="#8891a6"/></symbol><symbol id="location-props-bed" viewBox="0 0 32 32"><path d="M31.5 26.05h-2.4c-.2 0-.4-.2-.4-.4v-3.1H3.4v3.1c0 .2-.2.4-.4.4H.4c-.2 0-.4-.2-.4-.4V6.35c0-.2.2-.4.4-.4H3c.2 0 .4.2.4.4v5.7c.3-.2.7-.3 1.1-.3h5.2c1.1 0 1.9.9 1.9 1.9v.6c0 .4-.1.8-.3 1.1h17.5v-3.8c0-.2.2-.4.4-.4h2.4c.2 0 .4.2.4.4v14.1c-.1.2-.2.4-.5.4zm-1.9-.9h1.6v-13.2h-1.6zm-28.8 0h1.8V6.75H.8zm2.6-3.4h25.4v-1.5H3.4zm0-2.4h25.4v-3.3H3.4zm1-4h5.2c.6 0 1.1-.5 1.1-1.1v-.6c0-.6-.5-1.1-1.1-1.1H4.4c-.6 0-1.1.5-1.1 1.1v.6c.1.6.5 1.1 1.1 1.1z" fill="#8891a6"/></symbol><symbol id="location-props-plan" viewBox="0 0 32 32"><path d="M31.55 30.1H.45c-.3 0-.5-.2-.5-.5V2.4c0-.3.2-.5.5-.5h27.9c.3 0 .5.2.5.5V16h2.7c.3 0 .5.2.5.5v13.2c0 .2-.2.4-.5.4zm-23.2-.9h22.7V16.9h-9.5c-.3 0-.5-.2-.5-.5v-.9h-1.1c-.3 0-.5-.2-.5-.5s.2-.5.5-.5h1.1v-3c0-.3.2-.5.5-.5s.5.2.5.5v4.3h2.7v-13h-2.7v3.4c0 .3-.2.5-.5.5s-.5-.2-.5-.5V4.8h-7.1c-.3 0-.5-.2-.5-.5V2.8h-1.7v2.1c0 .3-.2.5-.5.5s-.5-.2-.5-.5V2.8h-.5V4c0 .3-.2.5-.5.5h-.1c.1.2.1.4.1.6v1.2c0 .8-.7 1.5-1.5 1.5s-1.5-.7-1.5-1.5V5.1c0-.2 0-.4.1-.6h-.1c-.3 0-.5-.2-.5-.5V2.8h-1.7v6.1c0 .3-.2.5-.5.5h-.6V12h7.2V9.9c0-.3.2-.5.5-.5s.5.2.5.5v4.8h1.3c.3 0 .5.2.5.5s-.2.5-.5.5h-1.1V18c0 .3-.2.5-.5.5s-.5-.2-.5-.5v-4.9h-6.6v13h3.7c.3 0 .5.2.5.5v2.6zm-7.4 0h6.5V27h-3.6c-.3 0-.5-.2-.5-.5v-8H.95zm0-11.6h2.4v-4.7H.95zm26.3-1.6h.7V2.8h-.7zm-1.6 0h.7V2.8h-.7zM.95 11.8h1.7V9.4H.95zm2.2-3.3h.6V2.9H.95v5.6zm5.2-4c-.3 0-.6.3-.6.6v1.2c0 .3.3.6.6.6s.6-.3.6-.6V5.1c0-.4-.3-.6-.6-.6zm6-.6h6.8v-1h-6.8zm-6-.3h1.1v-.7h-2.2v.7zm10.1 24.2h-3.7c-.3 0-.5-.2-.5-.5v-8.4c0-.3.2-.5.5-.5h3.7c.3 0 .5.2.5.5v8.4c-.1.3-.3.5-.5.5zm-3.3-.9h2.8v-.5h-1.6c-.3 0-.5-.2-.5-.5v-5.7c0-.3.2-.5.5-.5h1.6v-.5h-2.8zm1.6-1.4h1.2v-4.7h-1.2zm11.6 2c-.3 0-.5-.2-.5-.5v-7.9c0-.3.2-.5.5-.5s.5.2.5.5v1.4c.2 0 .4.2.4.5v4.1c0 .2-.2.4-.4.5v1.5c0 .2-.2.4-.5.4zm-4.4-.5c-1.5 0-2.6-1.6-2.6-3.6s1.1-3.6 2.6-3.6 2.6 1.6 2.6 3.6-1.1 3.6-2.6 3.6zm0-6.3c-.9 0-1.7 1.2-1.7 2.7 0 1.5.8 2.7 1.7 2.7.9 0 1.7-1.2 1.7-2.7 0-1.5-.8-2.7-1.7-2.7z" fill="#8891a6"/></symbol><symbol id="location-props-total" viewBox="0 0 32 32"><path d="M30.325 31.65c-.1 0-.3-.1-.4-.2-.2-.2-.2-.5 0-.7l.2-.2h-24l.2.2c.2.2.2.5 0 .7-.2.2-.5.2-.7 0l-1.1-1.1c-.1-.1-.2-.2-.2-.4s.1-.3.2-.4l1.1-1.1c.2-.2.5-.2.7 0 .2.2.2.5 0 .7l-.2.2h24.1l-.2-.2c-.2-.2-.2-.5 0-.7.2-.2.5-.2.7 0l1.1 1.1c.1.1.2.2.2.4s-.1.3-.2.4l-1.1 1.1c-.1.2-.3.2-.4.2zm-28.7-3.7c-.2 0-.3-.1-.4-.2l-1.1-1.1c-.2-.2-.2-.5 0-.7.2-.2.5-.2.7 0l.2.2v-24l-.2.2c-.2.2-.5.2-.7 0-.2-.2-.2-.5 0-.7l1.1-1.1c.1-.1.2-.2.4-.2s.3.1.4.2l1.1 1.1c.2.2.2.5 0 .7-.2.2-.5.2-.7 0l-.2-.2v24.1l.2-.2c.2-.2.5-.2.7 0 .2.2.2.5 0 .7l-1.1 1.1c-.1.1-.2.2-.4.1zm29.8-1.4h-25.4c-.3 0-.5-.2-.5-.5V.85c0-.3.2-.5.5-.5h15.2c.3 0 .5.2.5.5v10.2h9.7c.3 0 .5.2.5.5v14.4c.1.3-.2.6-.5.6zm-9.7-1.1h9.2v-13.3h-9.2v13.3zm-10.1 0h9v-7.1h-9zm-5.1 0h4v-7.1h-4zm4.6-8.1h9.6V5.95h-14.2v11.4zm3-12.4h6.6v-3.5h-6.6zm-7.6 0h6.5v-3.5h-6.5z" fill="#8891a6"/></symbol><symbol id="location" viewBox="0 0 10 13"><path d="M5.045.81a3.924 3.924 0 0 1 4.12 4.15c0 1.82-1.33 4.23-3.952 7.17a.055.055 0 0 1-.11 0l-.22-.24C3.173 9.97.833 7.35.833 4.96A4.238 4.238 0 0 1 5.045.81m0-.81A5.073 5.073 0 0 0 0 4.96c0 2.81 2.683 5.69 4.488 7.72a1.014 1.014 0 0 0 .658.32h.03a1.017 1.017 0 0 0 .658-.32C7.527 10.78 10 7.65 10 4.96A4.738 4.738 0 0 0 5.048 0zm-.052 3.26a1.63 1.63 0 1 1 .02 3.26 1.675 1.675 0 0 1-1.687-1.64 1.648 1.648 0 0 1 1.667-1.62m.02-.8a2.44 2.44 0 1 0 2.5 2.44 2.47 2.47 0 0 0-2.5-2.44z"/></symbol><symbol id="mail" viewBox="0 0 18 18"><path id="Open_envelope" data-name="Open envelope" class="cls-1" d="M1501.16 974.593l7.35-6.77a.7.7 0 0 1 .44-.156.739.739 0 0 1 .43.14l7.27 6.541a9.064 9.064 0 0 0 .77-.819l-7.32-6.587a1.857 1.857 0 0 0-2.32.024l-7.4 6.812a3.6 3.6 0 0 0 .46.532c.1.101.21.19.32.283zm16.62-9.813l-.02-.016a1.057 1.057 0 0 0-.2-.2l-7.33-7.092a1.732 1.732 0 0 0-2.39 0l-7.33 7.036a1.513 1.513 0 0 0-.51.937v8.43a1.129 1.129 0 0 0 1.12 1.124h15.75a1.131 1.131 0 0 0 1.13-1.124v-8.43a1.168 1.168 0 0 0-.22-.665zm-.91 9.094h-15.75v-8.43l.68-.664h.02l6.82-6.514a.531.531 0 0 1 .39-.164.554.554 0 0 1 .4.164l6.35 6.054h-.01l1.1 1.124v8.43zm-11.28-3.551a.549.549 0 0 1-.37-.141l-4.92-4.335a.565.565 0 1 1 .75-.844l4.91 4.335a.563.563 0 0 1-.37.985zm6.92.035a.562.562 0 0 1-.37-.984l4.92-4.37a.57.57 0 0 1 .8.048.561.561 0 0 1-.05.794l-4.92 4.37a.57.57 0 0 1-.38.142z" transform="translate(-1500 -957)"/></symbol><symbol id="map-bar" viewBox="0 0 25.63 26"><path d="M25.09 0H.54a.54.54 0 0 0-.41.89l10.34 11.86v9.73H7.26a1.76 1.76 0 0 0 0 3.52h11.11a1.76 1.76 0 1 0 0-3.52h-3.21v-9.73L25.5.89a.54.54 0 0 0-.41-.89z"/></symbol><symbol id="map-cafe" viewBox="0 0 26 18.61"><path d="M22.45 0H2.54v11a3 3 0 0 0 3 3h12.23a3 3 0 0 0 3-3V9.76h1.69A3.55 3.55 0 0 0 26 6.21V3.55A3.55 3.55 0 0 0 22.45 0zm.64 6.2a.64.64 0 0 1-.64.64h-1.69V2.91h1.69a.64.64 0 0 1 .64.64zM23.44 15.34H.58a.58.58 0 0 0-.58.58 2.69 2.69 0 0 0 2.69 2.69h18.64A2.69 2.69 0 0 0 24 15.92a.58.58 0 0 0-.56-.58z"/></symbol><symbol id="map-conf" viewBox="0 0 26 24.82"><path class="cls-1" d="M17.44 16a10 10 0 0 1-3.2.52 9.86 9.86 0 0 1-4.75-1.2 6.22 6.22 0 0 1-5.66 1.36l1.51 8.17h15.38l1.41-7.59a5.79 5.79 0 0 1-1 .09A5.73 5.73 0 0 1 17.44 16zM10 23.32h-.07a.47.47 0 0 1-.47-.41l-.59-4.09a.47.47 0 1 1 .94-.14l.59 4.09a.47.47 0 0 1-.4.55zm3.89-.45a.47.47 0 1 1-.95 0v-4.14a.47.47 0 1 1 .95 0zm3.48 0a.47.47 0 0 1-.47.41h-.07a.47.47 0 0 1-.4-.54l.57-4.05a.47.47 0 0 1 .94.14z"/><path d="M3.11 15.4l.26.11.26.09a5.32 5.32 0 0 0 5.71-1.5 8.9 8.9 0 0 0 4.89 1.44 9 9 0 0 0 3.42-.67 4.8 4.8 0 0 0 4.66 1.35l.25-.06.26-.09a4.84 4.84 0 0 0-.2-9.16A8.22 8.22 0 0 0 14.24 0a8.41 8.41 0 0 0-8 5.28A5.34 5.34 0 0 0 3.11 15.4z"/></symbol><symbol id="map-dry_cleaning" viewBox="0 0 26 18.97"><path d="M24.41 12.7l-9.61-6a3.39 3.39 0 0 0-.8-.38v-.64a2 2 0 0 0-1.12-1.58c-.6-.41-.88-.65-.88-1.1a1 1 0 0 1 2 0 1 1 0 1 0 2 0 3 3 0 0 0-6 0 3.24 3.24 0 0 0 1.71 2.77l.29.13v.42a3.39 3.39 0 0 0-.82.37l-9.61 6A3.39 3.39 0 0 0 3.39 19h19.22a3.39 3.39 0 0 0 1.8-6.27zM24 16a1.43 1.43 0 0 1-1.37 1H3.39a1.42 1.42 0 0 1-.76-2.63l9.61-6a1.42 1.42 0 0 1 1.51 0l9.61 6A1.43 1.43 0 0 1 24 16z"/></symbol><symbol id="map-emporium" viewBox="0 0 26 26"><path d="M0 10.56a3.24 3.24 0 0 0 2.44 3.14v10.68H.81a.81.81 0 0 0 0 1.62h24.38a.81.81 0 0 0 0-1.62h-1.63V13.7A3.24 3.24 0 0 0 26 10.56v-.81H0zm16.25 3.25a3.25 3.25 0 0 0 3.25-3.25 3.24 3.24 0 0 0 2.44 3.14v10.68H9.75V13.81A3.25 3.25 0 0 0 13 10.56a3.25 3.25 0 0 0 3.25 3.25zm-7.31-.11v10.68H4.06V13.7a3.24 3.24 0 0 0 2.44-3.14 3.24 3.24 0 0 0 2.44 3.14zM22.75 2.44H3.25L0 8.94h26zM6.87 4.24L5.24 7.49a.41.41 0 0 1-.37.23.39.39 0 0 1-.18 0 .4.4 0 0 1-.18-.54l1.63-3.3a.41.41 0 0 1 .73.36zm3.25 0L8.49 7.49a.41.41 0 0 1-.37.23.39.39 0 0 1-.18 0 .4.4 0 0 1-.18-.54l1.63-3.3a.41.41 0 0 1 .73.36zm3.29 3.07a.41.41 0 0 1-.81 0V4.06a.41.41 0 0 1 .81 0zm4.67.36a.41.41 0 0 1-.55-.16l-1.79-3.25a.41.41 0 0 1 .71-.39l1.78 3.25a.41.41 0 0 1-.16.55zm3.23 0a.38.38 0 0 1-.18 0 .4.4 0 0 1-.36-.23l-1.63-3.2a.41.41 0 1 1 .73-.36l1.63 3.25a.41.41 0 0 1-.19.55zM6.91 19.62v-1.87a.8.8 0 0 1-.41-.69.81.81 0 0 1 1.63 0 .8.8 0 0 1-.41.69v1.87a.8.8 0 0 1 .41.69.81.81 0 1 1-1.22-.69zM3.25.81A.81.81 0 0 1 4.06 0h17.88a.81.81 0 0 1 0 1.63H4.06a.81.81 0 0 1-.81-.82z"/></symbol><symbol id="map-gym" viewBox="0 0 26 9.75"><path d="M.9 1.43v2.71H0v1.47h.9v2.71h2.74V1.43H.9zM17.55 0v3.37h-9.1V0H5.23v9.75h3.22v-3.4h9.1v3.4h3.13V0h-3.13zM25.1 4.14V1.43h-2.83V8.32h2.83V5.61h.9V4.14h-.9z"/></symbol><symbol id="map-kindergarden" viewBox="0 0 25.26 26"><path d="M.19 11.63a4 4 0 0 0 6.66 4zM14.63 14.17L16.81 12l-2.7-2.7 2.45.27.18-1.68-4.53-.5-.9-.9 2.69.3.18-1.68-4.78-.53-.89-.89 2.92.31.18-1.68-5-.55L4.81 0l-.88.89a3.75 3.75 0 0 0-.43 4.78L1 10.12l6.87 4.13.19-.3 3.42 3.42 2-2L24.07 26l1.19-1.19zm-9.3-5.24a.64.64 0 1 1 0-.91.64.64 0 0 1 0 .91z"/></symbol><symbol id="map-med_center" viewBox="0 0 26 25.52"><path d="M14.06 13a1.12 1.12 0 0 0 .23-.4 1.24 1.24 0 0 0-.19-1zM12.1 6.94a2 2 0 0 0-.38.61 1.13 1.13 0 0 0 .49 1.28l.22.16V7.88c0-.46-.1-1 .27-1.32a1.41 1.41 0 0 0-.6.38z"/><path d="M26 10.33a.43.43 0 0 0 0-.33l-3.32-6.27a.42.42 0 0 0-.57-.18L17 6.23V.42a.42.42 0 0 0-.46-.42H9.46A.42.42 0 0 0 9 .42v5.8L3.89 3.55a.42.42 0 0 0-.57.18L0 10a.42.42 0 0 0 .18.57l4.19 2.18-4.14 2.19a.42.42 0 0 0-.18.57l3.27 6.28a.42.42 0 0 0 .57.18L9 19.29v5.8a.42.42 0 0 0 .42.42h7.08a.42.42 0 0 0 .5-.41v-5.8l5.11 2.7a.42.42 0 0 0 .57-.18l3.32-6.3a.42.42 0 0 0-.18-.57l-4.19-2.18 4.19-2.18a.42.42 0 0 0 .18-.26zm-11 3.2a2.69 2.69 0 0 1-.58.6 3.65 3.65 0 0 1-.37.25v.87l-.2 4.75v.68c0 .27-.09.54-.39.61a.52.52 0 0 1-.64-.45v-1.66c0-.06-.1-.1-.15-.13a6.91 6.91 0 0 1-.74-.63 3 3 0 0 1-1-2 2.61 2.61 0 0 1 1-2 4.61 4.61 0 0 1 .46-.36s.3-.17.3-.2v-.18l-.07-2.26v-1.25l-.07-.07-.46-.28a2.54 2.54 0 0 1-1.27-1.78 2.58 2.58 0 0 1 .78-1.91 6.28 6.28 0 0 1 .64-.84 1.29 1.29 0 0 1 .67-.29.6.6 0 0 1 .57.55 1.07 1.07 0 0 1-.46.8.93.93 0 0 1 1.22.94l-.06 2.14v.74c0 .05.2.2.24.24a4.47 4.47 0 0 1 .37.42 3 3 0 0 1 .51 1c-.1-.35.1.34 0 0a2 2 0 0 1-.3 1.69z"/></symbol><symbol id="map-metro" viewBox="0 0 26 21.15"><path d="M21.45 0l-8.3 11.8L4.66.27 0 19.57h6.31l1.15-6.17 5.58 7.75 5.55-7.58 1.12 6.03H26L21.45 0z"/></symbol><symbol id="map-parking" viewBox="0 0 17.52 26"><path d="M9.56 0h-7.4A2.16 2.16 0 0 0 0 2.16v21.68a2.16 2.16 0 0 0 4.32 0v-7.2h5.24a8 8 0 0 0 8-8V8a8 8 0 0 0-8-8zm3.64 8.69a3.65 3.65 0 0 1-3.64 3.64H4.32v-8h5.24A3.65 3.65 0 0 1 13.2 8z"/></symbol><symbol id="map-pet_shop" viewBox="0 0 26 24.14"><path d="M4.71 15.35c1.05 0 1.91-1.15 1.91-2.56s-.86-2.56-1.91-2.56-1.91 1.14-1.91 2.56.86 2.56 1.91 2.56zM9.27 15.35c1.05 0 1.91-1.15 1.91-2.56s-.86-2.56-1.91-2.56-1.91 1.15-1.91 2.56.85 2.56 1.91 2.56zM12.83 14.07c-.83-.16-1.65.57-1.86 1.66A1.78 1.78 0 0 0 12.06 18c.83.16 1.65-.57 1.86-1.66a1.78 1.78 0 0 0-1.09-2.27zM3 15.73c-.22-1.1-1-1.83-1.86-1.66a1.78 1.78 0 0 0-1.09 2.24c.22 1.09 1 1.82 1.86 1.66A1.78 1.78 0 0 0 3 15.73zM9.87 18.55a2.92 2.92 0 0 0-5.77 0 2.92 2.92 0 1 0 2.88 5 2.92 2.92 0 1 0 2.88-5zM16.73 5.12c1.05 0 1.91-1.15 1.91-2.56S17.79 0 16.73 0s-1.91 1.15-1.91 2.56.86 2.56 1.91 2.56zM21.29 5.12c1.05 0 1.91-1.15 1.91-2.56S22.34 0 21.29 0s-1.91 1.15-1.91 2.56.85 2.56 1.91 2.56zM24.86 3.84c-.86-.16-1.65.57-1.86 1.67a1.78 1.78 0 0 0 1.09 2.24c.83.16 1.65-.57 1.86-1.66a1.78 1.78 0 0 0-1.09-2.25zM13.94 7.75A1.78 1.78 0 0 0 15 5.51c-.22-1.1-1-1.83-1.86-1.66a1.78 1.78 0 0 0-1.09 2.24c.24 1.09 1.06 1.82 1.89 1.66zM21.9 8.32a2.92 2.92 0 0 0-5.77 0 2.92 2.92 0 1 0 2.88 5 2.92 2.92 0 1 0 2.88-5z"/></symbol><symbol id="map-pharmacy" viewBox="0 0 26 23.71"><path d="M22.6 1.58H8.86A3.41 3.41 0 0 0 5.46 5v1H1.28V.64A.64.64 0 1 0 0 .64v22.43a.64.64 0 1 0 1.28 0v-5.35h4.18v1a3.41 3.41 0 0 0 3.4 3.4H22.6a3.41 3.41 0 0 0 3.4-3.4V5a3.41 3.41 0 0 0-3.4-3.42zM1.28 7.28h4.18v9.16H1.28zm20.46 6.63a.64.64 0 0 1-.64.64h-2.68v2.68a.64.64 0 0 1-.64.64h-4.11a.64.64 0 0 1-.64-.64v-2.68h-2.67a.64.64 0 0 1-.64-.64V9.8a.64.64 0 0 1 .64-.64H13V6.48a.64.64 0 0 1 .64-.64h4.11a.64.64 0 0 1 .64.64v2.68h2.71a.64.64 0 0 1 .64.64z"/></symbol><symbol id="map-rest" viewBox="0 0 26 18.67"><path d="M0 15.91h26v2.76H0zM21.38 6.25a11.76 11.76 0 0 0-6.71-3.35 1.93 1.93 0 1 0-3.34 0A11.85 11.85 0 0 0 1.15 14.37h23.7a11.77 11.77 0 0 0-3.47-8.12z"/></symbol><symbol id="map-school" viewBox="0 0 26 26"><path d="M26 16.24a.86.86 0 0 0-.65-.7 33.18 33.18 0 0 1-8-3.23l-3.66-3.67a33.27 33.27 0 0 1-3.23-8A.86.86 0 0 0 8.89.41l-1.1 1.78a2.66 2.66 0 0 0-2.34-.63h-.06A7.5 7.5 0 0 0 .08 6.89v.06a2.69 2.69 0 0 0 .7 2.44l.15.14C3 11.2 5 13 7 14.78a9 9 0 0 1-4.41 1.39.44.44 0 0 0-.29.83l1.3 1-1.48 1.37a.44.44 0 0 0 .29.76 10.53 10.53 0 0 0 4.3-.84 10.52 10.52 0 0 0-.84 4.3.44.44 0 0 0 .76.29L8 22.4l1 1.3a.44.44 0 0 0 .79-.29A9 9 0 0 1 11.22 19c1.83 1.94 3.58 4 5.24 6l.14.15a2.69 2.69 0 0 0 2.44.72h.06a7.5 7.5 0 0 0 5.31-5.31 2.44 2.44 0 0 0-.61-2.41l1.79-1.11a.86.86 0 0 0 .41-.8zM9.34 3c.17.54.38 1.16.63 1.83L9 3.59zM8.5 13.83C6.43 11.87 4.26 10 2 8.2a.89.89 0 0 1-.26-.81 5.73 5.73 0 0 1 4.11-4.15.78.78 0 0 1 .84.3L7.1 4l.26.32c1.58 1.94 3.24 3.82 5 5.64zm14.26 6.32a5.73 5.73 0 0 1-4.11 4.11 1 1 0 0 1-.81-.26c-1.78-2.23-3.67-4.39-5.64-6.47l3.8-3.86c1.81 1.72 3.7 3.38 5.64 5l.32.26.51.41a.91.91 0 0 1 .29.81zM22.41 17l-1.21-1c.67.25 1.29.46 1.83.63z"/></symbol><symbol id="map-shop" viewBox="0 0 26 26"><path d="M8.48 10.9a1.09 1.09 0 0 0 1.1-1.08V5.59a3.46 3.46 0 0 1 6.91 0v4.23a1.09 1.09 0 0 0 2.19 0V5.59a5.64 5.64 0 0 0-11.28 0v4.23a1.09 1.09 0 0 0 1.08 1.08z"/><path class="cls-1" d="M25.57 8.47h-5.8v1.35a2.19 2.19 0 0 1-4.37 0V8.47h-4.73v1.35a2.19 2.19 0 0 1-4.37 0V8.47H.43A.41.41 0 0 0 0 9l3.84 15.43A2.24 2.24 0 0 0 5.9 26h14.2a2.24 2.24 0 0 0 2.06-1.57L26 9a.41.41 0 0 0-.43-.53z"/></symbol><symbol id="map-spa" viewBox="0 0 26 23.18"><path d="M16.93 23.18H0V21.6a1.81 1.81 0 0 0 1.12.4h14.64zM7.33 0a1.64 1.64 0 0 0-.93 3A3.85 3.85 0 0 1 8.68.72 1.64 1.64 0 0 0 7.33 0zm-.47 4.31a3.13 3.13 0 1 0 .18-1 3.14 3.14 0 0 0-.18 1zM5.15 8.64c-.73 1.63-2.33 5.79-2.77 6.84h5.46a8.48 8.48 0 0 1 .4-.86c.51-1 2.12-1.44 1.74-2.77l1.44 1.36a1.14 1.14 0 0 0 .37.24l3.93 1.5a1.15 1.15 0 0 0 .4.07 1.13 1.13 0 0 0 .4-2.19L13 11.46a1.37 1.37 0 0 1-.44-.28l-3.01-2.9A1.23 1.23 0 0 0 9.07 8h-.28a7.21 7.21 0 0 0-2.4-.31 1.6 1.6 0 0 0-.76.24 1.74 1.74 0 0 0-.48.71zm-4 12.67H16l1.43 1.45a1.42 1.42 0 0 0 .47.32 1.44 1.44 0 0 0 .54.11h6.09a1.42 1.42 0 1 0 0-2.84h-5.45l-3.72-3.78a1.11 1.11 0 0 0-1-.42H1.12A1.12 1.12 0 0 0 0 17.28v2.9a1.12 1.12 0 0 0 1.12 1.13zM24 16.12a3.25 3.25 0 1 0-3.25 3.25A3.25 3.25 0 0 0 24 16.12z"/></symbol><symbol id="map-supermarket" viewBox="0 0 26 26"><path d="M7.8 20.8a2.6 2.6 0 1 0 2.6 2.6 2.61 2.61 0 0 0-2.6-2.6zM0 0v2.6h2.6l4.68 9.88-1.82 3.12a4.62 4.62 0 0 0-.26 1.3 2.61 2.61 0 0 0 2.6 2.6h15.6v-2.6H8.32a.28.28 0 0 1-.26-.26v-.13l1.17-2.21h9.62a2.37 2.37 0 0 0 2.21-1.3l4.68-8.45A.72.72 0 0 0 26 3.9a1.23 1.23 0 0 0-1.3-1.3H5.46L4.29 0zm20.8 20.8a2.6 2.6 0 1 0 2.6 2.6 2.61 2.61 0 0 0-2.6-2.6z"/></symbol><symbol id="map-transport" viewBox="0 0 24 26"><path d="M23.29 5.16h-1V3.42A3.42 3.42 0 0 0 18.9 0H5.11a3.42 3.42 0 0 0-3.42 3.42v1.74h-1a.71.71 0 0 0-.69.71v3.94a.71.71 0 0 0 .71.71h1V19a1.86 1.86 0 0 0-.62 1.39v1.32a1.86 1.86 0 0 0 1.86 1.86h.23v1.87a.55.55 0 0 0 .55.55h2.5a.55.55 0 0 0 .55-.55v-1.86h10.44v1.87a.55.55 0 0 0 .55.55h2.52a.55.55 0 0 0 .55-.55v-1.87h.23a1.86 1.86 0 0 0 1.86-1.86V20.4a1.86 1.86 0 0 0-.62-1.4v-8.48h1a.71.71 0 0 0 .69-.71V5.87a.71.71 0 0 0-.71-.71zm-3.09.28v8.41h-7.27V5.43zM8.38 1.78h7.25a.91.91 0 1 1 0 1.82H8.38a.91.91 0 1 1 0-1.82zM3.8 5.43h7.27v8.41H3.8zm3.25 12.16a.9.9 0 0 1-.9.9H4.67a.9.9 0 0 1-.9-.9v-1a.9.9 0 0 1 .9-.9h1.49a.9.9 0 0 1 .9.9zm9.89 0v-1a.9.9 0 0 1 .9-.9h1.48a.9.9 0 0 1 .9.9v1a.9.9 0 0 1-.9.9h-1.48a.9.9 0 0 1-.89-.9z"/></symbol><symbol id="microphone" viewBox="0 0 12 20"><path d="M6.12 13.75h-.14A2.948 2.948 0 0 1 3 10.7V3.25A3.13 3.13 0 0 1 5.98 0h.14A3.053 3.053 0 0 1 9 3.25v7.45a2.87 2.87 0 0 1-2.88 3.05zm-.14-12.5a1.9 1.9 0 0 0-1.78 2v7.45a1.712 1.712 0 0 0 1.78 1.8h.14a1.65 1.65 0 0 0 1.68-1.8V3.25a1.818 1.818 0 0 0-1.68-2h-.14zm.92 15.62H5.12C1.72 16.87 0 14.4 0 10.1V7.5a.6.6 0 1 1 1.2 0v2.6c0 2.52.49 5.52 3.92 5.52H6.9c2.62 0 3.9-1.8 3.9-5.52V7.5a.6.6 0 1 1 1.2 0v2.6c0 5.6-2.77 6.77-5.1 6.77zm-1.5-.62h1.2V20H5.4v-3.75zm-3 2.5h7.2a.626.626 0 0 1 0 1.25H2.4a.626.626 0 0 1 0-1.25z"/></symbol><symbol id="money-bag" viewBox="0 0 481 481"><path d="M256.7 301.9h-27.5c-10 0-18.1-8.1-18.1-18.1s8.1-18.1 18.1-18.1h48.4c6.6 0 12-5.4 12-12s-5.4-12-12-12h-22.7V225c0-6.6-5.4-12-12-12s-12 5.4-12 12v16.7h-1.7c-23.2 0-42.1 18.9-42.1 42.1s18.9 42.1 42.1 42.1h27.5c10 0 18.1 8.1 18.1 18.1s-8.1 18.1-18.1 18.1h-49.3c-6.6 0-12 5.4-12 12s5.4 12 12 12H231v17.1c0 6.6 5.4 12 12 12s12-5.4 12-12v-17.1h2.3c23-.3 41.5-19.1 41.5-42.1 0-23.2-18.9-42.1-42.1-42.1z"/><path d="M423.3 274.7c-12.6-29-30-57.1-52-83.4-26.6-32-53.1-53.4-66.6-63.3l51-94.6c2.5-4.7 1.7-10.5-2.2-14.2C340.3 6.3 326.3 0 310.7 0c-14.3 0-27.4 5.4-38.8 10.2-9 3.7-17.5 7.3-24.4 7.3-2.1 0-3.9-.3-5.7-1C218 7.8 199.7 2.4 182 2.4c-22.4 0-41.5 9-60.2 28.2-3.9 4-4.5 10.3-1.4 15l55 83.1c-13.6 10.1-39.6 31.3-65.7 62.6-21.9 26.3-39.4 54.4-52 83.4-15.8 36.5-23.8 74.6-23.8 113.2 0 51.3 41.8 93.1 93.1 93.1h227c51.3 0 93.1-41.8 93.1-93.1 0-38.6-8-76.7-23.8-113.2zM146 40.6c11.6-10 22.7-14.4 36-14.4 14.2 0 30.2 4.8 51.5 12.7 4.4 1.6 9.1 2.4 13.9 2.4 11.7 0 22.9-4.6 33.6-9.1 10.3-4.3 20.1-8.4 29.6-8.4 4.6 0 11.1.8 19.3 6.6l-48 89.2h-83.6l-52.3-79zM354 457H127c-38.1 0-69.1-31-69.1-69.1 0-64.1 23.5-124.9 69.7-180.7 29.2-35.3 58.9-57.2 67.9-63.6h89.8c9.1 6.3 38.7 28.3 67.9 63.6 46.3 55.8 69.7 116.5 69.7 180.7.2 38.1-30.8 69.1-68.9 69.1z"/></symbol><symbol id="navigation" viewBox="0 0 51.636 51.636"><path d="M51.353.914a.999.999 0 0 0-1.135-.213L.583 23.481a1 1 0 0 0 .252 1.895l22.263 3.731 2.545 21.038a1.002 1.002 0 0 0 1.889.324l24-48.415a1 1 0 0 0-.179-1.14z"/></symbol><symbol id="north-aegean" viewBox="0 0 64 72"><path d="M19.6 16.3c.683-1.738-.818-2.259-2-1.163-2.382.768-.707-1.233-1.4-1.937-.37-1.249 1.694-1.978-.2-2.7-.967-3.463 2.288-2.837 4.396-2.5 1.54-1.126 3.795-.597 3.704 1.5 2.95 1.45 2.397-3.16 5.188-2.375 1.031-2.875 1.012 2-.638 2.262-.677 2.144-3.269 3.734-1.45 5.913-.915.86.334 2.087-.12 2.38-.915-1.494-3.422-1.946-3.38-3.863.916-1.262.738-3.352-1.212-2.242.136 1.002-2.888 3.537-.588 2.825 1.382 2.792-1.005 1.323-2.3 1.9zM4.3 17.8c3.055-1.492-.795-5.038-2.037-1.788-.49 1.579.69 4.62 2.037 1.788zm0 0c3.055-1.492-.795-5.038-2.037-1.788-.49 1.579.69 4.62 2.037 1.788zm44.4 7.1c3.628-2.151-2.506-4.343-3.5-1.5-1.311 2.962-4.153 5.817-7.3 3-3.048-.76-4.432-4.082-2.85-6.775 1.217-1.834 3.185-.633 4.85-.725 1.73-1.96 6.833-1.057 5.7-4.4 1.822-.487 6.173-1.447 6.7 1 .783.756 2.803-.17 1.538 1.662C51.086 20.138 57.56 19.957 57.6 23c1.589 2.238 4.119 5.256 3.3 8-3.005 1.057-2.564-2.524-3.475-4.162-2.196-1.54-2.608 1.749-.162 2.162 1.737 1.59 1.676 4.641-1.425 4.338-2.606.189-5.432-.45-6.809-2.638-2.296.294-4.957.35-5.829-2.4.55-1.377 3.198-.48 2.7-2.8.762-.81 1.889-.27 2.8-.6zM11.9 36.1c.312-1.307-3.324-2.447-1.1-2.6.283-2.124 4.193 1.01 2.058 2.042-.382.177-.584 1.065-.958.558zm0 0c.312-1.307-3.324-2.447-1.1-2.6.283-2.124 4.193 1.01 2.058 2.042-.382.177-.584 1.065-.958.558zm-1.6-.1c-1.153 1.721-1.234-1.682 0 0zm0 0c-1.153 1.721-1.234-1.682 0 0zm21.6 1.8c1.917-.898.404-3.846-1.3-2.475-1.362-1.325-3.156-4.328-4.9-1.525-2.61-.922-6.395 1.507-3.4 3.9 2.739.69 4.163 2.57 4.1 5.4 3.24 2.804-2.85 2.324-3.4 5-.141 2.293 2.348 3.24 3.5 4.7 1.736-.765 5.14-1.882 5.18-3.82-1.006-2.152 2.694-2.151 1.97-4.53.105-1.923-2.63-3.459-.625-5.238-.201-.668-1.15-.624-1.125-1.412zm0 0c1.917-.898.404-3.846-1.3-2.475-1.362-1.325-3.156-4.328-4.9-1.525-2.61-.922-6.395 1.507-3.4 3.9 2.739.69 4.163 2.57 4.1 5.4 3.24 2.804-2.85 2.324-3.4 5-.141 2.293 2.348 3.24 3.5 4.7 1.736-.765 5.14-1.882 5.18-3.82-1.006-2.152 2.694-2.151 1.97-4.53.105-1.923-2.63-3.459-.625-5.238-.201-.668-1.15-.624-1.125-1.412zm4.8-1.3c-1.3 1.849-4.495-1.797-1.43-.5.627-.148.905.308 1.43.5zm0 0c-1.3 1.849-4.495-1.797-1.43-.5.627-.148.905.308 1.43.5zm16.9 23.2c-2.482-1.053-3.72-5.254-7.1-3.1-2.515 2.792-3.48-2.847-.588-3.438 2.43-1.753 5.96-2.829 8.788-1.462 1.37.781 3.472 3.536 3.7.6 3.254-.9 4.747 3.82.95 4.188-2.337-.096-4.257 1.928-4.962 3.312-.266-.001-.538.014-.788-.1zm0 0c-2.482-1.053-3.72-5.254-7.1-3.1-2.515 2.792-3.48-2.847-.588-3.438 2.43-1.753 5.96-2.829 8.788-1.462 1.37.781 3.472 3.536 3.7.6 3.254-.9 4.747 3.82.95 4.188-2.337-.096-4.257 1.928-4.962 3.312-.266-.001-.538.014-.788-.1zm-28 5.5c-3.46 2.63-3.138-3.505-.263-4.063.475-2.308 3.695-2.05 5.263-1.237 1.935 1.647 3.767-4.373 6.088-2.362-1.803 1.866-2.417 5.4-5.443 5.73-2.11.202-4.405-.338-5.645 1.932zm0 0c-3.46 2.63-3.138-3.505-.263-4.063.475-2.308 3.695-2.05 5.263-1.237 1.935 1.647 3.767-4.373 6.088-2.362-1.803 1.866-2.417 5.4-5.443 5.73-2.11.202-4.405-.338-5.645 1.932zm16.2-1.9c-.12 1.856-2.04-1.965-.1-2.4-1.262-1.947 1.584-1.995 1.5 0 1.58.798-1.972 1.156-1.446 2.262l.046.138zm0 0c-.12 1.856-2.04-1.965-.1-2.4-1.262-1.947 1.584-1.995 1.5 0 1.58.798-1.972 1.156-1.446 2.262l.046.138zm-1.8-.9c-2.12 1.785-.996-2.641.1 0H40zm0 0c-2.12 1.785-.996-2.641.1 0H40zm16.3.7c-1.633 1.998-1.868-2.102 0 0zm0 0c-1.633 1.998-1.868-2.102 0 0z" stroke="#fff" stroke-width=".5" stroke-miterlimit="8"/></symbol><symbol id="notice" viewBox="0 0 16 18"><path d="M14.45 15H1.59a1.577 1.577 0 0 1-1.5-.59c-.3-.59.15-1.18.72-1.93.64-.84 1.64-1.91 1.64-3.05V5.75a5.534 5.534 0 1 1 11.06 0v3.68a5.39 5.39 0 0 0 1.6 3.09c.63.75 1.09 1.3.81 1.89a1.56 1.56 0 0 1-1.47.59zM1.36 13.79c.06 0 .14.01.23.01h12.86c.05 0 .09-.01.12-.01-.12-.16-.28-.35-.41-.51a6.326 6.326 0 0 1-1.88-3.85V5.75a4.307 4.307 0 1 0-8.6 0v3.68c0 1.54-1.18 2.84-1.88 3.76-.14.19-.32.42-.44.6zm4.86.61a1.67 1.67 0 0 0-.11.59 1.87 1.87 0 0 0 3.74 0 1.67 1.67 0 0 0-.11-.59H11a2.88 2.88 0 0 1 .06.59 3.08 3.08 0 0 1-6.16 0 2.88 2.88 0 0 1 .06-.59h1.26z"/></symbol><symbol id="peloponnese" viewBox="0 0 64 72"><path d="M18.6 30.7c-.12 1.838-2.997 3.64-.113 5.045 1.676 1.605 2.438 4.591 4.776 5.192 3.9-.637 1.782 4.747 4.537 6.063.901 2.072.741 4.432 1.3 6.616 1.191 2.171-2.774 4.726-3.408 2.196-2.508-1.393-1.136-5.659-4.68-4.962-1.328-.76 1.653-2.57-.843-3.342-1.026-2.661-5.736-1.236-6.016 1.572-1.235 2.539 2.531 5.791-.918 7.485-1.952 2.329-.961-2.835-3.035-2.552-3.49.515-2.597-2.776-2.212-4.813-.63-.992-1.508-.716-1.55-2.188a5.469 5.469 0 0 1-1.975-7.425c.61-1.38 2.146-1.893 3.137-2.887 1.136-1.584-1.61-5.079 1.6-4 2.342.363 4.212-4.969 5.167-.77 1.748 2.23 3.355-3.844 4.233-1.23zm0 0c-.12 1.838-2.997 3.64-.113 5.045 1.676 1.605 2.438 4.591 4.776 5.192 3.9-.637 1.782 4.747 4.537 6.063.901 2.072.741 4.432 1.3 6.616 1.191 2.171-2.774 4.726-3.408 2.196-2.508-1.393-1.136-5.659-4.68-4.962-1.328-.76 1.653-2.57-.843-3.342-1.026-2.661-5.736-1.236-6.016 1.572-1.235 2.539 2.531 5.791-.918 7.485-1.952 2.329-.961-2.835-3.035-2.552-3.49.515-2.597-2.776-2.212-4.813-.63-.992-1.508-.716-1.55-2.188a5.469 5.469 0 0 1-1.975-7.425c.61-1.38 2.146-1.893 3.137-2.887 1.136-1.584-1.61-5.079 1.6-4 2.342.363 4.212-4.969 5.167-.77 1.748 2.23 3.355-3.844 4.233-1.23zM9.7 56c-1.813.012.423 2.317 0 0zm0 0c-1.813.012.423 2.317 0 0zm-1.5-1.2c-.379 1.754-1.241 1.263-.5-.2.181.061.505-.173.5.2zm0 0c-.379 1.754-1.241 1.263-.5-.2.181.061.505-.173.5.2zm-1.4-5.6c-.504.937-.792-.832 0 0zm0 0c-.504.937-.792-.832 0 0zm.3.9c-1.17-.964-.478.84 0 0zm0 0c-1.17-.964-.478.84 0 0zm18.7-34.2c.964 1.803 4.376.88 3.6 3.7.077 1.628.984 2.874 2.138 3.475-.893 2.43 2.95 1.866 1.595 4.37-.064 2.707 3.077 4.535 4.844 2.709 1.477 2.07 1.773 4.657 2.995 6.86.737 2.14 2.459 3.065 2.028 5.386 1.045 1.613 5.374 4.775 1.05 4.75-1.663-.382-3.468-.669-4.85-1.25.405-2.29-1.215-3.415-2.775-4.9-.628-1.707.616-4.993-2.212-5.25-1.707-1.198-3.715-1.309-3.413 1.337.58 2.603-2.027 1.684-3.25.525-2.087-.498-3.463 1.113-2.85 3.188-3.031.8-4.046-2.308-5.681-4.086-1.399-1.588-3.341-3.542-.844-5.164.675-2.167-.772-5.254-2.875-5.85-3.353.342-3.78-2.858-2.8-5.444-.482-2.187 1.812-3.348 3.3-4.256 1.56 1.306 4.329 1.658 6.56 1.3 1.709.793 2.539-.18 2.64-1.8l.588.35.212.05zm0 0c.964 1.803 4.376.88 3.6 3.7.077 1.628.984 2.874 2.138 3.475-.893 2.43 2.95 1.866 1.595 4.37-.064 2.707 3.077 4.535 4.844 2.709 1.477 2.07 1.773 4.657 2.995 6.86.737 2.14 2.459 3.065 2.028 5.386 1.045 1.613 5.374 4.775 1.05 4.75-1.663-.382-3.468-.669-4.85-1.25.405-2.29-1.215-3.415-2.775-4.9-.628-1.707.616-4.993-2.212-5.25-1.707-1.198-3.715-1.309-3.413 1.337.58 2.603-2.027 1.684-3.25.525-2.087-.498-3.463 1.113-2.85 3.188-3.031.8-4.046-2.308-5.681-4.086-1.399-1.588-3.341-3.542-.844-5.164.675-2.167-.772-5.254-2.875-5.85-3.353.342-3.78-2.858-2.8-5.444-.482-2.187 1.812-3.348 3.3-4.256 1.56 1.306 4.329 1.658 6.56 1.3 1.709.793 2.539-.18 2.64-1.8l.588.35.212.05zm-1 25.1c-1.106-2.612 2.234-4.353 3.9-2.5 2.208 1.89 2.63-.385 2.6-2.1.522-2.33 3.406.288 4.688.75 1.23 1.83-.487 4.73 2.087 5.888 2.51.384-.03 5.012 3.225 3.762 1.286 1.567 4.242.243 4.96.98-.006 2.704 1.078 5.257 2.24 7.62 1.769.46-.567 1.503.1 2.4-1.147-.243-2.828-.062-1.1 1.2-1.071.728-.174 3.365 1.3 4.263 1.94.513.668 2.854 2.8 3.437.752 2.077-5.032 2.051-4-.6-.587-1.736-4.244.008-3.2-3.1-1.963-.71-2.662-1.96-2.813-3.6-.775-1.21-1.747.917-1.587-1.4.461-1.987-1.66-4.642-3.944-4.1-2.02-.548-1.892 1.427-2.431 2.5-2.484.052.13 2.794-1.925 2.9.339 1.957-2.444 2.949-1.012 5.4 1.761 3.195-1.691 2.51-3.375 1.3-1.426-2.051.66-4.673.3-7 .911-1.025-2.945-1.476-.6-2.55 3.103.01 1.923-3.715 1.487-5.55.394-2.698-1.482-4.49-2.56-6.606-.094-1.206-.15-2.462-1.14-3.294zm0 0c-1.106-2.612 2.234-4.353 3.9-2.5 2.208 1.89 2.63-.385 2.6-2.1.522-2.33 3.406.288 4.688.75 1.23 1.83-.487 4.73 2.087 5.888 2.51.384-.03 5.012 3.225 3.762 1.286 1.567 4.242.243 4.96.98-.006 2.704 1.078 5.257 2.24 7.62 1.769.46-.567 1.503.1 2.4-1.147-.243-2.828-.062-1.1 1.2-1.071.728-.174 3.365 1.3 4.263 1.94.513.668 2.854 2.8 3.437.752 2.077-5.032 2.051-4-.6-.587-1.736-4.244.008-3.2-3.1-1.963-.71-2.662-1.96-2.813-3.6-.775-1.21-1.747.917-1.587-1.4.461-1.987-1.66-4.642-3.944-4.1-2.02-.548-1.892 1.427-2.431 2.5-2.484.052.13 2.794-1.925 2.9.339 1.957-2.444 2.949-1.012 5.4 1.761 3.195-1.691 2.51-3.375 1.3-1.426-2.051.66-4.673.3-7 .911-1.025-2.945-1.476-.6-2.55 3.103.01 1.923-3.715 1.487-5.55.394-2.698-1.482-4.49-2.56-6.606-.094-1.206-.15-2.462-1.14-3.294zm4.5-23.3c-2.83.1-4.598-2.56-2.1-4.6 1.369-1.848 3.075-2.288 2.95-5.037.505-1.65.07-3.824 2.35-2.3 2.67 1.057 5.714 1.781 7.572 4.173.59 2.544 4.86 3.99 5.328.964-1.961-.583-3.473-2.856-.356-3.1 1.908.355 3.661 1.06 5.744 1.05.88.723 1.259 2.62 2.012 3.95-2.043 1.16-4.282 1.088-6.6 1.8-.627 3.297 4.598.431 4.987 3.65.097 1.286-2.163 1.76-.637 2.638-2.584.544-4.524-2.448-7.15-1.088-3.757.6-6.802-2.832-10.5-2.387-1.181.325-2.387.677-3.6.287zm0 0c-2.83.1-4.598-2.56-2.1-4.6 1.369-1.848 3.075-2.288 2.95-5.037.505-1.65.07-3.824 2.35-2.3 2.67 1.057 5.714 1.781 7.572 4.173.59 2.544 4.86 3.99 5.328.964-1.961-.583-3.473-2.856-.356-3.1 1.908.355 3.661 1.06 5.744 1.05.88.723 1.259 2.62 2.012 3.95-2.043 1.16-4.282 1.088-6.6 1.8-.627 3.297 4.598.431 4.987 3.65.097 1.286-2.163 1.76-.637 2.638-2.584.544-4.524-2.448-7.15-1.088-3.757.6-6.802-2.832-10.5-2.387-1.181.325-2.387.677-3.6.287zm31.6 13.7c-1.616 1.542-4.935.024-6.862 1.3-2.701.025-.143 1.386-.663 2.037-1.428-.107-3.472-.17-2.262 1.213-2.122 1.049-1.644-2.334-3.713-2.35 1.065-.523 3.305-2.095 1.3-3.4-2.19-.23-5.56-4.134-7.3-1.5-.946-.257-2.649-4.661-3.3-2.15-.087 1.9-.017 4.937-2.864 4.448-3.226-.592-1.043-5.217-3.273-5.81-1.34-.7.078-2.8-1.963-2.888-.775-2.138-2.02-5.323 1.364-4.61 2.884-1.152 5.584.913 8.271 1.69 2.962 1.096 6.217-.777 8.865 1.508 2.404-.73 2.55 1.39 1.962 3.262 1.118 2.195 3.577 2.97 5.15 4.938 1.534 1.22 3.594 1.458 5.288 2.312zm0 0c-1.616 1.542-4.935.024-6.862 1.3-2.701.025-.143 1.386-.663 2.037-1.428-.107-3.472-.17-2.262 1.213-2.122 1.049-1.644-2.334-3.713-2.35 1.065-.523 3.305-2.095 1.3-3.4-2.19-.23-5.56-4.134-7.3-1.5-.946-.257-2.649-4.661-3.3-2.15-.087 1.9-.017 4.937-2.864 4.448-3.226-.592-1.043-5.217-3.273-5.81-1.34-.7.078-2.8-1.963-2.888-.775-2.138-2.02-5.323 1.364-4.61 2.884-1.152 5.584.913 8.271 1.69 2.962 1.096 6.217-.777 8.865 1.508 2.404-.73 2.55 1.39 1.962 3.262 1.118 2.195 3.577 2.97 5.15 4.938 1.534 1.22 3.594 1.458 5.288 2.312z" stroke="#fff" stroke-width=".5" stroke-miterlimit="8"/></symbol><symbol id="pencil" viewBox="0 0 16 16"><path d="M.5 15.99a.492.492 0 0 1-.356-.15.508.508 0 0 1-.128-.51c.011-.03 1.094-3.58 1.311-4.38a.49.49 0 0 1 .132-.23L11.332.85A2.882 2.882 0 0 1 13.264 0a2.554 2.554 0 0 1 1.783.79 2.676 2.676 0 0 1 .949 1.88 2.75 2.75 0 0 1-.908 1.96c-.594.61-9.541 9.46-9.921 9.84a.448.448 0 0 1-.211.12c-.6.18-4.264 1.37-4.3 1.38a.812.812 0 0 1-.156.02zm1.768-4.64c-.189.67-.751 2.37-1.068 3.41 1.052-.34 2.765-.93 3.346-1.11.957-.95 9.262-9.16 9.818-9.73a1.818 1.818 0 0 0 .619-1.23 1.7 1.7 0 0 0-.634-1.16 1.562 1.562 0 0 0-1.085-.51 1.973 1.973 0 0 0-1.222.55c-.267.27-8.781 8.78-9.777 9.78zm2.682 3.08a.5.5 0 0 1-.5-.44 3.022 3.022 0 0 0-.824-1.54 2.967 2.967 0 0 0-1.593-.9.517.517 0 0 1-.442-.57.5.5 0 0 1 .555-.45 4.064 4.064 0 0 1 2.2 1.2 3.986 3.986 0 0 1 1.112 2.13.506.506 0 0 1-.439.57h-.064zm9.015-9.12a.51.51 0 0 1-.5-.45 3.016 3.016 0 0 0-.823-1.54 2.974 2.974 0 0 0-1.593-.9.517.517 0 0 1-.442-.57.5.5 0 0 1 .554-.45 4.221 4.221 0 0 1 3.309 3.33.506.506 0 0 1-.438.57c-.027 0-.048.01-.07.01z"/></symbol><symbol id="photo" viewBox="0 0 18 15"><path d="M11.775 1.157l1 1.748.309.56h3.224a.721.721 0 0 1 .562.577v9.249a.783.783 0 0 1-.527.559H1.573a.668.668 0 0 1-.449-.577V4.024a.713.713 0 0 1 .563-.559h3.224l.328-.56 1.022-1.748h5.55M12.374 0h-6.75l-1.35 2.307H1.687A1.812 1.812 0 0 0 0 4.024v9.249a1.757 1.757 0 0 0 1.569 1.73h14.778A1.847 1.847 0 0 0 18 13.291V4.042a1.823 1.823 0 0 0-1.688-1.731h-2.587L12.374 0zM9 5.2a2.885 2.885 0 1 1-2.813 2.884A2.852 2.852 0 0 1 9 5.2m0-1.154a4.04 4.04 0 1 0 3.937 4.038A3.989 3.989 0 0 0 9 4.042z"/></symbol><symbol id="play" viewBox="0 0 15 18"><path d="M1.13 1.13L13.887 9 1.112 16.87 1.13 1.13m0-1.12a1.04 1.04 0 0 0-.54.14 1.122 1.122 0 0 0-.57.98L0 16.87a1.123 1.123 0 0 0 .57.98 1.1 1.1 0 0 0 1.126-.03L14.47 9.96a1.14 1.14 0 0 0 0-1.92L1.714.18a1.04 1.04 0 0 0-.586-.17z"/></symbol><symbol id="plus-circle" viewBox="0 0 21 21"><path d="M10.5 0A10.5 10.5 0 1 0 21 10.5 10.5 10.5 0 0 0 10.5 0zm0 1.31a9.2 9.2 0 1 1-9.19 9.19 9.2 9.2 0 0 1 9.19-9.19z"/><path d="M10.5 5.25a.659.659 0 0 0-.66.66v3.93H5.9a.66.66 0 0 0 0 1.32h3.94v3.93a.659.659 0 0 0 .66.66.651.651 0 0 0 .65-.66v-3.93h3.94a.66.66 0 0 0 0-1.32h-3.94V5.91a.651.651 0 0 0-.65-.66z"/></symbol><symbol id="reply" viewBox="0 0 10 9"><path d="M9.67 9c-.25-.007-.296-.283-.306-.479-.256-1.313-1.366-2.325-2.627-2.677-.665-.203-1.364-.275-2.057-.274-.004.662.009 1.325-.006 1.987-.037.268-.408.36-.564.14C2.769 6.504 1.423 5.318.086 4.124c-.187-.205-.041-.495.166-.619C1.574 2.353 2.89 1.193 4.215.044c.252-.164.528.136.465.394V2.21c2.543-.136 4.904 1.828 5.196 4.373.035.727.35 1.633-.002 2.322A.311.311 0 0 1 9.67 9zM4.36 4.89c1.543.006 3.222.274 4.38 1.38.297.172.865 1.312.548.242C8.932 4.139 6.5 2.68 4.235 2.849c-.286-.149-.156-.51-.185-.767V1.04L.81 3.9l3.24 2.88c.006-.542-.013-1.087.01-1.628a.32.32 0 0 1 .3-.262z"/></symbol><symbol id="rest" viewBox="0 0 481.827 481.827"><g fill="#8891a6"><path d="M471.827 153.109c-5.523 0-10 4.478-10 10v44.618c-.208-.01-.413-.031-.623-.031H20.371c-.125 0-.247.016-.371.02V87.064c0-5.522-4.477-10-10-10s-10 4.478-10 10v307.699c0 5.522 4.477 10 10 10s10-4.478 10-10v-72.355c.124.004.246.02.371.02h440.833c.21 0 .415-.021.623-.031v72.366c0 5.522 4.477 10 10 10s10-4.478 10-10V163.109c0-5.523-4.477-10-10-10zM444.701 292.59H36.874c-5.523 0-10-4.478-10-10s4.477-10 10-10h407.827c5.523 0 10 4.478 10 10s-4.477 10-10 10z"/><path d="M165.125 180.988c0-15.464-12.536-28-28-28h-78c-15.464 0-28 12.536-28 28v15h134v-15z"/></g></symbol><symbol id="schedule" viewBox="0 0 18 18"><path d="M4.13 12.07h2.117v2.118H4.13zm3.813 0h2.115v2.118H7.943zm3.81 0h2.117v2.118h-2.12zm-3.81-3.813h2.115v2.12H7.943zm3.81 0h2.117v2.12h-2.12zm-7.624 0h2.114v2.12H4.13zm8.29-6.352V.848h-1.27v1.057H6.847V.848h-1.27v1.057H0v15.247h18V1.905h-5.577zm-6.846 1.27v1.06h1.27v-1.06h4.306v.847h1.27l.003-.846h4.305v2.118H1.27V3.176h4.307zM1.27 15.883v-9.32h15.46v9.32H1.27z"/></symbol><symbol id="security" viewBox="0 0 214.27 214.27"><path d="M196.926 55.171c-.11-5.785-.215-11.25-.215-16.537a7.5 7.5 0 0 0-7.5-7.5c-32.075 0-56.496-9.218-76.852-29.01a7.498 7.498 0 0 0-10.457 0c-20.354 19.792-44.771 29.01-76.844 29.01a7.5 7.5 0 0 0-7.5 7.5c0 5.288-.104 10.755-.215 16.541-1.028 53.836-2.436 127.567 87.331 158.682a7.495 7.495 0 0 0 4.912 0c89.774-31.116 88.368-104.849 87.34-158.686zm-89.795 143.641c-76.987-27.967-75.823-89.232-74.79-143.351.062-3.248.122-6.396.164-9.482 30.04-1.268 54.062-10.371 74.626-28.285 20.566 17.914 44.592 27.018 74.634 28.285.042 3.085.102 6.231.164 9.477 1.032 54.121 2.195 115.388-74.798 143.356z"/><path d="M132.958 81.082l-36.199 36.197-15.447-15.447a7.501 7.501 0 0 0-10.606 10.607l20.75 20.75a7.477 7.477 0 0 0 5.303 2.196 7.477 7.477 0 0 0 5.303-2.196l41.501-41.5a7.498 7.498 0 0 0 .001-10.606 7.5 7.5 0 0 0-10.606-.001z"/></symbol><symbol id="share" viewBox="0 0 18 18"><path d="M15.19 0a2.812 2.812 0 0 0-2.82 2.81 2.81 2.81 0 0 0 .075.635L4.89 7.113a2.81 2.81 0 0 0-2.08-.924A2.806 2.806 0 0 0 0 9a2.81 2.81 0 0 0 5.012 1.742l7.435 3.793a2.815 2.815 0 0 0-.078.654 2.815 2.815 0 1 0 2.82-2.82 2.815 2.815 0 0 0-2.268 1.14L5.52 9.74a2.81 2.81 0 0 0-.055-1.65l7.45-3.617A2.81 2.81 0 1 0 15.19 0zm0 1.12a1.69 1.69 0 1 1-1.69 1.69 1.686 1.686 0 0 1 1.69-1.69zM2.81 7.31A1.69 1.69 0 1 1 1.12 9a1.694 1.694 0 0 1 1.69-1.69zm12.38 6.19a1.685 1.685 0 1 1-1.69 1.69 1.686 1.686 0 0 1 1.69-1.69z"/></symbol><symbol id="share2" viewBox="0 0 16 16"><path d="M5.084 4.758H1.011v10.22h13.154V7.959l1.012-.976v8a1.019 1.019 0 0 1-1.012 1.022H1.011A1.018 1.018 0 0 1 0 14.978V4.758a1.016 1.016 0 0 1 1.011-1.022h5.07l.026.027zm7.574 1.725a.5.5 0 0 0 .358-.15l2.988-3.1-2.988-3.1a.5.5 0 0 0-.715 0 .513.513 0 0 0 0 .722l2.352 2.376-2.352 2.375a.513.513 0 0 0 0 .722.5.5 0 0 0 .357.155zm.98-2.747a8.6 8.6 0 0 0-8.441 7.154H4.178a9.636 9.636 0 0 1 9.481-8.176h1.518v1.033c-.488-.004-.996-.011-1.539-.011z"/></symbol><symbol id="south-aegean" viewBox="0 0 64 72"><path d="M11.9 10.1c1.595-.68 1.36-2.49.264-.464-.233.06-.411.751-.264.464zm0 0c1.595-.68 1.36-2.49.264-.464-.233.06-.411.751-.264.464zm6.2-4.8c-1.257 1.563-.82-1.58.042-.127l-.03.04-.012.087zm0 0c-1.257 1.563-.82-1.58.042-.127l-.03.04-.012.087zm.3-4.2c-.762.546-.465-.665 0 0zm0 0c-.762.546-.465-.665 0 0zm5.7 15.6c.76-2.062-.928-4.054-.988-6.15.226-1.988 3.069-.656 2.3 1.012.998 1.217 1.726 2.695.161 3.879.86.655-.832 2.29-1.473 1.259zm0 0c.76-2.062-.928-4.054-.988-6.15.226-1.988 3.069-.656 2.3 1.012.998 1.217 1.726 2.695.161 3.879.86.655-.832 2.29-1.473 1.259zm2 5.3c-.76-1.13-1.887-3.29-1.3-4.5 1.033.646 5.33 5.22 1.3 4.5zm0 0c-.76-1.13-1.887-3.29-1.3-4.5 1.033.646 5.33 5.22 1.3 4.5zm-10.4-9c-1.064 1.255-3.785 1.734-2.2-.1-.17-1.303 3.645-1.283 2.2.1zm0 0c-1.064 1.255-3.785 1.734-2.2-.1-.17-1.303 3.645-1.283 2.2.1zm4.4 3.7c-2.118-.362.331-1.465.3-.1l-.3.1zm0 0c-2.118-.362.331-1.465.3-.1l-.3.1zM14.3 18c-1.07 1-4.05 1.303-1.548-.167-.115-2.005 1.856-1.921 1.785-.07.269.365-.068.139-.237.237zm0 0c-1.07 1-4.05 1.303-1.548-.167-.115-2.005 1.856-1.921 1.785-.07.269.365-.068.139-.237.237zm7.7 3.1c.776-2.443-2.918.181-2.025 1.075.96.65 2.028.155 2.025-1.075zm0 0c.776-2.443-2.918.181-2.025 1.075.96.65 2.028.155 2.025-1.075zm-9.7 2.3c-2.462 1.106-2.014-3.344.3-1.3.301.37-.247.954-.3 1.3zm0 0c-2.462 1.106-2.014-3.344.3-1.3.301.37-.247.954-.3 1.3zm-.1 5.8c1.417-.122 1.68-2.044.813-2.9-.527-.825-.023 1.117-.65 1.1.544.667-.568 1.022-.163 1.8zm0 0c1.417-.122 1.68-2.044.813-2.9-.527-.825-.023 1.117-.65 1.1.544.667-.568 1.022-.163 1.8zm-7.7-2c-1.15 1.332-.168-1.03.05-.125l-.05.125zm0 0c-1.15 1.332-.168-1.03.05-.125l-.05.125zm3.6 3.1c-.932.253-1.849-1.664-1.9-.6 1.148 1.306-1.054.757-.65-.587-1.968.223-1.934 1.835.102 2.07.778 1.494 2.42.02 2.448-.883zm0 0c-.932.253-1.849-1.664-1.9-.6 1.148 1.306-1.054.757-.65-.587-1.968.223-1.934 1.835.102 2.07.778 1.494 2.42.02 2.448-.883zm.8-.1c-1.796-.628.986-2.441.7-.466.021.37-.605.187-.7.466zm0 0c-1.796-.628.986-2.441.7-.466.021.37-.605.187-.7.466zm.6 1.4c1.93-.432-1.325-2.453 0 0zm0 0c1.93-.432-1.325-2.453 0 0zm18-5.9c1.213.293 2.142-1.428.8-1.1-.166-.783-.977-1.722-1.3-.1-1.314.323.224.74.5 1.2zm0 0c1.213.293 2.142-1.428.8-1.1-.166-.783-.977-1.722-1.3-.1-1.314.323.224.74.5 1.2zm-1.4-.8c-1.425-.296.43 1.09 0 0zm0 0c-1.425-.296.43 1.09 0 0zm-.5-.3c-1.267-.318.203-1.412 0 0zm0 0c-1.267-.318.203-1.412 0 0zm-.1.2c-.881-.457-.757.724 0 0zm0 0c-.881-.457-.757.724 0 0zm-5.8 6.8c-1.2-1.158.43-3.037 1.734-2.3 1.069-.647.337 1.15 1.466.6-.518.891-2.242 3.345-3.2 1.7zm0 0c-1.2-1.158.43-3.037 1.734-2.3 1.069-.647.337 1.15 1.466.6-.518.891-2.242 3.345-3.2 1.7zm-2-.9c-.208-.858 1.773-1.455 1.2-.2-.917.355-.322 1.167-1.2.2zm0 0c-.208-.858 1.773-1.455 1.2-.2-.917.355-.322 1.167-1.2.2zm-.5 0c-1.166.36.009-1.184 0 0zm0 0c-1.166.36.009-1.184 0 0zm10.4 2.2c1.227-2.882-2.264-2.2-3.6-1.5-1.042.29-.34 2.735-.9 3.638 1.593.382 2.81-.08 3.75-1.488.224-.282.556-.468.75-.65zm0 0c1.227-2.882-2.264-2.2-3.6-1.5-1.042.29-.34 2.735-.9 3.638 1.593.382 2.81-.08 3.75-1.488.224-.282.556-.468.75-.65zm2.8 2.5c-1.085-1.298 1.638-.99 0 0zm0 0c-1.085-1.298 1.638-.99 0 0zm-2.8 5.7c-1.6.192-1.751-1.502-.113-.938.833 1.17.568-1.355 1.913.138 1.095.357 1.764-1.569 2.413-.15.722 1.462-1.013-.056-1.913.35-.717.46-1.517.983-2.3.6zm0 0c-1.6.192-1.751-1.502-.113-.938.833 1.17.568-1.355 1.913.138 1.095.357 1.764-1.569 2.413-.15.722 1.462-1.013-.056-1.913.35-.717.46-1.517.983-2.3.6zm-1.9-3.2c-1.223-1.51 1.43-.306 0 0zm0 0c-1.223-1.51 1.43-.306 0 0zm-2.2-1c-.446-1.684 1.613-.126 0 0zm0 0c-.446-1.684 1.613-.126 0 0zm-1.1.2c1.717-.838-1.822-.528 0 0zm0 0c1.717-.838-1.822-.528 0 0zm-2.9 2.3c-1.153.35-1.439-1.824-1.064-2.536 1.344-1.613 1.54 1.204 1.852 1.774-.5.069-.38.663-.788.762zm0 0c-1.153.35-1.439-1.824-1.064-2.536 1.344-1.613 1.54 1.204 1.852 1.774-.5.069-.38.663-.788.762zm-4.7-2.2c1.486.497 3.06-1.237.9-.9.12.748-1.674.172-.9.9zm0 0c1.486.497 3.06-1.237.9-.9.12.748-1.674.172-.9.9zm-2.9-.7c-.02-.43-.63-2.562.4-1 .407.4.426 2.236-.4 1zm0 0c-.02-.43-.63-2.562.4-1 .407.4.426 2.236-.4 1zm5.5 8c1.014-.768-1.116-2.556.6-1.2 1.655 1.507-1.107 4.214-2.1 2.1.426-.851 1.596.61 1.5-.9zm0 0c1.014-.768-1.116-2.556.6-1.2 1.655 1.507-1.107 4.214-2.1 2.1.426-.851 1.596.61 1.5-.9zm-.8-1.1c-.751 1.29-.095-1.453 0 0zm0 0c-.751 1.29-.095-1.453 0 0zm6.1 5.4c-1.712.03-1.338-2.099-.064-1.064-.114.368.829 1.054.064 1.064zm0 0c-1.712.03-1.338-2.099-.064-1.064-.114.368.829 1.054.064 1.064zm25.5 16.1c1.484-.623 4.46-2.202 4.313-3.838-1.326.048-2.501-.739-3.947-.362-1.039.077-2.2-.256-3.066.4-1.285.238-2.966.939-4.1 1.5 1.278 1.556-1.4 2.461-1.8 4.3 1.569 2.4 4.634-1.336 6-.4.881 1.443 1.389-1.923 2.6-1.6zm0 0c1.484-.623 4.46-2.202 4.313-3.838-1.326.048-2.501-.739-3.947-.362-1.039.077-2.2-.256-3.066.4-1.285.238-2.966.939-4.1 1.5 1.278 1.556-1.4 2.461-1.8 4.3 1.569 2.4 4.634-1.336 6-.4.881 1.443 1.389-1.923 2.6-1.6zm.1-8.5c-.84-.36-1.605-2.196.267-2.2 1.97.966-1.455-.11.433 1-.19.491-.269.855-.7 1.2zm0 0c-.84-.36-1.605-2.196.267-2.2 1.97.966-1.455-.11.433 1-.19.491-.269.855-.7 1.2zm-5 3.8c-2.133-.093 1.11-1.031 0 0zm0 0c-2.133-.093 1.11-1.031 0 0zm-2.2 0c-1.381.16-1.712-1.667-.013-.988.246.2.048.778.013.988zm0 0c-1.381.16-1.712-1.667-.013-.988.246.2.048.778.013.988zm-.5-5c-1.054-.588.074-2.745-1.7-2-.824 1.078.972.684.3 2.1.33.288 1.736.972 1.4-.1zm0 0c-1.054-.588.074-2.745-1.7-2-.824 1.078.972.684.3 2.1.33.288 1.736.972 1.4-.1zM39 50c.148-2.364-2.657.416-.233.3.274.113-.005-.251.233-.3zm0 0c.148-2.364-2.657.416-.233.3.274.113-.005-.251.233-.3zm-.3-2c-1.865.405.691-1.5 0 0zm0 0c-1.865.405.691-1.5 0 0zm3.3-3.6c-1.74-1.09-3.322.617-5 .05-1.204-1.062-1.166 2.729-.7 1.15.987-.865 2.047-.891 3.013.337 1.38-1.665 3.948 1.07 4.574-.387-.677-.83-.607-1.46-1.887-1.15zm0 0c-1.74-1.09-3.322.617-5 .05-1.204-1.062-1.166 2.729-.7 1.15.987-.865 2.047-.891 3.013.337 1.38-1.665 3.948 1.07 4.574-.387-.677-.83-.607-1.46-1.887-1.15zm-.2-1.1c1.145-.873-1.627-1.215 0 0zm0 0c1.145-.873-1.627-1.215 0 0zm-2.2-3.4c-.847-.92-.465-2.504.5-.8.256 1.045 1.141 3.117-.7 2.5-1.814.313-1.057-1.384.2-1.7zm0 0c-.847-.92-.465-2.504.5-.8.256 1.045 1.141 3.117-.7 2.5-1.814.313-1.057-1.384.2-1.7zm-.1-4.3c-1.452-.385.093.988-.6 1.5.795 2.306 1.293-1.345.6-1.5zm0 0c-1.452-.385.093.988-.6 1.5.795 2.306 1.293-1.345.6-1.5zm-.2-.7c-.245.965-.543-.282 0 0zm0 0c-.245.965-.543-.282 0 0zm5.5-2.4c-2.892-1.373 1.164-1.1 0 0zm0 0c-2.892-1.373 1.164-1.1 0 0zm-5.1.7c-1.168-1.589.21 2.323.3.1l-.3-.1zm0 0c-1.168-1.589.21 2.323.3.1l-.3-.1zm.5-1.2c-1.179-.835.547-1.134 0 0zm0 0c-1.179-.835.547-1.134 0 0zM38 30.2c-1.03-1.447-2.354 2.507-1.4 1.533.193-1.966 1.101.48 1.4-1.533zm0 0c-1.03-1.447-2.354 2.507-1.4 1.533.193-1.966 1.101.48 1.4-1.533zm-5.7 6.2c-2.355-.902.567-.736 0 0zm0 0c-2.355-.902.567-.736 0 0zM24.8 44c-.823-1.353.94-2.979 1.2-1 1.36.566.424-1.744 1.9-.5.67 2.167-.84 1.117-1.938.912-.488.62-.194 1.911-1.162.588zm0 0c-.823-1.353.94-2.979 1.2-1 1.36.566.424-1.744 1.9-.5.67 2.167-.84 1.117-1.938.912-.488.62-.194 1.911-1.162.588zm3.7 6.1c-1.062-.204 1.15-.575 0 0zm0 0c-1.062-.204 1.15-.575 0 0zm1 10.4c-.135-.632-.065-1.21.9-1.867-.137-1.506.134-2.526 1.475-2.783.782-.315 2.32-3.162 3.025-1.95-1.125.608-1.501 1.947-2.9 2.4-.422.903.431 2.184-.5 2.9 1.141 1.473-1.779.29-2.1 1.5l.1-.2zm0 0c-.135-.632-.065-1.21.9-1.867-.137-1.506.134-2.526 1.475-2.783.782-.315 2.32-3.162 3.025-1.95-1.125.608-1.501 1.947-2.9 2.4-.422.903.431 2.184-.5 2.9 1.141 1.473-1.779.29-2.1 1.5l.1-.2zm-3.8-.8c-1.06.016-1.13-1.07.2-1.2.41.414 1.268.214 1.9.7-.416.75-1.367.037-2.1.5zm0 0c-1.06.016-1.13-1.07.2-1.2.41.414 1.268.214 1.9.7-.416.75-1.367.037-2.1.5z" stroke="#fff" stroke-width=".5" stroke-miterlimit="8"/></symbol><symbol id="stairs" viewBox="0 0 512 512"><g fill="#8891a6"><path d="M425.567 28.444c-5.236 0-8.382 4.161-8.382 9.397v85.418h-67.002c-5.236 0-8.85 4.633-8.85 9.869v75.464h-76.951c-5.236 0-8.382 4.105-8.382 9.341v75.992h-76.428c-5.236 0-8.905 4.165-8.905 9.402v75.932H93.715c-5.236 0-8.382 4.633-8.382 9.869v75.464H0v18.963h93.715c5.236 0 10.581-3.858 10.581-9.094v-76.24h75.275c5.236 0 10.058-3.858 10.058-9.094v-76.24h74.752c5.236 0 10.581-4.325 10.581-9.561v-75.772h75.22c5.236 0 10.113-4.385 10.113-9.622V142.22h65.271c5.236 0 10.581-3.858 10.581-9.094V47.407H512V28.444h-86.433zM425.567 293.926h-56.889c-5.236 0-9.481 4.245-9.481 9.482s4.245 9.482 9.481 9.482h29.417l-55.083 55.042a9.45 9.45 0 0 0 0 13.385 9.44 9.44 0 0 0 6.704 2.767c2.426 0 5.402-.931 7.254-2.783l60.216-59.672v38.583a9.482 9.482 0 0 0 18.963 0v-56.889c-.001-5.236-5.346-9.397-10.582-9.397z"/></g></symbol><symbol id="star" viewBox="0 0 18 18"><path id="Star" class="cls-1" d="M9 1.12l2.05 4.4.36.77.83.13 4.66.71-3.4 3.51-.57.59.13.82.8 4.9-4.12-2.29-.74-.41-.75.41-4.11 2.29.8-4.9.13-.82-.57-.59-3.4-3.51 4.66-.71.83-.13.35-.77L9 1.12M9 0a1.31 1.31 0 0 0-1.18.75L5.79 5.11l-4.69.72a1.316 1.316 0 0 0-.73 2.21l3.43 3.53-.79 4.91a1.29 1.29 0 0 0 .53 1.28 1.265 1.265 0 0 0 .75.24 1.435 1.435 0 0 0 .63-.16L9 15.57l4.08 2.27a1.435 1.435 0 0 0 .63.16 1.287 1.287 0 0 0 .75-.24 1.308 1.308 0 0 0 .53-1.28l-.79-4.91 3.43-3.53a1.314 1.314 0 0 0-.74-2.21l-4.68-.72L10.18.75A1.31 1.31 0 0 0 9 0z"/></symbol><symbol id="thessaly" viewBox="0 0 64 72"><path d="M1.6 29.2c-.507-3.119 3.268-4.028 4.338-6.5.334-1.626 2.584.652 3.762-.5 2.188.406 4.176 1.392 6.066 2.533 1.088.795 1.847.313 2.434.067 1.68 1.72 2.7 4.249 3.6 6.5.996 1.084 3.112 3.743.013 2.712-2.837-.625-5.177 1.262-8.063.213-2.714 1.45-5.514-.384-8.347.658-1.906 1.227-3.8-1.585-3.453-3.67-.357-.621-.037-1.415-.35-2.013zm12.7 18.1c.952-2.708-2.02-3.852-2.5-6.1-1.346-1.634-3.67-1.796-5.5-1.1-.174 1.862-3.892 1.937-2.8-.1-.122-1.47 2.825-.974 1.625-3.163.336-1.363-.617-2.56 1.675-2.437 2.429-.645 4.811.926 7.147-.4 2.293.377 4.351.154 6.458-.469 1.505.383 3.812-.284 3.295 1.869 1.496 1.33.012 3.103-1.1 4.1-1.205 1.551.054 3.528-1.9 4.2-1.08 1.838-1.888 5.268-4.77 4.323-.927-.294-1.285-.634-1.63-.723zm28.8 4.3c-.629 1.94-3.083.165-4.1 1.9-.996.121-3.084-.188-2.538-1.538 1.2-1.12 1.685-.216 1.288.725 1.718-.316 2.83-1.18 2.188-2.775.578-.844-.957-3.502-2.626-2.925-.463-1.53-1.901-1.315-2.512-.087-1.855-.498-3.23.463-2.8 2.447.286.788 1.905-.105 1.3 1.603-.122.808 1.54.775 1.2 2.15-1.737.755-.405 1.742.9 1.1.758.717-1.65.641-1.4 1.8-2.25-.78-3.929-2.76-6.1-3.6-2.843-.03-3.267-2.98-1.3-4.6 1.93-.85 3.341-1.989 4.312-3.95.92-1.633 5.034.49 3.188-2.15.173-1.844 3.001-2.35 4.01-1.59 2.005.95 1.912 3.403 3.227 4.79.259 1.195.774 2.249 1.063 3.5-.645 1.162.584 2.257.7 3.2zm5.9 4.6c.538-1.092-1.343-3.35.2-3.2.439 1.48 2.03 2.442 2.4 3.2-1.113.817-1.62.506-2.6 0zm0 0c.538-1.092-1.343-3.35.2-3.2.439 1.48 2.03 2.442 2.4 3.2-1.113.817-1.62.506-2.6 0zm-2.4-2.9c-.86-.066-3.148.49-2.587-.925 1.212.117 3.018-1.514 2.75.662l-.163.263zm0 0c-.86-.066-3.148.49-2.587-.925 1.212.117 3.018-1.514 2.75.662l-.163.263zm15-1.6c2.2-1.963-1.449-1.682-.3-.2l.3.2zm0 0c2.2-1.963-1.449-1.682-.3-.2l.3.2zm-1.5.4c-1.554 2.232-1.582-2.602 0-.5-.107.167.091.34 0 .5zm0 0c-1.554 2.232-1.582-2.602 0-.5-.107.167.091.34 0 .5zm-3.7 1.4c-1.046.837-2.127 2.198-3.3 2.4-.154-.905 1.442-1.15 1.65-2.038.48-.255 2.34-2.446 1.887-.575l-.237.213zm0 0c-1.046.837-2.127 2.198-3.3 2.4-.154-.905 1.442-1.15 1.65-2.038.48-.255 2.34-2.446 1.887-.575l-.237.213zm.4 1.2c.446-1.767-2.45 1.721-.412 1.05.3-.283.304-.679.412-1.05zm0 0c.446-1.767-2.45 1.721-.412 1.05.3-.283.304-.679.412-1.05zm1.8 4.2c-.443-1.6-1.01 2.25.027.077L58.6 58.9zm0 0c-.443-1.6-1.01 2.25.027.077L58.6 58.9zM23.5 34.4c.217-1.756-2.19-3.004-2.262-4.95-1.212-1.472-2.012-4.13-3.138-4.95-1.49-2.932 2.703-2.087 4.237-3.163 2.356-.7 3.465-4.332 6.15-2.537-.102 1.32.13 2.785 1.563 1.175 2.235.174-.166 3.548 2.05 4.425.226 2.752 3.516 3.017 3.4 5.7 2.497 1.677 1.72 4.452 1.913 6.95.974 2.17-.156 2.513-1.925 2.85-2.465.626 1.01 3.986-2.188 2.913-2.255-.494-2.777 2.276-4 3.487-1.738-.062-3.248 2.316-3.6 2.7-1.002-1.83-1.615-3.92-3.321-5.321-1.56-.599-.646-3.186.258-4.067 1.686-1.268 1.653-2.963.563-4.512.11-.25.366-.738.3-.7z" stroke="#fff" stroke-width=".5" stroke-miterlimit="8"/></symbol><symbol id="tool" viewBox="0 0 472.259 472.26"><path d="M462.127 17.649c-13.359-18.848-39.475-23.304-58.322-9.945L284.829 92.026c-17.126 12.135-22.204 34.741-13.005 52.919l-32.475 23.074a9.61 9.61 0 0 0-4.025 7.803v94.611l-22.032 20.234-78.374-41.529L1.042 472.26l347.435-109.969-117.256-62.127 20.129-18.494a9.51 9.51 0 0 0 3.099-7.039v-93.875l29.146-20.722c14.22 11.943 35.133 13.445 50.997 2.209l118.977-84.322c18.848-13.359 23.304-39.474 9.944-58.322l-1.386-1.95z" fill="#8891a6"/></symbol><symbol id="transport" viewBox="0 0 70.074 70.075"><path d="M54.641 41.571c-.835-6.824-4.601-11.832-9.257-11.832H24.699c-4.658 0-8.424 5.006-9.265 11.828-2.94 1.688-4.494 4.891-4.494 8.615 0 2.336.633 4.457 1.803 6.152v7.479h9.825v-3.748H47.51v3.748h9.825v-7.479c1.17-1.695 1.804-3.816 1.804-6.152-.005-3.721-1.556-6.928-4.498-8.611zM19.266 53.394a3.212 3.212 0 1 1 .001-6.425 3.212 3.212 0 0 1-.001 6.425zm1.146-13.091c-.638 0-1.226.072-1.803.164.925-4.481 3.333-7.78 6.084-7.78H45.38c2.751 0 5.159 3.298 6.083 7.78-.308-.048-.632-.064-.956-.087 0-.029.007-.05.007-.077a5.139 5.139 0 0 0-5.134-5.137 5.14 5.14 0 0 0-5.133 5.137H20.412zm23.954 12.738H25.71a.982.982 0 0 1 0-1.961h18.656a.981.981 0 0 1 0 1.961zm0-2.811H25.71a.98.98 0 0 1 0-1.961h18.656a.981.981 0 1 1 0 1.961zm-2.153-9.927a3.17 3.17 0 0 1 3.171-3.171 3.172 3.172 0 0 1 3.166 3.171h-6.337zm8.596 13.091a3.212 3.212 0 1 1-.005-6.423 3.212 3.212 0 0 1 .005 6.423zM70.074 6.26v57.554H68.11V8.222H1.966v55.592H0V6.26h70.074zM3.272 9.582h63.532v3.931H3.274l-.002-3.931zm0 5.482h63.532v3.928H3.274l-.002-3.928zm0 5.479h63.532v3.929H3.274l-.002-3.929z" fill="#8891a6"/></symbol><symbol id="twitter" viewBox="0 0 449.956 449.956"><path d="M449.956 85.657c-17.702 7.614-35.408 12.369-53.102 14.279 19.985-11.991 33.503-28.931 40.546-50.819-18.281 10.847-37.787 18.268-58.532 22.267-18.274-19.414-40.73-29.125-67.383-29.125-25.502 0-47.246 8.992-65.24 26.98-17.984 17.987-26.977 39.731-26.977 65.235 0 6.851.76 13.896 2.284 21.128-37.688-1.903-73.042-11.372-106.068-28.407C82.46 110.158 54.433 87.46 31.403 59.101c-8.375 14.272-12.564 29.787-12.564 46.536 0 15.798 3.711 30.456 11.138 43.97 7.422 13.512 17.417 24.455 29.98 32.831-14.849-.572-28.743-4.475-41.684-11.708v1.142c0 22.271 6.995 41.824 20.983 58.674 13.99 16.848 31.645 27.453 52.961 31.833a95.543 95.543 0 0 1-24.269 3.138c-5.33 0-11.136-.475-17.416-1.42 5.9 18.459 16.75 33.633 32.546 45.535 15.799 11.896 33.691 18.028 53.677 18.418-33.498 26.262-71.66 39.393-114.486 39.393-8.186 0-15.607-.373-22.27-1.139 42.827 27.596 90.03 41.394 141.612 41.394 32.738 0 63.478-5.181 92.21-15.557 28.746-10.369 53.297-24.267 73.665-41.686 20.362-17.415 37.925-37.448 52.674-60.097 14.75-22.651 25.738-46.298 32.977-70.946 7.23-24.653 10.848-49.344 10.848-74.092 0-5.33-.096-9.325-.287-11.991 18.087-13.127 33.504-29.023 46.258-47.672z"/></symbol><symbol id="up-arrow" viewBox="0 0 300 300"><g fill="#8891a6"><path d="M119.46 83.809a6.266 6.266 0 0 0-8.207 0L37.09 147.804a6.284 6.284 0 0 0-2.171 4.756v92.508a6.285 6.285 0 0 0 6.284 6.284h148.319a6.29 6.29 0 0 0 6.29-6.284V152.56a6.29 6.29 0 0 0-2.177-4.756L119.46 83.809zm-4.106 13.062l67.879 58.571v31.054H47.486v-31.054l67.868-58.571zM72.98 222.61v-22.983a6.279 6.279 0 0 1 6.29-6.284h22.965a6.278 6.278 0 0 1 6.284 6.284v22.983a6.28 6.28 0 0 1-6.284 6.283H79.271a6.282 6.282 0 0 1-6.291-6.283zm49.22 0v-22.983a6.277 6.277 0 0 1 6.284-6.284h22.964a6.274 6.274 0 0 1 6.284 6.284v22.983a6.276 6.276 0 0 1-6.284 6.283h-22.964a6.28 6.28 0 0 1-6.284-6.283z"/><path d="M121.508 50.924c-3.538-3.031-8.771-3.031-12.296 0l-98.427 84.628c-3.952 3.389-4.397 9.352-1.008 13.291a9.409 9.409 0 0 0 7.162 3.29 9.38 9.38 0 0 0 6.136-2.282l92.278-79.346 92.297 79.346a9.395 9.395 0 0 0 13.291-1.008c3.396-3.939 2.951-9.902-1.002-13.291l-98.431-84.628z"/><path d="M79.271 179.662h22.965a6.286 6.286 0 0 0 6.284-6.29v-22.983a6.28 6.28 0 0 0-6.284-6.283H79.271a6.282 6.282 0 0 0-6.29 6.283v22.983a6.287 6.287 0 0 0 6.29 6.29zM128.484 179.662h22.964a6.282 6.282 0 0 0 6.284-6.29v-22.983a6.276 6.276 0 0 0-6.284-6.283h-22.964a6.28 6.28 0 0 0-6.284 6.283v22.983c0 3.47 2.808 6.29 6.284 6.29zM289.582 91.292L259.14 54.746c-4.774-5.74-14.534-5.74-19.31 0l-30.454 36.546c-4.446 5.325-3.724 13.255 1.614 17.701 5.332 4.447 13.261 3.724 17.701-1.607l8.227-9.878v141.27c0 6.939 5.621 12.574 12.561 12.574 6.946 0 12.58-5.635 12.58-12.574V97.508l8.221 9.878c2.486 2.987 6.055 4.521 9.666 4.521a12.57 12.57 0 0 0 8.041-2.913c5.325-4.447 6.042-12.377 1.595-17.702z"/></g></symbol><symbol id="user" viewBox="0 0 16 16"><path d="M8 1c1.7 0 3.5 1.432 3.5 2.5V6a5.154 5.154 0 0 1-1.474 3.65 1 1 0 0 0 .2 1.7l4.353 2.065a.559.559 0 0 1 .417.615V15H1v-1.016a.6.6 0 0 1 .419-.577l4.393-2.075a1 1 0 0 0 .208-1.689A5.316 5.316 0 0 1 4.5 6V3.5C4.5 2.455 6.32 1 8 1m0-1C5.791 0 3.5 1.845 3.5 3.5V6a6.268 6.268 0 0 0 1.9 4.427L1 12.5a1.705 1.705 0 0 0-1 1V15a1 1 0 0 0 1 1h14a1 1 0 0 0 1-1v-1.5a1.611 1.611 0 0 0-1-1l-4.354-2.066A6.056 6.056 0 0 0 12.5 6V3.5C12.5 1.844 10.208 0 8 0z"/></symbol><symbol id="vk" viewBox="0 0 548.358 548.358"><path d="M545.451 400.298c-.664-1.431-1.283-2.618-1.858-3.569-9.514-17.135-27.695-38.167-54.532-63.102l-.567-.571-.284-.28-.287-.287h-.288c-12.18-11.611-19.893-19.418-23.123-23.415-5.91-7.614-7.234-15.321-4.004-23.13 2.282-5.9 10.854-18.36 25.696-37.397 7.807-10.089 13.99-18.175 18.556-24.267 32.931-43.78 47.208-71.756 42.828-83.939l-1.701-2.847c-1.143-1.714-4.093-3.282-8.846-4.712-4.764-1.427-10.853-1.663-18.278-.712l-82.224.568c-1.332-.472-3.234-.428-5.712.144l-3.713.859-1.431.715-1.136.859c-.952.568-1.999 1.567-3.142 2.995-1.137 1.423-2.088 3.093-2.848 4.996-8.952 23.031-19.13 44.444-30.553 64.238-7.043 11.803-13.511 22.032-19.418 30.693-5.899 8.658-10.848 15.037-14.842 19.126-4 4.093-7.61 7.372-10.852 9.849-3.237 2.478-5.708 3.525-7.419 3.142-1.715-.383-3.33-.763-4.859-1.143-2.663-1.714-4.805-4.045-6.42-6.995-1.622-2.95-2.714-6.663-3.285-11.136-.568-4.476-.904-8.326-1-11.563-.089-3.233-.048-7.806.145-13.706.198-5.903.287-9.897.287-11.991 0-7.234.141-15.085.424-23.555.288-8.47.521-15.181.716-20.125.194-4.949.284-10.185.284-15.705s-.336-9.849-1-12.991a44.442 44.442 0 0 0-2.99-9.137c-1.335-2.95-3.289-5.232-5.853-6.852-2.569-1.618-5.763-2.902-9.564-3.856-10.089-2.283-22.936-3.518-38.547-3.71-35.401-.38-58.148 1.906-68.236 6.855-3.997 2.091-7.614 4.948-10.848 8.562-3.427 4.189-3.905 6.475-1.431 6.851 11.422 1.711 19.508 5.804 24.267 12.275l1.715 3.429c1.334 2.474 2.666 6.854 3.999 13.134 1.331 6.28 2.19 13.227 2.568 20.837.95 13.897.95 25.793 0 35.689-.953 9.9-1.853 17.607-2.712 23.127-.859 5.52-2.143 9.993-3.855 13.418-1.715 3.426-2.856 5.52-3.428 6.28-.571.76-1.047 1.239-1.425 1.427a21.387 21.387 0 0 1-7.71 1.431c-2.667 0-5.901-1.334-9.707-4-3.805-2.666-7.754-6.328-11.847-10.992-4.093-4.665-8.709-11.184-13.85-19.558-5.137-8.374-10.467-18.271-15.987-29.691l-4.567-8.282c-2.855-5.328-6.755-13.086-11.704-23.267-4.952-10.185-9.329-20.037-13.134-29.554-1.521-3.997-3.806-7.04-6.851-9.134l-1.429-.859c-.95-.76-2.475-1.567-4.567-2.427a30.301 30.301 0 0 0-6.567-1.854l-78.229.568c-7.994 0-13.418 1.811-16.274 5.428l-1.143 1.711c-.571.953-.859 2.475-.859 4.57 0 2.094.571 4.664 1.714 7.707 11.42 26.84 23.839 52.725 37.257 77.659 13.418 24.934 25.078 45.019 34.973 60.237 9.897 15.229 19.985 29.602 30.264 43.112 10.279 13.515 17.083 22.176 20.412 25.981 3.333 3.812 5.951 6.662 7.854 8.565l7.139 6.851c4.568 4.569 11.276 10.041 20.127 16.416 8.853 6.379 18.654 12.659 29.408 18.85 10.756 6.181 23.269 11.225 37.546 15.126 14.275 3.905 28.169 5.472 41.684 4.716h32.834c6.659-.575 11.704-2.669 15.133-6.283l1.136-1.431c.764-1.136 1.479-2.901 2.139-5.276.668-2.379 1-5 1-7.851-.195-8.183.428-15.558 1.852-22.124 1.423-6.564 3.045-11.513 4.859-14.846 1.813-3.33 3.859-6.14 6.136-8.418 2.282-2.283 3.908-3.666 4.862-4.142.948-.479 1.705-.804 2.276-.999 4.568-1.522 9.944-.048 16.136 4.429 6.187 4.473 11.99 9.996 17.418 16.56 5.425 6.57 11.943 13.941 19.555 22.124 7.617 8.186 14.277 14.271 19.985 18.274l5.708 3.426c3.812 2.286 8.761 4.38 14.853 6.283 6.081 1.902 11.409 2.378 15.984 1.427l73.087-1.14c7.229 0 12.854-1.197 16.844-3.572 3.998-2.379 6.373-5 7.139-7.851.764-2.854.805-6.092.145-9.712-.677-3.611-1.344-6.136-2.008-7.563z"/></symbol><symbol id="walking" viewBox="0 0 470.642 470.642"><path d="M223.821 76.022c10.333-.333 19-4.333 26-12s10.333-16.667 10-27c-.333-10.335-4.167-19.168-11.5-26.5-7.333-7.333-16.167-10.833-26.5-10.5s-19 4.333-26 12-10.5 16.667-10.5 27 3.833 19.167 11.5 26.5 16.667 10.833 27 10.5zM350.321 202.522l-55-30-45-72c-8.667-10.667-19.333-16-32-16-8.667 0-17 3.667-25 11l-68 69c-2 2.667-3.333 5.667-4 9l-9 77v2c0 4.666 1.667 8.666 5 12 3.333 3.332 7.333 5 12 5s8.5-1.668 11.5-5c3-3.334 4.833-7 5.5-11l7-66 24-24-22 184-39 87.001c-1.333 4-2 7.658-2 11.002 0 7.322 2.5 13.5 7.5 18.5s11.167 7.164 18.5 6.5c10 0 17.333-4.678 22-14l42-94.002c0-.67.333-1.835 1-3.5a59.614 59.614 0 0 1 2-4.5c.667-1.335 1-2.67 1-4l5-45.001 43 148.003c4.667 12 13 17.666 25 17 6.667 0 12.5-2.5 17.5-7.5s7.5-11.178 7.5-18.5c0-.678-.167-1.5-.5-2.5s-.5-1.836-.5-2.502l-60-205.001 7-67 17 27c1.333 2 3 3.667 5 5l59 33c4 1.333 6.667 2 8 2 4.667 0 8.667-1.833 12-5.5 3.333-3.668 5-7.834 5-12.5 0-6-2.667-10.667-8-14z"/></symbol><symbol id="wallet" viewBox="0 0 16 16"><path d="M15.988 4.18a1.626 1.626 0 0 0-1.215-1.69L3.6.008l-.1-.012A1.585 1.585 0 0 0 2 1.651V3.87h-.5A1.586 1.586 0 0 0 0 5.524v8.824A1.585 1.585 0 0 0 1.5 16h13a1.585 1.585 0 0 0 1.5-1.655M3.447 1.1l11.026 2.463a.45.45 0 0 1-.482.3h-11V1.646a.532.532 0 0 1 .456-.546zM15 14.348a.528.528 0 0 1-.5.552h-13a.528.528 0 0 1-.5-.552V5.524a.528.528 0 0 1 .5-.552H14a.876.876 0 0 0 1-.55v9.926zM3 8.836a1.109 1.109 0 1 1-1 1.1 1.055 1.055 0 0 1 1-1.1z"/></symbol><symbol id="western-greece" viewBox="0 0 64 72"><path d="M45.4 66.9c.515 1.802-2.274-.252-2.397 1.91-1.782 2.52-2.349-.912-3.603-1.41-1.156 1.952-3.35 2.951-5.6 2.5-.606-3.286-3.064-5.86-5.513-7.956-1.133-1.835-4.075-3.069-5.175-2.206.527-2.604-.041-6.029-3.075-6.788-3.434.707-3.485-4.216-.337-4.35 1.877-.592 2.622-2.63 4.1-3.8.73-1.362 3.025-1.066 3.937-.237.849 1.567 4.002.516 3.063 3.337.481 2.476 3.13 4.296 5.626 4 2.11.205 2.251-3.838 4.474-2.3-.426 1.667 2.98 3.355 1 4.2-1.641.499-2.842 2.123-2.5 3.861-1.163 2.552-.315 5.585 2.8 5.239 1.966.056 2.217 2.71 3.2 4zm.9-47.5c-.28 1.267-1.756 2.112-.063 3.075.259 1.617-2.958 1.728-.875 3.525.673 1.818-3.727 2.465-3.112 5.088-.194 2.275-2.313 1.797-3.65 1.312-.963 2.528-3.221 1.842-5 1.2-1.855.154-4.521 3.415-5.487.863 1.378-1.244-2.44-1.232-2.313-3.163-.325-.819-1.074-4.212-1.825-1.9 1.344 1.657.89 3.71-1.452 3.994-.358 1.352-2.494 1.81-3.66 1.294 0-.95-2.72-.247-.763-1.588.916-1.686-.4-4.047-1.065-5.6-1.653 1.094-1.757-1.038-1.035-2.096-1.526-1.4-.276-4.272-2.988-4.129-1.747-1.448-.347-6.024-3.375-3.337-2.369-.15-1.933-3.245-.237-3.438-.53-.805-2.2-2.809-.2-2.4.851 1.488 2.152-.286 2.5-.5.147 2.74 2.895-1.404 4.237.975-.037 1.807 2.064 2.902 2.063.825 1.036-.657 2.502 2.64 1.85-.013-1.102-1.865.877-3.703-1.25-5.287.236-2.139 2.342-3.472 3.996-2.1 1.675-.237 3.243-1.579 5.03-1.5 2.03-.085-.068 2.854.476 4.064-.7 2.469 3.172 1.689 2.198 4.136 1.334 1.67.98-2.813 1.5-.1-.936 1.751 3.043 1.909 1 4-1.342 3.145 2.165 4.684 4.65 4.95 2.28.738 5.236-.105 6.75-1.65.48-.218 1.417-.192 2.1-.5zm-3.6 33.7c-1.682-.857-1.01-4.081-3.2-3.8-1.031 1.572-2.472 3.272-4.613 2.638-2.773-.358-4.59-3.214-4.387-5.838-1.675-.202-2.687-1.732-4.2-2.1-1.563-.129-2.414.105-1-1.7-.933-3.155 2.55-3.943 4.4-1.9 2.56 1.896 5.316-.889 6.574-3.048 1.208-2.477 4.905-4.016 7.126-1.94 1.914 2.005 4.804 2.483 6.888 4.313C52.154 41.44 55.83 41 57.2 42.4c-.782 2.367-.305 5.615-2.7 6.6-1.55 1.567-2.141 3.69-2.7 5.4-.9 1.478-3.692-.036-5.313.563-1.306-.151-3.202-.547-3.787-1.863z" clip-rule="evenodd" fill-rule="evenodd" stroke="#fff" stroke-width=".5" stroke-miterlimit="8"/></symbol><symbol id="western-macedonia" viewBox="0 0 64 72"><path d="M13.4 47.3c1.667-1.86 4.336-3.676 6.938-3.325 2.328 1.434 4.398 3.146 7.301 1.725 2.87-1.865 5.818-.134 8.357 1.364 1.676 1.641 4.709 1.614 5.779 3.436.39 2.68 1.261 5.303 1.625 8 1.722 1.695 1.838 4.271 2.5 6.2.5 1.787-1.7 1.209-2.82 1.3-3.545-.703-7.031-2.112-10.717-1.8-3.138-.835-5.415 2.516-8.613 1.475-1.304-.957-2.808-2.166-4.799-1.775-3.394.57-3.756-2.612-4.076-4.938-.824-2.52-1.514-5.038-4.075-6.362-.338-2.111.305-4.61 2.6-5.3zM57.9 49c-1.767 2.84-3.319 6.042-6.276 7.861-2.032 1.35-5.13 3.337-7.049 3.202-1.928-1.988-1.484-5.108-2.513-7.613.316-2.646-1.591-3.329-3.662-3.963-2.56-1.332-5.05-3.445-8.005-3.652-2.536.393-5.866 2.523-7.995.265-1.18-1.4-3.641-1.142-4.528-1.158-.335-2.63.887-5.397 3.628-6.167 2.804-.578 5.928.12 8.597-1.14 2.01-.923 3.057-3.2 2.803-5.335.534-1.94 1.41-2.684 3.25-2.837.946-1.845 2.73-1.492 4.45-1.463 2.079-.824 5.122-1.998 5-4.688-.356-2.42 1.044-3.124 2.75-1.187 1.628.705 3.273.706 1.75 2.775-1.427 3.122-.42 7.44 2.927 8.856 2.231.98 4.338 2.765 4.273 5.344 1.07.913 2.14 1.778 2.703 3.225 1.755.789 2.472 1.522.697 2.875-1.04 1.529-2 3.14-2.8 4.8zm-25-17.5c.487 3.2-2.42 6.24-5.64 6.04-2.842.44-6.271-.488-8.315 2.147-1.945 1.859.186 5.366-3.158 5.738-1.59 1.045-2.315 2.864-3.837.9-3.397-.677-.323-4.39-2.55-5.925-1.814-.35-3.48 4.686-5.064 1.163-.52-2.994-3.389-4.27-1.436-7.263 1.206-3.358 5.67-.516 6.9-3.8 1.063-2.586 5.067-3.025 3.6-6.1-.097-2.374 3.82-1.74 4.2.2 2.738.21 3.833-3.188 4.9-5.2 2.382-1.83 3.712 1.385 5.4 2.4-.448 3.267 3.13 3.98 3.6 6.95.448.725.734 2.71 1.4 2.75zM46 19.8c-.414 1.667.045 3.61-1.236 4.972-1.743 1.269-3.71 2.613-5.967 2.2-1.858-.142-2.664 2.661-4.702 2.24-.55 1.42-1.135 3.51-1.714.852-.43-2.883-2.701-4.274-3.956-6.464.206-2.364-2.265-4.05-3.97-5-2.727-.161-2.562 3.628-4.455 4.9-2.473 3.024-3.18-2.7-5.863-.525-.667-.97-.905-3.859-3.137-4.275-1.68-2.433-1.602-7.745 2.262-7.781 2.527.698 4.85-.783 7.238-.819 2.204 2.688 5.463.856 7.325-1.238 2.135-1.168 4.614.726 6.425 1.838 2.912 1.83 4.129-2.36 6.05-3.325 1.747.458 3.713-.627 4.49-1.16.338 1.659.575 3.911-1.09 4.985-2.01 1.093-1.463 3.075.6 3.1 2.387 1.05 1.302 3.544 1.7 5.5z" clip-rule="evenodd" fill-rule="evenodd" stroke="#fff" stroke-width=".5" stroke-miterlimit="10"/></symbol><symbol id="wish" viewBox="0 0 18 18"><path d="M5.03 1.26c.55 0 1.546.29 3.163 2.05l.8.88.788-.89c1.127-1.27 2.32-2.05 3.12-2.05a3.527 3.527 0 0 1 2.76 1.32 4.923 4.923 0 0 1-.007 6.48c-.064.08-3.46 4.14-6.307 7.54a.5.5 0 0 1-.368.16.523.523 0 0 1-.366-.15c-.693-.86-5.72-7.05-6.305-7.7a4.923 4.923 0 0 1 0-6.47A3.445 3.445 0 0 1 5.03 1.26m0-1.25a4.483 4.483 0 0 0-3.52 1.54 6.26 6.26 0 0 0 0 8.23c.586.65 6.288 7.68 6.288 7.68a1.55 1.55 0 0 0 2.352 0s6.235-7.46 6.3-7.53a6.27 6.27 0 0 0 0-8.24A4.6 4.6 0 0 0 12.9 0c-1.328 0-2.81 1.18-3.917 2.42C7.84 1.18 6.403.01 5.03.01z"/></symbol></svg>